<?xml version="1.0" standalone="no"?>
<!DOCTYPE svg PUBLIC "-//W3C//DTD SVG 20010904//EN"
 "http://www.w3.org/TR/2001/REC-SVG-20010904/DTD/svg10.dtd">
<svg version="1.0" xmlns="http://www.w3.org/2000/svg"
 width="838.000000pt" height="838.000000pt" viewBox="0 0 838.000000 838.000000"
 preserveAspectRatio="xMidYMid meet">

<g transform="translate(0.000000,838.000000) scale(0.100000,-0.100000)"
fill="#000000" stroke="none">
<path d="M0 4190 l0 -4190 4190 0 4190 0 0 4190 0 4190 -4190 0 -4190 0 0
-4190z m1919 1720 c29 -29 31 -34 31 -104 0 -70 -2 -76 -30 -103 -29 -27 -30
-30 -30 -126 l0 -98 93 3 92 3 3 91 c3 85 1 93 -20 111 -37 30 -48 59 -48 124
0 56 3 64 34 95 42 42 82 45 125 8 30 -25 31 -28 31 -109 l0 -83 -35 -28 -36
-28 3 -91 3 -90 100 0 100 0 3 89 3 89 -36 29 c-35 29 -35 30 -35 113 0 81 1
84 31 109 45 38 89 35 128 -9 27 -32 31 -43 31 -96 0 -66 -11 -94 -47 -122
-22 -18 -24 -24 -21 -111 l3 -91 95 0 95 0 3 90 3 90 -36 35 c-33 32 -35 38
-35 100 0 91 34 139 98 140 26 0 41 -8 68 -36 31 -34 34 -42 34 -100 0 -59 -2
-66 -35 -98 l-35 -35 0 -96 0 -95 95 0 95 0 0 98 c0 94 -1 99 -24 111 -30 17
-51 85 -43 143 13 98 95 137 165 78 48 -40 39 -192 -13 -220 -24 -13 -25 -17
-25 -112 l0 -98 100 0 100 0 0 92 0 92 -35 32 c-34 31 -35 34 -35 106 0 92 22
126 87 135 34 4 43 1 71 -27 30 -30 32 -36 32 -105 0 -68 -2 -75 -30 -102 -29
-27 -30 -30 -30 -126 l0 -98 93 3 92 3 3 88 c3 88 3 88 -33 129 -32 38 -35 47
-35 104 0 56 3 67 31 99 22 25 39 35 60 35 74 0 109 -46 109 -143 0 -62 -2
-66 -35 -96 l-35 -30 0 -95 0 -95 68 -3 67 -3 3 -67 3 -68 99 0 c87 0 101 2
109 19 6 10 26 26 45 35 73 34 177 7 197 -51 14 -43 4 -85 -27 -112 -20 -17
-37 -21 -99 -21 -73 0 -75 1 -102 35 l-28 35 -97 0 -98 0 0 -100 0 -100 97 0
97 0 27 33 c26 31 29 32 107 32 64 0 84 -4 100 -19 27 -24 36 -68 22 -110 -19
-58 -118 -84 -196 -51 -20 8 -38 24 -41 35 -5 18 -14 20 -109 20 l-104 0 0
-95 0 -95 105 0 c79 0 105 3 105 13 0 51 140 77 204 38 58 -36 61 -119 6 -159
-54 -40 -210 -21 -210 25 0 18 -35 24 -125 21 l-80 -3 0 -95 0 -95 98 -3 c93
-3 99 -1 104 18 8 30 54 50 118 50 97 0 144 -43 130 -119 -10 -55 -38 -70
-127 -71 -65 0 -81 3 -98 20 -11 11 -20 24 -20 30 0 15 -39 21 -125 18 l-80
-3 -3 -97 -3 -98 106 0 c73 0 105 4 105 12 0 6 7 20 17 30 23 26 168 26 200
-1 26 -22 38 -77 24 -113 -28 -73 -203 -79 -241 -8 -10 18 -21 20 -110 20
l-100 0 0 -95 0 -95 105 0 c77 0 105 3 105 13 0 6 13 21 28 32 37 27 150 29
176 3 10 -10 21 -18 26 -18 14 0 22 -83 11 -112 -6 -16 -17 -28 -25 -28 -8 0
-16 -5 -18 -12 -2 -6 -29 -13 -60 -16 -63 -5 -127 19 -136 50 -4 16 -16 18
-108 18 l-104 0 0 -95 0 -95 100 0 c90 0 100 2 110 21 37 68 214 63 241 -8 15
-40 2 -99 -26 -117 -35 -23 -172 -22 -197 1 -10 9 -18 22 -18 30 0 10 -24 13
-105 13 l-104 0 -3 -67 -3 -68 -67 -3 -68 -3 0 -93 0 -94 35 -35 c33 -33 35
-38 35 -103 -1 -51 -5 -75 -18 -90 -43 -51 -105 -58 -146 -17 -33 33 -40 59
-34 130 4 48 10 61 37 85 l32 28 -3 93 -3 92 -92 3 -93 3 0 -96 c0 -94 1 -97
30 -127 27 -27 30 -35 30 -97 0 -77 -13 -112 -49 -129 -37 -18 -64 -15 -102
11 -33 22 -34 24 -37 104 -3 76 -1 83 23 107 14 14 30 26 35 26 6 0 10 43 10
100 l0 100 -100 0 -100 0 0 -97 c0 -97 0 -98 30 -118 34 -23 47 -76 36 -153
-9 -67 -59 -103 -121 -88 -39 10 -63 40 -70 90 -10 65 2 114 36 148 28 28 29
33 29 124 l0 94 -95 0 -95 0 0 -97 c0 -90 2 -99 23 -118 36 -31 47 -59 47
-120 0 -51 -3 -60 -34 -91 -46 -46 -91 -47 -135 -2 -29 29 -31 37 -31 100 0
64 2 70 35 107 l36 39 -3 89 -3 88 -95 0 -95 0 -3 -88 -3 -89 36 -39 c33 -37
35 -43 35 -108 0 -64 -2 -72 -31 -100 -39 -40 -85 -42 -128 -5 -30 25 -31 29
-31 107 0 81 0 82 35 113 l36 31 -3 89 -3 89 -100 0 -100 0 -3 -90 -3 -91 36
-28 c35 -28 35 -28 35 -110 -1 -48 -6 -87 -13 -97 -31 -40 -97 -51 -133 -21
-32 26 -44 55 -44 112 0 56 18 101 50 123 19 13 21 23 18 108 l-3 94 -92 3
-93 3 0 -98 c1 -95 1 -99 30 -127 28 -27 30 -34 30 -104 0 -72 -1 -76 -32
-104 -34 -30 -68 -35 -111 -15 -72 33 -77 200 -7 237 18 10 20 21 20 110 l0
100 -54 0 c-83 0 -86 3 -86 76 l0 64 -96 0 c-94 0 -96 -1 -121 -30 -24 -29
-28 -30 -109 -30 -69 0 -87 3 -103 19 -44 44 -34 117 21 151 61 37 188 19 203
-29 6 -19 14 -21 106 -21 l99 0 0 95 0 95 -101 0 c-92 0 -101 -2 -106 -20 -3
-11 -11 -20 -18 -20 -7 0 -15 -5 -17 -12 -3 -7 -31 -13 -69 -15 -52 -3 -70 0
-97 16 -77 49 -63 148 24 182 59 22 153 -1 175 -42 8 -17 22 -19 109 -19 l100
0 0 95 0 95 -99 0 c-91 0 -100 -2 -106 -20 -11 -35 -61 -53 -133 -48 -58 4
-68 7 -94 37 -26 29 -29 39 -24 73 10 62 36 77 133 78 80 0 83 -1 105 -30 22
-30 22 -30 120 -30 l98 0 0 100 0 100 -94 0 -94 0 -26 -35 -27 -35 -83 0 c-73
0 -85 3 -104 23 -45 48 -36 124 19 152 34 18 128 20 163 3 14 -6 33 -22 41
-35 14 -21 22 -23 110 -23 l95 0 0 95 0 95 -105 0 c-69 0 -105 -4 -105 -11 0
-6 -10 -19 -22 -30 -31 -25 -138 -26 -178 -2 -56 33 -65 96 -21 145 25 28 36
32 91 36 70 5 124 -15 133 -49 5 -17 15 -19 106 -19 l101 0 0 95 0 95 -98 0
c-88 0 -98 -2 -110 -21 -29 -47 -129 -63 -192 -31 -43 21 -62 56 -55 100 9 51
38 73 105 79 71 7 127 -10 142 -43 11 -23 15 -24 110 -24 l98 0 0 100 0 100
-100 0 c-56 0 -100 -4 -100 -9 0 -6 -11 -21 -24 -35 -21 -23 -31 -26 -98 -26
-66 0 -78 3 -102 25 -53 49 -41 125 24 157 63 32 165 14 191 -33 8 -17 22 -19
109 -19 l100 0 0 64 c0 73 3 76 86 76 l54 0 0 100 c0 89 -2 100 -20 110 -29
16 -50 63 -50 115 0 116 95 175 169 105z m5231 -1365 l0 -1375 -1370 0 -1370
0 0 1375 0 1375 1370 0 1370 0 0 -1375z m-5384 -1890 c19 -21 24 -36 22 -64
l-3 -36 -52 -3 c-48 -3 -53 -1 -53 17 0 18 -6 21 -42 21 -55 0 -72 -11 -63
-39 4 -14 15 -21 33 -21 14 0 52 -5 85 -12 46 -10 65 -20 88 -45 41 -48 46
-78 20 -128 -34 -65 -69 -80 -181 -80 -82 0 -100 3 -133 23 -39 25 -51 50 -45
98 3 27 6 29 56 32 50 3 52 2 52 -22 0 -25 2 -26 65 -26 36 0 65 2 65 4 0 2 3
11 6 20 8 21 -55 46 -116 46 -40 0 -52 5 -82 34 -20 19 -38 47 -42 61 -8 31
22 115 40 115 6 0 17 6 24 14 17 21 44 25 143 21 81 -3 91 -6 113 -30z m492
-17 c3 -46 2 -48 -23 -48 l-26 0 3 -117 c3 -116 3 -117 28 -123 28 -7 37 -38
20 -70 -10 -19 -18 -20 -118 -18 l-107 3 -3 42 c-3 39 -1 42 25 45 l28 3 3
117 3 117 -28 3 c-25 3 -28 8 -31 42 -2 24 2 42 10 48 7 4 58 7 113 6 l100 -3
3 -47z m403 40 c8 -7 28 -32 43 -55 16 -24 33 -43 37 -43 5 0 9 -4 9 -10 0 -5
7 -18 16 -27 8 -10 23 -29 34 -43 10 -14 20 -23 22 -20 2 3 2 29 0 58 -3 36
-8 52 -18 52 -10 0 -14 14 -14 50 l0 51 103 -3 102 -3 0 -45 c0 -39 -3 -45
-22 -48 -23 -3 -23 -5 -23 -162 0 -173 1 -170 -63 -170 -42 0 -47 4 -101 75
-25 33 -50 65 -56 72 -5 7 -10 14 -10 17 0 3 -11 17 -25 31 l-24 27 2 -61 c1
-57 3 -61 25 -61 21 0 23 -3 20 -47 l-3 -48 -105 0 -105 0 0 45 c0 39 3 45 23
48 21 3 22 7 22 123 0 119 0 120 -22 117 -19 -3 -24 2 -26 30 -6 57 0 62 76
62 40 0 74 -5 83 -12z m864 4 c51 -17 65 -37 69 -98 5 -66 -1 -74 -56 -74 -40
0 -53 12 -53 50 0 22 -5 25 -38 28 -55 5 -104 -30 -112 -80 -16 -91 23 -138
113 -138 37 0 61 5 73 16 17 16 21 14 58 -19 43 -39 43 -40 -24 -82 -43 -27
-186 -26 -235 1 -73 40 -116 114 -114 199 1 82 66 173 139 194 35 11 151 12
180 3z m685 -63 l0 -70 -47 3 c-39 2 -48 6 -47 21 2 16 -5 18 -55 15 -50 -3
-56 -6 -59 -26 -5 -36 15 -52 65 -52 42 0 45 -2 39 -22 -3 -13 -6 -33 -6 -45
0 -21 -5 -23 -50 -23 -47 0 -50 -2 -50 -25 0 -24 3 -25 59 -25 51 0 61 3 66
20 5 16 15 20 50 20 l43 0 -1 -72 -2 -73 -170 -3 c-208 -3 -215 -2 -215 41 0
40 12 59 32 52 22 -9 26 11 24 135 -1 100 -2 105 -23 108 -26 4 -36 30 -27 66
l6 26 184 0 184 0 0 -71z m860 -82 c-2 -203 -5 -187 30 -187 28 0 30 -2 30
-40 0 -49 -8 -52 -145 -48 l-100 3 -3 42 c-3 41 -2 42 30 45 l33 3 3 97 3 96
-33 -1 c-31 -2 -33 0 -36 35 -2 28 2 40 20 52 12 9 32 16 43 16 12 0 25 4 31
9 12 12 77 29 87 24 5 -3 8 -69 7 -146z m573 123 c51 -30 67 -72 67 -177 0
-162 -31 -206 -152 -219 -124 -13 -208 26 -208 97 0 28 2 29 50 29 37 0 57 -5
72 -20 43 -40 118 -18 118 35 0 22 -3 26 -17 19 -10 -4 -45 -9 -78 -11 -52 -3
-65 0 -100 25 -31 22 -42 37 -49 70 -18 84 32 163 109 175 59 10 151 -1 188
-23z m615 3 c44 -28 62 -55 62 -99 0 -32 -5 -45 -22 -58 -21 -14 -22 -16 -6
-26 22 -14 41 -84 34 -125 -9 -46 -48 -75 -117 -87 -71 -12 -183 -2 -200 18
-6 8 -17 14 -23 14 -13 1 -46 64 -46 88 1 9 11 35 24 57 21 37 22 42 8 75 -28
68 9 142 82 161 48 13 172 2 204 -18z m650 0 c2 -13 -5 -40 -16 -60 -27 -53
-75 -156 -107 -232 -43 -103 -50 -111 -104 -111 -74 0 -80 9 -49 72 35 69 98
207 109 236 9 22 7 23 -33 20 -36 -3 -43 -7 -48 -28 -5 -23 -11 -25 -55 -25
l-50 0 -3 64 c-2 35 -1 70 2 78 5 11 39 13 178 11 171 -3 173 -3 176 -25z"/>
<path d="M2140 4545 l0 -475 480 0 480 0 0 363 0 362 -113 113 -112 112 -368
0 -367 0 0 -475z"/>
<path d="M4915 5433 c-11 -25 -19 -263 -11 -318 10 -65 24 -75 110 -75 47 0
77 -5 84 -12 10 -13 16 -946 6 -980 -7 -23 -59 -40 -90 -28 -49 19 -82 12 -98
-19 -20 -37 -25 -356 -7 -374 9 -9 126 -12 454 -13 243 -1 597 -3 787 -5 190
-2 355 0 367 5 34 11 37 42 25 233 -8 140 -8 185 3 239 15 69 12 107 -10 138
-13 17 -27 18 -183 14 -121 -2 -174 -7 -185 -17 -12 -9 -17 -35 -19 -92 l-3
-79 -258 -3 -257 -2 0 33 c0 18 -5 65 -11 103 -14 89 -2 126 45 134 36 7 227
11 305 6 44 -2 57 1 75 18 19 20 21 33 22 154 1 72 3 137 5 142 9 27 -12 76
-36 85 -15 6 -106 10 -203 10 -97 0 -184 5 -192 10 -20 12 -29 233 -10 255 10
12 41 15 151 15 76 0 171 5 211 11 53 8 81 7 102 0 28 -11 28 -11 21 -79 -6
-58 -4 -71 12 -90 17 -20 28 -21 186 -24 192 -3 180 -9 198 92 14 78 7 413
-10 480 l-12 45 -562 -2 c-309 -1 -578 -4 -597 -5 -19 -1 -119 1 -221 5 -174
8 -187 7 -194 -10z"/>
<path d="M5478 2580 c-24 -15 -23 -57 1 -70 62 -33 146 18 97 59 -20 17 -78
23 -98 11z"/>
<path d="M6098 2589 c-25 -14 -22 -36 7 -55 31 -20 71 -12 80 17 13 40 -42 65
-87 38z"/>
<path d="M6080 2420 c-13 -25 1 -56 30 -65 27 -9 87 12 94 32 18 45 -101 76
-124 33z"/>
</g>
</svg>
