%TF.GenerationSoftware,KiCad,Pcbnew,8.0.2*%
%TF.CreationDate,2024-05-24T20:03:17+02:00*%
%TF.ProjectId,STM32-Breakout,53544d33-322d-4427-9265-616b6f75742e,rev?*%
%TF.SameCoordinates,Original*%
%TF.FileFunction,Soldermask,Top*%
%TF.FilePolarity,Negative*%
%FSLAX46Y46*%
G04 Gerber Fmt 4.6, Leading zero omitted, Abs format (unit mm)*
G04 Created by KiCad (PCBNEW 8.0.2) date 2024-05-24 20:03:17*
%MOMM*%
%LPD*%
G01*
G04 APERTURE LIST*
G04 Aperture macros list*
%AMRoundRect*
0 Rectangle with rounded corners*
0 $1 Rounding radius*
0 $2 $3 $4 $5 $6 $7 $8 $9 X,Y pos of 4 corners*
0 Add a 4 corners polygon primitive as box body*
4,1,4,$2,$3,$4,$5,$6,$7,$8,$9,$2,$3,0*
0 Add four circle primitives for the rounded corners*
1,1,$1+$1,$2,$3*
1,1,$1+$1,$4,$5*
1,1,$1+$1,$6,$7*
1,1,$1+$1,$8,$9*
0 Add four rect primitives between the rounded corners*
20,1,$1+$1,$2,$3,$4,$5,0*
20,1,$1+$1,$4,$5,$6,$7,0*
20,1,$1+$1,$6,$7,$8,$9,0*
20,1,$1+$1,$8,$9,$2,$3,0*%
G04 Aperture macros list end*
%ADD10RoundRect,0.147500X0.172500X-0.147500X0.172500X0.147500X-0.172500X0.147500X-0.172500X-0.147500X0*%
%ADD11R,0.900000X1.700000*%
%ADD12RoundRect,0.140000X-0.140000X-0.170000X0.140000X-0.170000X0.140000X0.170000X-0.140000X0.170000X0*%
%ADD13RoundRect,0.068750X0.068750X-0.281250X0.068750X0.281250X-0.068750X0.281250X-0.068750X-0.281250X0*%
%ADD14RoundRect,0.061250X-0.163750X-0.061250X0.163750X-0.061250X0.163750X0.061250X-0.163750X0.061250X0*%
%ADD15R,1.700000X1.950000*%
%ADD16RoundRect,0.140000X-0.170000X0.140000X-0.170000X-0.140000X0.170000X-0.140000X0.170000X0.140000X0*%
%ADD17RoundRect,0.135000X0.185000X-0.135000X0.185000X0.135000X-0.185000X0.135000X-0.185000X-0.135000X0*%
%ADD18RoundRect,0.218750X0.256250X-0.218750X0.256250X0.218750X-0.256250X0.218750X-0.256250X-0.218750X0*%
%ADD19C,2.200000*%
%ADD20RoundRect,0.225000X-0.225000X-0.250000X0.225000X-0.250000X0.225000X0.250000X-0.225000X0.250000X0*%
%ADD21R,0.600000X1.100000*%
%ADD22RoundRect,0.225000X0.225000X0.250000X-0.225000X0.250000X-0.225000X-0.250000X0.225000X-0.250000X0*%
%ADD23RoundRect,0.140000X0.140000X0.170000X-0.140000X0.170000X-0.140000X-0.170000X0.140000X-0.170000X0*%
%ADD24RoundRect,0.140000X0.170000X-0.140000X0.170000X0.140000X-0.170000X0.140000X-0.170000X-0.140000X0*%
%ADD25RoundRect,0.087500X-0.187500X-0.087500X0.187500X-0.087500X0.187500X0.087500X-0.187500X0.087500X0*%
%ADD26RoundRect,0.175000X-0.175000X-0.625000X0.175000X-0.625000X0.175000X0.625000X-0.175000X0.625000X0*%
%ADD27RoundRect,0.218750X-0.218750X-0.381250X0.218750X-0.381250X0.218750X0.381250X-0.218750X0.381250X0*%
%ADD28RoundRect,0.147500X-0.147500X-0.172500X0.147500X-0.172500X0.147500X0.172500X-0.147500X0.172500X0*%
%ADD29RoundRect,0.135000X-0.135000X-0.185000X0.135000X-0.185000X0.135000X0.185000X-0.135000X0.185000X0*%
%ADD30RoundRect,0.218750X-0.218750X-0.256250X0.218750X-0.256250X0.218750X0.256250X-0.218750X0.256250X0*%
%ADD31R,0.800000X0.900000*%
%ADD32C,0.990600*%
%ADD33C,0.787400*%
%ADD34RoundRect,0.062500X0.062500X-0.375000X0.062500X0.375000X-0.062500X0.375000X-0.062500X-0.375000X0*%
%ADD35RoundRect,0.062500X0.375000X-0.062500X0.375000X0.062500X-0.375000X0.062500X-0.375000X-0.062500X0*%
%ADD36R,5.600000X5.600000*%
G04 APERTURE END LIST*
D10*
%TO.C,L2*%
X142890000Y-83615000D03*
X142890000Y-82645000D03*
%TD*%
D11*
%TO.C,RST1*%
X134800000Y-97600000D03*
X131400000Y-97600000D03*
%TD*%
D12*
%TO.C,C3*%
X145710000Y-93610000D03*
X146670000Y-93610000D03*
%TD*%
D13*
%TO.C,FLT1*%
X154407500Y-87700000D03*
D14*
X155020000Y-87472500D03*
D13*
X155632500Y-87700000D03*
D14*
X155020000Y-87927500D03*
%TD*%
D15*
%TO.C,J3*%
X148175000Y-102000000D03*
X145675000Y-102000000D03*
X143175000Y-102000000D03*
X140675000Y-102000000D03*
%TD*%
D16*
%TO.C,C4*%
X148863000Y-88614400D03*
X148863000Y-89574400D03*
%TD*%
D17*
%TO.C,R1*%
X135000000Y-91610000D03*
X135000000Y-90590000D03*
%TD*%
D18*
%TO.C,Q1*%
X155150000Y-96537500D03*
X155150000Y-94962500D03*
%TD*%
D16*
%TO.C,C2*%
X139350000Y-87670000D03*
X139350000Y-88630000D03*
%TD*%
D19*
%TO.C,H4*%
X155000000Y-79000000D03*
%TD*%
D20*
%TO.C,C16*%
X144200000Y-83725000D03*
X145750000Y-83725000D03*
%TD*%
D21*
%TO.C,Y2*%
X142560000Y-94340000D03*
X143960000Y-94340000D03*
%TD*%
D17*
%TO.C,R2*%
X133100000Y-91610000D03*
X133100000Y-90590000D03*
%TD*%
D12*
%TO.C,C13*%
X145710000Y-94660000D03*
X146670000Y-94660000D03*
%TD*%
D22*
%TO.C,C18*%
X141025000Y-81790000D03*
X139475000Y-81790000D03*
%TD*%
D12*
%TO.C,C15*%
X143960000Y-95830000D03*
X144920000Y-95830000D03*
%TD*%
D16*
%TO.C,C8*%
X150263000Y-87689400D03*
X150263000Y-88649400D03*
%TD*%
D23*
%TO.C,C12*%
X134430000Y-86900000D03*
X133470000Y-86900000D03*
%TD*%
D24*
%TO.C,C10*%
X148858018Y-86024400D03*
X148858018Y-85064400D03*
%TD*%
%TO.C,C11*%
X149869678Y-86024400D03*
X149869678Y-85064400D03*
%TD*%
D25*
%TO.C,U2*%
X133100000Y-88200000D03*
X133100000Y-89200000D03*
X134950000Y-89200000D03*
X134950000Y-88200000D03*
D26*
X134025000Y-88700000D03*
%TD*%
D16*
%TO.C,C1*%
X139150000Y-91670000D03*
X139150000Y-92630000D03*
%TD*%
D17*
%TO.C,R3*%
X148540000Y-99510000D03*
X148540000Y-98490000D03*
%TD*%
D23*
%TO.C,C7*%
X141080000Y-84190000D03*
X140120000Y-84190000D03*
%TD*%
D15*
%TO.C,J2*%
X134600000Y-77000000D03*
X137100000Y-77000000D03*
X139600000Y-77000000D03*
X142100000Y-77000000D03*
%TD*%
D19*
%TO.C,H2*%
X155000000Y-100000000D03*
%TD*%
D27*
%TO.C,L3*%
X142887500Y-81200000D03*
X145012500Y-81200000D03*
%TD*%
D28*
%TO.C,L1*%
X151278000Y-87669400D03*
X152248000Y-87669400D03*
%TD*%
D29*
%TO.C,R4*%
X153240000Y-93600000D03*
X154260000Y-93600000D03*
%TD*%
D30*
%TO.C,D1*%
X143702500Y-99430000D03*
X145277500Y-99430000D03*
%TD*%
D20*
%TO.C,C6*%
X137663000Y-93869400D03*
X139213000Y-93869400D03*
%TD*%
D23*
%TO.C,C14*%
X142560000Y-95830000D03*
X141600000Y-95830000D03*
%TD*%
D16*
%TO.C,C9*%
X153263000Y-87689400D03*
X153263000Y-88649400D03*
%TD*%
D23*
%TO.C,C17*%
X141010000Y-83090000D03*
X140050000Y-83090000D03*
%TD*%
D19*
%TO.C,H3*%
X137800000Y-99820000D03*
%TD*%
D23*
%TO.C,C5*%
X141421200Y-93602400D03*
X140461200Y-93602400D03*
%TD*%
D31*
%TO.C,Y1*%
X149050000Y-81600000D03*
X149050000Y-83000000D03*
X150150000Y-83000000D03*
X150150000Y-81600000D03*
%TD*%
D32*
%TO.C,J1*%
X136490000Y-81075000D03*
X131410000Y-82091000D03*
X131410000Y-80059000D03*
D33*
X135220000Y-80440000D03*
X135220000Y-81710000D03*
X133950000Y-80440000D03*
X133950000Y-81710000D03*
X132680000Y-80440000D03*
X132680000Y-81710000D03*
%TD*%
D34*
%TO.C,U1*%
X141400000Y-92362500D03*
X141900000Y-92362500D03*
X142400000Y-92362500D03*
X142900000Y-92362500D03*
X143400000Y-92362500D03*
X143900000Y-92362500D03*
X144400000Y-92362500D03*
X144900000Y-92362500D03*
X145400000Y-92362500D03*
X145900000Y-92362500D03*
X146400000Y-92362500D03*
X146900000Y-92362500D03*
D35*
X147587500Y-91675000D03*
X147587500Y-91175000D03*
X147587500Y-90675000D03*
X147587500Y-90175000D03*
X147587500Y-89675000D03*
X147587500Y-89175000D03*
X147587500Y-88675000D03*
X147587500Y-88175000D03*
X147587500Y-87675000D03*
X147587500Y-87175000D03*
X147587500Y-86675000D03*
X147587500Y-86175000D03*
D34*
X146900000Y-85487500D03*
X146400000Y-85487500D03*
X145900000Y-85487500D03*
X145400000Y-85487500D03*
X144900000Y-85487500D03*
X144400000Y-85487500D03*
X143900000Y-85487500D03*
X143400000Y-85487500D03*
X142900000Y-85487500D03*
X142400000Y-85487500D03*
X141900000Y-85487500D03*
X141400000Y-85487500D03*
D35*
X140712500Y-86175000D03*
X140712500Y-86675000D03*
X140712500Y-87175000D03*
X140712500Y-87675000D03*
X140712500Y-88175000D03*
X140712500Y-88675000D03*
X140712500Y-89175000D03*
X140712500Y-89675000D03*
X140712500Y-90175000D03*
X140712500Y-90675000D03*
X140712500Y-91175000D03*
X140712500Y-91675000D03*
D36*
X144150000Y-88925000D03*
%TD*%
M02*
