%TF.GenerationSoftware,KiCad,Pcbnew,8.0.2*%
%TF.CreationDate,2024-05-24T20:03:17+02:00*%
%TF.ProjectId,STM32-Breakout,53544d33-322d-4427-9265-616b6f75742e,rev?*%
%TF.SameCoordinates,Original*%
%TF.FileFunction,Copper,L2,Inr*%
%TF.FilePolarity,Positive*%
%FSLAX46Y46*%
G04 Gerber Fmt 4.6, Leading zero omitted, Abs format (unit mm)*
G04 Created by KiCad (PCBNEW 8.0.2) date 2024-05-24 20:03:17*
%MOMM*%
%LPD*%
G01*
G04 APERTURE LIST*
%TA.AperFunction,CastellatedPad*%
%ADD10R,1.700000X1.950000*%
%TD*%
%TA.AperFunction,ComponentPad*%
%ADD11R,0.500000X0.900000*%
%TD*%
%TA.AperFunction,ViaPad*%
%ADD12C,0.700000*%
%TD*%
%TA.AperFunction,ViaPad*%
%ADD13C,0.500000*%
%TD*%
G04 APERTURE END LIST*
D10*
%TO.N,GND*%
%TO.C,J3*%
X140675000Y-102000000D03*
%TD*%
%TO.N,GND*%
%TO.C,J2*%
X142100000Y-77000000D03*
%TD*%
D11*
%TO.N,GND*%
%TO.C,AE1*%
X158820000Y-82800000D03*
%TD*%
D12*
%TO.N,GND*%
X148850000Y-90400000D03*
D13*
X145200000Y-89800000D03*
D12*
X140160000Y-96600000D03*
X158000000Y-79000000D03*
D13*
X141963000Y-86719400D03*
X145200000Y-87600000D03*
D12*
X152000000Y-101000000D03*
D13*
X146413000Y-91169400D03*
D12*
X158000000Y-93000000D03*
X146510000Y-98680000D03*
X149375000Y-100500000D03*
D13*
X148975000Y-83675000D03*
D12*
X158000000Y-81000000D03*
X158300000Y-86075000D03*
X158000000Y-78000000D03*
X158000000Y-83000000D03*
X131000000Y-101000000D03*
D13*
X143200000Y-89800000D03*
D12*
X155500000Y-83650000D03*
X152700000Y-96800000D03*
X132775000Y-96900000D03*
X158000000Y-89000000D03*
X141450000Y-78500000D03*
X142000000Y-99000000D03*
X158000000Y-101000000D03*
X144400000Y-96750000D03*
X139200000Y-84050000D03*
X139200000Y-83100000D03*
X139250000Y-94750000D03*
X140000000Y-101000000D03*
X153250000Y-98650000D03*
D13*
X152950000Y-81425000D03*
D12*
X138550000Y-88180000D03*
X148000000Y-97000000D03*
X158000000Y-99000000D03*
X135000000Y-101000000D03*
D13*
X146363000Y-88869400D03*
D12*
X158000000Y-91000000D03*
D13*
X132000000Y-81000000D03*
D12*
X153820000Y-85920000D03*
D13*
X149400000Y-86750000D03*
D12*
X158000000Y-94000000D03*
X158000000Y-87000000D03*
X153000000Y-79100000D03*
X132375000Y-94050000D03*
X150175000Y-80025000D03*
X157000000Y-101000000D03*
D13*
X146313000Y-86719400D03*
D12*
X158000000Y-98000000D03*
X142825000Y-78525000D03*
X154875000Y-98175000D03*
X158000000Y-100000000D03*
X158000000Y-84000000D03*
D13*
X144063000Y-91119400D03*
D12*
X158000000Y-82000000D03*
X131900000Y-83975000D03*
X148125000Y-78575000D03*
X153000000Y-83000000D03*
X144575000Y-100475000D03*
X146550000Y-80100000D03*
X147940000Y-95090000D03*
X158000000Y-92000000D03*
X138950000Y-78900000D03*
X158000000Y-95000000D03*
D13*
X141913000Y-88919400D03*
D12*
X133470000Y-86050000D03*
X157000000Y-78000000D03*
X153450000Y-90050000D03*
X158000000Y-90000000D03*
X158000000Y-88000000D03*
D13*
X141963000Y-91169400D03*
D12*
X158000000Y-80000000D03*
X145000000Y-78000000D03*
D13*
X144113000Y-86719400D03*
D12*
X158000000Y-97000000D03*
X155025000Y-81800000D03*
D13*
X143200000Y-87600000D03*
D12*
X146925000Y-82325000D03*
X158000000Y-96000000D03*
X152000000Y-91000000D03*
D13*
X133250000Y-79750000D03*
D12*
X151000000Y-78000000D03*
X140413000Y-94569400D03*
D13*
X150800000Y-84500000D03*
X151600000Y-83400000D03*
X156425000Y-80725000D03*
%TD*%
%TA.AperFunction,Conductor*%
%TO.N,GND*%
G36*
X133924184Y-77320185D02*
G01*
X133960247Y-77355609D01*
X134033359Y-77465028D01*
X134033362Y-77465032D01*
X134134967Y-77566637D01*
X134134971Y-77566640D01*
X134254445Y-77646471D01*
X134254458Y-77646478D01*
X134332620Y-77678853D01*
X134387213Y-77701466D01*
X134387215Y-77701466D01*
X134387220Y-77701468D01*
X134528145Y-77729499D01*
X134528149Y-77729500D01*
X134528150Y-77729500D01*
X134671851Y-77729500D01*
X134671852Y-77729499D01*
X134718829Y-77720155D01*
X134812779Y-77701468D01*
X134812782Y-77701466D01*
X134812787Y-77701466D01*
X134945548Y-77646475D01*
X135065029Y-77566640D01*
X135166640Y-77465029D01*
X135205949Y-77406198D01*
X135239753Y-77355609D01*
X135293365Y-77310804D01*
X135342855Y-77300500D01*
X136357145Y-77300500D01*
X136424184Y-77320185D01*
X136460247Y-77355609D01*
X136533359Y-77465028D01*
X136533362Y-77465032D01*
X136634967Y-77566637D01*
X136634971Y-77566640D01*
X136754445Y-77646471D01*
X136754458Y-77646478D01*
X136832620Y-77678853D01*
X136887213Y-77701466D01*
X136887215Y-77701466D01*
X136887220Y-77701468D01*
X137028145Y-77729499D01*
X137028149Y-77729500D01*
X137028150Y-77729500D01*
X137171851Y-77729500D01*
X137171852Y-77729499D01*
X137218829Y-77720155D01*
X137312779Y-77701468D01*
X137312782Y-77701466D01*
X137312787Y-77701466D01*
X137445548Y-77646475D01*
X137565029Y-77566640D01*
X137666640Y-77465029D01*
X137705949Y-77406198D01*
X137739753Y-77355609D01*
X137793365Y-77310804D01*
X137842855Y-77300500D01*
X138857145Y-77300500D01*
X138924184Y-77320185D01*
X138960247Y-77355609D01*
X139033359Y-77465028D01*
X139033362Y-77465032D01*
X139134967Y-77566637D01*
X139134971Y-77566640D01*
X139254445Y-77646471D01*
X139254458Y-77646478D01*
X139332620Y-77678853D01*
X139387213Y-77701466D01*
X139387215Y-77701466D01*
X139387220Y-77701468D01*
X139528145Y-77729499D01*
X139528149Y-77729500D01*
X139528150Y-77729500D01*
X139671851Y-77729500D01*
X139671852Y-77729499D01*
X139718829Y-77720155D01*
X139812779Y-77701468D01*
X139812782Y-77701466D01*
X139812787Y-77701466D01*
X139945548Y-77646475D01*
X140065029Y-77566640D01*
X140166640Y-77465029D01*
X140205949Y-77406198D01*
X140239753Y-77355609D01*
X140293365Y-77310804D01*
X140342855Y-77300500D01*
X158575500Y-77300500D01*
X158642539Y-77320185D01*
X158688294Y-77372989D01*
X158699500Y-77424500D01*
X158699500Y-80037598D01*
X158704498Y-80052978D01*
X158710235Y-80070636D01*
X158710773Y-80072290D01*
X158712616Y-80078511D01*
X158719980Y-80105993D01*
X158723089Y-80113499D01*
X158722799Y-80113618D01*
X158727988Y-80125275D01*
X158728912Y-80128119D01*
X158728914Y-80128123D01*
X158728915Y-80128125D01*
X158743814Y-80148632D01*
X158750882Y-80159515D01*
X158759537Y-80174507D01*
X158759541Y-80174512D01*
X158763889Y-80178860D01*
X158776521Y-80193648D01*
X158784866Y-80205134D01*
X158784867Y-80205134D01*
X158784868Y-80205136D01*
X158796344Y-80213474D01*
X158811138Y-80226110D01*
X158815486Y-80230458D01*
X158815488Y-80230459D01*
X158815489Y-80230460D01*
X158828437Y-80237935D01*
X158830477Y-80239113D01*
X158841365Y-80246184D01*
X158861871Y-80261083D01*
X158861877Y-80261086D01*
X158864712Y-80262007D01*
X158876389Y-80267205D01*
X158876510Y-80266914D01*
X158884007Y-80270019D01*
X158884011Y-80270021D01*
X158911504Y-80277387D01*
X158917704Y-80279225D01*
X158952400Y-80290499D01*
X158952403Y-80290499D01*
X158952405Y-80290500D01*
X158952406Y-80290500D01*
X158962042Y-80292026D01*
X158961560Y-80295068D01*
X159013039Y-80310185D01*
X159058794Y-80362989D01*
X159070000Y-80414500D01*
X159070000Y-98575500D01*
X159050315Y-98642539D01*
X158997511Y-98688294D01*
X158961743Y-98696075D01*
X158962044Y-98697974D01*
X158952399Y-98699501D01*
X158917699Y-98710775D01*
X158911482Y-98712617D01*
X158884007Y-98719979D01*
X158876510Y-98723085D01*
X158876390Y-98722796D01*
X158864727Y-98727987D01*
X158861880Y-98728912D01*
X158861873Y-98728915D01*
X158841364Y-98743816D01*
X158830486Y-98750880D01*
X158815491Y-98759538D01*
X158811133Y-98763896D01*
X158796349Y-98776522D01*
X158784866Y-98784866D01*
X158776525Y-98796346D01*
X158763896Y-98811133D01*
X158759538Y-98815491D01*
X158750880Y-98830486D01*
X158743816Y-98841364D01*
X158728915Y-98861873D01*
X158728912Y-98861880D01*
X158727987Y-98864727D01*
X158722796Y-98876390D01*
X158723085Y-98876510D01*
X158719979Y-98884007D01*
X158712617Y-98911482D01*
X158710775Y-98917699D01*
X158699501Y-98952399D01*
X158699500Y-98952408D01*
X158699500Y-101575500D01*
X158679815Y-101642539D01*
X158627011Y-101688294D01*
X158575500Y-101699500D01*
X148917855Y-101699500D01*
X148850816Y-101679815D01*
X148814753Y-101644391D01*
X148741640Y-101534971D01*
X148741637Y-101534967D01*
X148640032Y-101433362D01*
X148640028Y-101433359D01*
X148520554Y-101353528D01*
X148520541Y-101353521D01*
X148387788Y-101298534D01*
X148387779Y-101298531D01*
X148246854Y-101270500D01*
X148246850Y-101270500D01*
X148103150Y-101270500D01*
X148103145Y-101270500D01*
X147962220Y-101298531D01*
X147962211Y-101298534D01*
X147829458Y-101353521D01*
X147829445Y-101353528D01*
X147709971Y-101433359D01*
X147709967Y-101433362D01*
X147608362Y-101534967D01*
X147608359Y-101534971D01*
X147535247Y-101644391D01*
X147481635Y-101689196D01*
X147432145Y-101699500D01*
X146417855Y-101699500D01*
X146350816Y-101679815D01*
X146314753Y-101644391D01*
X146241640Y-101534971D01*
X146241637Y-101534967D01*
X146140032Y-101433362D01*
X146140028Y-101433359D01*
X146020554Y-101353528D01*
X146020541Y-101353521D01*
X145887788Y-101298534D01*
X145887779Y-101298531D01*
X145746854Y-101270500D01*
X145746850Y-101270500D01*
X145603150Y-101270500D01*
X145603145Y-101270500D01*
X145462220Y-101298531D01*
X145462211Y-101298534D01*
X145329458Y-101353521D01*
X145329445Y-101353528D01*
X145209971Y-101433359D01*
X145209967Y-101433362D01*
X145108362Y-101534967D01*
X145108359Y-101534971D01*
X145035247Y-101644391D01*
X144981635Y-101689196D01*
X144932145Y-101699500D01*
X143917855Y-101699500D01*
X143850816Y-101679815D01*
X143814753Y-101644391D01*
X143741640Y-101534971D01*
X143741637Y-101534967D01*
X143640032Y-101433362D01*
X143640028Y-101433359D01*
X143520554Y-101353528D01*
X143520541Y-101353521D01*
X143387788Y-101298534D01*
X143387779Y-101298531D01*
X143246854Y-101270500D01*
X143246850Y-101270500D01*
X143103150Y-101270500D01*
X143103145Y-101270500D01*
X142962220Y-101298531D01*
X142962211Y-101298534D01*
X142829458Y-101353521D01*
X142829445Y-101353528D01*
X142709971Y-101433359D01*
X142709967Y-101433362D01*
X142608362Y-101534967D01*
X142608359Y-101534971D01*
X142535247Y-101644391D01*
X142481635Y-101689196D01*
X142432145Y-101699500D01*
X130424500Y-101699500D01*
X130357461Y-101679815D01*
X130311706Y-101627011D01*
X130300500Y-101575500D01*
X130300500Y-99713399D01*
X136445500Y-99713399D01*
X136445500Y-99926600D01*
X136478853Y-100137180D01*
X136478853Y-100137183D01*
X136544734Y-100339944D01*
X136544736Y-100339947D01*
X136641528Y-100529913D01*
X136766846Y-100702397D01*
X136917603Y-100853154D01*
X137090087Y-100978472D01*
X137280053Y-101075264D01*
X137280055Y-101075265D01*
X137469182Y-101136715D01*
X137482821Y-101141147D01*
X137693399Y-101174500D01*
X137693400Y-101174500D01*
X137906600Y-101174500D01*
X137906601Y-101174500D01*
X138117179Y-101141147D01*
X138117182Y-101141146D01*
X138117183Y-101141146D01*
X138319944Y-101075265D01*
X138319944Y-101075264D01*
X138319947Y-101075264D01*
X138509913Y-100978472D01*
X138682397Y-100853154D01*
X138833154Y-100702397D01*
X138958472Y-100529913D01*
X139055264Y-100339947D01*
X139121147Y-100137179D01*
X139154500Y-99926601D01*
X139154500Y-99893399D01*
X153645500Y-99893399D01*
X153645500Y-100106600D01*
X153678853Y-100317180D01*
X153678853Y-100317183D01*
X153744734Y-100519944D01*
X153744736Y-100519947D01*
X153841528Y-100709913D01*
X153966846Y-100882397D01*
X154117603Y-101033154D01*
X154290087Y-101158472D01*
X154480053Y-101255264D01*
X154480055Y-101255265D01*
X154613225Y-101298534D01*
X154682821Y-101321147D01*
X154893399Y-101354500D01*
X154893400Y-101354500D01*
X155106600Y-101354500D01*
X155106601Y-101354500D01*
X155317179Y-101321147D01*
X155317182Y-101321146D01*
X155317183Y-101321146D01*
X155519944Y-101255265D01*
X155519944Y-101255264D01*
X155519947Y-101255264D01*
X155709913Y-101158472D01*
X155882397Y-101033154D01*
X156033154Y-100882397D01*
X156158472Y-100709913D01*
X156255264Y-100519947D01*
X156255265Y-100519944D01*
X156321146Y-100317183D01*
X156321146Y-100317182D01*
X156321147Y-100317179D01*
X156354500Y-100106601D01*
X156354500Y-99893399D01*
X156321147Y-99682821D01*
X156321146Y-99682817D01*
X156321146Y-99682816D01*
X156255265Y-99480055D01*
X156255263Y-99480052D01*
X156163551Y-99300055D01*
X156158472Y-99290087D01*
X156033154Y-99117603D01*
X155882397Y-98966846D01*
X155709913Y-98841528D01*
X155519947Y-98744736D01*
X155519944Y-98744734D01*
X155317181Y-98678853D01*
X155176793Y-98656617D01*
X155106601Y-98645500D01*
X154893399Y-98645500D01*
X154823206Y-98656617D01*
X154682819Y-98678853D01*
X154682816Y-98678853D01*
X154480055Y-98744734D01*
X154480052Y-98744736D01*
X154290086Y-98841528D01*
X154117601Y-98966847D01*
X153966847Y-99117601D01*
X153841528Y-99290086D01*
X153744736Y-99480052D01*
X153744734Y-99480055D01*
X153678853Y-99682816D01*
X153678853Y-99682819D01*
X153645500Y-99893399D01*
X139154500Y-99893399D01*
X139154500Y-99713399D01*
X139121147Y-99502821D01*
X139121146Y-99502817D01*
X139121146Y-99502816D01*
X139055265Y-99300055D01*
X139055263Y-99300052D01*
X139050186Y-99290086D01*
X138958472Y-99110087D01*
X138833154Y-98937603D01*
X138682397Y-98786846D01*
X138509913Y-98661528D01*
X138319947Y-98564736D01*
X138319944Y-98564734D01*
X138117181Y-98498853D01*
X137976793Y-98476617D01*
X137906601Y-98465500D01*
X137693399Y-98465500D01*
X137623206Y-98476617D01*
X137482819Y-98498853D01*
X137482816Y-98498853D01*
X137280055Y-98564734D01*
X137280052Y-98564736D01*
X137090086Y-98661528D01*
X136917601Y-98786847D01*
X136766847Y-98937601D01*
X136641528Y-99110086D01*
X136544736Y-99300052D01*
X136544734Y-99300055D01*
X136478853Y-99502816D01*
X136478853Y-99502819D01*
X136445500Y-99713399D01*
X130300500Y-99713399D01*
X130300500Y-97550000D01*
X149640826Y-97550000D01*
X149659425Y-97679362D01*
X149659426Y-97679367D01*
X149713717Y-97798246D01*
X149713718Y-97798248D01*
X149799305Y-97897021D01*
X149909252Y-97967679D01*
X149909254Y-97967679D01*
X149909255Y-97967680D01*
X150034652Y-98004500D01*
X150034653Y-98004500D01*
X150165347Y-98004500D01*
X150290748Y-97967679D01*
X150400695Y-97897021D01*
X150486282Y-97798248D01*
X150540574Y-97679364D01*
X150559174Y-97550000D01*
X150540574Y-97420636D01*
X150540573Y-97420635D01*
X150540573Y-97420632D01*
X150486282Y-97301753D01*
X150486282Y-97301752D01*
X150400695Y-97202979D01*
X150290748Y-97132321D01*
X150290746Y-97132320D01*
X150290744Y-97132319D01*
X150165348Y-97095500D01*
X150165347Y-97095500D01*
X150034653Y-97095500D01*
X150034652Y-97095500D01*
X149909255Y-97132319D01*
X149799306Y-97202978D01*
X149713719Y-97301750D01*
X149713717Y-97301753D01*
X149659426Y-97420632D01*
X149659425Y-97420637D01*
X149640826Y-97550000D01*
X130300500Y-97550000D01*
X130300500Y-96275000D01*
X136265826Y-96275000D01*
X136284425Y-96404362D01*
X136284426Y-96404367D01*
X136338717Y-96523246D01*
X136338718Y-96523248D01*
X136424305Y-96622021D01*
X136534252Y-96692679D01*
X136534254Y-96692679D01*
X136534255Y-96692680D01*
X136659652Y-96729500D01*
X136659653Y-96729500D01*
X136790347Y-96729500D01*
X136915748Y-96692679D01*
X137025695Y-96622021D01*
X137111282Y-96523248D01*
X137165574Y-96404364D01*
X137184174Y-96275000D01*
X137165574Y-96145636D01*
X137165573Y-96145635D01*
X137165573Y-96145632D01*
X137121899Y-96050000D01*
X137121898Y-96049997D01*
X150691081Y-96049997D01*
X150691081Y-96050002D01*
X150708646Y-96160909D01*
X150759626Y-96260965D01*
X150839034Y-96340373D01*
X150939090Y-96391353D01*
X151049998Y-96408919D01*
X151050000Y-96408919D01*
X151050002Y-96408919D01*
X151160909Y-96391353D01*
X151160910Y-96391352D01*
X151160912Y-96391352D01*
X151260967Y-96340372D01*
X151340372Y-96260967D01*
X151391352Y-96160912D01*
X151391352Y-96160910D01*
X151391353Y-96160909D01*
X151408919Y-96050002D01*
X151408919Y-96049997D01*
X151391353Y-95939090D01*
X151340373Y-95839034D01*
X151260965Y-95759626D01*
X151160909Y-95708646D01*
X151050002Y-95691081D01*
X151049998Y-95691081D01*
X150939090Y-95708646D01*
X150839034Y-95759626D01*
X150759626Y-95839034D01*
X150708646Y-95939090D01*
X150691081Y-96049997D01*
X137121898Y-96049997D01*
X137111282Y-96026752D01*
X137025695Y-95927979D01*
X136915748Y-95857321D01*
X136915746Y-95857320D01*
X136915744Y-95857319D01*
X136790348Y-95820500D01*
X136790347Y-95820500D01*
X136659653Y-95820500D01*
X136659652Y-95820500D01*
X136534255Y-95857319D01*
X136424306Y-95927978D01*
X136338719Y-96026750D01*
X136338717Y-96026753D01*
X136284426Y-96145632D01*
X136284425Y-96145637D01*
X136265826Y-96275000D01*
X130300500Y-96275000D01*
X130300500Y-93900000D01*
X134640826Y-93900000D01*
X134659425Y-94029362D01*
X134659426Y-94029367D01*
X134713717Y-94148246D01*
X134713718Y-94148248D01*
X134799305Y-94247021D01*
X134909252Y-94317679D01*
X134909254Y-94317679D01*
X134909255Y-94317680D01*
X135034652Y-94354500D01*
X135034653Y-94354500D01*
X135165347Y-94354500D01*
X135290748Y-94317679D01*
X135400695Y-94247021D01*
X135486282Y-94148248D01*
X135537559Y-94035967D01*
X135540573Y-94029367D01*
X135540574Y-94029362D01*
X135559174Y-93900000D01*
X135548390Y-93824997D01*
X152166081Y-93824997D01*
X152166081Y-93825002D01*
X152183646Y-93935909D01*
X152234626Y-94035965D01*
X152314034Y-94115373D01*
X152414090Y-94166353D01*
X152524998Y-94183919D01*
X152525000Y-94183919D01*
X152525002Y-94183919D01*
X152635909Y-94166353D01*
X152635910Y-94166352D01*
X152635912Y-94166352D01*
X152735967Y-94115372D01*
X152815372Y-94035967D01*
X152866352Y-93935912D01*
X152866352Y-93935910D01*
X152866353Y-93935909D01*
X152879960Y-93849997D01*
X154791081Y-93849997D01*
X154791081Y-93850002D01*
X154808646Y-93960909D01*
X154859626Y-94060965D01*
X154939034Y-94140373D01*
X155039090Y-94191353D01*
X155149998Y-94208919D01*
X155150000Y-94208919D01*
X155150002Y-94208919D01*
X155260909Y-94191353D01*
X155260910Y-94191352D01*
X155260912Y-94191352D01*
X155360967Y-94140372D01*
X155440372Y-94060967D01*
X155491352Y-93960912D01*
X155491352Y-93960910D01*
X155491353Y-93960909D01*
X155508919Y-93850002D01*
X155508919Y-93849997D01*
X155491353Y-93739090D01*
X155440373Y-93639034D01*
X155360965Y-93559626D01*
X155260909Y-93508646D01*
X155150002Y-93491081D01*
X155149998Y-93491081D01*
X155039090Y-93508646D01*
X154939034Y-93559626D01*
X154859626Y-93639034D01*
X154808646Y-93739090D01*
X154791081Y-93849997D01*
X152879960Y-93849997D01*
X152883919Y-93825002D01*
X152883919Y-93824997D01*
X152866353Y-93714090D01*
X152815373Y-93614034D01*
X152735965Y-93534626D01*
X152635909Y-93483646D01*
X152525002Y-93466081D01*
X152524998Y-93466081D01*
X152414090Y-93483646D01*
X152314034Y-93534626D01*
X152234626Y-93614034D01*
X152183646Y-93714090D01*
X152166081Y-93824997D01*
X135548390Y-93824997D01*
X135540574Y-93770636D01*
X135540573Y-93770635D01*
X135540573Y-93770632D01*
X135486282Y-93651753D01*
X135486282Y-93651752D01*
X135400695Y-93552979D01*
X135290748Y-93482321D01*
X135290746Y-93482320D01*
X135290744Y-93482319D01*
X135165348Y-93445500D01*
X135165347Y-93445500D01*
X135034653Y-93445500D01*
X135034652Y-93445500D01*
X134909255Y-93482319D01*
X134799306Y-93552978D01*
X134713719Y-93651750D01*
X134713717Y-93651753D01*
X134659426Y-93770632D01*
X134659425Y-93770637D01*
X134640826Y-93900000D01*
X130300500Y-93900000D01*
X130300500Y-92600000D01*
X132640826Y-92600000D01*
X132659425Y-92729362D01*
X132659426Y-92729367D01*
X132705093Y-92829362D01*
X132713718Y-92848248D01*
X132799305Y-92947021D01*
X132909252Y-93017679D01*
X132909254Y-93017679D01*
X132909255Y-93017680D01*
X133034652Y-93054500D01*
X133034653Y-93054500D01*
X133165347Y-93054500D01*
X133290748Y-93017679D01*
X133400695Y-92947021D01*
X133486282Y-92848248D01*
X133540574Y-92729364D01*
X133544796Y-92700000D01*
X134040826Y-92700000D01*
X134059425Y-92829362D01*
X134059426Y-92829367D01*
X134113158Y-92947021D01*
X134113718Y-92948248D01*
X134199305Y-93047021D01*
X134309252Y-93117679D01*
X134309254Y-93117679D01*
X134309255Y-93117680D01*
X134434652Y-93154500D01*
X134434653Y-93154500D01*
X134565347Y-93154500D01*
X134690748Y-93117679D01*
X134800695Y-93047021D01*
X134886282Y-92948248D01*
X134940574Y-92829364D01*
X134959174Y-92700000D01*
X134940574Y-92570636D01*
X134940573Y-92570635D01*
X134940573Y-92570632D01*
X134886282Y-92451753D01*
X134886282Y-92451752D01*
X134800695Y-92352979D01*
X134690748Y-92282321D01*
X134690746Y-92282320D01*
X134690744Y-92282319D01*
X134565348Y-92245500D01*
X134565347Y-92245500D01*
X134434653Y-92245500D01*
X134434652Y-92245500D01*
X134309255Y-92282319D01*
X134199306Y-92352978D01*
X134113719Y-92451750D01*
X134113717Y-92451753D01*
X134059426Y-92570632D01*
X134059425Y-92570637D01*
X134040826Y-92700000D01*
X133544796Y-92700000D01*
X133559174Y-92600000D01*
X133540574Y-92470636D01*
X133540573Y-92470635D01*
X133540573Y-92470632D01*
X133486842Y-92352979D01*
X133486282Y-92351752D01*
X133400695Y-92252979D01*
X133290748Y-92182321D01*
X133290746Y-92182320D01*
X133290744Y-92182319D01*
X133165348Y-92145500D01*
X133165347Y-92145500D01*
X133034653Y-92145500D01*
X133034652Y-92145500D01*
X132909255Y-92182319D01*
X132799306Y-92252978D01*
X132713719Y-92351750D01*
X132713717Y-92351753D01*
X132659426Y-92470632D01*
X132659425Y-92470637D01*
X132640826Y-92600000D01*
X130300500Y-92600000D01*
X130300500Y-92100000D01*
X153490826Y-92100000D01*
X153509425Y-92229362D01*
X153509426Y-92229367D01*
X153533610Y-92282321D01*
X153563718Y-92348248D01*
X153649305Y-92447021D01*
X153759252Y-92517679D01*
X153759254Y-92517679D01*
X153759255Y-92517680D01*
X153884652Y-92554500D01*
X153884653Y-92554500D01*
X154015347Y-92554500D01*
X154140748Y-92517679D01*
X154250695Y-92447021D01*
X154336282Y-92348248D01*
X154374919Y-92263643D01*
X154390573Y-92229367D01*
X154390574Y-92229362D01*
X154409174Y-92100000D01*
X154390574Y-91970636D01*
X154390573Y-91970635D01*
X154390573Y-91970632D01*
X154336282Y-91851753D01*
X154336282Y-91851752D01*
X154250695Y-91752979D01*
X154140748Y-91682321D01*
X154140746Y-91682320D01*
X154140744Y-91682319D01*
X154015348Y-91645500D01*
X154015347Y-91645500D01*
X153884653Y-91645500D01*
X153884652Y-91645500D01*
X153759255Y-91682319D01*
X153649306Y-91752978D01*
X153563719Y-91851750D01*
X153563717Y-91851753D01*
X153509426Y-91970632D01*
X153509425Y-91970637D01*
X153490826Y-92100000D01*
X130300500Y-92100000D01*
X130300500Y-86100000D01*
X133990826Y-86100000D01*
X134009425Y-86229362D01*
X134009426Y-86229367D01*
X134063717Y-86348246D01*
X134063718Y-86348248D01*
X134149305Y-86447021D01*
X134259252Y-86517679D01*
X134259254Y-86517679D01*
X134259255Y-86517680D01*
X134384652Y-86554500D01*
X134384653Y-86554500D01*
X134515347Y-86554500D01*
X134640748Y-86517679D01*
X134750695Y-86447021D01*
X134836282Y-86348248D01*
X134890574Y-86229364D01*
X134909174Y-86100000D01*
X134890574Y-85970636D01*
X134890573Y-85970635D01*
X134890573Y-85970632D01*
X134836282Y-85851753D01*
X134836282Y-85851752D01*
X134750695Y-85752979D01*
X134640748Y-85682321D01*
X134640746Y-85682320D01*
X134640744Y-85682319D01*
X134515348Y-85645500D01*
X134515347Y-85645500D01*
X134384653Y-85645500D01*
X134384652Y-85645500D01*
X134259255Y-85682319D01*
X134149306Y-85752978D01*
X134063719Y-85851750D01*
X134063717Y-85851753D01*
X134009426Y-85970632D01*
X134009425Y-85970637D01*
X133990826Y-86100000D01*
X130300500Y-86100000D01*
X130300500Y-84449996D01*
X151740458Y-84449996D01*
X151740458Y-84450003D01*
X151760500Y-84576551D01*
X151760501Y-84576554D01*
X151760502Y-84576555D01*
X151818674Y-84690723D01*
X151818676Y-84690725D01*
X151818678Y-84690728D01*
X151909271Y-84781321D01*
X151909273Y-84781322D01*
X151909277Y-84781326D01*
X152023445Y-84839498D01*
X152023446Y-84839498D01*
X152023448Y-84839499D01*
X152149997Y-84859542D01*
X152150000Y-84859542D01*
X152150003Y-84859542D01*
X152276551Y-84839499D01*
X152276552Y-84839498D01*
X152276555Y-84839498D01*
X152390723Y-84781326D01*
X152481326Y-84690723D01*
X152539498Y-84576555D01*
X152559542Y-84450000D01*
X152559542Y-84449996D01*
X152539499Y-84323448D01*
X152539498Y-84323446D01*
X152539498Y-84323445D01*
X152481326Y-84209277D01*
X152481322Y-84209273D01*
X152481321Y-84209271D01*
X152390728Y-84118678D01*
X152390725Y-84118676D01*
X152390723Y-84118674D01*
X152276555Y-84060502D01*
X152276554Y-84060501D01*
X152276551Y-84060500D01*
X152150003Y-84040458D01*
X152149997Y-84040458D01*
X152023448Y-84060500D01*
X151967493Y-84089011D01*
X151909277Y-84118674D01*
X151909276Y-84118675D01*
X151909271Y-84118678D01*
X151818678Y-84209271D01*
X151818675Y-84209276D01*
X151760500Y-84323448D01*
X151740458Y-84449996D01*
X130300500Y-84449996D01*
X130300500Y-83199996D01*
X134515458Y-83199996D01*
X134515458Y-83200003D01*
X134535500Y-83326551D01*
X134535501Y-83326554D01*
X134535502Y-83326555D01*
X134593674Y-83440723D01*
X134593676Y-83440725D01*
X134593678Y-83440728D01*
X134684271Y-83531321D01*
X134684273Y-83531322D01*
X134684277Y-83531326D01*
X134798445Y-83589498D01*
X134798446Y-83589498D01*
X134798448Y-83589499D01*
X134924997Y-83609542D01*
X134925000Y-83609542D01*
X134925003Y-83609542D01*
X135051551Y-83589499D01*
X135051553Y-83589498D01*
X135051555Y-83589498D01*
X135078085Y-83575979D01*
X135146754Y-83563083D01*
X135211495Y-83589359D01*
X135251752Y-83646465D01*
X135254745Y-83716270D01*
X135247175Y-83737975D01*
X135209427Y-83820629D01*
X135209425Y-83820637D01*
X135190826Y-83950000D01*
X135209425Y-84079362D01*
X135209426Y-84079367D01*
X135263717Y-84198246D01*
X135263718Y-84198248D01*
X135349305Y-84297021D01*
X135459252Y-84367679D01*
X135459254Y-84367679D01*
X135459255Y-84367680D01*
X135584652Y-84404500D01*
X135584653Y-84404500D01*
X135715347Y-84404500D01*
X135840748Y-84367679D01*
X135950695Y-84297021D01*
X136036282Y-84198248D01*
X136090574Y-84079364D01*
X136109174Y-83950000D01*
X136090574Y-83820636D01*
X136090573Y-83820635D01*
X136090573Y-83820632D01*
X136036282Y-83701753D01*
X136036282Y-83701752D01*
X135950695Y-83602979D01*
X135840748Y-83532321D01*
X135840746Y-83532320D01*
X135840744Y-83532319D01*
X135715348Y-83495500D01*
X135715347Y-83495500D01*
X135584653Y-83495500D01*
X135584652Y-83495500D01*
X135459252Y-83532320D01*
X135457368Y-83533181D01*
X135455317Y-83533475D01*
X135450743Y-83534819D01*
X135450549Y-83534161D01*
X135388210Y-83543125D01*
X135324654Y-83514100D01*
X135286879Y-83455323D01*
X135286879Y-83385453D01*
X135295372Y-83364091D01*
X135314498Y-83326555D01*
X135314499Y-83326551D01*
X135334542Y-83200003D01*
X135334542Y-83199996D01*
X135314499Y-83073448D01*
X135314498Y-83073446D01*
X135314498Y-83073445D01*
X135256326Y-82959277D01*
X135256322Y-82959273D01*
X135256321Y-82959271D01*
X135165728Y-82868678D01*
X135165725Y-82868676D01*
X135165723Y-82868674D01*
X135129068Y-82849997D01*
X137091081Y-82849997D01*
X137091081Y-82850002D01*
X137108646Y-82960909D01*
X137159626Y-83060965D01*
X137239034Y-83140373D01*
X137339090Y-83191353D01*
X137449998Y-83208919D01*
X137450000Y-83208919D01*
X137450002Y-83208919D01*
X137560909Y-83191353D01*
X137560910Y-83191352D01*
X137560912Y-83191352D01*
X137660967Y-83140372D01*
X137740372Y-83060967D01*
X137791352Y-82960912D01*
X137791352Y-82960910D01*
X137791353Y-82960909D01*
X137808919Y-82850002D01*
X137808919Y-82849997D01*
X137791353Y-82739090D01*
X137740373Y-82639034D01*
X137660965Y-82559626D01*
X137560909Y-82508646D01*
X137450002Y-82491081D01*
X137449998Y-82491081D01*
X137339090Y-82508646D01*
X137239034Y-82559626D01*
X137159626Y-82639034D01*
X137108646Y-82739090D01*
X137091081Y-82849997D01*
X135129068Y-82849997D01*
X135051555Y-82810502D01*
X135051554Y-82810501D01*
X135051551Y-82810500D01*
X134925003Y-82790458D01*
X134924997Y-82790458D01*
X134798448Y-82810500D01*
X134742493Y-82839011D01*
X134684277Y-82868674D01*
X134684276Y-82868675D01*
X134684271Y-82868678D01*
X134593678Y-82959271D01*
X134593675Y-82959276D01*
X134593674Y-82959277D01*
X134592841Y-82960912D01*
X134535500Y-83073448D01*
X134515458Y-83199996D01*
X130300500Y-83199996D01*
X130300500Y-82017146D01*
X130660200Y-82017146D01*
X130660200Y-82164853D01*
X130689012Y-82309701D01*
X130689014Y-82309709D01*
X130745534Y-82446160D01*
X130745539Y-82446170D01*
X130827591Y-82568969D01*
X130827594Y-82568973D01*
X130932026Y-82673405D01*
X130932030Y-82673408D01*
X131054829Y-82755460D01*
X131054833Y-82755462D01*
X131054836Y-82755464D01*
X131191291Y-82811986D01*
X131336146Y-82840799D01*
X131336150Y-82840800D01*
X131336151Y-82840800D01*
X131483850Y-82840800D01*
X131483851Y-82840799D01*
X131628709Y-82811986D01*
X131765164Y-82755464D01*
X131887970Y-82673408D01*
X131992408Y-82568970D01*
X132074464Y-82446164D01*
X132130986Y-82309709D01*
X132159800Y-82164849D01*
X132159800Y-82017151D01*
X132130986Y-81872291D01*
X132074464Y-81735836D01*
X132074462Y-81735833D01*
X132074460Y-81735829D01*
X131992408Y-81613030D01*
X131992405Y-81613026D01*
X131887973Y-81508594D01*
X131887969Y-81508591D01*
X131765170Y-81426539D01*
X131765160Y-81426534D01*
X131628709Y-81370014D01*
X131628701Y-81370012D01*
X131483853Y-81341200D01*
X131483849Y-81341200D01*
X131336151Y-81341200D01*
X131336146Y-81341200D01*
X131191298Y-81370012D01*
X131191290Y-81370014D01*
X131054839Y-81426534D01*
X131054829Y-81426539D01*
X130932030Y-81508591D01*
X130932026Y-81508594D01*
X130827594Y-81613026D01*
X130827591Y-81613030D01*
X130745539Y-81735829D01*
X130745534Y-81735839D01*
X130689014Y-81872290D01*
X130689012Y-81872298D01*
X130660200Y-82017146D01*
X130300500Y-82017146D01*
X130300500Y-81001146D01*
X135740200Y-81001146D01*
X135740200Y-81148853D01*
X135769012Y-81293701D01*
X135769014Y-81293709D01*
X135825534Y-81430160D01*
X135825539Y-81430170D01*
X135907591Y-81552969D01*
X135907594Y-81552973D01*
X136012026Y-81657405D01*
X136012030Y-81657408D01*
X136139901Y-81742849D01*
X136138731Y-81744599D01*
X136181762Y-81786851D01*
X136197237Y-81854986D01*
X136173418Y-81920670D01*
X136129774Y-81957753D01*
X136059276Y-81993674D01*
X136059271Y-81993678D01*
X135968678Y-82084271D01*
X135968675Y-82084276D01*
X135910500Y-82198448D01*
X135890458Y-82324996D01*
X135890458Y-82325003D01*
X135910500Y-82451551D01*
X135910501Y-82451554D01*
X135910502Y-82451555D01*
X135968674Y-82565723D01*
X135968676Y-82565725D01*
X135968678Y-82565728D01*
X136059271Y-82656321D01*
X136059273Y-82656322D01*
X136059277Y-82656326D01*
X136173445Y-82714498D01*
X136173446Y-82714498D01*
X136173448Y-82714499D01*
X136299997Y-82734542D01*
X136300000Y-82734542D01*
X136300003Y-82734542D01*
X136426551Y-82714499D01*
X136426552Y-82714498D01*
X136426555Y-82714498D01*
X136540723Y-82656326D01*
X136631326Y-82565723D01*
X136689498Y-82451555D01*
X136690352Y-82446164D01*
X136709542Y-82325003D01*
X136709542Y-82324996D01*
X136689499Y-82198448D01*
X136689498Y-82198446D01*
X136689498Y-82198445D01*
X136631326Y-82084277D01*
X136631322Y-82084273D01*
X136631321Y-82084271D01*
X136567744Y-82020694D01*
X136534259Y-81959371D01*
X136539243Y-81889679D01*
X136581115Y-81833746D01*
X136631231Y-81811396D01*
X136708709Y-81795986D01*
X136845164Y-81739464D01*
X136967970Y-81657408D01*
X137072408Y-81552970D01*
X137154464Y-81430164D01*
X137210986Y-81293709D01*
X137239800Y-81148849D01*
X137239800Y-81001151D01*
X137210986Y-80856291D01*
X137154464Y-80719836D01*
X137154462Y-80719833D01*
X137154460Y-80719829D01*
X137072408Y-80597030D01*
X137072405Y-80597026D01*
X136967973Y-80492594D01*
X136967969Y-80492591D01*
X136845170Y-80410539D01*
X136845160Y-80410534D01*
X136819729Y-80400000D01*
X137890826Y-80400000D01*
X137909425Y-80529362D01*
X137909426Y-80529367D01*
X137949758Y-80617680D01*
X137963718Y-80648248D01*
X138049305Y-80747021D01*
X138159252Y-80817679D01*
X138159254Y-80817679D01*
X138159255Y-80817680D01*
X138284652Y-80854500D01*
X138284653Y-80854500D01*
X138415347Y-80854500D01*
X138540748Y-80817679D01*
X138650695Y-80747021D01*
X138736282Y-80648248D01*
X138774919Y-80563643D01*
X138790573Y-80529367D01*
X138790574Y-80529362D01*
X138809174Y-80400000D01*
X138790574Y-80270636D01*
X138790573Y-80270635D01*
X138790573Y-80270632D01*
X138758316Y-80200000D01*
X140540826Y-80200000D01*
X140559425Y-80329362D01*
X140559426Y-80329367D01*
X140613717Y-80448246D01*
X140613718Y-80448248D01*
X140699305Y-80547021D01*
X140809252Y-80617679D01*
X140809254Y-80617679D01*
X140809255Y-80617680D01*
X140934652Y-80654500D01*
X140934653Y-80654500D01*
X141065347Y-80654500D01*
X141190748Y-80617679D01*
X141300695Y-80547021D01*
X141386282Y-80448248D01*
X141440574Y-80329364D01*
X141459174Y-80200000D01*
X141440574Y-80070636D01*
X141440573Y-80070635D01*
X141440573Y-80070632D01*
X141386282Y-79951753D01*
X141386282Y-79951752D01*
X141300695Y-79852979D01*
X141190748Y-79782321D01*
X141190746Y-79782320D01*
X141190744Y-79782319D01*
X141065348Y-79745500D01*
X141065347Y-79745500D01*
X140934653Y-79745500D01*
X140934652Y-79745500D01*
X140809255Y-79782319D01*
X140699306Y-79852978D01*
X140613719Y-79951750D01*
X140613717Y-79951753D01*
X140559426Y-80070632D01*
X140559425Y-80070637D01*
X140540826Y-80200000D01*
X138758316Y-80200000D01*
X138746676Y-80174512D01*
X138736282Y-80151752D01*
X138650695Y-80052979D01*
X138540748Y-79982321D01*
X138540746Y-79982320D01*
X138540744Y-79982319D01*
X138415348Y-79945500D01*
X138415347Y-79945500D01*
X138284653Y-79945500D01*
X138284652Y-79945500D01*
X138159255Y-79982319D01*
X138049306Y-80052978D01*
X137963719Y-80151750D01*
X137963717Y-80151753D01*
X137909426Y-80270632D01*
X137909425Y-80270637D01*
X137890826Y-80400000D01*
X136819729Y-80400000D01*
X136708709Y-80354014D01*
X136708701Y-80354012D01*
X136563853Y-80325200D01*
X136563849Y-80325200D01*
X136416151Y-80325200D01*
X136416146Y-80325200D01*
X136271298Y-80354012D01*
X136271290Y-80354014D01*
X136134839Y-80410534D01*
X136134829Y-80410539D01*
X136012030Y-80492591D01*
X136012026Y-80492594D01*
X135907594Y-80597026D01*
X135907591Y-80597030D01*
X135825539Y-80719829D01*
X135825534Y-80719839D01*
X135769014Y-80856290D01*
X135769012Y-80856298D01*
X135740200Y-81001146D01*
X130300500Y-81001146D01*
X130300500Y-79985146D01*
X130660200Y-79985146D01*
X130660200Y-80132853D01*
X130689012Y-80277701D01*
X130689014Y-80277709D01*
X130745534Y-80414160D01*
X130745539Y-80414170D01*
X130827591Y-80536969D01*
X130827594Y-80536973D01*
X130932026Y-80641405D01*
X130932030Y-80641408D01*
X131054829Y-80723460D01*
X131054833Y-80723462D01*
X131054836Y-80723464D01*
X131191291Y-80779986D01*
X131336146Y-80808799D01*
X131336150Y-80808800D01*
X131336151Y-80808800D01*
X131483850Y-80808800D01*
X131483851Y-80808799D01*
X131628709Y-80779986D01*
X131765164Y-80723464D01*
X131887970Y-80641408D01*
X131992408Y-80536970D01*
X132073362Y-80415811D01*
X132074460Y-80414170D01*
X132074460Y-80414169D01*
X132074464Y-80414164D01*
X132130986Y-80277709D01*
X132159800Y-80132849D01*
X132159800Y-79985151D01*
X132130986Y-79840291D01*
X132074464Y-79703836D01*
X132074462Y-79703833D01*
X132074460Y-79703829D01*
X132071902Y-79700000D01*
X136940826Y-79700000D01*
X136959425Y-79829362D01*
X136959426Y-79829367D01*
X137012463Y-79945500D01*
X137013718Y-79948248D01*
X137099305Y-80047021D01*
X137209252Y-80117679D01*
X137209254Y-80117679D01*
X137209255Y-80117680D01*
X137334652Y-80154500D01*
X137334653Y-80154500D01*
X137465347Y-80154500D01*
X137590748Y-80117679D01*
X137700695Y-80047021D01*
X137786282Y-79948248D01*
X137824919Y-79863643D01*
X137840573Y-79829367D01*
X137840574Y-79829362D01*
X137859174Y-79700000D01*
X137840574Y-79570636D01*
X137840573Y-79570635D01*
X137840573Y-79570632D01*
X137786282Y-79451753D01*
X137786282Y-79451752D01*
X137700695Y-79352979D01*
X137590748Y-79282321D01*
X137590746Y-79282320D01*
X137590744Y-79282319D01*
X137465348Y-79245500D01*
X137465347Y-79245500D01*
X137334653Y-79245500D01*
X137334652Y-79245500D01*
X137209255Y-79282319D01*
X137099306Y-79352978D01*
X137013719Y-79451750D01*
X137013717Y-79451753D01*
X136959426Y-79570632D01*
X136959425Y-79570637D01*
X136940826Y-79700000D01*
X132071902Y-79700000D01*
X131992408Y-79581030D01*
X131992405Y-79581026D01*
X131887973Y-79476594D01*
X131887969Y-79476591D01*
X131765170Y-79394539D01*
X131765160Y-79394534D01*
X131628709Y-79338014D01*
X131628701Y-79338012D01*
X131483853Y-79309200D01*
X131483849Y-79309200D01*
X131336151Y-79309200D01*
X131336146Y-79309200D01*
X131191298Y-79338012D01*
X131191290Y-79338014D01*
X131054839Y-79394534D01*
X131054829Y-79394539D01*
X130932030Y-79476591D01*
X130932026Y-79476594D01*
X130827594Y-79581026D01*
X130827591Y-79581030D01*
X130745539Y-79703829D01*
X130745534Y-79703839D01*
X130689014Y-79840290D01*
X130689012Y-79840298D01*
X130660200Y-79985146D01*
X130300500Y-79985146D01*
X130300500Y-79200000D01*
X134540826Y-79200000D01*
X134559425Y-79329362D01*
X134559426Y-79329367D01*
X134590884Y-79398249D01*
X134613718Y-79448248D01*
X134699305Y-79547021D01*
X134809252Y-79617679D01*
X134809254Y-79617679D01*
X134809255Y-79617680D01*
X134934652Y-79654500D01*
X134934653Y-79654500D01*
X135065347Y-79654500D01*
X135190748Y-79617679D01*
X135300695Y-79547021D01*
X135386282Y-79448248D01*
X135424919Y-79363643D01*
X135440573Y-79329367D01*
X135440574Y-79329363D01*
X135447338Y-79282319D01*
X135455856Y-79223071D01*
X135474216Y-79182870D01*
X135467027Y-79167128D01*
X135675782Y-79167128D01*
X135701332Y-79223072D01*
X135709425Y-79279363D01*
X135709426Y-79279367D01*
X135762022Y-79394534D01*
X135763718Y-79398248D01*
X135849305Y-79497021D01*
X135959252Y-79567679D01*
X135959254Y-79567679D01*
X135959255Y-79567680D01*
X136084652Y-79604500D01*
X136084653Y-79604500D01*
X136215347Y-79604500D01*
X136340748Y-79567679D01*
X136450695Y-79497021D01*
X136536282Y-79398248D01*
X136574919Y-79313643D01*
X136590573Y-79279367D01*
X136590574Y-79279362D01*
X136595443Y-79245500D01*
X136609174Y-79150000D01*
X136590574Y-79020636D01*
X136590573Y-79020635D01*
X136590573Y-79020632D01*
X136536282Y-78901753D01*
X136536282Y-78901752D01*
X136529044Y-78893399D01*
X153645500Y-78893399D01*
X153645500Y-79106601D01*
X153652374Y-79150000D01*
X153678853Y-79317180D01*
X153678853Y-79317183D01*
X153744734Y-79519944D01*
X153744736Y-79519947D01*
X153841528Y-79709913D01*
X153966846Y-79882397D01*
X154117603Y-80033154D01*
X154290087Y-80158472D01*
X154480053Y-80255264D01*
X154480055Y-80255265D01*
X154609716Y-80297394D01*
X154682821Y-80321147D01*
X154893399Y-80354500D01*
X154893400Y-80354500D01*
X155106600Y-80354500D01*
X155106601Y-80354500D01*
X155317179Y-80321147D01*
X155317182Y-80321146D01*
X155317183Y-80321146D01*
X155519944Y-80255265D01*
X155519944Y-80255264D01*
X155519947Y-80255264D01*
X155709913Y-80158472D01*
X155882397Y-80033154D01*
X156033154Y-79882397D01*
X156158472Y-79709913D01*
X156255264Y-79519947D01*
X156269351Y-79476591D01*
X156321146Y-79317183D01*
X156321146Y-79317182D01*
X156321147Y-79317179D01*
X156354500Y-79106601D01*
X156354500Y-78893399D01*
X156321147Y-78682821D01*
X156321146Y-78682817D01*
X156321146Y-78682816D01*
X156255265Y-78480055D01*
X156255263Y-78480052D01*
X156158471Y-78290086D01*
X156033154Y-78117603D01*
X155882397Y-77966846D01*
X155709913Y-77841528D01*
X155519947Y-77744736D01*
X155519944Y-77744734D01*
X155317181Y-77678853D01*
X155176793Y-77656617D01*
X155106601Y-77645500D01*
X154893399Y-77645500D01*
X154823206Y-77656617D01*
X154682819Y-77678853D01*
X154682816Y-77678853D01*
X154480055Y-77744734D01*
X154480052Y-77744736D01*
X154290086Y-77841528D01*
X154117601Y-77966847D01*
X153966847Y-78117601D01*
X153841528Y-78290086D01*
X153744736Y-78480052D01*
X153744734Y-78480055D01*
X153678853Y-78682816D01*
X153678853Y-78682819D01*
X153659821Y-78802979D01*
X153645500Y-78893399D01*
X136529044Y-78893399D01*
X136450695Y-78802979D01*
X136340748Y-78732321D01*
X136340746Y-78732320D01*
X136340744Y-78732319D01*
X136215348Y-78695500D01*
X136215347Y-78695500D01*
X136084653Y-78695500D01*
X136084652Y-78695500D01*
X135959255Y-78732319D01*
X135849306Y-78802978D01*
X135763719Y-78901750D01*
X135763717Y-78901753D01*
X135709426Y-79020632D01*
X135709425Y-79020636D01*
X135694143Y-79126927D01*
X135675782Y-79167128D01*
X135467027Y-79167128D01*
X135448667Y-79126925D01*
X135440574Y-79070637D01*
X135440573Y-79070632D01*
X135405600Y-78994054D01*
X135386282Y-78951752D01*
X135300695Y-78852979D01*
X135190748Y-78782321D01*
X135190746Y-78782320D01*
X135190744Y-78782319D01*
X135065348Y-78745500D01*
X135065347Y-78745500D01*
X134934653Y-78745500D01*
X134934652Y-78745500D01*
X134809255Y-78782319D01*
X134699306Y-78852978D01*
X134613719Y-78951750D01*
X134613717Y-78951753D01*
X134559426Y-79070632D01*
X134559425Y-79070637D01*
X134540826Y-79200000D01*
X130300500Y-79200000D01*
X130300500Y-77424500D01*
X130320185Y-77357461D01*
X130372989Y-77311706D01*
X130424500Y-77300500D01*
X133857145Y-77300500D01*
X133924184Y-77320185D01*
G37*
%TD.AperFunction*%
%TD*%
M02*
