%TF.GenerationSoftware,KiCad,Pcbnew,8.0.2*%
%TF.CreationDate,2024-06-05T07:11:37+02:00*%
%TF.ProjectId,BLESEN,424c4553-454e-42e6-9b69-6361645f7063,rev?*%
%TF.SameCoordinates,Original*%
%TF.FileFunction,Copper,L3,Inr*%
%TF.FilePolarity,Positive*%
%FSLAX46Y46*%
G04 Gerber Fmt 4.6, Leading zero omitted, Abs format (unit mm)*
G04 Created by KiCad (PCBNEW 8.0.2) date 2024-06-05 07:11:37*
%MOMM*%
%LPD*%
G01*
G04 APERTURE LIST*
%TA.AperFunction,CastellatedPad*%
%ADD10R,1.700000X1.950000*%
%TD*%
%TA.AperFunction,ComponentPad*%
%ADD11R,0.500000X0.900000*%
%TD*%
%TA.AperFunction,ViaPad*%
%ADD12C,0.700000*%
%TD*%
%TA.AperFunction,ViaPad*%
%ADD13C,0.500000*%
%TD*%
%TA.AperFunction,ViaPad*%
%ADD14C,0.600000*%
%TD*%
%TA.AperFunction,Conductor*%
%ADD15C,0.200000*%
%TD*%
%TA.AperFunction,Conductor*%
%ADD16C,0.150000*%
%TD*%
G04 APERTURE END LIST*
D10*
%TO.N,/UART_TX*%
%TO.C,J3*%
X148175000Y-102000000D03*
%TO.N,/UART_RX*%
X145675000Y-102000000D03*
%TO.N,GND*%
X140675000Y-102000000D03*
%TD*%
%TO.N,SWDIO*%
%TO.C,J2*%
X137100000Y-77000000D03*
%TO.N,SWDCLK*%
X139600000Y-77000000D03*
%TO.N,GND*%
X142100000Y-77000000D03*
%TD*%
D11*
%TO.N,GND*%
%TO.C,AE1*%
X158820000Y-82800000D03*
%TD*%
D12*
%TO.N,GND*%
X148875000Y-90325000D03*
D13*
X145200000Y-89800000D03*
D12*
X140160000Y-96600000D03*
X158000000Y-79000000D03*
D13*
X141963000Y-86719400D03*
X145200000Y-87600000D03*
D12*
X152000000Y-101000000D03*
D13*
X146413000Y-91169400D03*
D12*
X158000000Y-93000000D03*
X146510000Y-98680000D03*
X149375000Y-100500000D03*
D13*
X148975000Y-83675000D03*
D12*
X158000000Y-81000000D03*
X158300000Y-86075000D03*
X158000000Y-78000000D03*
X158000000Y-83000000D03*
X131000000Y-101000000D03*
D13*
X143200000Y-89800000D03*
D12*
X155500000Y-83650000D03*
X152700000Y-96800000D03*
X132775000Y-96900000D03*
X158000000Y-89000000D03*
X141450000Y-78500000D03*
X142000000Y-99000000D03*
X158000000Y-101000000D03*
X144400000Y-96750000D03*
X139200000Y-84050000D03*
X139200000Y-83100000D03*
X139250000Y-94750000D03*
X140000000Y-101000000D03*
X153250000Y-98650000D03*
D13*
X152950000Y-81425000D03*
D12*
X138550000Y-88180000D03*
X148000000Y-97000000D03*
X158000000Y-99000000D03*
X135000000Y-101000000D03*
D13*
X146363000Y-88869400D03*
D12*
X158000000Y-91000000D03*
D13*
X132000000Y-81000000D03*
D12*
X153820000Y-85920000D03*
D13*
X149400000Y-86750000D03*
D12*
X158000000Y-94000000D03*
X158000000Y-87000000D03*
X153000000Y-79100000D03*
X132375000Y-94050000D03*
X150175000Y-80025000D03*
X157000000Y-101000000D03*
D13*
X146313000Y-86719400D03*
D12*
X158000000Y-98000000D03*
X142825000Y-78525000D03*
X154875000Y-98175000D03*
X158000000Y-100000000D03*
X158000000Y-84000000D03*
D13*
X144063000Y-91119400D03*
D12*
X158000000Y-82000000D03*
D13*
X152875000Y-92875000D03*
D12*
X131900000Y-83975000D03*
X148125000Y-78575000D03*
X153000000Y-83000000D03*
X144575000Y-100475000D03*
X146550000Y-80100000D03*
D13*
X153575000Y-94500000D03*
D12*
X147940000Y-95090000D03*
X158000000Y-92000000D03*
X158000000Y-95000000D03*
D13*
X141913000Y-88919400D03*
D12*
X133470000Y-86050000D03*
X157000000Y-78000000D03*
X153450000Y-90050000D03*
X138825000Y-79300000D03*
X158000000Y-90000000D03*
X158000000Y-88000000D03*
D13*
X141963000Y-91169400D03*
D12*
X158000000Y-80000000D03*
X145000000Y-78000000D03*
D13*
X144113000Y-86719400D03*
D12*
X158000000Y-97000000D03*
X155025000Y-81800000D03*
D13*
X143200000Y-87600000D03*
D12*
X146925000Y-82325000D03*
X158000000Y-96000000D03*
X152000000Y-91000000D03*
D13*
X133250000Y-79750000D03*
D12*
X151000000Y-78000000D03*
X140413000Y-94569400D03*
D13*
X150800000Y-84500000D03*
X151600000Y-83400000D03*
X156425000Y-80725000D03*
D14*
%TO.N,SWDIO*%
X136300000Y-82325000D03*
D13*
%TO.N,/UART_TX*%
X152525000Y-93825000D03*
%TO.N,/UART_RX*%
X137450000Y-82850000D03*
D14*
%TO.N,SWDCLK*%
X134925000Y-83200000D03*
%TD*%
D15*
%TO.N,SWDIO*%
X137100000Y-77000000D02*
X137100000Y-79113288D01*
X137100000Y-79113288D02*
X136773000Y-79440288D01*
X136600000Y-82325000D02*
X136300000Y-82325000D01*
X137140288Y-80327000D02*
X137452000Y-80327000D01*
X137675000Y-81250000D02*
X136600000Y-82325000D01*
X136773000Y-79959712D02*
X137140288Y-80327000D01*
X137452000Y-80327000D02*
X137675000Y-80550000D01*
X137675000Y-80550000D02*
X137675000Y-81250000D01*
X136773000Y-79440288D02*
X136773000Y-79959712D01*
D16*
%TO.N,/UART_TX*%
X152525000Y-93825000D02*
X151925000Y-94425000D01*
X149450000Y-99475000D02*
X148175000Y-100750000D01*
X151925000Y-97500000D02*
X149950000Y-99475000D01*
X149950000Y-99475000D02*
X149450000Y-99475000D01*
X148175000Y-100750000D02*
X148175000Y-102025000D01*
X151925000Y-94425000D02*
X151925000Y-97500000D01*
%TO.N,/UART_RX*%
X145550000Y-99800000D02*
X145675000Y-99925000D01*
X145675000Y-99925000D02*
X145675000Y-102025000D01*
X137825000Y-95725000D02*
X141900000Y-99800000D01*
X137150000Y-84000000D02*
X137825000Y-84675000D01*
X141900000Y-99800000D02*
X145550000Y-99800000D01*
X137825000Y-84675000D02*
X137825000Y-95725000D01*
X137150000Y-83150000D02*
X137150000Y-84000000D01*
X137450000Y-82850000D02*
X137150000Y-83150000D01*
D15*
%TO.N,SWDCLK*%
X136366002Y-83200000D02*
X134925000Y-83200000D01*
X139800000Y-79766002D02*
X136366002Y-83200000D01*
X139800000Y-77200000D02*
X139800000Y-79766002D01*
%TD*%
%TA.AperFunction,Conductor*%
%TO.N,GND*%
G36*
X133924184Y-77320185D02*
G01*
X133960247Y-77355609D01*
X134033359Y-77465028D01*
X134033362Y-77465032D01*
X134134967Y-77566637D01*
X134134971Y-77566640D01*
X134254445Y-77646471D01*
X134254458Y-77646478D01*
X134332620Y-77678853D01*
X134387213Y-77701466D01*
X134387215Y-77701466D01*
X134387220Y-77701468D01*
X134528145Y-77729499D01*
X134528149Y-77729500D01*
X134528150Y-77729500D01*
X134671851Y-77729500D01*
X134671852Y-77729499D01*
X134718829Y-77720155D01*
X134812779Y-77701468D01*
X134812782Y-77701466D01*
X134812787Y-77701466D01*
X134945548Y-77646475D01*
X135065029Y-77566640D01*
X135166640Y-77465029D01*
X135205949Y-77406198D01*
X135239753Y-77355609D01*
X135293365Y-77310804D01*
X135342855Y-77300500D01*
X135875500Y-77300500D01*
X135942539Y-77320185D01*
X135988294Y-77372989D01*
X135999500Y-77424500D01*
X135999500Y-77999678D01*
X136014032Y-78072735D01*
X136014033Y-78072739D01*
X136014034Y-78072740D01*
X136069399Y-78155601D01*
X136152260Y-78210966D01*
X136152264Y-78210967D01*
X136225321Y-78225499D01*
X136225324Y-78225500D01*
X136225326Y-78225500D01*
X136625500Y-78225500D01*
X136692539Y-78245185D01*
X136738294Y-78297989D01*
X136749500Y-78349500D01*
X136749500Y-78815361D01*
X136729815Y-78882400D01*
X136677011Y-78928155D01*
X136607853Y-78938099D01*
X136544297Y-78909074D01*
X136531787Y-78896564D01*
X136494019Y-78852978D01*
X136450695Y-78802979D01*
X136340748Y-78732321D01*
X136340746Y-78732320D01*
X136340744Y-78732319D01*
X136215348Y-78695500D01*
X136215347Y-78695500D01*
X136084653Y-78695500D01*
X136084652Y-78695500D01*
X135959255Y-78732319D01*
X135849306Y-78802978D01*
X135763719Y-78901750D01*
X135763717Y-78901753D01*
X135709426Y-79020632D01*
X135709425Y-79020636D01*
X135694143Y-79126927D01*
X135675782Y-79167128D01*
X135701332Y-79223072D01*
X135709425Y-79279363D01*
X135709426Y-79279367D01*
X135762022Y-79394534D01*
X135763718Y-79398248D01*
X135849305Y-79497021D01*
X135959252Y-79567679D01*
X135959254Y-79567679D01*
X135959255Y-79567680D01*
X136084652Y-79604500D01*
X136084653Y-79604500D01*
X136215347Y-79604500D01*
X136263565Y-79590342D01*
X136333435Y-79590342D01*
X136392213Y-79628116D01*
X136421238Y-79691672D01*
X136422500Y-79709319D01*
X136422500Y-80005856D01*
X136435127Y-80052981D01*
X136446384Y-80094997D01*
X136446385Y-80094998D01*
X136446386Y-80095000D01*
X136452733Y-80105993D01*
X136475965Y-80146233D01*
X136492438Y-80214134D01*
X136469585Y-80280161D01*
X136414664Y-80323351D01*
X136392769Y-80329850D01*
X136271298Y-80354012D01*
X136271290Y-80354014D01*
X136134839Y-80410534D01*
X136134829Y-80410539D01*
X136012030Y-80492591D01*
X136012026Y-80492594D01*
X135907594Y-80597026D01*
X135907591Y-80597030D01*
X135825539Y-80719829D01*
X135825534Y-80719839D01*
X135769014Y-80856290D01*
X135769012Y-80856298D01*
X135740200Y-81001146D01*
X135740200Y-81148853D01*
X135769012Y-81293701D01*
X135769014Y-81293709D01*
X135825534Y-81430160D01*
X135825539Y-81430170D01*
X135907591Y-81552969D01*
X135907594Y-81552973D01*
X136012026Y-81657405D01*
X136013845Y-81658898D01*
X136014541Y-81659920D01*
X136016337Y-81661716D01*
X136015996Y-81662056D01*
X136053177Y-81716645D01*
X136055046Y-81786490D01*
X136018857Y-81846257D01*
X136010664Y-81853124D01*
X135907381Y-81932376D01*
X135819137Y-82047377D01*
X135763671Y-82181287D01*
X135763670Y-82181291D01*
X135744750Y-82325000D01*
X135762675Y-82461155D01*
X135763670Y-82468708D01*
X135763671Y-82468712D01*
X135819137Y-82602622D01*
X135819138Y-82602624D01*
X135819139Y-82602625D01*
X135855502Y-82650014D01*
X135880696Y-82715182D01*
X135866658Y-82783627D01*
X135817844Y-82833617D01*
X135757126Y-82849500D01*
X135411092Y-82849500D01*
X135344053Y-82829815D01*
X135324587Y-82811913D01*
X135323372Y-82813129D01*
X135317627Y-82807384D01*
X135317621Y-82807379D01*
X135202625Y-82719139D01*
X135202624Y-82719138D01*
X135202622Y-82719137D01*
X135068712Y-82663671D01*
X135068710Y-82663670D01*
X135068709Y-82663670D01*
X134964976Y-82650013D01*
X134925001Y-82644750D01*
X134924999Y-82644750D01*
X134781291Y-82663670D01*
X134781287Y-82663671D01*
X134647377Y-82719137D01*
X134532379Y-82807379D01*
X134444137Y-82922377D01*
X134388671Y-83056287D01*
X134388670Y-83056291D01*
X134369750Y-83199999D01*
X134369750Y-83200000D01*
X134388670Y-83343708D01*
X134388671Y-83343712D01*
X134444137Y-83477622D01*
X134444138Y-83477624D01*
X134444139Y-83477625D01*
X134532379Y-83592621D01*
X134647375Y-83680861D01*
X134781291Y-83736330D01*
X134908280Y-83753048D01*
X134924999Y-83755250D01*
X134925000Y-83755250D01*
X134925001Y-83755250D01*
X134962036Y-83750373D01*
X135062289Y-83737175D01*
X135131323Y-83747940D01*
X135183579Y-83794320D01*
X135202465Y-83861589D01*
X135201212Y-83877760D01*
X135190826Y-83949999D01*
X135209425Y-84079362D01*
X135209426Y-84079367D01*
X135263717Y-84198246D01*
X135263718Y-84198248D01*
X135349305Y-84297021D01*
X135459252Y-84367679D01*
X135459254Y-84367679D01*
X135459255Y-84367680D01*
X135584652Y-84404500D01*
X135584653Y-84404500D01*
X135715347Y-84404500D01*
X135840748Y-84367679D01*
X135950695Y-84297021D01*
X136036282Y-84198248D01*
X136090574Y-84079364D01*
X136109174Y-83950000D01*
X136090574Y-83820636D01*
X136090573Y-83820635D01*
X136090573Y-83820632D01*
X136047361Y-83726012D01*
X136037417Y-83656853D01*
X136066442Y-83593297D01*
X136125220Y-83555523D01*
X136160155Y-83550500D01*
X136412144Y-83550500D01*
X136412146Y-83550500D01*
X136501290Y-83526614D01*
X136581214Y-83480470D01*
X136612819Y-83448865D01*
X136674142Y-83415380D01*
X136743834Y-83420364D01*
X136799767Y-83462236D01*
X136824184Y-83527700D01*
X136824500Y-83536546D01*
X136824500Y-83957147D01*
X136824500Y-84042853D01*
X136829229Y-84060502D01*
X136846682Y-84125640D01*
X136868108Y-84162750D01*
X136889535Y-84199862D01*
X136889537Y-84199864D01*
X137463181Y-84773508D01*
X137496666Y-84834831D01*
X137499500Y-84861189D01*
X137499500Y-95767852D01*
X137521682Y-95850640D01*
X137542904Y-95887397D01*
X137564535Y-95924862D01*
X141700138Y-100060465D01*
X141774361Y-100103318D01*
X141857147Y-100125500D01*
X145225500Y-100125500D01*
X145292539Y-100145185D01*
X145338294Y-100197989D01*
X145349500Y-100249500D01*
X145349500Y-100650500D01*
X145329815Y-100717539D01*
X145277011Y-100763294D01*
X145225500Y-100774500D01*
X144800323Y-100774500D01*
X144727264Y-100789032D01*
X144727260Y-100789033D01*
X144644399Y-100844399D01*
X144589033Y-100927260D01*
X144589032Y-100927264D01*
X144574500Y-101000321D01*
X144574500Y-101575500D01*
X144554815Y-101642539D01*
X144502011Y-101688294D01*
X144450500Y-101699500D01*
X143917855Y-101699500D01*
X143850816Y-101679815D01*
X143814753Y-101644391D01*
X143741640Y-101534971D01*
X143741637Y-101534967D01*
X143640032Y-101433362D01*
X143640028Y-101433359D01*
X143520554Y-101353528D01*
X143520541Y-101353521D01*
X143387788Y-101298534D01*
X143387779Y-101298531D01*
X143246854Y-101270500D01*
X143246850Y-101270500D01*
X143103150Y-101270500D01*
X143103145Y-101270500D01*
X142962220Y-101298531D01*
X142962211Y-101298534D01*
X142829458Y-101353521D01*
X142829445Y-101353528D01*
X142709971Y-101433359D01*
X142709967Y-101433362D01*
X142608362Y-101534967D01*
X142608359Y-101534971D01*
X142535247Y-101644391D01*
X142481635Y-101689196D01*
X142432145Y-101699500D01*
X130424500Y-101699500D01*
X130357461Y-101679815D01*
X130311706Y-101627011D01*
X130300500Y-101575500D01*
X130300500Y-99713399D01*
X136445500Y-99713399D01*
X136445500Y-99926600D01*
X136478853Y-100137180D01*
X136478853Y-100137183D01*
X136544734Y-100339944D01*
X136544736Y-100339947D01*
X136641528Y-100529913D01*
X136766846Y-100702397D01*
X136917603Y-100853154D01*
X137090087Y-100978472D01*
X137280053Y-101075264D01*
X137280055Y-101075265D01*
X137469182Y-101136715D01*
X137482821Y-101141147D01*
X137693399Y-101174500D01*
X137693400Y-101174500D01*
X137906600Y-101174500D01*
X137906601Y-101174500D01*
X138117179Y-101141147D01*
X138117182Y-101141146D01*
X138117183Y-101141146D01*
X138319944Y-101075265D01*
X138319944Y-101075264D01*
X138319947Y-101075264D01*
X138509913Y-100978472D01*
X138682397Y-100853154D01*
X138833154Y-100702397D01*
X138958472Y-100529913D01*
X139055264Y-100339947D01*
X139121147Y-100137179D01*
X139154500Y-99926601D01*
X139154500Y-99713399D01*
X139121147Y-99502821D01*
X139121146Y-99502817D01*
X139121146Y-99502816D01*
X139055265Y-99300055D01*
X139055263Y-99300052D01*
X139050186Y-99290086D01*
X138958472Y-99110087D01*
X138833154Y-98937603D01*
X138682397Y-98786846D01*
X138509913Y-98661528D01*
X138319947Y-98564736D01*
X138319944Y-98564734D01*
X138117181Y-98498853D01*
X137976793Y-98476617D01*
X137906601Y-98465500D01*
X137693399Y-98465500D01*
X137623206Y-98476617D01*
X137482819Y-98498853D01*
X137482816Y-98498853D01*
X137280055Y-98564734D01*
X137280052Y-98564736D01*
X137090086Y-98661528D01*
X136917601Y-98786847D01*
X136766847Y-98937601D01*
X136641528Y-99110086D01*
X136544736Y-99300052D01*
X136544734Y-99300055D01*
X136478853Y-99502816D01*
X136478853Y-99502819D01*
X136445500Y-99713399D01*
X130300500Y-99713399D01*
X130300500Y-96275000D01*
X136265826Y-96275000D01*
X136284425Y-96404362D01*
X136284426Y-96404367D01*
X136338717Y-96523246D01*
X136338718Y-96523248D01*
X136424305Y-96622021D01*
X136534252Y-96692679D01*
X136534254Y-96692679D01*
X136534255Y-96692680D01*
X136659652Y-96729500D01*
X136659653Y-96729500D01*
X136790347Y-96729500D01*
X136915748Y-96692679D01*
X137025695Y-96622021D01*
X137111282Y-96523248D01*
X137165574Y-96404364D01*
X137184174Y-96275000D01*
X137165574Y-96145636D01*
X137165573Y-96145635D01*
X137165573Y-96145632D01*
X137121899Y-96050000D01*
X137111282Y-96026752D01*
X137025695Y-95927979D01*
X136915748Y-95857321D01*
X136915746Y-95857320D01*
X136915744Y-95857319D01*
X136790348Y-95820500D01*
X136790347Y-95820500D01*
X136659653Y-95820500D01*
X136659652Y-95820500D01*
X136534255Y-95857319D01*
X136424306Y-95927978D01*
X136338719Y-96026750D01*
X136338717Y-96026753D01*
X136284426Y-96145632D01*
X136284425Y-96145637D01*
X136265826Y-96275000D01*
X130300500Y-96275000D01*
X130300500Y-93900000D01*
X134640826Y-93900000D01*
X134659425Y-94029362D01*
X134659426Y-94029367D01*
X134713717Y-94148246D01*
X134713718Y-94148248D01*
X134799305Y-94247021D01*
X134909252Y-94317679D01*
X134909254Y-94317679D01*
X134909255Y-94317680D01*
X135034652Y-94354500D01*
X135034653Y-94354500D01*
X135165347Y-94354500D01*
X135290748Y-94317679D01*
X135400695Y-94247021D01*
X135486282Y-94148248D01*
X135540574Y-94029364D01*
X135559174Y-93900000D01*
X135540574Y-93770636D01*
X135540573Y-93770635D01*
X135540573Y-93770632D01*
X135486282Y-93651753D01*
X135486282Y-93651752D01*
X135400695Y-93552979D01*
X135290748Y-93482321D01*
X135290746Y-93482320D01*
X135290744Y-93482319D01*
X135165348Y-93445500D01*
X135165347Y-93445500D01*
X135034653Y-93445500D01*
X135034652Y-93445500D01*
X134909255Y-93482319D01*
X134799306Y-93552978D01*
X134713719Y-93651750D01*
X134713717Y-93651753D01*
X134659426Y-93770632D01*
X134659425Y-93770637D01*
X134640826Y-93900000D01*
X130300500Y-93900000D01*
X130300500Y-92600000D01*
X132640826Y-92600000D01*
X132659425Y-92729362D01*
X132659426Y-92729367D01*
X132705093Y-92829362D01*
X132713718Y-92848248D01*
X132799305Y-92947021D01*
X132909252Y-93017679D01*
X132909254Y-93017679D01*
X132909255Y-93017680D01*
X133034652Y-93054500D01*
X133034653Y-93054500D01*
X133165347Y-93054500D01*
X133290748Y-93017679D01*
X133400695Y-92947021D01*
X133486282Y-92848248D01*
X133540574Y-92729364D01*
X133544796Y-92700000D01*
X134040826Y-92700000D01*
X134059425Y-92829362D01*
X134059426Y-92829367D01*
X134113158Y-92947021D01*
X134113718Y-92948248D01*
X134199305Y-93047021D01*
X134309252Y-93117679D01*
X134309254Y-93117679D01*
X134309255Y-93117680D01*
X134434652Y-93154500D01*
X134434653Y-93154500D01*
X134565347Y-93154500D01*
X134690748Y-93117679D01*
X134800695Y-93047021D01*
X134886282Y-92948248D01*
X134940574Y-92829364D01*
X134959174Y-92700000D01*
X134940574Y-92570636D01*
X134940573Y-92570635D01*
X134940573Y-92570632D01*
X134886282Y-92451753D01*
X134886282Y-92451752D01*
X134800695Y-92352979D01*
X134690748Y-92282321D01*
X134690746Y-92282320D01*
X134690744Y-92282319D01*
X134565348Y-92245500D01*
X134565347Y-92245500D01*
X134434653Y-92245500D01*
X134434652Y-92245500D01*
X134309255Y-92282319D01*
X134199306Y-92352978D01*
X134113719Y-92451750D01*
X134113717Y-92451753D01*
X134059426Y-92570632D01*
X134059425Y-92570637D01*
X134040826Y-92700000D01*
X133544796Y-92700000D01*
X133559174Y-92600000D01*
X133540574Y-92470636D01*
X133540573Y-92470635D01*
X133540573Y-92470632D01*
X133486842Y-92352979D01*
X133486282Y-92351752D01*
X133400695Y-92252979D01*
X133290748Y-92182321D01*
X133290746Y-92182320D01*
X133290744Y-92182319D01*
X133165348Y-92145500D01*
X133165347Y-92145500D01*
X133034653Y-92145500D01*
X133034652Y-92145500D01*
X132909255Y-92182319D01*
X132799306Y-92252978D01*
X132713719Y-92351750D01*
X132713717Y-92351753D01*
X132659426Y-92470632D01*
X132659425Y-92470637D01*
X132640826Y-92600000D01*
X130300500Y-92600000D01*
X130300500Y-86100000D01*
X133990826Y-86100000D01*
X134009425Y-86229362D01*
X134009426Y-86229367D01*
X134063717Y-86348246D01*
X134063718Y-86348248D01*
X134149305Y-86447021D01*
X134259252Y-86517679D01*
X134259254Y-86517679D01*
X134259255Y-86517680D01*
X134384652Y-86554500D01*
X134384653Y-86554500D01*
X134515347Y-86554500D01*
X134640748Y-86517679D01*
X134750695Y-86447021D01*
X134836282Y-86348248D01*
X134890574Y-86229364D01*
X134909174Y-86100000D01*
X134890574Y-85970636D01*
X134890573Y-85970635D01*
X134890573Y-85970632D01*
X134836282Y-85851753D01*
X134836282Y-85851752D01*
X134750695Y-85752979D01*
X134640748Y-85682321D01*
X134640746Y-85682320D01*
X134640744Y-85682319D01*
X134515348Y-85645500D01*
X134515347Y-85645500D01*
X134384653Y-85645500D01*
X134384652Y-85645500D01*
X134259255Y-85682319D01*
X134149306Y-85752978D01*
X134063719Y-85851750D01*
X134063717Y-85851753D01*
X134009426Y-85970632D01*
X134009425Y-85970637D01*
X133990826Y-86100000D01*
X130300500Y-86100000D01*
X130300500Y-82017146D01*
X130660200Y-82017146D01*
X130660200Y-82164853D01*
X130689012Y-82309701D01*
X130689014Y-82309709D01*
X130745534Y-82446160D01*
X130745539Y-82446170D01*
X130827591Y-82568969D01*
X130827594Y-82568973D01*
X130932026Y-82673405D01*
X130932030Y-82673408D01*
X131054829Y-82755460D01*
X131054833Y-82755462D01*
X131054836Y-82755464D01*
X131191291Y-82811986D01*
X131336146Y-82840799D01*
X131336150Y-82840800D01*
X131336151Y-82840800D01*
X131483850Y-82840800D01*
X131483851Y-82840799D01*
X131628709Y-82811986D01*
X131765164Y-82755464D01*
X131887970Y-82673408D01*
X131992408Y-82568970D01*
X132074464Y-82446164D01*
X132130986Y-82309709D01*
X132159800Y-82164849D01*
X132159800Y-82017151D01*
X132130986Y-81872291D01*
X132074464Y-81735836D01*
X132074462Y-81735833D01*
X132074460Y-81735829D01*
X131992408Y-81613030D01*
X131992405Y-81613026D01*
X131887973Y-81508594D01*
X131887969Y-81508591D01*
X131765170Y-81426539D01*
X131765160Y-81426534D01*
X131628709Y-81370014D01*
X131628701Y-81370012D01*
X131483853Y-81341200D01*
X131483849Y-81341200D01*
X131336151Y-81341200D01*
X131336146Y-81341200D01*
X131191298Y-81370012D01*
X131191290Y-81370014D01*
X131054839Y-81426534D01*
X131054829Y-81426539D01*
X130932030Y-81508591D01*
X130932026Y-81508594D01*
X130827594Y-81613026D01*
X130827591Y-81613030D01*
X130745539Y-81735829D01*
X130745534Y-81735839D01*
X130689014Y-81872290D01*
X130689012Y-81872298D01*
X130660200Y-82017146D01*
X130300500Y-82017146D01*
X130300500Y-79985146D01*
X130660200Y-79985146D01*
X130660200Y-80132853D01*
X130689012Y-80277701D01*
X130689014Y-80277709D01*
X130745534Y-80414160D01*
X130745539Y-80414170D01*
X130827591Y-80536969D01*
X130827594Y-80536973D01*
X130932026Y-80641405D01*
X130932030Y-80641408D01*
X131054829Y-80723460D01*
X131054833Y-80723462D01*
X131054836Y-80723464D01*
X131191291Y-80779986D01*
X131336146Y-80808799D01*
X131336150Y-80808800D01*
X131336151Y-80808800D01*
X131483850Y-80808800D01*
X131483851Y-80808799D01*
X131628709Y-80779986D01*
X131765164Y-80723464D01*
X131887970Y-80641408D01*
X131992408Y-80536970D01*
X132073362Y-80415811D01*
X132074460Y-80414170D01*
X132074460Y-80414169D01*
X132074464Y-80414164D01*
X132130986Y-80277709D01*
X132159800Y-80132849D01*
X132159800Y-79985151D01*
X132130986Y-79840291D01*
X132074464Y-79703836D01*
X132074462Y-79703833D01*
X132074460Y-79703829D01*
X131992408Y-79581030D01*
X131992405Y-79581026D01*
X131887973Y-79476594D01*
X131887969Y-79476591D01*
X131765170Y-79394539D01*
X131765160Y-79394534D01*
X131628709Y-79338014D01*
X131628701Y-79338012D01*
X131483853Y-79309200D01*
X131483849Y-79309200D01*
X131336151Y-79309200D01*
X131336146Y-79309200D01*
X131191298Y-79338012D01*
X131191290Y-79338014D01*
X131054839Y-79394534D01*
X131054829Y-79394539D01*
X130932030Y-79476591D01*
X130932026Y-79476594D01*
X130827594Y-79581026D01*
X130827591Y-79581030D01*
X130745539Y-79703829D01*
X130745534Y-79703839D01*
X130689014Y-79840290D01*
X130689012Y-79840298D01*
X130660200Y-79985146D01*
X130300500Y-79985146D01*
X130300500Y-79200000D01*
X134540826Y-79200000D01*
X134559425Y-79329362D01*
X134559426Y-79329367D01*
X134590884Y-79398249D01*
X134613718Y-79448248D01*
X134699305Y-79547021D01*
X134809252Y-79617679D01*
X134809254Y-79617679D01*
X134809255Y-79617680D01*
X134934652Y-79654500D01*
X134934653Y-79654500D01*
X135065347Y-79654500D01*
X135190748Y-79617679D01*
X135300695Y-79547021D01*
X135386282Y-79448248D01*
X135424919Y-79363643D01*
X135440573Y-79329367D01*
X135440574Y-79329363D01*
X135447338Y-79282319D01*
X135455856Y-79223071D01*
X135474216Y-79182870D01*
X135448667Y-79126925D01*
X135446759Y-79113657D01*
X135440574Y-79070636D01*
X135440573Y-79070635D01*
X135440573Y-79070632D01*
X135405600Y-78994054D01*
X135386282Y-78951752D01*
X135300695Y-78852979D01*
X135190748Y-78782321D01*
X135190746Y-78782320D01*
X135190744Y-78782319D01*
X135065348Y-78745500D01*
X135065347Y-78745500D01*
X134934653Y-78745500D01*
X134934652Y-78745500D01*
X134809255Y-78782319D01*
X134699306Y-78852978D01*
X134613719Y-78951750D01*
X134613717Y-78951753D01*
X134559426Y-79070632D01*
X134559425Y-79070637D01*
X134540826Y-79200000D01*
X130300500Y-79200000D01*
X130300500Y-77424500D01*
X130320185Y-77357461D01*
X130372989Y-77311706D01*
X130424500Y-77300500D01*
X133857145Y-77300500D01*
X133924184Y-77320185D01*
G37*
%TD.AperFunction*%
%TA.AperFunction,Conductor*%
G36*
X158642539Y-77320185D02*
G01*
X158688294Y-77372989D01*
X158699500Y-77424500D01*
X158699500Y-80037598D01*
X158704498Y-80052978D01*
X158710235Y-80070636D01*
X158710773Y-80072290D01*
X158712613Y-80078501D01*
X158717034Y-80094998D01*
X158719980Y-80105993D01*
X158723089Y-80113499D01*
X158722799Y-80113618D01*
X158727988Y-80125275D01*
X158728912Y-80128119D01*
X158728914Y-80128123D01*
X158728915Y-80128125D01*
X158743814Y-80148632D01*
X158750882Y-80159515D01*
X158759537Y-80174507D01*
X158759541Y-80174512D01*
X158763889Y-80178860D01*
X158776521Y-80193648D01*
X158784866Y-80205134D01*
X158784867Y-80205134D01*
X158784868Y-80205136D01*
X158796344Y-80213474D01*
X158811138Y-80226110D01*
X158815486Y-80230458D01*
X158815488Y-80230459D01*
X158815489Y-80230460D01*
X158828437Y-80237935D01*
X158830477Y-80239113D01*
X158841365Y-80246184D01*
X158861871Y-80261083D01*
X158861877Y-80261086D01*
X158864712Y-80262007D01*
X158876389Y-80267205D01*
X158876510Y-80266914D01*
X158884007Y-80270019D01*
X158884011Y-80270021D01*
X158911504Y-80277387D01*
X158917704Y-80279225D01*
X158952400Y-80290499D01*
X158952403Y-80290499D01*
X158952405Y-80290500D01*
X158952406Y-80290500D01*
X158962042Y-80292026D01*
X158961560Y-80295068D01*
X159013039Y-80310185D01*
X159058794Y-80362989D01*
X159070000Y-80414500D01*
X159070000Y-98575500D01*
X159050315Y-98642539D01*
X158997511Y-98688294D01*
X158961743Y-98696075D01*
X158962044Y-98697974D01*
X158952399Y-98699501D01*
X158917699Y-98710775D01*
X158911482Y-98712617D01*
X158884007Y-98719979D01*
X158876510Y-98723085D01*
X158876390Y-98722796D01*
X158864727Y-98727987D01*
X158861880Y-98728912D01*
X158861873Y-98728915D01*
X158841364Y-98743816D01*
X158830486Y-98750880D01*
X158815491Y-98759538D01*
X158811133Y-98763896D01*
X158796349Y-98776522D01*
X158784866Y-98784866D01*
X158776525Y-98796346D01*
X158763896Y-98811133D01*
X158759538Y-98815491D01*
X158750880Y-98830486D01*
X158743816Y-98841364D01*
X158728915Y-98861873D01*
X158728912Y-98861880D01*
X158727987Y-98864727D01*
X158722796Y-98876390D01*
X158723085Y-98876510D01*
X158719979Y-98884007D01*
X158712617Y-98911482D01*
X158710775Y-98917699D01*
X158699501Y-98952399D01*
X158699500Y-98952408D01*
X158699500Y-101575500D01*
X158679815Y-101642539D01*
X158627011Y-101688294D01*
X158575500Y-101699500D01*
X149399500Y-101699500D01*
X149332461Y-101679815D01*
X149286706Y-101627011D01*
X149275500Y-101575500D01*
X149275500Y-101000323D01*
X149275499Y-101000321D01*
X149260967Y-100927264D01*
X149260966Y-100927260D01*
X149205601Y-100844399D01*
X149122740Y-100789034D01*
X149122739Y-100789033D01*
X149122735Y-100789032D01*
X149049677Y-100774500D01*
X149049674Y-100774500D01*
X148910189Y-100774500D01*
X148843150Y-100754815D01*
X148797395Y-100702011D01*
X148787451Y-100632853D01*
X148816476Y-100569297D01*
X148822508Y-100562819D01*
X149491928Y-99893399D01*
X153645500Y-99893399D01*
X153645500Y-100106601D01*
X153650343Y-100137179D01*
X153678853Y-100317180D01*
X153678853Y-100317183D01*
X153744734Y-100519944D01*
X153744736Y-100519947D01*
X153841528Y-100709913D01*
X153966846Y-100882397D01*
X154117603Y-101033154D01*
X154290087Y-101158472D01*
X154480053Y-101255264D01*
X154480055Y-101255265D01*
X154613225Y-101298534D01*
X154682821Y-101321147D01*
X154893399Y-101354500D01*
X154893400Y-101354500D01*
X155106600Y-101354500D01*
X155106601Y-101354500D01*
X155317179Y-101321147D01*
X155317182Y-101321146D01*
X155317183Y-101321146D01*
X155519944Y-101255265D01*
X155519944Y-101255264D01*
X155519947Y-101255264D01*
X155709913Y-101158472D01*
X155882397Y-101033154D01*
X156033154Y-100882397D01*
X156158472Y-100709913D01*
X156255264Y-100519947D01*
X156255265Y-100519944D01*
X156321146Y-100317183D01*
X156321146Y-100317182D01*
X156321147Y-100317179D01*
X156354500Y-100106601D01*
X156354500Y-99893399D01*
X156321147Y-99682821D01*
X156321146Y-99682817D01*
X156321146Y-99682816D01*
X156255265Y-99480055D01*
X156255263Y-99480052D01*
X156252435Y-99474500D01*
X156158472Y-99290087D01*
X156033154Y-99117603D01*
X155882397Y-98966846D01*
X155709913Y-98841528D01*
X155519947Y-98744736D01*
X155519944Y-98744734D01*
X155317181Y-98678853D01*
X155176793Y-98656617D01*
X155106601Y-98645500D01*
X154893399Y-98645500D01*
X154823206Y-98656617D01*
X154682819Y-98678853D01*
X154682816Y-98678853D01*
X154480055Y-98744734D01*
X154480052Y-98744736D01*
X154290086Y-98841528D01*
X154117601Y-98966847D01*
X153966847Y-99117601D01*
X153841528Y-99290086D01*
X153744736Y-99480052D01*
X153744734Y-99480055D01*
X153678853Y-99682816D01*
X153678853Y-99682819D01*
X153660394Y-99799361D01*
X153645500Y-99893399D01*
X149491928Y-99893399D01*
X149548508Y-99836819D01*
X149609831Y-99803334D01*
X149636189Y-99800500D01*
X149992851Y-99800500D01*
X149992853Y-99800500D01*
X150075639Y-99778318D01*
X150149862Y-99735465D01*
X152114652Y-97770672D01*
X152114657Y-97770669D01*
X152124860Y-97760465D01*
X152124862Y-97760465D01*
X152185465Y-97699862D01*
X152206891Y-97662750D01*
X152228318Y-97625639D01*
X152250500Y-97542853D01*
X152250500Y-97457147D01*
X152250500Y-94611189D01*
X152270185Y-94544150D01*
X152286819Y-94523508D01*
X152448508Y-94361819D01*
X152509831Y-94328334D01*
X152536189Y-94325500D01*
X152596962Y-94325500D01*
X152596962Y-94325499D01*
X152735053Y-94284953D01*
X152856128Y-94207143D01*
X152950377Y-94098373D01*
X153010165Y-93967457D01*
X153027053Y-93849997D01*
X154791081Y-93849997D01*
X154791081Y-93850002D01*
X154808646Y-93960909D01*
X154859626Y-94060965D01*
X154939034Y-94140373D01*
X155039090Y-94191353D01*
X155149998Y-94208919D01*
X155150000Y-94208919D01*
X155150002Y-94208919D01*
X155260909Y-94191353D01*
X155260910Y-94191352D01*
X155260912Y-94191352D01*
X155360967Y-94140372D01*
X155440372Y-94060967D01*
X155491352Y-93960912D01*
X155491352Y-93960910D01*
X155491353Y-93960909D01*
X155508919Y-93850002D01*
X155508919Y-93849997D01*
X155491353Y-93739090D01*
X155440373Y-93639034D01*
X155360965Y-93559626D01*
X155260909Y-93508646D01*
X155150002Y-93491081D01*
X155149998Y-93491081D01*
X155039090Y-93508646D01*
X154939034Y-93559626D01*
X154859626Y-93639034D01*
X154808646Y-93739090D01*
X154791081Y-93849997D01*
X153027053Y-93849997D01*
X153030647Y-93825000D01*
X153010165Y-93682543D01*
X152950377Y-93551627D01*
X152856128Y-93442857D01*
X152735053Y-93365047D01*
X152735051Y-93365046D01*
X152735049Y-93365045D01*
X152735050Y-93365045D01*
X152596963Y-93324500D01*
X152596961Y-93324500D01*
X152453039Y-93324500D01*
X152453036Y-93324500D01*
X152314949Y-93365045D01*
X152193873Y-93442856D01*
X152099623Y-93551626D01*
X152099622Y-93551628D01*
X152039834Y-93682543D01*
X152018091Y-93833778D01*
X152015126Y-93833351D01*
X151999668Y-93885996D01*
X151983034Y-93906638D01*
X151664537Y-94225135D01*
X151664533Y-94225141D01*
X151621681Y-94299361D01*
X151621682Y-94299362D01*
X151599500Y-94382147D01*
X151599500Y-95831103D01*
X151579815Y-95898142D01*
X151527011Y-95943897D01*
X151457853Y-95953841D01*
X151394297Y-95924816D01*
X151365015Y-95887397D01*
X151340373Y-95839034D01*
X151260965Y-95759626D01*
X151160909Y-95708646D01*
X151050002Y-95691081D01*
X151049998Y-95691081D01*
X150939090Y-95708646D01*
X150839034Y-95759626D01*
X150759626Y-95839034D01*
X150708646Y-95939090D01*
X150691081Y-96049997D01*
X150691081Y-96050002D01*
X150708646Y-96160909D01*
X150759626Y-96260965D01*
X150839034Y-96340373D01*
X150939090Y-96391353D01*
X151049998Y-96408919D01*
X151050000Y-96408919D01*
X151050002Y-96408919D01*
X151160909Y-96391353D01*
X151160910Y-96391352D01*
X151160912Y-96391352D01*
X151260967Y-96340372D01*
X151340372Y-96260967D01*
X151365014Y-96212602D01*
X151412988Y-96161806D01*
X151480809Y-96145010D01*
X151546944Y-96167546D01*
X151590396Y-96222261D01*
X151599500Y-96268896D01*
X151599500Y-97313811D01*
X151579815Y-97380850D01*
X151563181Y-97401492D01*
X149851492Y-99113181D01*
X149790169Y-99146666D01*
X149763811Y-99149500D01*
X149407147Y-99149500D01*
X149324362Y-99171682D01*
X149324359Y-99171683D01*
X149266272Y-99205220D01*
X149250141Y-99214533D01*
X149250135Y-99214537D01*
X147914537Y-100550135D01*
X147914533Y-100550141D01*
X147871681Y-100624361D01*
X147871681Y-100624362D01*
X147856079Y-100682594D01*
X147819714Y-100742254D01*
X147756867Y-100772783D01*
X147736304Y-100774500D01*
X147300323Y-100774500D01*
X147227264Y-100789032D01*
X147227260Y-100789033D01*
X147144399Y-100844399D01*
X147089033Y-100927260D01*
X147089032Y-100927264D01*
X147074500Y-101000321D01*
X147074500Y-101575500D01*
X147054815Y-101642539D01*
X147002011Y-101688294D01*
X146950500Y-101699500D01*
X146899500Y-101699500D01*
X146832461Y-101679815D01*
X146786706Y-101627011D01*
X146775500Y-101575500D01*
X146775500Y-101000323D01*
X146775499Y-101000321D01*
X146760967Y-100927264D01*
X146760966Y-100927260D01*
X146705601Y-100844399D01*
X146622740Y-100789034D01*
X146622739Y-100789033D01*
X146622735Y-100789032D01*
X146549677Y-100774500D01*
X146549674Y-100774500D01*
X146124500Y-100774500D01*
X146057461Y-100754815D01*
X146011706Y-100702011D01*
X146000500Y-100650500D01*
X146000500Y-99977855D01*
X146000501Y-99977842D01*
X146000501Y-99882148D01*
X146000501Y-99882147D01*
X145978318Y-99799361D01*
X145962725Y-99772355D01*
X145941427Y-99735464D01*
X145941428Y-99735463D01*
X145941422Y-99735457D01*
X145935465Y-99725138D01*
X145923726Y-99713399D01*
X145874862Y-99664535D01*
X145874860Y-99664534D01*
X145749862Y-99539535D01*
X145718493Y-99521423D01*
X145675640Y-99496682D01*
X145634246Y-99485591D01*
X145592853Y-99474500D01*
X145592852Y-99474500D01*
X142086189Y-99474500D01*
X142019150Y-99454815D01*
X141998508Y-99438181D01*
X140110327Y-97550000D01*
X149640826Y-97550000D01*
X149659425Y-97679362D01*
X149659426Y-97679367D01*
X149713717Y-97798246D01*
X149713718Y-97798248D01*
X149799305Y-97897021D01*
X149909252Y-97967679D01*
X149909254Y-97967679D01*
X149909255Y-97967680D01*
X150034652Y-98004500D01*
X150034653Y-98004500D01*
X150165347Y-98004500D01*
X150290748Y-97967679D01*
X150400695Y-97897021D01*
X150486282Y-97798248D01*
X150531213Y-97699862D01*
X150540573Y-97679367D01*
X150540574Y-97679362D01*
X150559174Y-97550000D01*
X150540574Y-97420636D01*
X150540573Y-97420635D01*
X150540573Y-97420632D01*
X150486282Y-97301753D01*
X150486282Y-97301752D01*
X150400695Y-97202979D01*
X150290748Y-97132321D01*
X150290746Y-97132320D01*
X150290744Y-97132319D01*
X150165348Y-97095500D01*
X150165347Y-97095500D01*
X150034653Y-97095500D01*
X150034652Y-97095500D01*
X149909255Y-97132319D01*
X149799306Y-97202978D01*
X149713719Y-97301750D01*
X149713717Y-97301753D01*
X149659426Y-97420632D01*
X149659425Y-97420637D01*
X149640826Y-97550000D01*
X140110327Y-97550000D01*
X138186819Y-95626492D01*
X138153334Y-95565169D01*
X138150500Y-95538811D01*
X138150500Y-92100000D01*
X153490826Y-92100000D01*
X153509425Y-92229362D01*
X153509426Y-92229367D01*
X153533610Y-92282321D01*
X153563718Y-92348248D01*
X153649305Y-92447021D01*
X153759252Y-92517679D01*
X153759254Y-92517679D01*
X153759255Y-92517680D01*
X153884652Y-92554500D01*
X153884653Y-92554500D01*
X154015347Y-92554500D01*
X154140748Y-92517679D01*
X154250695Y-92447021D01*
X154336282Y-92348248D01*
X154374919Y-92263643D01*
X154390573Y-92229367D01*
X154390574Y-92229362D01*
X154409174Y-92100000D01*
X154390574Y-91970636D01*
X154390573Y-91970635D01*
X154390573Y-91970632D01*
X154336282Y-91851753D01*
X154336282Y-91851752D01*
X154250695Y-91752979D01*
X154140748Y-91682321D01*
X154140746Y-91682320D01*
X154140744Y-91682319D01*
X154015348Y-91645500D01*
X154015347Y-91645500D01*
X153884653Y-91645500D01*
X153884652Y-91645500D01*
X153759255Y-91682319D01*
X153649306Y-91752978D01*
X153563719Y-91851750D01*
X153563717Y-91851753D01*
X153509426Y-91970632D01*
X153509425Y-91970637D01*
X153490826Y-92100000D01*
X138150500Y-92100000D01*
X138150500Y-84632149D01*
X138150500Y-84632147D01*
X138128318Y-84549362D01*
X138128318Y-84549361D01*
X138085465Y-84475138D01*
X138060323Y-84449996D01*
X151740458Y-84449996D01*
X151740458Y-84450003D01*
X151760500Y-84576551D01*
X151760501Y-84576554D01*
X151760502Y-84576555D01*
X151818674Y-84690723D01*
X151818676Y-84690725D01*
X151818678Y-84690728D01*
X151909271Y-84781321D01*
X151909273Y-84781322D01*
X151909277Y-84781326D01*
X152023445Y-84839498D01*
X152023446Y-84839498D01*
X152023448Y-84839499D01*
X152149997Y-84859542D01*
X152150000Y-84859542D01*
X152150003Y-84859542D01*
X152276551Y-84839499D01*
X152276552Y-84839498D01*
X152276555Y-84839498D01*
X152390723Y-84781326D01*
X152481326Y-84690723D01*
X152539498Y-84576555D01*
X152543805Y-84549361D01*
X152559542Y-84450003D01*
X152559542Y-84449996D01*
X152539499Y-84323448D01*
X152539498Y-84323446D01*
X152539498Y-84323445D01*
X152481326Y-84209277D01*
X152481322Y-84209273D01*
X152481321Y-84209271D01*
X152390728Y-84118678D01*
X152390725Y-84118676D01*
X152390723Y-84118674D01*
X152276555Y-84060502D01*
X152276554Y-84060501D01*
X152276551Y-84060500D01*
X152150003Y-84040458D01*
X152149997Y-84040458D01*
X152023448Y-84060500D01*
X151967493Y-84089011D01*
X151909277Y-84118674D01*
X151909276Y-84118675D01*
X151909271Y-84118678D01*
X151818678Y-84209271D01*
X151818675Y-84209276D01*
X151760500Y-84323448D01*
X151740458Y-84449996D01*
X138060323Y-84449996D01*
X137511819Y-83901492D01*
X137478334Y-83840169D01*
X137475500Y-83813811D01*
X137475500Y-83456967D01*
X137495185Y-83389928D01*
X137547989Y-83344173D01*
X137564555Y-83337993D01*
X137660053Y-83309953D01*
X137781128Y-83232143D01*
X137875377Y-83123373D01*
X137935165Y-82992457D01*
X137955647Y-82850000D01*
X137935165Y-82707543D01*
X137875377Y-82576627D01*
X137781128Y-82467857D01*
X137781126Y-82467855D01*
X137775320Y-82461155D01*
X137776369Y-82460245D01*
X137743656Y-82409333D01*
X137743662Y-82339463D01*
X137774953Y-82286729D01*
X139861684Y-80200000D01*
X140540826Y-80200000D01*
X140559425Y-80329362D01*
X140559426Y-80329367D01*
X140613717Y-80448246D01*
X140613718Y-80448248D01*
X140699305Y-80547021D01*
X140809252Y-80617679D01*
X140809254Y-80617679D01*
X140809255Y-80617680D01*
X140934652Y-80654500D01*
X140934653Y-80654500D01*
X141065347Y-80654500D01*
X141190748Y-80617679D01*
X141300695Y-80547021D01*
X141386282Y-80448248D01*
X141440574Y-80329364D01*
X141459174Y-80200000D01*
X141440574Y-80070636D01*
X141440573Y-80070635D01*
X141440573Y-80070632D01*
X141386282Y-79951753D01*
X141386282Y-79951752D01*
X141300695Y-79852979D01*
X141190748Y-79782321D01*
X141190746Y-79782320D01*
X141190744Y-79782319D01*
X141065348Y-79745500D01*
X141065347Y-79745500D01*
X140934653Y-79745500D01*
X140934652Y-79745500D01*
X140809255Y-79782319D01*
X140699306Y-79852978D01*
X140613719Y-79951750D01*
X140613717Y-79951753D01*
X140559426Y-80070632D01*
X140559425Y-80070637D01*
X140540826Y-80200000D01*
X139861684Y-80200000D01*
X140080470Y-79981214D01*
X140126614Y-79901290D01*
X140133710Y-79874806D01*
X140139856Y-79851873D01*
X140150499Y-79812149D01*
X140150500Y-79812146D01*
X140150500Y-78893399D01*
X153645500Y-78893399D01*
X153645500Y-79106601D01*
X153652107Y-79148314D01*
X153678853Y-79317180D01*
X153678853Y-79317183D01*
X153744734Y-79519944D01*
X153744736Y-79519947D01*
X153841528Y-79709913D01*
X153966846Y-79882397D01*
X154117603Y-80033154D01*
X154290087Y-80158472D01*
X154480053Y-80255264D01*
X154480055Y-80255265D01*
X154609716Y-80297394D01*
X154682821Y-80321147D01*
X154893399Y-80354500D01*
X154893400Y-80354500D01*
X155106600Y-80354500D01*
X155106601Y-80354500D01*
X155317179Y-80321147D01*
X155317182Y-80321146D01*
X155317183Y-80321146D01*
X155519944Y-80255265D01*
X155519944Y-80255264D01*
X155519947Y-80255264D01*
X155709913Y-80158472D01*
X155882397Y-80033154D01*
X156033154Y-79882397D01*
X156158472Y-79709913D01*
X156255264Y-79519947D01*
X156269351Y-79476591D01*
X156321146Y-79317183D01*
X156321146Y-79317182D01*
X156321147Y-79317179D01*
X156354500Y-79106601D01*
X156354500Y-78893399D01*
X156321147Y-78682821D01*
X156321146Y-78682817D01*
X156321146Y-78682816D01*
X156255265Y-78480055D01*
X156255263Y-78480052D01*
X156158471Y-78290086D01*
X156152931Y-78282461D01*
X156033154Y-78117603D01*
X155882397Y-77966846D01*
X155709913Y-77841528D01*
X155519947Y-77744736D01*
X155519944Y-77744734D01*
X155317181Y-77678853D01*
X155176793Y-77656617D01*
X155106601Y-77645500D01*
X154893399Y-77645500D01*
X154823206Y-77656617D01*
X154682819Y-77678853D01*
X154682816Y-77678853D01*
X154480055Y-77744734D01*
X154480052Y-77744736D01*
X154290086Y-77841528D01*
X154117601Y-77966847D01*
X153966847Y-78117601D01*
X153841528Y-78290086D01*
X153744736Y-78480052D01*
X153744734Y-78480055D01*
X153678853Y-78682816D01*
X153678853Y-78682819D01*
X153659821Y-78802979D01*
X153645500Y-78893399D01*
X140150500Y-78893399D01*
X140150500Y-78349500D01*
X140170185Y-78282461D01*
X140222989Y-78236706D01*
X140274500Y-78225500D01*
X140474676Y-78225500D01*
X140474677Y-78225499D01*
X140547740Y-78210966D01*
X140630601Y-78155601D01*
X140685966Y-78072740D01*
X140700500Y-77999674D01*
X140700500Y-77424500D01*
X140720185Y-77357461D01*
X140772989Y-77311706D01*
X140824500Y-77300500D01*
X158575500Y-77300500D01*
X158642539Y-77320185D01*
G37*
%TD.AperFunction*%
%TA.AperFunction,Conductor*%
G36*
X138442539Y-77320185D02*
G01*
X138488294Y-77372989D01*
X138499500Y-77424500D01*
X138499500Y-77999678D01*
X138514032Y-78072735D01*
X138514033Y-78072739D01*
X138514034Y-78072740D01*
X138569399Y-78155601D01*
X138652260Y-78210966D01*
X138652264Y-78210967D01*
X138725321Y-78225499D01*
X138725324Y-78225500D01*
X138725326Y-78225500D01*
X139325500Y-78225500D01*
X139392539Y-78245185D01*
X139438294Y-78297989D01*
X139449500Y-78349500D01*
X139449500Y-79569457D01*
X139429815Y-79636496D01*
X139413181Y-79657138D01*
X138915082Y-80155236D01*
X138853759Y-80188721D01*
X138784067Y-80183737D01*
X138733688Y-80148758D01*
X138703239Y-80113618D01*
X138650695Y-80052979D01*
X138540748Y-79982321D01*
X138540746Y-79982320D01*
X138540744Y-79982319D01*
X138415348Y-79945500D01*
X138415347Y-79945500D01*
X138284653Y-79945500D01*
X138284652Y-79945500D01*
X138159255Y-79982319D01*
X138049306Y-80052978D01*
X138049305Y-80052978D01*
X138049305Y-80052979D01*
X138012894Y-80095000D01*
X137962134Y-80153580D01*
X137903356Y-80191354D01*
X137833486Y-80191354D01*
X137780740Y-80160058D01*
X137767012Y-80146330D01*
X137733527Y-80085007D01*
X137738511Y-80015315D01*
X137760978Y-79977449D01*
X137786282Y-79948248D01*
X137824919Y-79863643D01*
X137840573Y-79829367D01*
X137840574Y-79829362D01*
X137843049Y-79812149D01*
X137859174Y-79700000D01*
X137840574Y-79570636D01*
X137840573Y-79570635D01*
X137840573Y-79570632D01*
X137786282Y-79451753D01*
X137786282Y-79451752D01*
X137700695Y-79352979D01*
X137590748Y-79282321D01*
X137590746Y-79282320D01*
X137590744Y-79282319D01*
X137539564Y-79267291D01*
X137480786Y-79229516D01*
X137451762Y-79165959D01*
X137450500Y-79148314D01*
X137450500Y-78349500D01*
X137470185Y-78282461D01*
X137522989Y-78236706D01*
X137574500Y-78225500D01*
X137974676Y-78225500D01*
X137974677Y-78225499D01*
X138047740Y-78210966D01*
X138130601Y-78155601D01*
X138185966Y-78072740D01*
X138200500Y-77999674D01*
X138200500Y-77424500D01*
X138220185Y-77357461D01*
X138272989Y-77311706D01*
X138324500Y-77300500D01*
X138375500Y-77300500D01*
X138442539Y-77320185D01*
G37*
%TD.AperFunction*%
%TD*%
M02*
