%TF.GenerationSoftware,KiCad,Pcbnew,8.0.3*%
%TF.CreationDate,2024-07-28T18:35:34+02:00*%
%TF.ProjectId,BLESEN,424c4553-454e-42e6-9b69-6361645f7063,rev?*%
%TF.SameCoordinates,Original*%
%TF.FileFunction,Copper,L1,Top*%
%TF.FilePolarity,Positive*%
%FSLAX46Y46*%
G04 Gerber Fmt 4.6, Leading zero omitted, Abs format (unit mm)*
G04 Created by KiCad (PCBNEW 8.0.3) date 2024-07-28 18:35:34*
%MOMM*%
%LPD*%
G01*
G04 APERTURE LIST*
G04 Aperture macros list*
%AMRoundRect*
0 Rectangle with rounded corners*
0 $1 Rounding radius*
0 $2 $3 $4 $5 $6 $7 $8 $9 X,Y pos of 4 corners*
0 Add a 4 corners polygon primitive as box body*
4,1,4,$2,$3,$4,$5,$6,$7,$8,$9,$2,$3,0*
0 Add four circle primitives for the rounded corners*
1,1,$1+$1,$2,$3*
1,1,$1+$1,$4,$5*
1,1,$1+$1,$6,$7*
1,1,$1+$1,$8,$9*
0 Add four rect primitives between the rounded corners*
20,1,$1+$1,$2,$3,$4,$5,0*
20,1,$1+$1,$4,$5,$6,$7,0*
20,1,$1+$1,$6,$7,$8,$9,0*
20,1,$1+$1,$8,$9,$2,$3,0*%
G04 Aperture macros list end*
%TA.AperFunction,EtchedComponent*%
%ADD10C,0.000000*%
%TD*%
%TA.AperFunction,SMDPad,CuDef*%
%ADD11RoundRect,0.147500X0.172500X-0.147500X0.172500X0.147500X-0.172500X0.147500X-0.172500X-0.147500X0*%
%TD*%
%TA.AperFunction,SMDPad,CuDef*%
%ADD12R,0.900000X1.700000*%
%TD*%
%TA.AperFunction,SMDPad,CuDef*%
%ADD13RoundRect,0.140000X-0.140000X-0.170000X0.140000X-0.170000X0.140000X0.170000X-0.140000X0.170000X0*%
%TD*%
%TA.AperFunction,SMDPad,CuDef*%
%ADD14RoundRect,0.068750X0.068750X-0.281250X0.068750X0.281250X-0.068750X0.281250X-0.068750X-0.281250X0*%
%TD*%
%TA.AperFunction,SMDPad,CuDef*%
%ADD15RoundRect,0.061250X-0.163750X-0.061250X0.163750X-0.061250X0.163750X0.061250X-0.163750X0.061250X0*%
%TD*%
%TA.AperFunction,ComponentPad*%
%ADD16R,1.350000X1.350000*%
%TD*%
%TA.AperFunction,ComponentPad*%
%ADD17O,1.350000X1.350000*%
%TD*%
%TA.AperFunction,SMDPad,CuDef*%
%ADD18RoundRect,0.140000X-0.170000X0.140000X-0.170000X-0.140000X0.170000X-0.140000X0.170000X0.140000X0*%
%TD*%
%TA.AperFunction,SMDPad,CuDef*%
%ADD19RoundRect,0.135000X0.185000X-0.135000X0.185000X0.135000X-0.185000X0.135000X-0.185000X-0.135000X0*%
%TD*%
%TA.AperFunction,SMDPad,CuDef*%
%ADD20RoundRect,0.218750X0.256250X-0.218750X0.256250X0.218750X-0.256250X0.218750X-0.256250X-0.218750X0*%
%TD*%
%TA.AperFunction,SMDPad,CuDef*%
%ADD21RoundRect,0.225000X-0.225000X-0.250000X0.225000X-0.250000X0.225000X0.250000X-0.225000X0.250000X0*%
%TD*%
%TA.AperFunction,SMDPad,CuDef*%
%ADD22R,0.600000X1.100000*%
%TD*%
%TA.AperFunction,SMDPad,CuDef*%
%ADD23RoundRect,0.135000X-0.185000X0.135000X-0.185000X-0.135000X0.185000X-0.135000X0.185000X0.135000X0*%
%TD*%
%TA.AperFunction,SMDPad,CuDef*%
%ADD24RoundRect,0.225000X0.225000X0.250000X-0.225000X0.250000X-0.225000X-0.250000X0.225000X-0.250000X0*%
%TD*%
%TA.AperFunction,SMDPad,CuDef*%
%ADD25RoundRect,0.140000X0.170000X-0.140000X0.170000X0.140000X-0.170000X0.140000X-0.170000X-0.140000X0*%
%TD*%
%TA.AperFunction,SMDPad,CuDef*%
%ADD26R,0.500000X0.300000*%
%TD*%
%TA.AperFunction,SMDPad,CuDef*%
%ADD27RoundRect,0.135000X-0.135000X-0.185000X0.135000X-0.185000X0.135000X0.185000X-0.135000X0.185000X0*%
%TD*%
%TA.AperFunction,SMDPad,CuDef*%
%ADD28RoundRect,0.140000X0.140000X0.170000X-0.140000X0.170000X-0.140000X-0.170000X0.140000X-0.170000X0*%
%TD*%
%TA.AperFunction,SMDPad,CuDef*%
%ADD29RoundRect,0.218750X-0.218750X-0.381250X0.218750X-0.381250X0.218750X0.381250X-0.218750X0.381250X0*%
%TD*%
%TA.AperFunction,SMDPad,CuDef*%
%ADD30RoundRect,0.147500X-0.147500X-0.172500X0.147500X-0.172500X0.147500X0.172500X-0.147500X0.172500X0*%
%TD*%
%TA.AperFunction,SMDPad,CuDef*%
%ADD31RoundRect,0.218750X-0.218750X-0.256250X0.218750X-0.256250X0.218750X0.256250X-0.218750X0.256250X0*%
%TD*%
%TA.AperFunction,FiducialPad,Local*%
%ADD32C,0.500000*%
%TD*%
%TA.AperFunction,ConnectorPad*%
%ADD33R,0.500000X0.500000*%
%TD*%
%TA.AperFunction,ComponentPad*%
%ADD34R,0.500000X0.900000*%
%TD*%
%TA.AperFunction,SMDPad,CuDef*%
%ADD35C,0.500000*%
%TD*%
%TA.AperFunction,SMDPad,CuDef*%
%ADD36R,0.800000X0.900000*%
%TD*%
%TA.AperFunction,ConnectorPad*%
%ADD37C,0.787400*%
%TD*%
%TA.AperFunction,SMDPad,CuDef*%
%ADD38RoundRect,0.062500X0.062500X-0.375000X0.062500X0.375000X-0.062500X0.375000X-0.062500X-0.375000X0*%
%TD*%
%TA.AperFunction,SMDPad,CuDef*%
%ADD39RoundRect,0.062500X0.375000X-0.062500X0.375000X0.062500X-0.375000X0.062500X-0.375000X-0.062500X0*%
%TD*%
%TA.AperFunction,HeatsinkPad*%
%ADD40R,5.600000X5.600000*%
%TD*%
%TA.AperFunction,ViaPad*%
%ADD41C,0.700000*%
%TD*%
%TA.AperFunction,ViaPad*%
%ADD42C,0.800000*%
%TD*%
%TA.AperFunction,ViaPad*%
%ADD43C,0.500000*%
%TD*%
%TA.AperFunction,Conductor*%
%ADD44C,0.350000*%
%TD*%
%TA.AperFunction,Conductor*%
%ADD45C,0.250000*%
%TD*%
%TA.AperFunction,Conductor*%
%ADD46C,0.150000*%
%TD*%
%TA.AperFunction,Conductor*%
%ADD47C,0.200000*%
%TD*%
%TA.AperFunction,Conductor*%
%ADD48C,0.500000*%
%TD*%
%TA.AperFunction,Conductor*%
%ADD49C,0.156500*%
%TD*%
%TA.AperFunction,Conductor*%
%ADD50C,0.157000*%
%TD*%
G04 APERTURE END LIST*
D10*
%TA.AperFunction,EtchedComponent*%
%TO.C,AE1*%
G36*
X158813215Y-82350000D02*
G01*
X163970000Y-82350000D01*
X163970000Y-87350000D01*
X161330000Y-87350000D01*
X161330000Y-89350000D01*
X163970000Y-89350000D01*
X163970000Y-92050000D01*
X161330000Y-92050000D01*
X161330000Y-94050000D01*
X163970000Y-94050000D01*
X163970000Y-96750000D01*
X159530000Y-96750000D01*
X159530000Y-96250000D01*
X163470000Y-96250000D01*
X163470000Y-94550000D01*
X160830000Y-94550000D01*
X160830000Y-91550000D01*
X163470000Y-91550000D01*
X163470000Y-89850000D01*
X160830000Y-89850000D01*
X160830000Y-86850000D01*
X163470000Y-86850000D01*
X163470000Y-85150000D01*
X158570000Y-85150000D01*
X158570000Y-84650000D01*
X163470000Y-84650000D01*
X163470000Y-83250000D01*
X158570000Y-83250000D01*
X158570000Y-82774844D01*
X158673957Y-82774844D01*
X158674700Y-82823363D01*
X158687600Y-82868878D01*
X158698213Y-82887489D01*
X158733447Y-82921132D01*
X158778632Y-82941691D01*
X158828158Y-82948222D01*
X158876417Y-82939782D01*
X158908643Y-82922888D01*
X158941313Y-82887628D01*
X158961408Y-82842318D01*
X158967982Y-82792733D01*
X158960092Y-82744647D01*
X158943186Y-82711755D01*
X158906416Y-82676815D01*
X158861622Y-82657153D01*
X158813215Y-82652417D01*
X158765605Y-82662258D01*
X158723203Y-82686326D01*
X158690419Y-82724269D01*
X158686065Y-82732181D01*
X158673957Y-82774844D01*
X158570000Y-82774844D01*
X158570000Y-82350000D01*
X158813215Y-82350000D01*
G37*
%TD.AperFunction*%
%TD*%
D11*
%TO.P,L2,1,1*%
%TO.N,/SMPSX*%
X142890000Y-83615000D03*
%TO.P,L2,2,2*%
%TO.N,/SMPSXL*%
X142890000Y-82645000D03*
%TD*%
D12*
%TO.P,RST1,1*%
%TO.N,/NRST*%
X134800000Y-97800000D03*
%TO.P,RST1,2*%
%TO.N,GND*%
X131400000Y-97800000D03*
%TD*%
D13*
%TO.P,C3,1*%
%TO.N,+3.3V*%
X145710000Y-93610000D03*
%TO.P,C3,2*%
%TO.N,GND*%
X146670000Y-93610000D03*
%TD*%
D14*
%TO.P,FLT1,1,IN*%
%TO.N,/RF_FLT_IN*%
X154537500Y-87700000D03*
D15*
%TO.P,FLT1,2,GND*%
%TO.N,GND*%
X155150000Y-87472500D03*
D14*
%TO.P,FLT1,3,OUT*%
%TO.N,/RF_FLT_OUT*%
X155762500Y-87700000D03*
D15*
%TO.P,FLT1,4,GND*%
%TO.N,GND*%
X155150000Y-87927500D03*
%TD*%
D16*
%TO.P,J3,1,Pin_1*%
%TO.N,/UART_TX*%
X147600000Y-100600000D03*
D17*
%TO.P,J3,2,Pin_2*%
%TO.N,/UART_RX*%
X145600000Y-100600000D03*
%TO.P,J3,3,Pin_3*%
%TO.N,+3.3V*%
X143600000Y-100600000D03*
%TO.P,J3,4,Pin_4*%
%TO.N,GND*%
X141600000Y-100600000D03*
%TD*%
D18*
%TO.P,C4,1*%
%TO.N,+3.3V*%
X148863000Y-88614400D03*
%TO.P,C4,2*%
%TO.N,GND*%
X148863000Y-89574400D03*
%TD*%
D19*
%TO.P,R1,1*%
%TO.N,+3.3V*%
X135400000Y-90210000D03*
%TO.P,R1,2*%
%TO.N,SDA*%
X135400000Y-89190000D03*
%TD*%
D20*
%TO.P,Q1,1,C*%
%TO.N,PHOTO_V*%
X155150000Y-96537500D03*
%TO.P,Q1,2,E*%
%TO.N,PHOTO_OUT*%
X155150000Y-94962500D03*
%TD*%
D18*
%TO.P,C2,1*%
%TO.N,+3.3V*%
X139350000Y-87670000D03*
%TO.P,C2,2*%
%TO.N,GND*%
X139350000Y-88630000D03*
%TD*%
D21*
%TO.P,C16,1*%
%TO.N,/VFBSMPS*%
X144200000Y-83725000D03*
%TO.P,C16,2*%
%TO.N,GND*%
X145750000Y-83725000D03*
%TD*%
D22*
%TO.P,Y2,1,1*%
%TO.N,/OSC_LSE_IN*%
X142560000Y-94340000D03*
%TO.P,Y2,2,2*%
%TO.N,/OSC_LSE_OUT*%
X143960000Y-94340000D03*
%TD*%
D23*
%TO.P,R2,1*%
%TO.N,+3.3V*%
X135400000Y-86990000D03*
%TO.P,R2,2*%
%TO.N,SCL*%
X135400000Y-88010000D03*
%TD*%
D13*
%TO.P,C13,1*%
%TO.N,/NRST*%
X145710000Y-94660000D03*
%TO.P,C13,2*%
%TO.N,GND*%
X146670000Y-94660000D03*
%TD*%
D24*
%TO.P,C18,1*%
%TO.N,+3.3V*%
X141025000Y-81790000D03*
%TO.P,C18,2*%
%TO.N,GND*%
X139475000Y-81790000D03*
%TD*%
D13*
%TO.P,C15,1*%
%TO.N,/OSC_LSE_OUT*%
X143960000Y-95830000D03*
%TO.P,C15,2*%
%TO.N,GND*%
X144920000Y-95830000D03*
%TD*%
D18*
%TO.P,C8,1*%
%TO.N,/RF_ST_PIN*%
X150263000Y-87689400D03*
%TO.P,C8,2*%
%TO.N,GND*%
X150263000Y-88649400D03*
%TD*%
%TO.P,C12,1*%
%TO.N,+3.3V*%
X130800000Y-88120000D03*
%TO.P,C12,2*%
%TO.N,GND*%
X130800000Y-89080000D03*
%TD*%
D25*
%TO.P,C10,1*%
%TO.N,+3.3V*%
X148858018Y-86024400D03*
%TO.P,C10,2*%
%TO.N,GND*%
X148858018Y-85064400D03*
%TD*%
%TO.P,C11,1*%
%TO.N,+3.3V*%
X149869678Y-86024400D03*
%TO.P,C11,2*%
%TO.N,GND*%
X149869678Y-85064400D03*
%TD*%
D26*
%TO.P,U2,1,SDA*%
%TO.N,SDA*%
X133500000Y-89000000D03*
%TO.P,U2,2,SCL*%
%TO.N,SCL*%
X133500000Y-88200000D03*
%TO.P,U2,3,VDD*%
%TO.N,+3.3V*%
X132100000Y-88200000D03*
%TO.P,U2,4,VSS*%
%TO.N,GND*%
X132100000Y-89000000D03*
%TD*%
D18*
%TO.P,C1,1*%
%TO.N,+3.3V*%
X139150000Y-91670000D03*
%TO.P,C1,2*%
%TO.N,GND*%
X139150000Y-92630000D03*
%TD*%
D27*
%TO.P,R3,1*%
%TO.N,Net-(D1-A)*%
X151090000Y-99000000D03*
%TO.P,R3,2*%
%TO.N,LED*%
X152110000Y-99000000D03*
%TD*%
D28*
%TO.P,C7,1*%
%TO.N,+3.3V*%
X141080000Y-84190000D03*
%TO.P,C7,2*%
%TO.N,GND*%
X140120000Y-84190000D03*
%TD*%
D29*
%TO.P,L3,1,1*%
%TO.N,/SMPSXL*%
X142887500Y-81200000D03*
%TO.P,L3,2,2*%
%TO.N,/VFBSMPS*%
X145012500Y-81200000D03*
%TD*%
D30*
%TO.P,L1,1,1*%
%TO.N,/RF_ST_PIN*%
X151278000Y-87669400D03*
%TO.P,L1,2,2*%
%TO.N,/RF_FLT_IN*%
X152248000Y-87669400D03*
%TD*%
D27*
%TO.P,R4,1*%
%TO.N,GND*%
X153240000Y-93600000D03*
%TO.P,R4,2*%
%TO.N,PHOTO_OUT*%
X154260000Y-93600000D03*
%TD*%
D31*
%TO.P,D1,1,K*%
%TO.N,GND*%
X147012500Y-98000000D03*
%TO.P,D1,2,A*%
%TO.N,Net-(D1-A)*%
X148587500Y-98000000D03*
%TD*%
D32*
%TO.P,FID1,*%
%TO.N,*%
X152000000Y-101000000D03*
%TD*%
D21*
%TO.P,C6,1*%
%TO.N,+3.3V*%
X137663000Y-93869400D03*
%TO.P,C6,2*%
%TO.N,GND*%
X139213000Y-93869400D03*
%TD*%
D33*
%TO.P,AE1,1,A*%
%TO.N,/RF_FLT_OUT*%
X158820000Y-84900000D03*
D34*
%TO.P,AE1,2,Shield*%
%TO.N,GND*%
X158820000Y-82800000D03*
%TD*%
D35*
%TO.P,FID2,*%
%TO.N,*%
X129000000Y-101000000D03*
%TD*%
D28*
%TO.P,C14,1*%
%TO.N,/OSC_LSE_IN*%
X142560000Y-95830000D03*
%TO.P,C14,2*%
%TO.N,GND*%
X141600000Y-95830000D03*
%TD*%
D18*
%TO.P,C9,1*%
%TO.N,/RF_FLT_IN*%
X153263000Y-87689400D03*
%TO.P,C9,2*%
%TO.N,GND*%
X153263000Y-88649400D03*
%TD*%
D28*
%TO.P,C17,1*%
%TO.N,+3.3V*%
X141010000Y-83090000D03*
%TO.P,C17,2*%
%TO.N,GND*%
X140050000Y-83090000D03*
%TD*%
%TO.P,C5,1*%
%TO.N,+3.3V*%
X141405000Y-93602400D03*
%TO.P,C5,2*%
%TO.N,GND*%
X140445000Y-93602400D03*
%TD*%
D36*
%TO.P,Y1,1,1*%
%TO.N,/OSC_HSE_IN*%
X149050000Y-81600000D03*
%TO.P,Y1,2,2*%
%TO.N,GND*%
X149050000Y-83000000D03*
%TO.P,Y1,3,3*%
%TO.N,/OSC_HSE_OUT*%
X150150000Y-83000000D03*
%TO.P,Y1,4,4*%
%TO.N,GND*%
X150150000Y-81600000D03*
%TD*%
D37*
%TO.P,J1,1,VCC*%
%TO.N,+3.3V*%
X130365000Y-79730000D03*
%TO.P,J1,2,SWDIO*%
%TO.N,SWDIO*%
X131635000Y-79730000D03*
%TO.P,J1,3,~{RESET}*%
%TO.N,/NRST*%
X130365000Y-81000000D03*
%TO.P,J1,4,SWCLK*%
%TO.N,SWDCLK*%
X131635000Y-81000000D03*
%TO.P,J1,5,GND*%
%TO.N,GND*%
X130365000Y-82270000D03*
%TO.P,J1,6,SWO*%
%TO.N,unconnected-(J1-SWO-Pad6)*%
X131635000Y-82270000D03*
%TD*%
D38*
%TO.P,U1,1,VBAT*%
%TO.N,+3.3V*%
X141400000Y-92362500D03*
%TO.P,U1,2,RCC_OSC32_IN*%
%TO.N,/OSC_LSE_IN*%
X141900000Y-92362500D03*
%TO.P,U1,3,RCC_OSC32_OUT*%
%TO.N,/OSC_LSE_OUT*%
X142400000Y-92362500D03*
%TO.P,U1,4,PH3*%
%TO.N,unconnected-(U1-PH3-Pad4)*%
X142900000Y-92362500D03*
%TO.P,U1,5,PB8*%
%TO.N,unconnected-(U1-PB8-Pad5)*%
X143400000Y-92362500D03*
%TO.P,U1,6,PB9*%
%TO.N,unconnected-(U1-PB9-Pad6)*%
X143900000Y-92362500D03*
%TO.P,U1,7,NRST*%
%TO.N,/NRST*%
X144400000Y-92362500D03*
%TO.P,U1,8,VDDA*%
%TO.N,+3.3V*%
X144900000Y-92362500D03*
%TO.P,U1,9,PA0*%
%TO.N,unconnected-(U1-PA0-Pad9)*%
X145400000Y-92362500D03*
%TO.P,U1,10,PA1*%
%TO.N,unconnected-(U1-PA1-Pad10)*%
X145900000Y-92362500D03*
%TO.P,U1,11,PA2*%
%TO.N,unconnected-(U1-PA2-Pad11)*%
X146400000Y-92362500D03*
%TO.P,U1,12,ADC1_IN8*%
%TO.N,PHOTO_OUT*%
X146900000Y-92362500D03*
D39*
%TO.P,U1,13,PA4*%
%TO.N,LED*%
X147587500Y-91675000D03*
%TO.P,U1,14,PA5*%
%TO.N,PHOTO_V*%
X147587500Y-91175000D03*
%TO.P,U1,15,PA6*%
%TO.N,unconnected-(U1-PA6-Pad15)*%
X147587500Y-90675000D03*
%TO.P,U1,16,PA7*%
%TO.N,unconnected-(U1-PA7-Pad16)*%
X147587500Y-90175000D03*
%TO.P,U1,17,PA8*%
%TO.N,unconnected-(U1-PA8-Pad17)*%
X147587500Y-89675000D03*
%TO.P,U1,18,USART1_TX*%
%TO.N,/UART_TX*%
X147587500Y-89175000D03*
%TO.P,U1,19,PB2*%
%TO.N,unconnected-(U1-PB2-Pad19)*%
X147587500Y-88675000D03*
%TO.P,U1,20,VDD*%
%TO.N,+3.3V*%
X147587500Y-88175000D03*
%TO.P,U1,21,RF1*%
%TO.N,/RF_ST_PIN*%
X147587500Y-87675000D03*
%TO.P,U1,22,VSSRF*%
%TO.N,GND*%
X147587500Y-87175000D03*
%TO.P,U1,23,VDDRF*%
%TO.N,+3.3V*%
X147587500Y-86675000D03*
%TO.P,U1,24,OSC_OUT*%
%TO.N,/OSC_HSE_OUT*%
X147587500Y-86175000D03*
D38*
%TO.P,U1,25,OSC_IN*%
%TO.N,/OSC_HSE_IN*%
X146900000Y-85487500D03*
%TO.P,U1,26,AT0*%
%TO.N,unconnected-(U1-AT0-Pad26)*%
X146400000Y-85487500D03*
%TO.P,U1,27,AT1*%
%TO.N,unconnected-(U1-AT1-Pad27)*%
X145900000Y-85487500D03*
%TO.P,U1,28,PB0*%
%TO.N,unconnected-(U1-PB0-Pad28)*%
X145400000Y-85487500D03*
%TO.P,U1,29,PB1*%
%TO.N,unconnected-(U1-PB1-Pad29)*%
X144900000Y-85487500D03*
%TO.P,U1,30,PE4*%
%TO.N,unconnected-(U1-PE4-Pad30)*%
X144400000Y-85487500D03*
%TO.P,U1,31,VFBSMPS*%
%TO.N,/VFBSMPS*%
X143900000Y-85487500D03*
%TO.P,U1,32,VSSSMPS*%
%TO.N,GND*%
X143400000Y-85487500D03*
%TO.P,U1,33,VLXSMPS*%
%TO.N,/SMPSX*%
X142900000Y-85487500D03*
%TO.P,U1,34,VDDSMPS*%
%TO.N,+3.3V*%
X142400000Y-85487500D03*
%TO.P,U1,35,VDD*%
X141900000Y-85487500D03*
%TO.P,U1,36,USART1_RX*%
%TO.N,/UART_RX*%
X141400000Y-85487500D03*
D39*
%TO.P,U1,37,PA11*%
%TO.N,unconnected-(U1-PA11-Pad37)*%
X140712500Y-86175000D03*
%TO.P,U1,38,PA12*%
%TO.N,unconnected-(U1-PA12-Pad38)*%
X140712500Y-86675000D03*
%TO.P,U1,39,SYS_JTMS-SWDIO*%
%TO.N,SWDIO*%
X140712500Y-87175000D03*
%TO.P,U1,40,VDDUSB*%
%TO.N,+3.3V*%
X140712500Y-87675000D03*
%TO.P,U1,41,SYS_JTCK-SWCLK*%
%TO.N,SWDCLK*%
X140712500Y-88175000D03*
%TO.P,U1,42,PA15*%
%TO.N,unconnected-(U1-PA15-Pad42)*%
X140712500Y-88675000D03*
%TO.P,U1,43,PB3*%
%TO.N,unconnected-(U1-PB3-Pad43)*%
X140712500Y-89175000D03*
%TO.P,U1,44,PB4*%
%TO.N,unconnected-(U1-PB4-Pad44)*%
X140712500Y-89675000D03*
%TO.P,U1,45,PB5*%
%TO.N,unconnected-(U1-PB5-Pad45)*%
X140712500Y-90175000D03*
%TO.P,U1,46,I2C1_SCL*%
%TO.N,SCL*%
X140712500Y-90675000D03*
%TO.P,U1,47,I2C1_SDA*%
%TO.N,SDA*%
X140712500Y-91175000D03*
%TO.P,U1,48,VDD*%
%TO.N,+3.3V*%
X140712500Y-91675000D03*
D40*
%TO.P,U1,49,VSS*%
%TO.N,GND*%
X144150000Y-88925000D03*
%TD*%
D35*
%TO.P,FID3,*%
%TO.N,*%
X152000000Y-78000000D03*
%TD*%
D41*
%TO.N,+3.3V*%
X141000000Y-80200000D03*
X134500000Y-87000000D03*
X133800000Y-91400000D03*
X136000000Y-83400000D03*
X135100000Y-93900000D03*
X152150000Y-84450000D03*
X153950000Y-92100000D03*
X138350000Y-80400000D03*
X136725000Y-96275000D03*
X130800000Y-87150000D03*
D42*
X129400000Y-79730000D03*
D41*
X150100000Y-97550000D03*
%TO.N,GND*%
X148875000Y-90325000D03*
D43*
X145200000Y-89800000D03*
D41*
X140160000Y-96600000D03*
X158000000Y-79000000D03*
D43*
X141963000Y-86719400D03*
X145200000Y-87600000D03*
D41*
X129400000Y-96000000D03*
X135600000Y-91800000D03*
X130200000Y-93000000D03*
D43*
X146413000Y-91169400D03*
D41*
X158000000Y-93000000D03*
X146800000Y-99200000D03*
X149375000Y-100500000D03*
D43*
X148975000Y-83675000D03*
D41*
X158000000Y-81000000D03*
X158300000Y-86075000D03*
X158000000Y-78000000D03*
X158000000Y-83000000D03*
X131000000Y-101000000D03*
X134600000Y-82600000D03*
D43*
X143200000Y-89800000D03*
D41*
X155500000Y-83650000D03*
X152700000Y-96800000D03*
X129800000Y-85600000D03*
X132775000Y-96900000D03*
X129800000Y-88400000D03*
X158000000Y-89000000D03*
X142000000Y-99000000D03*
X158000000Y-101000000D03*
X144400000Y-96750000D03*
X139200000Y-84050000D03*
X139200000Y-83100000D03*
X139250000Y-94750000D03*
X139800000Y-99600000D03*
X153250000Y-98650000D03*
D43*
X152950000Y-81425000D03*
D41*
X138550000Y-88180000D03*
X148600000Y-96400000D03*
X158000000Y-99000000D03*
X135000000Y-101000000D03*
X140400000Y-79000000D03*
D43*
X146363000Y-88869400D03*
D41*
X135200000Y-78000000D03*
X158000000Y-91000000D03*
X153820000Y-85920000D03*
D43*
X149400000Y-86750000D03*
D41*
X158000000Y-94000000D03*
X136200000Y-85400000D03*
X133000000Y-78000000D03*
X158000000Y-87000000D03*
X138800000Y-78000000D03*
X153000000Y-79100000D03*
X132375000Y-94050000D03*
X150175000Y-80025000D03*
X157000000Y-101000000D03*
D43*
X146313000Y-86719400D03*
D41*
X158000000Y-98000000D03*
X142000000Y-78000000D03*
X154875000Y-98175000D03*
X158000000Y-100000000D03*
X151200000Y-97200000D03*
X158000000Y-84000000D03*
X136000000Y-80200000D03*
D43*
X144063000Y-91119400D03*
D41*
X158000000Y-82000000D03*
D43*
X152875000Y-92875000D03*
D41*
X148125000Y-78575000D03*
X153000000Y-83000000D03*
X144400000Y-98600000D03*
X146550000Y-80100000D03*
D43*
X153575000Y-94500000D03*
D41*
X147940000Y-95090000D03*
X158000000Y-92000000D03*
X158000000Y-95000000D03*
X129800000Y-90600000D03*
D43*
X141913000Y-88919400D03*
D41*
X157000000Y-78000000D03*
X153450000Y-90050000D03*
X158000000Y-90000000D03*
X158000000Y-88000000D03*
X129400000Y-99200000D03*
D43*
X141963000Y-91169400D03*
D41*
X158000000Y-80000000D03*
X145000000Y-78000000D03*
D43*
X144113000Y-86719400D03*
D41*
X158000000Y-97000000D03*
X155025000Y-81800000D03*
D43*
X143200000Y-87600000D03*
D41*
X129000000Y-78000000D03*
X146925000Y-82325000D03*
X137000000Y-79000000D03*
X158000000Y-96000000D03*
X152000000Y-91000000D03*
X151000000Y-78000000D03*
X140413000Y-94569400D03*
D43*
X150800000Y-84500000D03*
X151600000Y-83400000D03*
X156425000Y-80725000D03*
%TO.N,/UART_TX*%
X152525000Y-93825000D03*
%TO.N,/UART_RX*%
X137450000Y-82850000D03*
%TO.N,PHOTO_OUT*%
X155150000Y-93850000D03*
X151200000Y-95400000D03*
%TD*%
D44*
%TO.N,+3.3V*%
X139150000Y-91670000D02*
X138330000Y-91670000D01*
X138330000Y-91670000D02*
X137663000Y-92337000D01*
D45*
X141400000Y-93581200D02*
X141421200Y-93602400D01*
X141800000Y-84400000D02*
X141800000Y-83650000D01*
D44*
X141000000Y-81765000D02*
X141025000Y-81790000D01*
D45*
X134900000Y-91400000D02*
X135400000Y-90900000D01*
X130880000Y-88200000D02*
X130800000Y-88120000D01*
X149600000Y-90100000D02*
X149600000Y-88950000D01*
X135310000Y-87000000D02*
X135400000Y-87090000D01*
D46*
X145710000Y-93610000D02*
X145740000Y-93610000D01*
D45*
X141010000Y-83090000D02*
X141010000Y-81805000D01*
X139350000Y-87250000D02*
X139350000Y-87670000D01*
X140707500Y-87670000D02*
X140712500Y-87675000D01*
X148000000Y-88175000D02*
X148439400Y-88614400D01*
X148439400Y-88614400D02*
X148863000Y-88614400D01*
D47*
X150100000Y-95250000D02*
X147900000Y-93050000D01*
X145875000Y-93050000D02*
X145740000Y-93185000D01*
D46*
X145710000Y-93610000D02*
X145710000Y-93590000D01*
D45*
X145260000Y-93610000D02*
X145710000Y-93610000D01*
X136000000Y-83900000D02*
X139350000Y-87250000D01*
X144900000Y-92362500D02*
X144900000Y-93250000D01*
X140375000Y-85000000D02*
X139150000Y-85000000D01*
X141400000Y-92362500D02*
X141400000Y-93581200D01*
X139150000Y-85000000D02*
X138350000Y-84200000D01*
X147587500Y-86675000D02*
X148575000Y-86675000D01*
X137300000Y-95700000D02*
X140300000Y-95700000D01*
X152150000Y-84450000D02*
X150575600Y-86024400D01*
X153950000Y-92100000D02*
X151600000Y-92100000D01*
X136000000Y-83400000D02*
X136000000Y-83900000D01*
X139350000Y-87670000D02*
X140707500Y-87670000D01*
X133800000Y-91400000D02*
X134900000Y-91400000D01*
X132100000Y-88200000D02*
X130880000Y-88200000D01*
X148858018Y-86024400D02*
X149888000Y-86024400D01*
D44*
X141000000Y-80200000D02*
X141000000Y-81765000D01*
D45*
X151600000Y-92100000D02*
X149600000Y-90100000D01*
D44*
X135100000Y-93900000D02*
X137632400Y-93900000D01*
D45*
X137738000Y-93794400D02*
X137663000Y-93869400D01*
X149264400Y-88614400D02*
X148863000Y-88614400D01*
D44*
X137632400Y-93900000D02*
X137663000Y-93869400D01*
D45*
X139155000Y-91675000D02*
X139150000Y-91670000D01*
D44*
X137663000Y-92337000D02*
X137663000Y-93869400D01*
D45*
X141900000Y-85487500D02*
X141900000Y-85103498D01*
D47*
X150100000Y-97550000D02*
X150100000Y-95250000D01*
D45*
X130800000Y-87150000D02*
X130800000Y-88120000D01*
X141080000Y-84295000D02*
X140375000Y-85000000D01*
X140712500Y-91675000D02*
X139155000Y-91675000D01*
D47*
X147900000Y-93050000D02*
X145875000Y-93050000D01*
D46*
X145710000Y-93610000D02*
X145710000Y-93555000D01*
D45*
X135400000Y-90900000D02*
X135400000Y-90310000D01*
X141240000Y-83090000D02*
X141010000Y-83090000D01*
X141900000Y-85103498D02*
X141080000Y-84283498D01*
X134500000Y-87000000D02*
X135310000Y-87000000D01*
X149600000Y-88950000D02*
X149264400Y-88614400D01*
X148575000Y-86675000D02*
X148858018Y-86391982D01*
X147587500Y-88175000D02*
X148000000Y-88175000D01*
X129400000Y-79730000D02*
X130365000Y-79730000D01*
X141800000Y-83650000D02*
X141240000Y-83090000D01*
X141080000Y-84283498D02*
X141080000Y-84190000D01*
X148858018Y-86391982D02*
X148858018Y-86024400D01*
X142400000Y-85000000D02*
X141800000Y-84400000D01*
X141080000Y-84190000D02*
X141080000Y-84295000D01*
X142400000Y-85487500D02*
X142400000Y-85000000D01*
X141421200Y-94578800D02*
X141421200Y-93602400D01*
X150575600Y-86024400D02*
X149869678Y-86024400D01*
X136725000Y-96275000D02*
X137300000Y-95700000D01*
X138350000Y-84200000D02*
X138350000Y-80500000D01*
X144900000Y-93250000D02*
X145260000Y-93610000D01*
D47*
X145740000Y-93185000D02*
X145740000Y-93610000D01*
D45*
X140300000Y-95700000D02*
X141421200Y-94578800D01*
X137663000Y-93869400D02*
G75*
G03*
X137800000Y-93732400I0J137000D01*
G01*
X141010000Y-81805000D02*
G75*
G02*
X141025000Y-81790000I15000J0D01*
G01*
%TO.N,GND*%
X139214000Y-93843400D02*
X139227000Y-93856400D01*
X139000000Y-88630000D02*
X139350000Y-88630000D01*
D48*
X148975000Y-83075000D02*
X149050000Y-83000000D01*
D45*
X147587500Y-87175000D02*
X145900000Y-87175000D01*
X138550000Y-88180000D02*
X139000000Y-88630000D01*
X143400000Y-85487500D02*
X143400000Y-88175000D01*
X149050000Y-83000000D02*
X149050000Y-82800000D01*
D48*
X148975000Y-83675000D02*
X148975000Y-83075000D01*
D45*
X150150000Y-81854000D02*
X150150000Y-81600000D01*
X143400000Y-88175000D02*
X144150000Y-88925000D01*
X145900000Y-87175000D02*
G75*
G03*
X144150000Y-88925000I0J-1750000D01*
G01*
D49*
%TO.N,/RF_FLT_OUT*%
X155782500Y-87680000D02*
X155762500Y-87700000D01*
X155820000Y-87680000D02*
X155782500Y-87680000D01*
X158820000Y-84900000D02*
X158600000Y-84900000D01*
X157425000Y-86075000D02*
G75*
G02*
X155820000Y-87680000I-1605000J0D01*
G01*
X158600000Y-84900000D02*
G75*
G03*
X157425000Y-86075000I0J-1175000D01*
G01*
D45*
%TO.N,/NRST*%
X145050000Y-97800000D02*
X134800000Y-97800000D01*
X145710000Y-97140000D02*
X145050000Y-97800000D01*
D47*
X145710000Y-94660000D02*
X145750000Y-94700000D01*
D45*
X129900000Y-94200000D02*
X129400000Y-94200000D01*
X129600000Y-81000000D02*
X130365000Y-81000000D01*
X128800000Y-81800000D02*
X129600000Y-81000000D01*
X131200000Y-95500000D02*
X129900000Y-94200000D01*
D47*
X144400000Y-92362500D02*
X144400000Y-93350000D01*
D45*
X134800000Y-97800000D02*
X134800000Y-96300000D01*
X145710000Y-94660000D02*
X145710000Y-97140000D01*
X129400000Y-94200000D02*
X128800000Y-93600000D01*
D47*
X144400000Y-93350000D02*
X145710000Y-94660000D01*
D45*
X134000000Y-95500000D02*
X131200000Y-95500000D01*
X134800000Y-96300000D02*
X134000000Y-95500000D01*
X128800000Y-93600000D02*
X128800000Y-81800000D01*
D47*
%TO.N,SWDIO*%
X137000000Y-84050000D02*
X137000000Y-83200000D01*
X140712500Y-87175000D02*
X140125000Y-87175000D01*
X133600000Y-79800000D02*
X131705000Y-79800000D01*
X140125000Y-87175000D02*
X137000000Y-84050000D01*
X137000000Y-83200000D02*
X133600000Y-79800000D01*
X131705000Y-79800000D02*
X131635000Y-79730000D01*
D46*
%TO.N,/UART_TX*%
X148024999Y-89175000D02*
X147587500Y-89175000D01*
X149675000Y-90975000D02*
X148625000Y-90975000D01*
X148227000Y-89377001D02*
X148024999Y-89175000D01*
X148227000Y-90577000D02*
X148227000Y-89377001D01*
X148625000Y-90975000D02*
X148227000Y-90577000D01*
X152525000Y-93825000D02*
X149675000Y-90975000D01*
%TO.N,/UART_RX*%
X137450000Y-82850000D02*
X137800000Y-83200000D01*
X137800000Y-84225000D02*
X139062500Y-85487500D01*
X139062500Y-85487500D02*
X141400000Y-85487500D01*
X137800000Y-83200000D02*
X137800000Y-84225000D01*
D49*
%TO.N,/RF_ST_PIN*%
X147587500Y-87675000D02*
X150248600Y-87675000D01*
X151258000Y-87689400D02*
X151278000Y-87669400D01*
X150263000Y-87689400D02*
X151258000Y-87689400D01*
X150248600Y-87675000D02*
X150263000Y-87689400D01*
%TO.N,/RF_FLT_IN*%
X153263000Y-87689400D02*
X154396900Y-87689400D01*
X153243000Y-87669400D02*
X153263000Y-87689400D01*
X152248000Y-87669400D02*
X153243000Y-87669400D01*
D45*
%TO.N,/OSC_LSE_IN*%
X141900000Y-93020000D02*
X141900000Y-92362500D01*
X142560000Y-95830000D02*
X142560000Y-94340000D01*
X142560000Y-93680000D02*
X141900000Y-93020000D01*
X142560000Y-94340000D02*
X142560000Y-93680000D01*
%TO.N,/OSC_LSE_OUT*%
X142850000Y-93200000D02*
X143475000Y-93200000D01*
X143960000Y-93685000D02*
X143960000Y-94340000D01*
X142400000Y-92750000D02*
X142850000Y-93200000D01*
X142400000Y-92362500D02*
X142400000Y-92750000D01*
X143475000Y-93200000D02*
X143960000Y-93685000D01*
X143960000Y-95830000D02*
X143960000Y-94340000D01*
D50*
%TO.N,SDA*%
X135490000Y-89200000D02*
X135400000Y-89290000D01*
X135000000Y-89200000D02*
X134810000Y-89010000D01*
X137800000Y-90800000D02*
X136200000Y-89200000D01*
X140712500Y-91175000D02*
X139975000Y-91175000D01*
X136200000Y-89200000D02*
X135490000Y-89200000D01*
X134810000Y-89010000D02*
X133490000Y-89010000D01*
X135390000Y-89200000D02*
X135000000Y-89200000D01*
X139600000Y-90800000D02*
X137800000Y-90800000D01*
X139975000Y-91175000D02*
X139600000Y-90800000D01*
%TO.N,SCL*%
X140225000Y-90675000D02*
X139975000Y-90675000D01*
X134820000Y-88200000D02*
X133500000Y-88200000D01*
X135400000Y-88010000D02*
X135010000Y-88010000D01*
X136225000Y-88010000D02*
X135400000Y-88010000D01*
D45*
X140712500Y-90675000D02*
X140225000Y-90675000D01*
D50*
X139250000Y-89950000D02*
X138165000Y-89950000D01*
X139975000Y-90675000D02*
X139250000Y-89950000D01*
X135010000Y-88010000D02*
X134820000Y-88200000D01*
X138165000Y-89950000D02*
X136225000Y-88010000D01*
D47*
%TO.N,SWDCLK*%
X139700000Y-89300000D02*
X138853998Y-89300000D01*
X133600000Y-83850000D02*
X133600000Y-82400000D01*
X140225000Y-88175000D02*
X140000000Y-88400000D01*
X140712500Y-88175000D02*
X140225000Y-88175000D01*
X138853998Y-89300000D02*
X137973000Y-88419002D01*
X137973000Y-88419002D02*
X137973000Y-88223000D01*
X140000000Y-88400000D02*
X140000000Y-89000000D01*
X133600000Y-82400000D02*
X132200000Y-81000000D01*
X137973000Y-88223000D02*
X133600000Y-83850000D01*
X132200000Y-81000000D02*
X131635000Y-81000000D01*
X140000000Y-89000000D02*
X139700000Y-89300000D01*
D45*
%TO.N,/OSC_HSE_OUT*%
X147600000Y-84925000D02*
X148300000Y-84225000D01*
X147600000Y-86162500D02*
X147600000Y-84925000D01*
X150150000Y-83825000D02*
X150150000Y-83000000D01*
X148300000Y-84225000D02*
X149750000Y-84225000D01*
X147587500Y-86175000D02*
X147600000Y-86162500D01*
X149750000Y-84225000D02*
X150150000Y-83825000D01*
%TO.N,/OSC_HSE_IN*%
X148025000Y-83575000D02*
X148025000Y-81675000D01*
X148100000Y-81600000D02*
X148025000Y-81675000D01*
X149050000Y-81600000D02*
X148100000Y-81600000D01*
X146900000Y-85487500D02*
X146900000Y-84700000D01*
X146900000Y-84700000D02*
X148025000Y-83575000D01*
D48*
%TO.N,/VFBSMPS*%
X143900000Y-84950000D02*
X143900000Y-84675000D01*
D45*
X143900000Y-84950000D02*
X143900000Y-85487500D01*
%TO.N,Net-(D1-A)*%
X151090000Y-99000000D02*
X150200000Y-99000000D01*
X149200000Y-98000000D02*
X148587500Y-98000000D01*
X150200000Y-99000000D02*
X149200000Y-98000000D01*
D48*
%TO.N,/SMPSX*%
X142900000Y-83625000D02*
X142890000Y-83615000D01*
D45*
X142900000Y-85487500D02*
X142900000Y-84950000D01*
D48*
X142900000Y-84950000D02*
X142900000Y-83625000D01*
%TO.N,/SMPSXL*%
X142890000Y-81227500D02*
X142862500Y-81200000D01*
X142890000Y-82342500D02*
X142890000Y-81227500D01*
D47*
%TO.N,LED*%
X147587500Y-91675000D02*
X148250000Y-91675000D01*
X148600000Y-91800000D02*
X152110000Y-95310000D01*
X148250000Y-91675000D02*
X148375000Y-91800000D01*
X152110000Y-95310000D02*
X152110000Y-99000000D01*
X148375000Y-91800000D02*
X148600000Y-91800000D01*
X147587500Y-91675000D02*
X147885000Y-91675000D01*
%TO.N,PHOTO_OUT*%
X154900000Y-93600000D02*
X154260000Y-93600000D01*
X155150000Y-93850000D02*
X154900000Y-93600000D01*
X151200000Y-95400000D02*
X148162500Y-92362500D01*
X148162500Y-92362500D02*
X146900000Y-92362500D01*
X155150000Y-93850000D02*
X155150000Y-94962500D01*
%TO.N,PHOTO_V*%
X149225000Y-91400000D02*
X154362500Y-96537500D01*
X147587500Y-91175000D02*
X148375000Y-91175000D01*
X148600000Y-91400000D02*
X149225000Y-91400000D01*
X148375000Y-91175000D02*
X148600000Y-91400000D01*
X154362500Y-96537500D02*
X155150000Y-96537500D01*
%TD*%
%TA.AperFunction,Conductor*%
%TO.N,GND*%
G36*
X151709058Y-77320185D02*
G01*
X151754813Y-77372989D01*
X151764757Y-77442147D01*
X151735732Y-77505703D01*
X151717510Y-77522871D01*
X151607379Y-77607379D01*
X151519137Y-77722377D01*
X151463671Y-77856287D01*
X151463670Y-77856291D01*
X151444750Y-77999999D01*
X151444750Y-78000000D01*
X151463670Y-78143708D01*
X151463671Y-78143712D01*
X151519137Y-78277622D01*
X151519138Y-78277624D01*
X151519139Y-78277625D01*
X151607379Y-78392621D01*
X151722375Y-78480861D01*
X151856291Y-78536330D01*
X151983280Y-78553048D01*
X151999999Y-78555250D01*
X152000000Y-78555250D01*
X152000001Y-78555250D01*
X152014977Y-78553278D01*
X152143709Y-78536330D01*
X152277625Y-78480861D01*
X152392621Y-78392621D01*
X152480861Y-78277625D01*
X152536330Y-78143709D01*
X152555250Y-78000000D01*
X152536330Y-77856291D01*
X152480861Y-77722375D01*
X152392621Y-77607379D01*
X152282492Y-77522874D01*
X152241292Y-77466448D01*
X152237137Y-77396702D01*
X152271350Y-77335781D01*
X152333067Y-77303029D01*
X152357981Y-77300500D01*
X158575500Y-77300500D01*
X158642539Y-77320185D01*
X158688294Y-77372989D01*
X158699500Y-77424500D01*
X158699500Y-78960438D01*
X158699500Y-80039562D01*
X158700470Y-80043181D01*
X158719979Y-80115990D01*
X158719982Y-80115995D01*
X158759535Y-80184504D01*
X158759539Y-80184509D01*
X158759540Y-80184511D01*
X158815489Y-80240460D01*
X158815491Y-80240461D01*
X158815495Y-80240464D01*
X158846257Y-80258224D01*
X158884011Y-80280021D01*
X158960438Y-80300500D01*
X158960441Y-80300500D01*
X158962185Y-80300730D01*
X158963547Y-80301332D01*
X158968288Y-80302603D01*
X158968089Y-80303342D01*
X159026082Y-80328997D01*
X159064553Y-80387321D01*
X159070000Y-80423669D01*
X159070000Y-84225500D01*
X159050315Y-84292539D01*
X158997511Y-84338294D01*
X158946000Y-84349500D01*
X158525143Y-84349500D01*
X158525117Y-84349502D01*
X158500012Y-84352413D01*
X158500008Y-84352415D01*
X158397235Y-84397793D01*
X158317796Y-84477232D01*
X158317790Y-84477242D01*
X158309958Y-84494979D01*
X158264872Y-84548355D01*
X158231460Y-84563868D01*
X158055627Y-84615497D01*
X157853476Y-84707816D01*
X157853460Y-84707825D01*
X157709868Y-84800107D01*
X157666494Y-84827982D01*
X157625662Y-84863362D01*
X157498525Y-84973525D01*
X157421260Y-85062696D01*
X157352982Y-85141494D01*
X157352980Y-85141496D01*
X157352980Y-85141497D01*
X157352978Y-85141500D01*
X157232825Y-85328460D01*
X157232816Y-85328476D01*
X157140497Y-85530627D01*
X157077881Y-85743877D01*
X157077878Y-85743887D01*
X157046250Y-85963875D01*
X157046250Y-86070124D01*
X157045868Y-86079853D01*
X157031918Y-86257100D01*
X157028874Y-86276318D01*
X156988511Y-86444442D01*
X156982498Y-86462948D01*
X156916330Y-86622691D01*
X156907496Y-86640028D01*
X156817154Y-86787453D01*
X156805717Y-86803194D01*
X156693422Y-86934675D01*
X156679675Y-86948422D01*
X156558708Y-87051738D01*
X156548194Y-87060718D01*
X156532453Y-87072154D01*
X156385028Y-87162496D01*
X156367691Y-87171330D01*
X156259216Y-87216262D01*
X156189747Y-87223731D01*
X156127267Y-87192456D01*
X156124082Y-87189382D01*
X156048782Y-87114082D01*
X155938068Y-87059957D01*
X155927813Y-87058463D01*
X155866295Y-87049500D01*
X155866289Y-87049500D01*
X155658706Y-87049500D01*
X155586932Y-87059957D01*
X155476217Y-87114082D01*
X155389082Y-87201217D01*
X155337458Y-87306818D01*
X155334957Y-87311933D01*
X155324500Y-87383705D01*
X155324500Y-87383709D01*
X155324500Y-87383710D01*
X155324500Y-88016293D01*
X155334957Y-88088067D01*
X155389082Y-88198782D01*
X155476217Y-88285917D01*
X155476218Y-88285917D01*
X155476220Y-88285919D01*
X155586933Y-88340043D01*
X155658705Y-88350500D01*
X155866294Y-88350499D01*
X155938067Y-88340043D01*
X156048780Y-88285919D01*
X156135919Y-88198780D01*
X156190043Y-88088067D01*
X156190043Y-88088066D01*
X156194272Y-88079416D01*
X156195855Y-88080190D01*
X156228118Y-88031502D01*
X156275903Y-88006569D01*
X156459024Y-87957503D01*
X156699273Y-87857988D01*
X156924477Y-87727967D01*
X157130783Y-87569662D01*
X157130787Y-87569657D01*
X157130792Y-87569654D01*
X157314654Y-87385792D01*
X157314657Y-87385787D01*
X157314662Y-87385783D01*
X157472967Y-87179477D01*
X157602988Y-86954273D01*
X157702503Y-86714024D01*
X157769807Y-86462841D01*
X157803750Y-86205022D01*
X157803750Y-86081092D01*
X157804347Y-86068938D01*
X157808974Y-86021962D01*
X157817853Y-85931805D01*
X157822592Y-85907981D01*
X157860818Y-85781965D01*
X157870116Y-85759520D01*
X157932188Y-85643391D01*
X157945684Y-85623192D01*
X158029222Y-85521401D01*
X158046401Y-85504222D01*
X158148192Y-85420684D01*
X158168384Y-85407192D01*
X158239668Y-85369090D01*
X158308067Y-85354850D01*
X158373311Y-85379850D01*
X158385798Y-85390769D01*
X158397235Y-85402206D01*
X158500009Y-85447585D01*
X158525135Y-85450500D01*
X158946000Y-85450499D01*
X159013039Y-85470183D01*
X159058794Y-85522987D01*
X159070000Y-85574499D01*
X159070000Y-98376330D01*
X159050315Y-98443369D01*
X158997511Y-98489124D01*
X158962198Y-98499268D01*
X158960442Y-98499499D01*
X158884009Y-98519979D01*
X158884004Y-98519982D01*
X158815495Y-98559535D01*
X158815487Y-98559541D01*
X158759541Y-98615487D01*
X158759535Y-98615495D01*
X158719982Y-98684004D01*
X158719979Y-98684009D01*
X158717066Y-98694882D01*
X158703708Y-98744736D01*
X158699500Y-98760439D01*
X158699500Y-101575500D01*
X158679815Y-101642539D01*
X158627011Y-101688294D01*
X158575500Y-101699500D01*
X152357981Y-101699500D01*
X152290942Y-101679815D01*
X152245187Y-101627011D01*
X152235243Y-101557853D01*
X152264268Y-101494297D01*
X152282489Y-101477128D01*
X152392621Y-101392621D01*
X152480861Y-101277625D01*
X152536330Y-101143709D01*
X152555250Y-101000000D01*
X152536330Y-100856291D01*
X152480861Y-100722375D01*
X152392621Y-100607379D01*
X152277625Y-100519139D01*
X152277624Y-100519138D01*
X152277622Y-100519137D01*
X152143712Y-100463671D01*
X152143710Y-100463670D01*
X152143709Y-100463670D01*
X152071854Y-100454210D01*
X152000001Y-100444750D01*
X151999999Y-100444750D01*
X151856291Y-100463670D01*
X151856287Y-100463671D01*
X151722377Y-100519137D01*
X151607379Y-100607379D01*
X151519137Y-100722377D01*
X151463671Y-100856287D01*
X151463670Y-100856291D01*
X151444750Y-100999999D01*
X151444750Y-101000000D01*
X151463670Y-101143708D01*
X151463671Y-101143712D01*
X151519137Y-101277622D01*
X151519138Y-101277624D01*
X151519139Y-101277625D01*
X151607379Y-101392621D01*
X151717507Y-101477125D01*
X151758708Y-101533552D01*
X151762863Y-101603298D01*
X151728650Y-101664219D01*
X151666933Y-101696971D01*
X151642019Y-101699500D01*
X148574833Y-101699500D01*
X148507794Y-101679815D01*
X148462039Y-101627011D01*
X148452095Y-101557853D01*
X148481120Y-101494297D01*
X148487152Y-101487819D01*
X148497847Y-101477124D01*
X148527206Y-101447765D01*
X148572585Y-101344991D01*
X148575500Y-101319865D01*
X148575499Y-99893399D01*
X153645500Y-99893399D01*
X153645500Y-100106600D01*
X153678853Y-100317180D01*
X153678853Y-100317183D01*
X153744734Y-100519944D01*
X153744736Y-100519947D01*
X153841528Y-100709913D01*
X153966846Y-100882397D01*
X154117603Y-101033154D01*
X154290087Y-101158472D01*
X154480053Y-101255264D01*
X154480055Y-101255265D01*
X154548873Y-101277625D01*
X154682821Y-101321147D01*
X154893399Y-101354500D01*
X154893400Y-101354500D01*
X155106600Y-101354500D01*
X155106601Y-101354500D01*
X155317179Y-101321147D01*
X155317182Y-101321146D01*
X155317183Y-101321146D01*
X155519944Y-101255265D01*
X155519944Y-101255264D01*
X155519947Y-101255264D01*
X155709913Y-101158472D01*
X155882397Y-101033154D01*
X156033154Y-100882397D01*
X156158472Y-100709913D01*
X156255264Y-100519947D01*
X156273549Y-100463671D01*
X156321146Y-100317183D01*
X156321146Y-100317182D01*
X156321147Y-100317179D01*
X156354500Y-100106601D01*
X156354500Y-99893399D01*
X156321147Y-99682821D01*
X156321146Y-99682817D01*
X156321146Y-99682816D01*
X156255265Y-99480055D01*
X156255263Y-99480052D01*
X156255173Y-99479874D01*
X156158472Y-99290087D01*
X156033154Y-99117603D01*
X155882397Y-98966846D01*
X155709913Y-98841528D01*
X155519947Y-98744736D01*
X155519944Y-98744734D01*
X155317181Y-98678853D01*
X155176793Y-98656617D01*
X155106601Y-98645500D01*
X154893399Y-98645500D01*
X154823206Y-98656617D01*
X154682819Y-98678853D01*
X154682816Y-98678853D01*
X154480055Y-98744734D01*
X154480052Y-98744736D01*
X154290086Y-98841528D01*
X154117601Y-98966847D01*
X153966847Y-99117601D01*
X153841528Y-99290086D01*
X153744736Y-99480052D01*
X153744734Y-99480055D01*
X153678853Y-99682816D01*
X153678853Y-99682819D01*
X153645500Y-99893399D01*
X148575499Y-99893399D01*
X148575499Y-99880136D01*
X148575497Y-99880117D01*
X148572586Y-99855012D01*
X148572585Y-99855010D01*
X148572585Y-99855009D01*
X148527206Y-99752235D01*
X148447765Y-99672794D01*
X148370357Y-99638615D01*
X148344992Y-99627415D01*
X148319865Y-99624500D01*
X146880143Y-99624500D01*
X146880117Y-99624502D01*
X146855012Y-99627413D01*
X146855008Y-99627415D01*
X146752235Y-99672793D01*
X146672794Y-99752234D01*
X146627415Y-99855006D01*
X146627415Y-99855008D01*
X146624500Y-99880131D01*
X146624500Y-99964110D01*
X146604815Y-100031149D01*
X146552011Y-100076904D01*
X146482853Y-100086848D01*
X146419297Y-100057823D01*
X146404647Y-100042775D01*
X146293120Y-99906879D01*
X146144582Y-99784977D01*
X146144575Y-99784973D01*
X145975118Y-99694396D01*
X145883172Y-99666505D01*
X145791231Y-99638615D01*
X145791229Y-99638614D01*
X145791231Y-99638614D01*
X145600000Y-99619780D01*
X145408770Y-99638614D01*
X145224881Y-99694396D01*
X145055424Y-99784973D01*
X145055417Y-99784977D01*
X144906879Y-99906879D01*
X144784977Y-100055417D01*
X144784972Y-100055424D01*
X144709358Y-100196890D01*
X144660396Y-100246735D01*
X144592258Y-100262195D01*
X144526578Y-100238363D01*
X144490642Y-100196890D01*
X144415027Y-100055424D01*
X144415022Y-100055417D01*
X144293120Y-99906879D01*
X144144582Y-99784977D01*
X144144575Y-99784973D01*
X143975118Y-99694396D01*
X143883172Y-99666505D01*
X143791231Y-99638615D01*
X143791229Y-99638614D01*
X143791231Y-99638614D01*
X143600000Y-99619780D01*
X143408770Y-99638614D01*
X143224881Y-99694396D01*
X143055424Y-99784973D01*
X143055417Y-99784977D01*
X142906879Y-99906879D01*
X142784977Y-100055417D01*
X142784973Y-100055424D01*
X142694396Y-100224881D01*
X142638614Y-100408770D01*
X142619780Y-100600000D01*
X142638614Y-100791229D01*
X142694396Y-100975118D01*
X142784973Y-101144575D01*
X142784977Y-101144582D01*
X142906879Y-101293120D01*
X143055417Y-101415022D01*
X143055424Y-101415026D01*
X143151055Y-101466142D01*
X143200899Y-101515104D01*
X143216360Y-101583241D01*
X143192529Y-101648921D01*
X143136971Y-101691290D01*
X143092602Y-101699500D01*
X129357981Y-101699500D01*
X129290942Y-101679815D01*
X129245187Y-101627011D01*
X129235243Y-101557853D01*
X129264268Y-101494297D01*
X129282489Y-101477128D01*
X129392621Y-101392621D01*
X129480861Y-101277625D01*
X129536330Y-101143709D01*
X129555250Y-101000000D01*
X129536330Y-100856291D01*
X129480861Y-100722375D01*
X129392621Y-100607379D01*
X129277625Y-100519139D01*
X129277624Y-100519138D01*
X129277622Y-100519137D01*
X129143712Y-100463671D01*
X129143710Y-100463670D01*
X129143709Y-100463670D01*
X129071854Y-100454210D01*
X129000001Y-100444750D01*
X128999999Y-100444750D01*
X128856291Y-100463670D01*
X128856287Y-100463671D01*
X128722377Y-100519137D01*
X128708334Y-100529913D01*
X128607379Y-100607379D01*
X128607378Y-100607380D01*
X128607377Y-100607381D01*
X128522875Y-100717505D01*
X128466447Y-100758708D01*
X128396701Y-100762862D01*
X128335781Y-100728649D01*
X128303029Y-100666931D01*
X128300500Y-100642018D01*
X128300500Y-94001610D01*
X128320185Y-93934571D01*
X128372989Y-93888816D01*
X128442147Y-93878872D01*
X128505703Y-93907897D01*
X128512181Y-93913929D01*
X129138737Y-94540485D01*
X129235763Y-94596503D01*
X129343981Y-94625500D01*
X129343982Y-94625500D01*
X129672390Y-94625500D01*
X129739429Y-94645185D01*
X129760071Y-94661819D01*
X130859515Y-95761263D01*
X130938737Y-95840485D01*
X131035763Y-95896503D01*
X131143982Y-95925500D01*
X133772390Y-95925500D01*
X133839429Y-95945185D01*
X133860071Y-95961819D01*
X134338181Y-96439929D01*
X134371666Y-96501252D01*
X134374500Y-96527610D01*
X134374500Y-96531936D01*
X134354815Y-96598975D01*
X134302011Y-96644730D01*
X134283055Y-96651586D01*
X134280008Y-96652414D01*
X134177235Y-96697793D01*
X134097794Y-96777234D01*
X134052415Y-96880006D01*
X134052415Y-96880008D01*
X134049500Y-96905131D01*
X134049500Y-98694856D01*
X134049502Y-98694882D01*
X134052413Y-98719987D01*
X134052415Y-98719991D01*
X134097793Y-98822764D01*
X134097794Y-98822765D01*
X134177235Y-98902206D01*
X134280009Y-98947585D01*
X134305135Y-98950500D01*
X135294864Y-98950499D01*
X135294879Y-98950497D01*
X135294882Y-98950497D01*
X135319987Y-98947586D01*
X135319988Y-98947585D01*
X135319991Y-98947585D01*
X135422765Y-98902206D01*
X135502206Y-98822765D01*
X135547585Y-98719991D01*
X135550500Y-98694865D01*
X135550500Y-98349500D01*
X135570185Y-98282461D01*
X135622989Y-98236706D01*
X135674500Y-98225500D01*
X137633134Y-98225500D01*
X137700173Y-98245185D01*
X137745928Y-98297989D01*
X137755872Y-98367147D01*
X137726847Y-98430703D01*
X137668069Y-98468477D01*
X137652534Y-98471972D01*
X137594852Y-98481108D01*
X137482819Y-98498853D01*
X137482816Y-98498853D01*
X137280055Y-98564734D01*
X137280052Y-98564736D01*
X137090086Y-98661528D01*
X136917601Y-98786847D01*
X136766847Y-98937601D01*
X136641528Y-99110086D01*
X136544736Y-99300052D01*
X136544734Y-99300055D01*
X136478853Y-99502816D01*
X136478853Y-99502819D01*
X136445500Y-99713399D01*
X136445500Y-99926600D01*
X136478853Y-100137180D01*
X136478853Y-100137183D01*
X136544734Y-100339944D01*
X136544736Y-100339947D01*
X136641528Y-100529913D01*
X136766846Y-100702397D01*
X136917603Y-100853154D01*
X137090087Y-100978472D01*
X137280053Y-101075264D01*
X137280055Y-101075265D01*
X137411240Y-101117889D01*
X137482821Y-101141147D01*
X137693399Y-101174500D01*
X137693400Y-101174500D01*
X137906600Y-101174500D01*
X137906601Y-101174500D01*
X138117179Y-101141147D01*
X138117182Y-101141146D01*
X138117183Y-101141146D01*
X138319944Y-101075265D01*
X138319944Y-101075264D01*
X138319947Y-101075264D01*
X138509913Y-100978472D01*
X138682397Y-100853154D01*
X138833154Y-100702397D01*
X138958472Y-100529913D01*
X139055264Y-100339947D01*
X139085550Y-100246735D01*
X139121146Y-100137183D01*
X139121146Y-100137182D01*
X139121147Y-100137179D01*
X139154500Y-99926601D01*
X139154500Y-99713399D01*
X139121147Y-99502821D01*
X139121146Y-99502817D01*
X139121146Y-99502816D01*
X139055265Y-99300055D01*
X139055263Y-99300052D01*
X139050186Y-99290086D01*
X138958472Y-99110087D01*
X138833154Y-98937603D01*
X138682397Y-98786846D01*
X138509913Y-98661528D01*
X138319947Y-98564736D01*
X138319944Y-98564734D01*
X138117181Y-98498853D01*
X138005147Y-98481108D01*
X137947467Y-98471972D01*
X137884333Y-98442044D01*
X137847402Y-98382732D01*
X137848400Y-98312870D01*
X137887010Y-98254637D01*
X137950974Y-98226523D01*
X137966866Y-98225500D01*
X145106016Y-98225500D01*
X145106018Y-98225500D01*
X145214237Y-98196503D01*
X145311263Y-98140485D01*
X146050485Y-97401263D01*
X146106503Y-97304237D01*
X146135500Y-97196018D01*
X146135500Y-97083982D01*
X146135500Y-95225772D01*
X146155185Y-95158733D01*
X146159730Y-95152138D01*
X146167060Y-95142206D01*
X146243852Y-95038157D01*
X146279996Y-94934864D01*
X146287708Y-94912826D01*
X146287708Y-94912823D01*
X146287710Y-94912819D01*
X146290500Y-94883066D01*
X146290500Y-94436934D01*
X146287710Y-94407181D01*
X146287708Y-94407177D01*
X146287708Y-94407173D01*
X146247751Y-94292987D01*
X146243852Y-94281843D01*
X146189820Y-94208633D01*
X146165850Y-94143005D01*
X146181165Y-94074834D01*
X146189821Y-94061366D01*
X146193178Y-94056818D01*
X146243852Y-93988157D01*
X146286288Y-93866884D01*
X146287708Y-93862826D01*
X146287708Y-93862823D01*
X146287710Y-93862819D01*
X146289260Y-93846289D01*
X146290500Y-93833070D01*
X146290500Y-93574500D01*
X146310185Y-93507461D01*
X146362989Y-93461706D01*
X146414500Y-93450500D01*
X147682745Y-93450500D01*
X147749784Y-93470185D01*
X147770426Y-93486819D01*
X149663181Y-95379574D01*
X149696666Y-95440897D01*
X149699500Y-95467255D01*
X149699500Y-96979944D01*
X149679815Y-97046983D01*
X149657727Y-97072759D01*
X149609521Y-97115465D01*
X149609515Y-97115472D01*
X149519781Y-97245475D01*
X149519780Y-97245476D01*
X149463763Y-97393180D01*
X149463168Y-97398082D01*
X149435544Y-97462260D01*
X149377609Y-97501315D01*
X149307756Y-97502848D01*
X149248164Y-97466373D01*
X149241268Y-97458058D01*
X149176867Y-97373132D01*
X149063134Y-97286886D01*
X149063132Y-97286885D01*
X148930346Y-97234521D01*
X148930345Y-97234520D01*
X148930343Y-97234520D01*
X148846902Y-97224500D01*
X148328098Y-97224500D01*
X148244656Y-97234520D01*
X148244655Y-97234520D01*
X148111865Y-97286886D01*
X147998132Y-97373132D01*
X147911886Y-97486865D01*
X147859520Y-97619655D01*
X147859520Y-97619656D01*
X147849500Y-97703097D01*
X147849500Y-98296902D01*
X147859520Y-98380343D01*
X147859520Y-98380344D01*
X147863687Y-98390910D01*
X147902417Y-98489124D01*
X147911886Y-98513134D01*
X147998132Y-98626867D01*
X148087824Y-98694882D01*
X148111868Y-98713115D01*
X148244654Y-98765479D01*
X148328098Y-98775500D01*
X148846902Y-98775500D01*
X148930346Y-98765479D01*
X149063132Y-98713115D01*
X149101512Y-98684011D01*
X149118156Y-98671389D01*
X149183468Y-98646565D01*
X149251831Y-98660993D01*
X149280763Y-98682511D01*
X149938737Y-99340485D01*
X150035763Y-99396503D01*
X150143982Y-99425500D01*
X150256019Y-99425500D01*
X150528635Y-99425500D01*
X150595674Y-99445185D01*
X150628405Y-99475866D01*
X150643574Y-99496420D01*
X150643575Y-99496421D01*
X150643577Y-99496423D01*
X150749206Y-99574381D01*
X150790511Y-99588834D01*
X150873119Y-99617741D01*
X150880796Y-99618460D01*
X150902543Y-99620500D01*
X151277456Y-99620499D01*
X151306879Y-99617741D01*
X151430794Y-99574381D01*
X151526367Y-99503844D01*
X151591995Y-99479874D01*
X151660165Y-99495189D01*
X151673629Y-99503842D01*
X151769206Y-99574381D01*
X151810511Y-99588834D01*
X151893119Y-99617741D01*
X151900796Y-99618460D01*
X151922543Y-99620500D01*
X152297456Y-99620499D01*
X152326879Y-99617741D01*
X152450794Y-99574381D01*
X152556423Y-99496423D01*
X152634381Y-99390794D01*
X152666133Y-99300053D01*
X152677741Y-99266881D01*
X152677741Y-99266879D01*
X152680500Y-99237457D01*
X152680499Y-98762544D01*
X152677741Y-98733121D01*
X152634381Y-98609206D01*
X152556423Y-98503577D01*
X152556419Y-98503574D01*
X152549849Y-98497003D01*
X152551857Y-98494994D01*
X152518608Y-98451188D01*
X152510500Y-98407085D01*
X152510500Y-95551255D01*
X152530185Y-95484216D01*
X152582989Y-95438461D01*
X152652147Y-95428517D01*
X152715703Y-95457542D01*
X152722181Y-95463574D01*
X154116587Y-96857980D01*
X154207912Y-96910707D01*
X154309773Y-96938000D01*
X154322863Y-96938000D01*
X154389902Y-96957685D01*
X154431930Y-97006188D01*
X154432729Y-97005740D01*
X154434922Y-97009641D01*
X154435657Y-97010489D01*
X154436456Y-97012370D01*
X154436886Y-97013134D01*
X154523132Y-97126867D01*
X154614322Y-97196018D01*
X154636868Y-97213115D01*
X154769654Y-97265479D01*
X154853098Y-97275500D01*
X155446902Y-97275500D01*
X155530346Y-97265479D01*
X155663132Y-97213115D01*
X155776867Y-97126867D01*
X155863115Y-97013132D01*
X155915479Y-96880346D01*
X155925500Y-96796902D01*
X155925500Y-96278098D01*
X155915479Y-96194654D01*
X155863115Y-96061868D01*
X155863113Y-96061865D01*
X155776867Y-95948132D01*
X155663134Y-95861886D01*
X155656378Y-95858088D01*
X155607589Y-95808075D01*
X155593583Y-95739624D01*
X155618808Y-95674466D01*
X155656378Y-95641912D01*
X155663126Y-95638117D01*
X155663132Y-95638115D01*
X155776867Y-95551867D01*
X155863115Y-95438132D01*
X155915479Y-95305346D01*
X155925500Y-95221902D01*
X155925500Y-94703098D01*
X155915479Y-94619654D01*
X155863115Y-94486868D01*
X155827031Y-94439284D01*
X155776867Y-94373132D01*
X155663884Y-94287455D01*
X155622360Y-94231263D01*
X155617809Y-94161541D01*
X155628063Y-94135263D01*
X155627751Y-94135134D01*
X155658306Y-94061366D01*
X155686330Y-93993709D01*
X155705250Y-93850000D01*
X155686330Y-93706291D01*
X155640429Y-93595475D01*
X155630862Y-93572377D01*
X155630861Y-93572376D01*
X155630861Y-93572375D01*
X155542621Y-93457379D01*
X155427625Y-93369139D01*
X155427624Y-93369138D01*
X155427622Y-93369137D01*
X155293712Y-93313671D01*
X155293710Y-93313670D01*
X155293709Y-93313670D01*
X155238124Y-93306351D01*
X155201965Y-93301591D01*
X155154021Y-93281730D01*
X155152951Y-93283584D01*
X155145914Y-93279521D01*
X155145913Y-93279520D01*
X155104029Y-93255338D01*
X155054589Y-93226793D01*
X155003657Y-93213146D01*
X154952727Y-93199500D01*
X154952726Y-93199500D01*
X154839816Y-93199500D01*
X154772777Y-93179815D01*
X154740046Y-93149134D01*
X154716357Y-93117037D01*
X154706423Y-93103577D01*
X154600794Y-93025619D01*
X154600792Y-93025618D01*
X154476880Y-92982258D01*
X154447461Y-92979500D01*
X154121125Y-92979500D01*
X154060517Y-92961703D01*
X154016593Y-92991541D01*
X153919207Y-93025618D01*
X153813576Y-93103576D01*
X153735618Y-93209207D01*
X153692258Y-93333118D01*
X153692258Y-93333120D01*
X153689500Y-93362538D01*
X153689500Y-93837453D01*
X153692258Y-93866874D01*
X153692260Y-93866884D01*
X153734696Y-93988157D01*
X153735619Y-93990794D01*
X153737773Y-93993712D01*
X153813576Y-94096423D01*
X153821980Y-94102625D01*
X153919206Y-94174381D01*
X153945907Y-94183724D01*
X154043119Y-94217741D01*
X154050796Y-94218460D01*
X154072543Y-94220500D01*
X154389224Y-94220499D01*
X154456263Y-94240183D01*
X154502018Y-94292987D01*
X154511962Y-94362146D01*
X154488029Y-94419423D01*
X154436886Y-94486866D01*
X154384520Y-94619655D01*
X154384520Y-94619656D01*
X154374500Y-94703097D01*
X154374500Y-95221902D01*
X154384520Y-95305343D01*
X154384520Y-95305344D01*
X154384521Y-95305346D01*
X154433093Y-95428517D01*
X154436886Y-95438134D01*
X154523132Y-95551867D01*
X154636868Y-95638115D01*
X154643624Y-95641914D01*
X154692412Y-95691928D01*
X154706416Y-95760380D01*
X154681188Y-95825537D01*
X154643624Y-95858086D01*
X154636868Y-95861884D01*
X154523130Y-95948134D01*
X154519010Y-95952255D01*
X154457687Y-95985740D01*
X154387995Y-95980756D01*
X154343648Y-95952255D01*
X152842984Y-94451591D01*
X152809499Y-94390268D01*
X152814483Y-94320576D01*
X152855177Y-94265535D01*
X152917621Y-94217621D01*
X153005861Y-94102625D01*
X153061330Y-93968709D01*
X153080250Y-93825000D01*
X153061330Y-93681291D01*
X153005861Y-93547375D01*
X152917621Y-93432379D01*
X152802625Y-93344139D01*
X152802624Y-93344138D01*
X152802622Y-93344137D01*
X152668712Y-93288671D01*
X152668710Y-93288670D01*
X152668709Y-93288670D01*
X152652043Y-93286475D01*
X152538846Y-93271572D01*
X152474950Y-93243305D01*
X152467352Y-93236314D01*
X151968219Y-92737181D01*
X151934734Y-92675858D01*
X151939718Y-92606166D01*
X151981590Y-92550233D01*
X152047054Y-92525816D01*
X152055900Y-92525500D01*
X153402298Y-92525500D01*
X153469337Y-92545185D01*
X153484517Y-92556678D01*
X153516849Y-92585321D01*
X153577762Y-92639285D01*
X153717634Y-92712696D01*
X153871014Y-92750500D01*
X153975638Y-92750500D01*
X154036591Y-92768397D01*
X154086190Y-92736523D01*
X154091427Y-92735109D01*
X154182365Y-92712696D01*
X154322240Y-92639283D01*
X154440483Y-92534530D01*
X154530220Y-92404523D01*
X154586237Y-92256818D01*
X154605278Y-92100000D01*
X154594678Y-92012696D01*
X154586237Y-91943181D01*
X154564992Y-91887164D01*
X154530220Y-91795477D01*
X154440483Y-91665470D01*
X154322240Y-91560717D01*
X154322238Y-91560716D01*
X154322237Y-91560715D01*
X154182365Y-91487303D01*
X154028986Y-91449500D01*
X154028985Y-91449500D01*
X153871015Y-91449500D01*
X153871014Y-91449500D01*
X153717634Y-91487303D01*
X153577762Y-91560714D01*
X153530281Y-91602779D01*
X153484522Y-91643317D01*
X153421292Y-91673037D01*
X153402298Y-91674500D01*
X151827610Y-91674500D01*
X151760571Y-91654815D01*
X151739929Y-91638181D01*
X150061819Y-89960071D01*
X150028334Y-89898748D01*
X150025500Y-89872390D01*
X150025500Y-88893984D01*
X150025500Y-88893982D01*
X149996503Y-88785763D01*
X149940485Y-88688737D01*
X149861263Y-88609515D01*
X149836319Y-88584571D01*
X149802834Y-88523248D01*
X149800000Y-88496890D01*
X149800000Y-88368326D01*
X149819685Y-88301287D01*
X149872489Y-88255532D01*
X149941647Y-88245588D01*
X149964956Y-88251285D01*
X150010181Y-88267110D01*
X150025057Y-88268505D01*
X150039930Y-88269900D01*
X150039934Y-88269900D01*
X150486070Y-88269900D01*
X150499289Y-88268660D01*
X150515819Y-88267110D01*
X150515823Y-88267108D01*
X150515826Y-88267108D01*
X150564836Y-88249957D01*
X150641157Y-88223252D01*
X150693333Y-88184743D01*
X150758962Y-88160773D01*
X150827132Y-88176088D01*
X150840594Y-88184740D01*
X150918799Y-88242457D01*
X151046271Y-88287062D01*
X151076537Y-88289900D01*
X151479462Y-88289899D01*
X151509729Y-88287062D01*
X151637201Y-88242457D01*
X151689367Y-88203956D01*
X151754995Y-88179986D01*
X151823165Y-88195301D01*
X151836626Y-88203952D01*
X151888799Y-88242457D01*
X152016271Y-88287062D01*
X152046537Y-88289900D01*
X152449462Y-88289899D01*
X152479729Y-88287062D01*
X152607201Y-88242457D01*
X152685400Y-88184743D01*
X152751028Y-88160773D01*
X152819199Y-88176088D01*
X152832663Y-88184741D01*
X152884843Y-88223252D01*
X152923003Y-88236604D01*
X153010173Y-88267108D01*
X153010177Y-88267108D01*
X153010181Y-88267110D01*
X153025057Y-88268505D01*
X153039930Y-88269900D01*
X153039934Y-88269900D01*
X153486070Y-88269900D01*
X153499289Y-88268660D01*
X153515819Y-88267110D01*
X153515823Y-88267108D01*
X153515826Y-88267108D01*
X153641157Y-88223252D01*
X153641158Y-88223251D01*
X153747993Y-88144404D01*
X153747994Y-88144402D01*
X153747999Y-88144399D01*
X153767101Y-88118515D01*
X153822748Y-88076266D01*
X153866871Y-88068150D01*
X154022815Y-88068150D01*
X154089854Y-88087835D01*
X154134215Y-88137689D01*
X154164081Y-88198781D01*
X154251217Y-88285917D01*
X154251218Y-88285917D01*
X154251220Y-88285919D01*
X154361933Y-88340043D01*
X154433705Y-88350500D01*
X154641294Y-88350499D01*
X154713067Y-88340043D01*
X154823780Y-88285919D01*
X154910919Y-88198780D01*
X154965043Y-88088067D01*
X154975500Y-88016295D01*
X154975499Y-87383706D01*
X154965043Y-87311933D01*
X154910919Y-87201220D01*
X154910917Y-87201218D01*
X154910917Y-87201217D01*
X154823782Y-87114082D01*
X154713068Y-87059957D01*
X154702813Y-87058463D01*
X154641295Y-87049500D01*
X154641289Y-87049500D01*
X154433706Y-87049500D01*
X154361932Y-87059957D01*
X154251217Y-87114082D01*
X154164081Y-87201218D01*
X154144579Y-87241111D01*
X154097451Y-87292693D01*
X154033179Y-87310650D01*
X153866871Y-87310650D01*
X153799832Y-87290965D01*
X153767101Y-87260284D01*
X153759143Y-87249501D01*
X153747999Y-87234401D01*
X153747996Y-87234399D01*
X153747993Y-87234395D01*
X153641158Y-87155548D01*
X153641157Y-87155547D01*
X153515826Y-87111691D01*
X153515814Y-87111689D01*
X153486070Y-87108900D01*
X153486066Y-87108900D01*
X153039934Y-87108900D01*
X153039930Y-87108900D01*
X153010185Y-87111689D01*
X153010173Y-87111691D01*
X152884844Y-87155547D01*
X152859764Y-87174057D01*
X152794134Y-87198027D01*
X152725964Y-87182709D01*
X152712499Y-87174056D01*
X152607200Y-87096342D01*
X152479733Y-87051739D01*
X152479724Y-87051737D01*
X152449467Y-87048900D01*
X152046539Y-87048900D01*
X152016275Y-87051737D01*
X152016266Y-87051739D01*
X151888800Y-87096342D01*
X151836633Y-87134843D01*
X151771004Y-87158813D01*
X151702834Y-87143497D01*
X151689367Y-87134843D01*
X151637200Y-87096342D01*
X151509733Y-87051739D01*
X151509724Y-87051737D01*
X151479467Y-87048900D01*
X151076539Y-87048900D01*
X151046275Y-87051737D01*
X151046266Y-87051739D01*
X150918800Y-87096342D01*
X150813500Y-87174056D01*
X150747871Y-87198026D01*
X150679700Y-87182710D01*
X150666234Y-87174055D01*
X150641158Y-87155548D01*
X150641157Y-87155547D01*
X150515826Y-87111691D01*
X150515814Y-87111689D01*
X150486070Y-87108900D01*
X150486066Y-87108900D01*
X150039934Y-87108900D01*
X150039930Y-87108900D01*
X150010185Y-87111689D01*
X150010177Y-87111690D01*
X149964954Y-87127515D01*
X149895175Y-87131076D01*
X149834548Y-87096347D01*
X149802321Y-87034353D01*
X149800000Y-87010473D01*
X149800000Y-87000000D01*
X149170123Y-87000000D01*
X149130906Y-86993635D01*
X149116646Y-86988881D01*
X149059273Y-86949005D01*
X149032567Y-86884440D01*
X149045006Y-86815687D01*
X149068176Y-86783571D01*
X149198503Y-86653245D01*
X149253161Y-86558572D01*
X149286890Y-86520822D01*
X149290192Y-86518384D01*
X149355812Y-86494399D01*
X149423986Y-86509698D01*
X149437474Y-86518363D01*
X149491521Y-86558252D01*
X149512149Y-86565470D01*
X149616851Y-86602108D01*
X149616855Y-86602108D01*
X149616859Y-86602110D01*
X149631735Y-86603505D01*
X149646608Y-86604900D01*
X149646612Y-86604900D01*
X150092748Y-86604900D01*
X150105967Y-86603660D01*
X150122497Y-86602110D01*
X150122501Y-86602108D01*
X150122504Y-86602108D01*
X150247835Y-86558252D01*
X150247836Y-86558251D01*
X150250590Y-86556219D01*
X150298551Y-86520822D01*
X150361818Y-86474130D01*
X150427447Y-86450159D01*
X150435451Y-86449900D01*
X150631616Y-86449900D01*
X150631618Y-86449900D01*
X150739837Y-86420903D01*
X150836863Y-86364885D01*
X152064929Y-85136819D01*
X152126252Y-85103334D01*
X152152610Y-85100500D01*
X152228985Y-85100500D01*
X152382365Y-85062696D01*
X152522240Y-84989283D01*
X152640483Y-84884530D01*
X152730220Y-84754523D01*
X152786237Y-84606818D01*
X152805278Y-84450000D01*
X152804545Y-84443959D01*
X152786237Y-84293181D01*
X152752589Y-84204460D01*
X152730220Y-84145477D01*
X152640483Y-84015470D01*
X152522240Y-83910717D01*
X152522238Y-83910716D01*
X152522237Y-83910715D01*
X152382365Y-83837303D01*
X152228986Y-83799500D01*
X152228985Y-83799500D01*
X152071015Y-83799500D01*
X152071014Y-83799500D01*
X151917634Y-83837303D01*
X151777762Y-83910715D01*
X151727913Y-83954877D01*
X151672678Y-84003811D01*
X151659516Y-84015471D01*
X151569781Y-84145475D01*
X151569780Y-84145476D01*
X151513762Y-84293181D01*
X151494722Y-84449999D01*
X151494722Y-84452167D01*
X151494273Y-84453694D01*
X151493818Y-84457445D01*
X151493194Y-84457369D01*
X151475037Y-84519206D01*
X151458403Y-84539848D01*
X150472809Y-85525442D01*
X150411486Y-85558927D01*
X150341794Y-85553943D01*
X150311496Y-85537532D01*
X150247835Y-85490548D01*
X150247833Y-85490547D01*
X150122504Y-85446691D01*
X150122492Y-85446689D01*
X150092748Y-85443900D01*
X150092744Y-85443900D01*
X149646612Y-85443900D01*
X149646608Y-85443900D01*
X149616863Y-85446689D01*
X149616851Y-85446691D01*
X149491522Y-85490547D01*
X149437481Y-85530431D01*
X149371852Y-85554401D01*
X149303681Y-85539085D01*
X149290215Y-85530431D01*
X149254697Y-85504218D01*
X149236175Y-85490548D01*
X149236173Y-85490547D01*
X149110844Y-85446691D01*
X149110832Y-85446689D01*
X149081088Y-85443900D01*
X149081084Y-85443900D01*
X148634952Y-85443900D01*
X148634948Y-85443900D01*
X148605203Y-85446689D01*
X148605191Y-85446691D01*
X148479862Y-85490547D01*
X148373019Y-85569401D01*
X148294165Y-85676244D01*
X148282195Y-85710450D01*
X148241472Y-85767225D01*
X148176519Y-85792970D01*
X148110690Y-85780890D01*
X148095035Y-85773236D01*
X148043455Y-85726107D01*
X148025500Y-85661838D01*
X148025500Y-85152610D01*
X148045185Y-85085571D01*
X148061819Y-85064929D01*
X148439929Y-84686819D01*
X148501252Y-84653334D01*
X148527610Y-84650500D01*
X149806016Y-84650500D01*
X149806018Y-84650500D01*
X149914237Y-84621503D01*
X150011263Y-84565485D01*
X150490484Y-84086264D01*
X150492449Y-84082862D01*
X150546503Y-83989237D01*
X150571710Y-83895164D01*
X150575500Y-83881019D01*
X150575500Y-83848027D01*
X150595185Y-83780988D01*
X150647989Y-83735233D01*
X150649279Y-83734652D01*
X150722765Y-83702206D01*
X150802206Y-83622765D01*
X150847585Y-83519991D01*
X150850500Y-83494865D01*
X150850499Y-82505136D01*
X150848695Y-82489578D01*
X150847586Y-82480012D01*
X150847585Y-82480010D01*
X150847585Y-82480009D01*
X150802206Y-82377235D01*
X150722765Y-82297794D01*
X150685797Y-82281471D01*
X150619992Y-82252415D01*
X150594868Y-82249500D01*
X149871777Y-82249500D01*
X149804738Y-82229815D01*
X149758983Y-82177011D01*
X149748604Y-82111204D01*
X149750499Y-82094873D01*
X149750500Y-82094865D01*
X149750499Y-81105136D01*
X149749307Y-81094858D01*
X149747586Y-81080012D01*
X149747585Y-81080010D01*
X149747585Y-81080009D01*
X149702206Y-80977235D01*
X149622765Y-80897794D01*
X149603415Y-80889250D01*
X149519992Y-80852415D01*
X149494865Y-80849500D01*
X148605143Y-80849500D01*
X148605117Y-80849502D01*
X148580012Y-80852413D01*
X148580008Y-80852415D01*
X148477235Y-80897793D01*
X148397794Y-80977234D01*
X148352415Y-81080006D01*
X148351587Y-81083053D01*
X148349754Y-81086032D01*
X148348647Y-81088542D01*
X148348305Y-81088391D01*
X148314993Y-81142573D01*
X148252030Y-81172861D01*
X148231936Y-81174500D01*
X148043982Y-81174500D01*
X147935763Y-81203497D01*
X147935760Y-81203498D01*
X147838740Y-81259513D01*
X147838734Y-81259517D01*
X147684517Y-81413734D01*
X147684513Y-81413740D01*
X147628498Y-81510760D01*
X147628497Y-81510763D01*
X147599500Y-81618982D01*
X147599500Y-83347389D01*
X147579815Y-83414428D01*
X147563181Y-83435070D01*
X146621295Y-84376955D01*
X146621296Y-84376956D01*
X146559514Y-84438738D01*
X146559513Y-84438740D01*
X146503498Y-84535760D01*
X146503497Y-84535763D01*
X146480524Y-84621502D01*
X146472397Y-84651832D01*
X146470536Y-84651333D01*
X146446528Y-84705591D01*
X146388200Y-84744056D01*
X146351865Y-84749500D01*
X146303050Y-84749500D01*
X146232492Y-84759779D01*
X146232491Y-84759779D01*
X146204457Y-84773484D01*
X146135584Y-84785241D01*
X146095543Y-84773484D01*
X146067511Y-84759781D01*
X146067509Y-84759780D01*
X146063013Y-84759125D01*
X145996949Y-84749500D01*
X145996943Y-84749500D01*
X145803049Y-84749500D01*
X145732492Y-84759779D01*
X145732491Y-84759779D01*
X145704457Y-84773484D01*
X145635584Y-84785241D01*
X145595543Y-84773484D01*
X145567511Y-84759781D01*
X145567509Y-84759780D01*
X145563013Y-84759125D01*
X145496949Y-84749500D01*
X145496943Y-84749500D01*
X145303049Y-84749500D01*
X145232492Y-84759779D01*
X145232491Y-84759779D01*
X145204457Y-84773484D01*
X145135584Y-84785241D01*
X145095543Y-84773484D01*
X145067511Y-84759781D01*
X145067509Y-84759780D01*
X145067507Y-84759779D01*
X145067503Y-84759778D01*
X145063016Y-84759125D01*
X144999515Y-84729981D01*
X144961851Y-84671132D01*
X144961983Y-84601262D01*
X144986746Y-84555723D01*
X144989183Y-84552880D01*
X145041144Y-84492259D01*
X145075038Y-84443962D01*
X145098527Y-84402476D01*
X145122504Y-84348564D01*
X145208460Y-84090697D01*
X145220192Y-84043023D01*
X145226555Y-84003811D01*
X145226964Y-83998748D01*
X145230500Y-83954874D01*
X145230500Y-83265324D01*
X145230815Y-83256490D01*
X145230864Y-83255798D01*
X145249019Y-83001609D01*
X145260506Y-82957647D01*
X145260532Y-82957592D01*
X145397536Y-82666459D01*
X145419271Y-82634452D01*
X145464885Y-82585800D01*
X145464893Y-82585787D01*
X145737278Y-82295243D01*
X145743600Y-82288970D01*
X146018908Y-82034840D01*
X146042778Y-82010182D01*
X146060970Y-81989144D01*
X146060971Y-81989143D01*
X146066541Y-81982515D01*
X146066544Y-81982510D01*
X146066546Y-81982508D01*
X146120353Y-81883971D01*
X146142000Y-81817540D01*
X146156900Y-81731871D01*
X146179985Y-80947001D01*
X146179254Y-80915066D01*
X146177308Y-80889238D01*
X146173243Y-80857541D01*
X146081975Y-80355569D01*
X146081620Y-80354500D01*
X146055025Y-80274348D01*
X146053949Y-80272182D01*
X146024431Y-80212737D01*
X145976011Y-80142177D01*
X145859310Y-80014866D01*
X145812332Y-79963617D01*
X145812324Y-79963609D01*
X145797470Y-79947405D01*
X145760346Y-79906906D01*
X145735957Y-79883112D01*
X145715147Y-79864961D01*
X145708719Y-79859509D01*
X145610455Y-79805205D01*
X145544134Y-79783222D01*
X145544133Y-79783221D01*
X145458538Y-79767887D01*
X144799958Y-79745178D01*
X144799955Y-79745178D01*
X144799954Y-79745178D01*
X144796630Y-79745256D01*
X144764573Y-79746009D01*
X144736017Y-79748340D01*
X144735996Y-79748342D01*
X144735991Y-79748343D01*
X144728414Y-79749406D01*
X144700942Y-79753261D01*
X144393864Y-79814676D01*
X144355274Y-79825060D01*
X144355256Y-79825065D01*
X144324659Y-79835488D01*
X144311202Y-79840427D01*
X144216074Y-79900064D01*
X144164722Y-79947405D01*
X144164712Y-79947416D01*
X144164709Y-79947419D01*
X144164706Y-79947423D01*
X144109814Y-80014856D01*
X144109807Y-80014866D01*
X144003514Y-80192022D01*
X144003513Y-80192025D01*
X143973846Y-80258202D01*
X143973838Y-80258224D01*
X143956428Y-80314024D01*
X143956426Y-80314032D01*
X143943197Y-80385343D01*
X143909650Y-80905331D01*
X143895390Y-81126360D01*
X143894914Y-81136184D01*
X143894657Y-81144170D01*
X143894500Y-81153999D01*
X143894500Y-82001211D01*
X143893742Y-82014905D01*
X143857908Y-82337401D01*
X143837840Y-82392490D01*
X143737673Y-82542741D01*
X143684108Y-82587602D01*
X143614792Y-82596382D01*
X143551733Y-82566293D01*
X143514952Y-82506889D01*
X143510499Y-82473958D01*
X143510499Y-82443539D01*
X143509919Y-82437353D01*
X143507662Y-82413271D01*
X143463057Y-82285799D01*
X143463055Y-82285796D01*
X143458715Y-82277583D01*
X143460546Y-82276615D01*
X143440758Y-82222434D01*
X143440500Y-82214432D01*
X143440500Y-82039596D01*
X143460185Y-81972557D01*
X143476819Y-81951915D01*
X143476862Y-81951871D01*
X143476862Y-81951870D01*
X143476867Y-81951867D01*
X143563115Y-81838132D01*
X143615479Y-81705346D01*
X143625500Y-81621902D01*
X143625500Y-80778098D01*
X143615479Y-80694654D01*
X143563115Y-80561868D01*
X143563113Y-80561865D01*
X143476867Y-80448132D01*
X143363134Y-80361886D01*
X143363132Y-80361885D01*
X143230346Y-80309521D01*
X143230345Y-80309520D01*
X143230343Y-80309520D01*
X143146902Y-80299500D01*
X142628098Y-80299500D01*
X142544656Y-80309520D01*
X142544655Y-80309520D01*
X142411865Y-80361886D01*
X142298132Y-80448132D01*
X142211886Y-80561865D01*
X142159520Y-80694655D01*
X142159520Y-80694656D01*
X142149500Y-80778097D01*
X142149500Y-81621902D01*
X142159520Y-81705343D01*
X142159520Y-81705344D01*
X142159521Y-81705346D01*
X142201628Y-81812123D01*
X142211886Y-81838134D01*
X142298132Y-81951866D01*
X142303177Y-81956911D01*
X142336665Y-82018232D01*
X142339500Y-82044596D01*
X142339500Y-82214432D01*
X142321000Y-82277432D01*
X142321285Y-82277583D01*
X142320546Y-82278980D01*
X142319815Y-82281471D01*
X142317304Y-82285113D01*
X142316943Y-82285796D01*
X142272339Y-82413266D01*
X142272337Y-82413275D01*
X142269500Y-82443532D01*
X142269500Y-82846460D01*
X142272337Y-82876724D01*
X142272339Y-82876733D01*
X142316942Y-83004199D01*
X142355443Y-83056367D01*
X142379413Y-83121996D01*
X142364097Y-83190166D01*
X142355443Y-83203633D01*
X142316943Y-83255798D01*
X142301921Y-83298728D01*
X142261197Y-83355503D01*
X142196244Y-83381248D01*
X142127683Y-83367790D01*
X142097199Y-83345451D01*
X141607066Y-82855318D01*
X141577706Y-82808594D01*
X141543852Y-82711843D01*
X141505251Y-82659541D01*
X141481281Y-82593913D01*
X141496597Y-82525742D01*
X141530094Y-82487106D01*
X141625078Y-82415078D01*
X141712364Y-82299975D01*
X141765359Y-82165590D01*
X141775500Y-82081144D01*
X141775500Y-81498856D01*
X141765359Y-81414410D01*
X141712364Y-81280025D01*
X141712363Y-81280024D01*
X141712363Y-81280023D01*
X141625079Y-81164923D01*
X141597712Y-81144170D01*
X141524573Y-81088706D01*
X141483051Y-81032514D01*
X141475500Y-80989903D01*
X141475500Y-80694877D01*
X141495185Y-80627838D01*
X141497450Y-80624437D01*
X141516742Y-80596487D01*
X141580220Y-80504523D01*
X141636237Y-80356818D01*
X141655278Y-80200000D01*
X141653398Y-80184512D01*
X141636237Y-80043181D01*
X141599919Y-79947419D01*
X141580220Y-79895477D01*
X141490483Y-79765470D01*
X141372240Y-79660717D01*
X141372238Y-79660716D01*
X141372237Y-79660715D01*
X141232365Y-79587303D01*
X141078986Y-79549500D01*
X141078985Y-79549500D01*
X140921015Y-79549500D01*
X140921014Y-79549500D01*
X140767634Y-79587303D01*
X140627762Y-79660715D01*
X140509516Y-79765471D01*
X140419781Y-79895475D01*
X140419780Y-79895476D01*
X140363762Y-80043181D01*
X140344722Y-80199999D01*
X140344722Y-80200000D01*
X140363762Y-80356818D01*
X140404620Y-80464550D01*
X140419780Y-80504523D01*
X140459360Y-80561865D01*
X140502550Y-80624437D01*
X140524433Y-80690792D01*
X140524500Y-80694877D01*
X140524500Y-81027819D01*
X140504815Y-81094858D01*
X140475426Y-81126622D01*
X140424922Y-81164920D01*
X140337636Y-81280023D01*
X140284640Y-81414411D01*
X140283309Y-81425500D01*
X140274500Y-81498856D01*
X140274500Y-82081144D01*
X140278110Y-82111204D01*
X140284640Y-82165588D01*
X140337636Y-82299976D01*
X140424921Y-82415078D01*
X140500667Y-82472518D01*
X140542191Y-82528711D01*
X140546742Y-82598432D01*
X140525513Y-82644955D01*
X140476147Y-82711844D01*
X140432291Y-82837173D01*
X140432289Y-82837185D01*
X140429500Y-82866929D01*
X140429500Y-83313070D01*
X140432289Y-83342814D01*
X140432291Y-83342826D01*
X140475446Y-83466151D01*
X140476148Y-83468157D01*
X140555001Y-83574999D01*
X140562661Y-83580652D01*
X140604912Y-83636300D01*
X140610370Y-83705956D01*
X140588797Y-83754056D01*
X140546147Y-83811844D01*
X140502291Y-83937173D01*
X140502289Y-83937185D01*
X140499500Y-83966929D01*
X140499500Y-84222390D01*
X140479815Y-84289429D01*
X140463181Y-84310071D01*
X140235071Y-84538181D01*
X140173748Y-84571666D01*
X140147390Y-84574500D01*
X139377610Y-84574500D01*
X139310571Y-84554815D01*
X139289929Y-84538181D01*
X138811819Y-84060071D01*
X138778334Y-83998748D01*
X138775500Y-83972390D01*
X138775500Y-80947907D01*
X138795185Y-80880868D01*
X138817270Y-80855094D01*
X138840483Y-80834530D01*
X138930220Y-80704523D01*
X138986237Y-80556818D01*
X139005278Y-80400000D01*
X138995704Y-80321146D01*
X138986237Y-80243181D01*
X138938001Y-80115995D01*
X138930220Y-80095477D01*
X138840483Y-79965470D01*
X138722240Y-79860717D01*
X138722238Y-79860716D01*
X138722237Y-79860715D01*
X138582365Y-79787303D01*
X138428986Y-79749500D01*
X138428985Y-79749500D01*
X138271015Y-79749500D01*
X138271014Y-79749500D01*
X138117634Y-79787303D01*
X137977762Y-79860715D01*
X137859516Y-79965471D01*
X137769781Y-80095475D01*
X137769780Y-80095476D01*
X137713762Y-80243181D01*
X137694722Y-80399999D01*
X137694722Y-80400000D01*
X137713762Y-80556818D01*
X137769780Y-80704523D01*
X137769781Y-80704524D01*
X137859515Y-80834528D01*
X137859516Y-80834529D01*
X137859517Y-80834530D01*
X137882727Y-80855092D01*
X137919853Y-80914279D01*
X137924500Y-80947907D01*
X137924500Y-82268759D01*
X137904815Y-82335798D01*
X137852011Y-82381553D01*
X137782853Y-82391497D01*
X137735593Y-82371593D01*
X137734664Y-82373203D01*
X137727623Y-82369138D01*
X137593712Y-82313671D01*
X137593710Y-82313670D01*
X137593709Y-82313670D01*
X137489695Y-82299976D01*
X137450001Y-82294750D01*
X137449999Y-82294750D01*
X137306291Y-82313670D01*
X137306287Y-82313671D01*
X137172377Y-82369137D01*
X137057376Y-82457381D01*
X137042025Y-82477387D01*
X136985595Y-82518588D01*
X136915849Y-82522740D01*
X136855971Y-82489578D01*
X133845915Y-79479522D01*
X133845913Y-79479520D01*
X133789038Y-79446683D01*
X133754589Y-79426793D01*
X133673328Y-79405020D01*
X133652727Y-79399500D01*
X133652726Y-79399500D01*
X132315469Y-79399500D01*
X132248430Y-79379815D01*
X132213419Y-79345940D01*
X132158433Y-79266279D01*
X132158431Y-79266277D01*
X132032248Y-79154488D01*
X131882973Y-79076143D01*
X131717277Y-79035303D01*
X131656896Y-79000147D01*
X131625108Y-78937927D01*
X131629524Y-78893399D01*
X153645500Y-78893399D01*
X153645500Y-79106600D01*
X153678853Y-79317180D01*
X153678853Y-79317183D01*
X153744734Y-79519944D01*
X153744736Y-79519947D01*
X153841528Y-79709913D01*
X153966846Y-79882397D01*
X154117603Y-80033154D01*
X154290087Y-80158472D01*
X154480053Y-80255264D01*
X154480055Y-80255265D01*
X154647040Y-80309521D01*
X154682821Y-80321147D01*
X154893399Y-80354500D01*
X154893400Y-80354500D01*
X155106600Y-80354500D01*
X155106601Y-80354500D01*
X155317179Y-80321147D01*
X155317182Y-80321146D01*
X155317183Y-80321146D01*
X155519944Y-80255265D01*
X155519944Y-80255264D01*
X155519947Y-80255264D01*
X155709913Y-80158472D01*
X155882397Y-80033154D01*
X156033154Y-79882397D01*
X156158472Y-79709913D01*
X156255264Y-79519947D01*
X156268399Y-79479522D01*
X156321146Y-79317183D01*
X156321146Y-79317182D01*
X156321147Y-79317179D01*
X156354500Y-79106601D01*
X156354500Y-78893399D01*
X156321147Y-78682821D01*
X156321146Y-78682817D01*
X156321146Y-78682816D01*
X156255265Y-78480055D01*
X156255263Y-78480052D01*
X156210715Y-78392620D01*
X156158472Y-78290087D01*
X156033154Y-78117603D01*
X155882397Y-77966846D01*
X155709913Y-77841528D01*
X155519947Y-77744736D01*
X155519944Y-77744734D01*
X155317181Y-77678853D01*
X155176793Y-77656617D01*
X155106601Y-77645500D01*
X154893399Y-77645500D01*
X154823206Y-77656617D01*
X154682819Y-77678853D01*
X154682816Y-77678853D01*
X154480055Y-77744734D01*
X154480052Y-77744736D01*
X154290086Y-77841528D01*
X154117601Y-77966847D01*
X153966847Y-78117601D01*
X153841528Y-78290086D01*
X153744736Y-78480052D01*
X153744734Y-78480055D01*
X153678853Y-78682816D01*
X153678853Y-78682819D01*
X153645500Y-78893399D01*
X131629524Y-78893399D01*
X131632004Y-78868399D01*
X131643851Y-78846014D01*
X131664459Y-78815172D01*
X131664461Y-78815168D01*
X131664464Y-78815164D01*
X131720986Y-78678709D01*
X131749800Y-78533849D01*
X131749800Y-78386151D01*
X131720986Y-78241291D01*
X131664464Y-78104836D01*
X131664462Y-78104833D01*
X131664460Y-78104829D01*
X131582408Y-77982030D01*
X131582405Y-77982026D01*
X131477973Y-77877594D01*
X131477969Y-77877591D01*
X131355170Y-77795539D01*
X131355160Y-77795534D01*
X131218709Y-77739014D01*
X131218701Y-77739012D01*
X131073853Y-77710200D01*
X131073849Y-77710200D01*
X130926151Y-77710200D01*
X130926146Y-77710200D01*
X130781298Y-77739012D01*
X130781290Y-77739014D01*
X130644839Y-77795534D01*
X130644829Y-77795539D01*
X130522030Y-77877591D01*
X130522026Y-77877594D01*
X130417594Y-77982026D01*
X130417591Y-77982030D01*
X130335539Y-78104829D01*
X130335534Y-78104839D01*
X130279014Y-78241290D01*
X130279012Y-78241298D01*
X130250200Y-78386146D01*
X130250200Y-78533853D01*
X130279012Y-78678701D01*
X130279014Y-78678709D01*
X130335534Y-78815160D01*
X130335538Y-78815168D01*
X130356150Y-78846016D01*
X130377027Y-78912693D01*
X130358542Y-78980073D01*
X130306563Y-79026763D01*
X130282722Y-79035303D01*
X130117026Y-79076143D01*
X129967753Y-79154487D01*
X129961580Y-79158749D01*
X129960499Y-79157183D01*
X129906225Y-79182684D01*
X129836963Y-79173491D01*
X129805023Y-79152961D01*
X129800852Y-79149266D01*
X129800849Y-79149263D01*
X129650226Y-79070210D01*
X129485056Y-79029500D01*
X129314944Y-79029500D01*
X129149773Y-79070210D01*
X128999150Y-79149263D01*
X128871816Y-79262072D01*
X128775182Y-79402068D01*
X128714860Y-79561125D01*
X128714859Y-79561130D01*
X128694355Y-79730000D01*
X128714859Y-79898869D01*
X128714860Y-79898874D01*
X128775182Y-80057931D01*
X128833331Y-80142173D01*
X128871817Y-80197929D01*
X128955632Y-80272182D01*
X128999150Y-80310736D01*
X129145071Y-80387321D01*
X129149775Y-80389790D01*
X129310458Y-80429394D01*
X129370838Y-80464550D01*
X129402627Y-80526769D01*
X129395731Y-80596298D01*
X129352340Y-80651061D01*
X129342791Y-80657174D01*
X129338740Y-80659512D01*
X129338734Y-80659517D01*
X128512181Y-81486071D01*
X128450858Y-81519556D01*
X128381166Y-81514572D01*
X128325233Y-81472700D01*
X128300816Y-81407236D01*
X128300500Y-81398390D01*
X128300500Y-77424500D01*
X128320185Y-77357461D01*
X128372989Y-77311706D01*
X128424500Y-77300500D01*
X151642019Y-77300500D01*
X151709058Y-77320185D01*
G37*
%TD.AperFunction*%
%TA.AperFunction,Conductor*%
G36*
X150705703Y-95664268D02*
G01*
X150722871Y-95682489D01*
X150807379Y-95792621D01*
X150922375Y-95880861D01*
X151056291Y-95936330D01*
X151177251Y-95952255D01*
X151199999Y-95955250D01*
X151200000Y-95955250D01*
X151200001Y-95955250D01*
X151214977Y-95953278D01*
X151343709Y-95936330D01*
X151477625Y-95880861D01*
X151510013Y-95856008D01*
X151575181Y-95830813D01*
X151643626Y-95844850D01*
X151693616Y-95893663D01*
X151709500Y-95954383D01*
X151709500Y-98385683D01*
X151689815Y-98452722D01*
X151637011Y-98498477D01*
X151567853Y-98508421D01*
X151511866Y-98485453D01*
X151488864Y-98468477D01*
X151430794Y-98425619D01*
X151430792Y-98425618D01*
X151306880Y-98382258D01*
X151277461Y-98379500D01*
X150902546Y-98379500D01*
X150873125Y-98382258D01*
X150873115Y-98382260D01*
X150749207Y-98425618D01*
X150643577Y-98503577D01*
X150643574Y-98503579D01*
X150628405Y-98524134D01*
X150572758Y-98566384D01*
X150528635Y-98574500D01*
X150427610Y-98574500D01*
X150360571Y-98554815D01*
X150339929Y-98538181D01*
X150192658Y-98390910D01*
X150159173Y-98329587D01*
X150164157Y-98259895D01*
X150206029Y-98203962D01*
X150250663Y-98182833D01*
X150332365Y-98162696D01*
X150472240Y-98089283D01*
X150590483Y-97984530D01*
X150680220Y-97854523D01*
X150736237Y-97706818D01*
X150755278Y-97550000D01*
X150747613Y-97486868D01*
X150736237Y-97393181D01*
X150702505Y-97304239D01*
X150680220Y-97245477D01*
X150590483Y-97115470D01*
X150590480Y-97115467D01*
X150590478Y-97115465D01*
X150542273Y-97072759D01*
X150505146Y-97013570D01*
X150500500Y-96979944D01*
X150500500Y-95757981D01*
X150520185Y-95690942D01*
X150572989Y-95645187D01*
X150642147Y-95635243D01*
X150705703Y-95664268D01*
G37*
%TD.AperFunction*%
%TA.AperFunction,Conductor*%
G36*
X129835141Y-81469119D02*
G01*
X129874034Y-81492484D01*
X129967753Y-81575512D01*
X130117025Y-81653856D01*
X130270675Y-81691727D01*
X130331055Y-81726882D01*
X130362844Y-81789101D01*
X130365000Y-81812123D01*
X130365000Y-82270000D01*
X130825846Y-82270000D01*
X130892885Y-82289685D01*
X130938640Y-82342489D01*
X130948942Y-82379053D01*
X130956021Y-82437354D01*
X130995989Y-82542741D01*
X131015801Y-82594980D01*
X131100797Y-82718117D01*
X131111568Y-82733722D01*
X131237750Y-82845510D01*
X131237751Y-82845510D01*
X131237753Y-82845512D01*
X131367791Y-82913761D01*
X131418002Y-82962345D01*
X131433977Y-83030364D01*
X131413267Y-83092447D01*
X131351538Y-83184831D01*
X131351534Y-83184839D01*
X131295014Y-83321290D01*
X131295012Y-83321298D01*
X131266200Y-83466146D01*
X131266200Y-83613853D01*
X131295012Y-83758701D01*
X131295014Y-83758709D01*
X131351534Y-83895160D01*
X131351538Y-83895168D01*
X131433591Y-84017969D01*
X131433594Y-84017973D01*
X131538026Y-84122405D01*
X131538030Y-84122408D01*
X131660829Y-84204460D01*
X131660833Y-84204462D01*
X131660836Y-84204464D01*
X131797291Y-84260986D01*
X131940286Y-84289429D01*
X131942146Y-84289799D01*
X131942150Y-84289800D01*
X131942151Y-84289800D01*
X132089850Y-84289800D01*
X132089851Y-84289799D01*
X132234709Y-84260986D01*
X132371164Y-84204464D01*
X132493970Y-84122408D01*
X132598408Y-84017970D01*
X132639803Y-83956018D01*
X132680462Y-83895168D01*
X132680464Y-83895163D01*
X132736986Y-83758709D01*
X132765800Y-83613849D01*
X132765800Y-83466151D01*
X132736986Y-83321291D01*
X132680464Y-83184836D01*
X132680461Y-83184831D01*
X132680460Y-83184829D01*
X132598408Y-83062030D01*
X132598405Y-83062026D01*
X132493973Y-82957594D01*
X132493969Y-82957591D01*
X132371170Y-82875539D01*
X132371160Y-82875534D01*
X132271371Y-82834200D01*
X132216968Y-82790359D01*
X132194903Y-82724065D01*
X132212182Y-82656365D01*
X132216760Y-82649218D01*
X132254199Y-82594980D01*
X132313979Y-82437353D01*
X132334299Y-82270000D01*
X132313979Y-82102647D01*
X132260824Y-81962490D01*
X132255458Y-81892830D01*
X132288605Y-81831324D01*
X132349743Y-81797503D01*
X132419461Y-81802104D01*
X132464448Y-81830841D01*
X133163181Y-82529574D01*
X133196666Y-82590897D01*
X133199500Y-82617255D01*
X133199500Y-83797273D01*
X133199500Y-83902727D01*
X133201641Y-83910717D01*
X133226793Y-84004589D01*
X133234827Y-84018503D01*
X133279520Y-84095913D01*
X133279522Y-84095915D01*
X135391426Y-86207819D01*
X135424911Y-86269142D01*
X135419927Y-86338834D01*
X135378055Y-86394767D01*
X135312591Y-86419184D01*
X135303746Y-86419500D01*
X135162546Y-86419500D01*
X135133125Y-86422258D01*
X135133115Y-86422260D01*
X135009210Y-86465617D01*
X135002146Y-86469351D01*
X134933677Y-86483272D01*
X134879144Y-86463699D01*
X134878881Y-86464202D01*
X134875281Y-86462312D01*
X134873761Y-86461767D01*
X134872236Y-86460714D01*
X134732365Y-86387303D01*
X134578986Y-86349500D01*
X134578985Y-86349500D01*
X134421015Y-86349500D01*
X134421014Y-86349500D01*
X134267634Y-86387303D01*
X134127762Y-86460715D01*
X134009516Y-86565471D01*
X133919781Y-86695475D01*
X133919780Y-86695476D01*
X133863762Y-86843181D01*
X133844722Y-86999999D01*
X133844722Y-87000000D01*
X133863762Y-87156818D01*
X133898913Y-87249501D01*
X133919780Y-87304523D01*
X134009517Y-87434530D01*
X134127760Y-87539283D01*
X134127762Y-87539284D01*
X134219064Y-87587204D01*
X134269277Y-87635788D01*
X134285251Y-87703808D01*
X134261916Y-87769665D01*
X134206679Y-87812452D01*
X134161438Y-87821000D01*
X133995039Y-87821000D01*
X133928000Y-87801315D01*
X133924962Y-87799299D01*
X133922766Y-87797794D01*
X133819992Y-87752415D01*
X133794865Y-87749500D01*
X133205143Y-87749500D01*
X133205117Y-87749502D01*
X133180012Y-87752413D01*
X133180008Y-87752415D01*
X133077235Y-87797793D01*
X133077234Y-87797794D01*
X133061348Y-87813681D01*
X133000025Y-87847166D01*
X132973667Y-87850000D01*
X132626333Y-87850000D01*
X132559294Y-87830315D01*
X132538652Y-87813681D01*
X132522765Y-87797794D01*
X132419992Y-87752415D01*
X132394865Y-87749500D01*
X131805143Y-87749500D01*
X131805117Y-87749502D01*
X131780012Y-87752413D01*
X131780010Y-87752414D01*
X131753918Y-87763935D01*
X131703833Y-87774500D01*
X131428411Y-87774500D01*
X131361372Y-87754815D01*
X131328640Y-87724133D01*
X131311695Y-87701173D01*
X131287725Y-87635544D01*
X131303041Y-87567374D01*
X131309416Y-87557100D01*
X131380220Y-87454523D01*
X131436237Y-87306818D01*
X131455278Y-87150000D01*
X131454489Y-87143497D01*
X131436237Y-86993181D01*
X131404914Y-86910591D01*
X131380220Y-86845477D01*
X131290483Y-86715470D01*
X131172240Y-86610717D01*
X131172238Y-86610716D01*
X131172237Y-86610715D01*
X131032365Y-86537303D01*
X130878986Y-86499500D01*
X130878985Y-86499500D01*
X130721015Y-86499500D01*
X130721014Y-86499500D01*
X130567634Y-86537303D01*
X130427762Y-86610715D01*
X130379755Y-86653245D01*
X130311152Y-86714022D01*
X130309516Y-86715471D01*
X130219781Y-86845475D01*
X130219780Y-86845476D01*
X130163762Y-86993181D01*
X130144722Y-87149999D01*
X130144722Y-87150000D01*
X130163762Y-87306818D01*
X130214209Y-87439834D01*
X130219780Y-87454523D01*
X130278286Y-87539284D01*
X130290584Y-87557100D01*
X130312467Y-87623454D01*
X130295002Y-87691106D01*
X130288304Y-87701173D01*
X130236148Y-87771841D01*
X130236147Y-87771842D01*
X130192291Y-87897173D01*
X130192289Y-87897185D01*
X130189500Y-87926929D01*
X130189500Y-88313070D01*
X130192289Y-88342814D01*
X130192291Y-88342826D01*
X130232042Y-88456423D01*
X130236148Y-88468157D01*
X130315001Y-88574999D01*
X130421843Y-88653852D01*
X130453459Y-88664915D01*
X130547173Y-88697708D01*
X130547177Y-88697708D01*
X130547181Y-88697710D01*
X130562057Y-88699105D01*
X130576930Y-88700500D01*
X130576934Y-88700500D01*
X131023070Y-88700500D01*
X131036289Y-88699260D01*
X131052819Y-88697710D01*
X131052823Y-88697708D01*
X131052826Y-88697708D01*
X131130174Y-88670642D01*
X131178157Y-88653852D01*
X131183744Y-88649728D01*
X131249372Y-88625759D01*
X131257376Y-88625500D01*
X131703833Y-88625500D01*
X131753918Y-88636064D01*
X131780009Y-88647585D01*
X131805135Y-88650500D01*
X131926000Y-88650499D01*
X131993039Y-88670183D01*
X132038794Y-88722987D01*
X132050000Y-88774499D01*
X132050000Y-88850000D01*
X132226000Y-88850000D01*
X132293039Y-88869685D01*
X132338794Y-88922489D01*
X132350000Y-88974000D01*
X132350000Y-89026000D01*
X132330315Y-89093039D01*
X132277511Y-89138794D01*
X132226000Y-89150000D01*
X132050000Y-89150000D01*
X132050000Y-89350000D01*
X132973667Y-89350000D01*
X133040706Y-89369685D01*
X133061348Y-89386319D01*
X133077235Y-89402206D01*
X133180009Y-89447585D01*
X133205135Y-89450500D01*
X133794864Y-89450499D01*
X133794879Y-89450497D01*
X133794882Y-89450497D01*
X133819987Y-89447586D01*
X133819988Y-89447585D01*
X133819991Y-89447585D01*
X133922765Y-89402206D01*
X133922765Y-89402205D01*
X133928744Y-89399566D01*
X133978830Y-89389000D01*
X134601651Y-89389000D01*
X134668690Y-89408685D01*
X134689327Y-89425314D01*
X134767289Y-89503276D01*
X134811131Y-89528587D01*
X134848900Y-89562339D01*
X134896156Y-89626367D01*
X134920126Y-89691994D01*
X134904811Y-89760164D01*
X134896155Y-89773632D01*
X134825619Y-89869204D01*
X134825619Y-89869205D01*
X134782258Y-89993118D01*
X134782258Y-89993120D01*
X134779500Y-90022538D01*
X134779500Y-90397453D01*
X134782258Y-90426874D01*
X134782260Y-90426884D01*
X134825618Y-90550792D01*
X134825619Y-90550794D01*
X134845739Y-90578056D01*
X134898917Y-90650110D01*
X134922887Y-90715739D01*
X134907571Y-90783909D01*
X134886828Y-90811424D01*
X134760069Y-90938182D01*
X134698749Y-90971666D01*
X134672390Y-90974500D01*
X134347702Y-90974500D01*
X134280663Y-90954815D01*
X134265482Y-90943321D01*
X134197720Y-90883290D01*
X134172237Y-90860714D01*
X134032365Y-90787303D01*
X133878986Y-90749500D01*
X133878985Y-90749500D01*
X133721015Y-90749500D01*
X133721014Y-90749500D01*
X133567634Y-90787303D01*
X133427762Y-90860715D01*
X133371463Y-90910591D01*
X133320189Y-90956016D01*
X133309516Y-90965471D01*
X133219781Y-91095475D01*
X133219780Y-91095476D01*
X133163762Y-91243181D01*
X133144722Y-91399999D01*
X133144722Y-91400000D01*
X133163762Y-91556818D01*
X133207839Y-91673037D01*
X133219780Y-91704523D01*
X133309517Y-91834530D01*
X133427760Y-91939283D01*
X133427762Y-91939284D01*
X133567634Y-92012696D01*
X133721014Y-92050500D01*
X133721015Y-92050500D01*
X133878985Y-92050500D01*
X134032365Y-92012696D01*
X134172237Y-91939285D01*
X134172238Y-91939283D01*
X134172240Y-91939283D01*
X134265477Y-91856682D01*
X134328708Y-91826963D01*
X134347702Y-91825500D01*
X134956016Y-91825500D01*
X134956018Y-91825500D01*
X135064237Y-91796503D01*
X135161263Y-91740485D01*
X135740485Y-91161263D01*
X135796503Y-91064237D01*
X135825500Y-90956018D01*
X135825500Y-90843981D01*
X135825500Y-90771363D01*
X135845185Y-90704324D01*
X135875864Y-90671595D01*
X135896423Y-90656423D01*
X135974381Y-90550794D01*
X136009951Y-90449142D01*
X136017741Y-90426881D01*
X136017741Y-90426879D01*
X136019268Y-90410591D01*
X136020500Y-90397457D01*
X136020499Y-90022544D01*
X136017741Y-89993121D01*
X135974381Y-89869206D01*
X135946003Y-89830756D01*
X135922033Y-89765128D01*
X135937348Y-89696958D01*
X135987088Y-89647889D01*
X136055461Y-89633502D01*
X136120758Y-89658363D01*
X136133455Y-89669442D01*
X136825273Y-90361259D01*
X137496725Y-91032711D01*
X137567289Y-91103275D01*
X137567291Y-91103276D01*
X137567295Y-91103279D01*
X137653705Y-91153167D01*
X137653712Y-91153171D01*
X137750104Y-91179000D01*
X137849179Y-91179000D01*
X137916218Y-91198685D01*
X137961973Y-91251489D01*
X137971917Y-91320647D01*
X137942892Y-91384203D01*
X137936860Y-91390681D01*
X137282506Y-92045034D01*
X137282504Y-92045037D01*
X137219905Y-92153463D01*
X137219905Y-92153464D01*
X137194652Y-92247710D01*
X137187500Y-92274400D01*
X137187500Y-93088261D01*
X137167815Y-93155300D01*
X137138426Y-93187064D01*
X137062922Y-93244321D01*
X136975635Y-93359425D01*
X136974599Y-93361269D01*
X136973209Y-93362624D01*
X136970511Y-93366183D01*
X136969977Y-93365778D01*
X136924587Y-93410059D01*
X136866511Y-93424500D01*
X135591264Y-93424500D01*
X135524225Y-93404815D01*
X135509038Y-93393316D01*
X135472240Y-93360717D01*
X135472238Y-93360715D01*
X135332365Y-93287303D01*
X135178986Y-93249500D01*
X135178985Y-93249500D01*
X135021015Y-93249500D01*
X135021014Y-93249500D01*
X134867634Y-93287303D01*
X134727762Y-93360715D01*
X134609516Y-93465471D01*
X134519781Y-93595475D01*
X134519780Y-93595476D01*
X134463762Y-93743181D01*
X134444722Y-93899999D01*
X134444722Y-93900000D01*
X134463762Y-94056818D01*
X134508584Y-94175001D01*
X134519780Y-94204523D01*
X134609517Y-94334530D01*
X134727760Y-94439283D01*
X134727762Y-94439284D01*
X134867634Y-94512696D01*
X135021014Y-94550500D01*
X135021015Y-94550500D01*
X135178985Y-94550500D01*
X135332365Y-94512696D01*
X135367076Y-94494478D01*
X135472240Y-94439283D01*
X135494658Y-94419423D01*
X135509038Y-94406684D01*
X135572271Y-94376963D01*
X135591264Y-94375500D01*
X136911108Y-94375500D01*
X136978147Y-94395185D01*
X137009911Y-94424573D01*
X137021066Y-94439283D01*
X137062923Y-94494479D01*
X137178023Y-94581763D01*
X137178024Y-94581763D01*
X137178025Y-94581764D01*
X137312410Y-94634759D01*
X137396856Y-94644900D01*
X137396862Y-94644900D01*
X137929138Y-94644900D01*
X137929144Y-94644900D01*
X138013590Y-94634759D01*
X138147975Y-94581764D01*
X138263078Y-94494478D01*
X138350364Y-94379375D01*
X138403359Y-94244990D01*
X138413500Y-94160544D01*
X138413500Y-93578256D01*
X138403359Y-93493810D01*
X138350364Y-93359425D01*
X138350363Y-93359424D01*
X138350363Y-93359423D01*
X138282361Y-93269750D01*
X138263078Y-93244322D01*
X138239963Y-93226793D01*
X138187574Y-93187064D01*
X138146051Y-93130872D01*
X138138500Y-93088261D01*
X138138500Y-92585321D01*
X138158185Y-92518282D01*
X138174819Y-92497640D01*
X138490640Y-92181819D01*
X138551963Y-92148334D01*
X138578321Y-92145500D01*
X138651976Y-92145500D01*
X138719015Y-92165185D01*
X138725601Y-92169723D01*
X138771843Y-92203852D01*
X138810003Y-92217204D01*
X138897173Y-92247708D01*
X138897177Y-92247708D01*
X138897181Y-92247710D01*
X138912057Y-92249105D01*
X138926930Y-92250500D01*
X138926934Y-92250500D01*
X139373070Y-92250500D01*
X139386289Y-92249260D01*
X139402819Y-92247710D01*
X139402823Y-92247708D01*
X139402826Y-92247708D01*
X139528157Y-92203852D01*
X139528158Y-92203851D01*
X139635365Y-92124730D01*
X139700994Y-92100759D01*
X139708998Y-92100500D01*
X140782952Y-92100500D01*
X140782960Y-92100499D01*
X140850500Y-92100499D01*
X140917539Y-92120184D01*
X140963294Y-92172988D01*
X140974500Y-92224499D01*
X140974500Y-93043403D01*
X140954815Y-93110442D01*
X140950270Y-93117037D01*
X140871147Y-93224244D01*
X140827291Y-93349573D01*
X140827289Y-93349585D01*
X140824500Y-93379329D01*
X140824500Y-93825470D01*
X140827289Y-93855214D01*
X140827291Y-93855226D01*
X140871147Y-93980557D01*
X140871148Y-93980558D01*
X140949995Y-94087393D01*
X140956569Y-94093966D01*
X140954503Y-94096031D01*
X140987583Y-94139598D01*
X140995700Y-94183724D01*
X140995700Y-94351190D01*
X140976015Y-94418229D01*
X140959381Y-94438871D01*
X140160071Y-95238181D01*
X140098748Y-95271666D01*
X140072390Y-95274500D01*
X137243982Y-95274500D01*
X137135763Y-95303497D01*
X137135760Y-95303498D01*
X137038740Y-95359513D01*
X137038734Y-95359517D01*
X136810071Y-95588181D01*
X136748748Y-95621666D01*
X136722390Y-95624500D01*
X136646014Y-95624500D01*
X136492634Y-95662303D01*
X136352762Y-95735715D01*
X136234516Y-95840471D01*
X136144781Y-95970475D01*
X136144780Y-95970476D01*
X136088762Y-96118181D01*
X136069722Y-96274999D01*
X136069722Y-96275000D01*
X136088762Y-96431818D01*
X136134349Y-96552019D01*
X136144780Y-96579523D01*
X136234517Y-96709530D01*
X136352760Y-96814283D01*
X136352762Y-96814284D01*
X136492634Y-96887696D01*
X136646014Y-96925500D01*
X136646015Y-96925500D01*
X136803985Y-96925500D01*
X136957365Y-96887696D01*
X137013989Y-96857977D01*
X137097240Y-96814283D01*
X137215483Y-96709530D01*
X137305220Y-96579523D01*
X137361237Y-96431818D01*
X137380278Y-96275000D01*
X137380278Y-96274999D01*
X137380278Y-96272832D01*
X137380726Y-96271303D01*
X137381182Y-96267555D01*
X137381805Y-96267630D01*
X137399963Y-96205793D01*
X137416599Y-96185149D01*
X137439932Y-96161817D01*
X137501256Y-96128333D01*
X137527611Y-96125500D01*
X140356016Y-96125500D01*
X140356018Y-96125500D01*
X140464237Y-96096503D01*
X140561263Y-96040485D01*
X141682460Y-94919286D01*
X141682463Y-94919285D01*
X141747995Y-94853752D01*
X141809314Y-94820270D01*
X141879006Y-94825254D01*
X141934940Y-94867125D01*
X141958887Y-94931331D01*
X141959088Y-94931308D01*
X141959182Y-94932120D01*
X141959357Y-94932589D01*
X141959465Y-94934257D01*
X141959500Y-94934860D01*
X141962413Y-94959987D01*
X141962415Y-94959991D01*
X142007793Y-95062764D01*
X142095360Y-95150331D01*
X142092921Y-95152769D01*
X142124755Y-95191759D01*
X142134500Y-95239944D01*
X142134500Y-95264228D01*
X142114815Y-95331267D01*
X142110270Y-95337862D01*
X142026147Y-95451844D01*
X141982291Y-95577173D01*
X141982289Y-95577185D01*
X141979500Y-95606929D01*
X141979500Y-96053070D01*
X141982289Y-96082814D01*
X141982291Y-96082826D01*
X142026147Y-96208155D01*
X142026148Y-96208157D01*
X142105001Y-96314999D01*
X142211843Y-96393852D01*
X142250003Y-96407204D01*
X142337173Y-96437708D01*
X142337177Y-96437708D01*
X142337181Y-96437710D01*
X142352057Y-96439105D01*
X142366930Y-96440500D01*
X142366934Y-96440500D01*
X142753070Y-96440500D01*
X142766289Y-96439260D01*
X142782819Y-96437710D01*
X142782823Y-96437708D01*
X142782826Y-96437708D01*
X142831836Y-96420557D01*
X142908157Y-96393852D01*
X143014999Y-96314999D01*
X143093852Y-96208157D01*
X143137710Y-96082819D01*
X143137710Y-96082813D01*
X143138855Y-96077576D01*
X143172390Y-96016280D01*
X143233740Y-95982845D01*
X143303427Y-95987885D01*
X143359327Y-96029802D01*
X143381145Y-96077576D01*
X143382291Y-96082825D01*
X143426147Y-96208155D01*
X143426148Y-96208157D01*
X143505001Y-96314999D01*
X143611843Y-96393852D01*
X143650003Y-96407204D01*
X143737173Y-96437708D01*
X143737177Y-96437708D01*
X143737181Y-96437710D01*
X143752057Y-96439105D01*
X143766930Y-96440500D01*
X143766934Y-96440500D01*
X144153070Y-96440500D01*
X144166289Y-96439260D01*
X144182819Y-96437710D01*
X144182823Y-96437708D01*
X144182826Y-96437708D01*
X144231836Y-96420557D01*
X144308157Y-96393852D01*
X144414999Y-96314999D01*
X144493852Y-96208157D01*
X144532922Y-96096502D01*
X144537708Y-96082826D01*
X144537708Y-96082823D01*
X144537710Y-96082819D01*
X144540500Y-96053066D01*
X144540500Y-95606934D01*
X144537710Y-95577181D01*
X144537708Y-95577177D01*
X144537708Y-95577173D01*
X144493852Y-95451844D01*
X144493852Y-95451843D01*
X144414999Y-95345001D01*
X144414998Y-95345000D01*
X144409730Y-95337862D01*
X144385759Y-95272233D01*
X144385500Y-95264228D01*
X144385500Y-95239944D01*
X144405185Y-95172905D01*
X144425891Y-95151582D01*
X144424640Y-95150331D01*
X144432765Y-95142206D01*
X144512206Y-95062765D01*
X144557585Y-94959991D01*
X144560500Y-94934865D01*
X144560499Y-94376251D01*
X144580183Y-94309214D01*
X144632987Y-94263459D01*
X144702146Y-94253515D01*
X144765702Y-94282540D01*
X144772180Y-94288572D01*
X145093181Y-94609573D01*
X145126666Y-94670896D01*
X145129500Y-94697254D01*
X145129500Y-94883070D01*
X145132289Y-94912814D01*
X145132291Y-94912826D01*
X145176147Y-95038155D01*
X145176148Y-95038157D01*
X145224371Y-95103497D01*
X145260270Y-95152138D01*
X145284241Y-95217767D01*
X145284500Y-95225772D01*
X145284500Y-96912390D01*
X145264815Y-96979429D01*
X145248181Y-97000071D01*
X144910071Y-97338181D01*
X144848748Y-97371666D01*
X144822390Y-97374500D01*
X135674499Y-97374500D01*
X135607460Y-97354815D01*
X135561705Y-97302011D01*
X135550499Y-97250500D01*
X135550499Y-96905143D01*
X135550499Y-96905136D01*
X135550497Y-96905117D01*
X135547586Y-96880012D01*
X135547585Y-96880010D01*
X135547585Y-96880009D01*
X135502206Y-96777235D01*
X135422765Y-96697794D01*
X135422763Y-96697793D01*
X135319985Y-96652412D01*
X135316938Y-96651583D01*
X135313959Y-96649751D01*
X135311458Y-96648647D01*
X135311608Y-96648305D01*
X135257420Y-96614985D01*
X135227137Y-96552019D01*
X135225500Y-96531935D01*
X135225500Y-96243984D01*
X135225500Y-96243982D01*
X135196503Y-96135763D01*
X135140485Y-96038737D01*
X135061263Y-95959515D01*
X134261263Y-95159515D01*
X134164237Y-95103497D01*
X134056018Y-95074500D01*
X134056017Y-95074500D01*
X131427610Y-95074500D01*
X131360571Y-95054815D01*
X131339929Y-95038181D01*
X130161265Y-93859517D01*
X130161263Y-93859515D01*
X130064237Y-93803497D01*
X129956018Y-93774500D01*
X129956017Y-93774500D01*
X129627610Y-93774500D01*
X129560571Y-93754815D01*
X129539929Y-93738181D01*
X129261819Y-93460071D01*
X129228334Y-93398748D01*
X129225500Y-93372390D01*
X129225500Y-84141241D01*
X129245185Y-84074202D01*
X129297989Y-84028447D01*
X129367147Y-84018503D01*
X129430703Y-84047528D01*
X129437181Y-84053560D01*
X129506026Y-84122405D01*
X129506030Y-84122408D01*
X129628829Y-84204460D01*
X129628833Y-84204462D01*
X129628836Y-84204464D01*
X129765291Y-84260986D01*
X129908286Y-84289429D01*
X129910146Y-84289799D01*
X129910150Y-84289800D01*
X129910151Y-84289800D01*
X130057850Y-84289800D01*
X130057851Y-84289799D01*
X130202709Y-84260986D01*
X130339164Y-84204464D01*
X130461970Y-84122408D01*
X130566408Y-84017970D01*
X130607803Y-83956018D01*
X130648462Y-83895168D01*
X130648464Y-83895163D01*
X130704986Y-83758709D01*
X130733800Y-83613849D01*
X130733800Y-83466151D01*
X130704986Y-83321291D01*
X130648464Y-83184836D01*
X130648461Y-83184831D01*
X130648460Y-83184829D01*
X130566408Y-83062030D01*
X130566405Y-83062026D01*
X130461973Y-82957594D01*
X130461969Y-82957591D01*
X130339170Y-82875539D01*
X130339160Y-82875534D01*
X130202709Y-82819014D01*
X130202701Y-82819012D01*
X130057853Y-82790200D01*
X130057849Y-82790200D01*
X129910151Y-82790200D01*
X129910146Y-82790200D01*
X129765298Y-82819012D01*
X129765290Y-82819014D01*
X129628839Y-82875534D01*
X129628829Y-82875539D01*
X129506030Y-82957591D01*
X129506026Y-82957594D01*
X129437181Y-83026440D01*
X129375858Y-83059925D01*
X129306166Y-83054941D01*
X129250233Y-83013069D01*
X129225816Y-82947605D01*
X129225500Y-82938759D01*
X129225500Y-82027610D01*
X129245185Y-81960571D01*
X129261819Y-81939929D01*
X129474866Y-81726882D01*
X129704129Y-81497618D01*
X129765450Y-81464135D01*
X129835141Y-81469119D01*
G37*
%TD.AperFunction*%
%TA.AperFunction,Conductor*%
G36*
X143469760Y-85973906D02*
G01*
X143511400Y-86021962D01*
X143537986Y-86076346D01*
X143623651Y-86162011D01*
X143732488Y-86215219D01*
X143732489Y-86215219D01*
X143732491Y-86215220D01*
X143803051Y-86225500D01*
X143996948Y-86225499D01*
X143996950Y-86225499D01*
X144025172Y-86221387D01*
X144067509Y-86215220D01*
X144095539Y-86201516D01*
X144164409Y-86189756D01*
X144204459Y-86201515D01*
X144232491Y-86215220D01*
X144303051Y-86225500D01*
X144496948Y-86225499D01*
X144496950Y-86225499D01*
X144525172Y-86221387D01*
X144567509Y-86215220D01*
X144595539Y-86201516D01*
X144664409Y-86189756D01*
X144704459Y-86201515D01*
X144732491Y-86215220D01*
X144803051Y-86225500D01*
X144996948Y-86225499D01*
X144996950Y-86225499D01*
X145025172Y-86221387D01*
X145067509Y-86215220D01*
X145095539Y-86201516D01*
X145164409Y-86189756D01*
X145204459Y-86201515D01*
X145232491Y-86215220D01*
X145303051Y-86225500D01*
X145496948Y-86225499D01*
X145496950Y-86225499D01*
X145525172Y-86221387D01*
X145567509Y-86215220D01*
X145595539Y-86201516D01*
X145664409Y-86189756D01*
X145704459Y-86201515D01*
X145732491Y-86215220D01*
X145803051Y-86225500D01*
X145996948Y-86225499D01*
X145996950Y-86225499D01*
X146025172Y-86221387D01*
X146067509Y-86215220D01*
X146095539Y-86201516D01*
X146164409Y-86189756D01*
X146204459Y-86201515D01*
X146232491Y-86215220D01*
X146303051Y-86225500D01*
X146496948Y-86225499D01*
X146496950Y-86225499D01*
X146525172Y-86221387D01*
X146567509Y-86215220D01*
X146595539Y-86201516D01*
X146664409Y-86189756D01*
X146704459Y-86201515D01*
X146732491Y-86215220D01*
X146752095Y-86218076D01*
X146815595Y-86247217D01*
X146853261Y-86306065D01*
X146856924Y-86322905D01*
X146859779Y-86342508D01*
X146873484Y-86370543D01*
X146885241Y-86439416D01*
X146873484Y-86479457D01*
X146859781Y-86507488D01*
X146859780Y-86507491D01*
X146849500Y-86578051D01*
X146849500Y-86578055D01*
X146849500Y-86578056D01*
X146849500Y-86771950D01*
X146859779Y-86842506D01*
X146859779Y-86842507D01*
X146859780Y-86842509D01*
X146911843Y-86949005D01*
X146912989Y-86951349D01*
X146998651Y-87037011D01*
X147053038Y-87063600D01*
X147104620Y-87110728D01*
X147122534Y-87178262D01*
X147101093Y-87244761D01*
X147053038Y-87286400D01*
X146998652Y-87312988D01*
X146998651Y-87312988D01*
X146912988Y-87398651D01*
X146859780Y-87507488D01*
X146859705Y-87508004D01*
X146849500Y-87578051D01*
X146849500Y-87578055D01*
X146849500Y-87578056D01*
X146849500Y-87771950D01*
X146859779Y-87842507D01*
X146859779Y-87842508D01*
X146873484Y-87870543D01*
X146885241Y-87939416D01*
X146873484Y-87979457D01*
X146860231Y-88006568D01*
X146859780Y-88007491D01*
X146849500Y-88078051D01*
X146849500Y-88078055D01*
X146849500Y-88078056D01*
X146849500Y-88271950D01*
X146859779Y-88342507D01*
X146859779Y-88342508D01*
X146873484Y-88370543D01*
X146885241Y-88439416D01*
X146873484Y-88479457D01*
X146859781Y-88507488D01*
X146859780Y-88507491D01*
X146849500Y-88578051D01*
X146849500Y-88578055D01*
X146849500Y-88578056D01*
X146849500Y-88771950D01*
X146859779Y-88842507D01*
X146859779Y-88842508D01*
X146873484Y-88870543D01*
X146885241Y-88939416D01*
X146873484Y-88979457D01*
X146859781Y-89007488D01*
X146859780Y-89007491D01*
X146849500Y-89078051D01*
X146849500Y-89078055D01*
X146849500Y-89078056D01*
X146849500Y-89271950D01*
X146859779Y-89342507D01*
X146859779Y-89342508D01*
X146873484Y-89370543D01*
X146885241Y-89439416D01*
X146873484Y-89479457D01*
X146859781Y-89507488D01*
X146859780Y-89507491D01*
X146849500Y-89578051D01*
X146849500Y-89578055D01*
X146849500Y-89578056D01*
X146849500Y-89771950D01*
X146859779Y-89842507D01*
X146859779Y-89842508D01*
X146873484Y-89870543D01*
X146885241Y-89939416D01*
X146873484Y-89979457D01*
X146859781Y-90007488D01*
X146859780Y-90007491D01*
X146849500Y-90078051D01*
X146849500Y-90078055D01*
X146849500Y-90078056D01*
X146849500Y-90271950D01*
X146859779Y-90342507D01*
X146859779Y-90342508D01*
X146873484Y-90370543D01*
X146885241Y-90439416D01*
X146873484Y-90479457D01*
X146859781Y-90507488D01*
X146859780Y-90507491D01*
X146849500Y-90578051D01*
X146849500Y-90578055D01*
X146849500Y-90578056D01*
X146849500Y-90771950D01*
X146859779Y-90842507D01*
X146859779Y-90842508D01*
X146873484Y-90870543D01*
X146885241Y-90939416D01*
X146873484Y-90979457D01*
X146859781Y-91007488D01*
X146859780Y-91007491D01*
X146849500Y-91078051D01*
X146849500Y-91078055D01*
X146849500Y-91078056D01*
X146849500Y-91271950D01*
X146859779Y-91342507D01*
X146859779Y-91342508D01*
X146873484Y-91370543D01*
X146885241Y-91439416D01*
X146873484Y-91479457D01*
X146859781Y-91507488D01*
X146859778Y-91507496D01*
X146856923Y-91527097D01*
X146827779Y-91590598D01*
X146768930Y-91628262D01*
X146752094Y-91631924D01*
X146732492Y-91634779D01*
X146732491Y-91634779D01*
X146704457Y-91648484D01*
X146635584Y-91660241D01*
X146595543Y-91648484D01*
X146567511Y-91634781D01*
X146567509Y-91634780D01*
X146567495Y-91634778D01*
X146496949Y-91624500D01*
X146496943Y-91624500D01*
X146303049Y-91624500D01*
X146232492Y-91634779D01*
X146232491Y-91634779D01*
X146204457Y-91648484D01*
X146135584Y-91660241D01*
X146095543Y-91648484D01*
X146067511Y-91634781D01*
X146067509Y-91634780D01*
X146067495Y-91634778D01*
X145996949Y-91624500D01*
X145996943Y-91624500D01*
X145803049Y-91624500D01*
X145732492Y-91634779D01*
X145732491Y-91634779D01*
X145704457Y-91648484D01*
X145635584Y-91660241D01*
X145595543Y-91648484D01*
X145567511Y-91634781D01*
X145567509Y-91634780D01*
X145567495Y-91634778D01*
X145496949Y-91624500D01*
X145496943Y-91624500D01*
X145303049Y-91624500D01*
X145232492Y-91634779D01*
X145232491Y-91634779D01*
X145204457Y-91648484D01*
X145135584Y-91660241D01*
X145095543Y-91648484D01*
X145067511Y-91634781D01*
X145067509Y-91634780D01*
X145067495Y-91634778D01*
X144996949Y-91624500D01*
X144996943Y-91624500D01*
X144803049Y-91624500D01*
X144732492Y-91634779D01*
X144732491Y-91634779D01*
X144704457Y-91648484D01*
X144635584Y-91660241D01*
X144595543Y-91648484D01*
X144567511Y-91634781D01*
X144567509Y-91634780D01*
X144567495Y-91634778D01*
X144496949Y-91624500D01*
X144496943Y-91624500D01*
X144303049Y-91624500D01*
X144232492Y-91634779D01*
X144232491Y-91634779D01*
X144204457Y-91648484D01*
X144135584Y-91660241D01*
X144095543Y-91648484D01*
X144067511Y-91634781D01*
X144067509Y-91634780D01*
X144067495Y-91634778D01*
X143996949Y-91624500D01*
X143996943Y-91624500D01*
X143803049Y-91624500D01*
X143732492Y-91634779D01*
X143732491Y-91634779D01*
X143704457Y-91648484D01*
X143635584Y-91660241D01*
X143595543Y-91648484D01*
X143567511Y-91634781D01*
X143567509Y-91634780D01*
X143567495Y-91634778D01*
X143496949Y-91624500D01*
X143496943Y-91624500D01*
X143303049Y-91624500D01*
X143232492Y-91634779D01*
X143232491Y-91634779D01*
X143204457Y-91648484D01*
X143135584Y-91660241D01*
X143095543Y-91648484D01*
X143067511Y-91634781D01*
X143067509Y-91634780D01*
X143067495Y-91634778D01*
X142996949Y-91624500D01*
X142996943Y-91624500D01*
X142803049Y-91624500D01*
X142732492Y-91634779D01*
X142732491Y-91634779D01*
X142704457Y-91648484D01*
X142635584Y-91660241D01*
X142595543Y-91648484D01*
X142567511Y-91634781D01*
X142567509Y-91634780D01*
X142567495Y-91634778D01*
X142496949Y-91624500D01*
X142496943Y-91624500D01*
X142303049Y-91624500D01*
X142232492Y-91634779D01*
X142232491Y-91634779D01*
X142204457Y-91648484D01*
X142135584Y-91660241D01*
X142095543Y-91648484D01*
X142067511Y-91634781D01*
X142067509Y-91634780D01*
X142067495Y-91634778D01*
X141996949Y-91624500D01*
X141996943Y-91624500D01*
X141803049Y-91624500D01*
X141732492Y-91634779D01*
X141732491Y-91634779D01*
X141704457Y-91648484D01*
X141635584Y-91660241D01*
X141595543Y-91648484D01*
X141567511Y-91634781D01*
X141567509Y-91634780D01*
X141567507Y-91634779D01*
X141567503Y-91634778D01*
X141547903Y-91631923D01*
X141484402Y-91602779D01*
X141446738Y-91543930D01*
X141443076Y-91527094D01*
X141441568Y-91516748D01*
X141440220Y-91507491D01*
X141426516Y-91479460D01*
X141414756Y-91410591D01*
X141426515Y-91370540D01*
X141440220Y-91342509D01*
X141450500Y-91271949D01*
X141450499Y-91078052D01*
X141448486Y-91064237D01*
X141440220Y-91007493D01*
X141440220Y-91007491D01*
X141426516Y-90979460D01*
X141414756Y-90910591D01*
X141426515Y-90870540D01*
X141440220Y-90842509D01*
X141450500Y-90771949D01*
X141450499Y-90578052D01*
X141450020Y-90574767D01*
X141440220Y-90507493D01*
X141440220Y-90507491D01*
X141426516Y-90479460D01*
X141414756Y-90410591D01*
X141426515Y-90370540D01*
X141440220Y-90342509D01*
X141450500Y-90271949D01*
X141450499Y-90078052D01*
X141440220Y-90007491D01*
X141426516Y-89979460D01*
X141414756Y-89910591D01*
X141426515Y-89870540D01*
X141440220Y-89842509D01*
X141450500Y-89771949D01*
X141450499Y-89578052D01*
X141448210Y-89562341D01*
X141440220Y-89507493D01*
X141440220Y-89507491D01*
X141426516Y-89479460D01*
X141414756Y-89410591D01*
X141426515Y-89370540D01*
X141440220Y-89342509D01*
X141450500Y-89271949D01*
X141450499Y-89078052D01*
X141440220Y-89007491D01*
X141426516Y-88979460D01*
X141414756Y-88910591D01*
X141426515Y-88870540D01*
X141440220Y-88842509D01*
X141450500Y-88771949D01*
X141450499Y-88578052D01*
X141450054Y-88574999D01*
X141440220Y-88507493D01*
X141440220Y-88507491D01*
X141426516Y-88479460D01*
X141414756Y-88410591D01*
X141426515Y-88370540D01*
X141440220Y-88342509D01*
X141450500Y-88271949D01*
X141450499Y-88078052D01*
X141449480Y-88071059D01*
X141442910Y-88025958D01*
X141440220Y-88007491D01*
X141426516Y-87979460D01*
X141414756Y-87910591D01*
X141426515Y-87870540D01*
X141440220Y-87842509D01*
X141450500Y-87771949D01*
X141450499Y-87578052D01*
X141449855Y-87573633D01*
X141444331Y-87535715D01*
X141440220Y-87507491D01*
X141426516Y-87479460D01*
X141414756Y-87410591D01*
X141426515Y-87370540D01*
X141440220Y-87342509D01*
X141450500Y-87271949D01*
X141450499Y-87078052D01*
X141448897Y-87067057D01*
X141442546Y-87023461D01*
X141440220Y-87007491D01*
X141426516Y-86979460D01*
X141414756Y-86910591D01*
X141426515Y-86870540D01*
X141440220Y-86842509D01*
X141450500Y-86771949D01*
X141450499Y-86578052D01*
X141448666Y-86565471D01*
X141441807Y-86518386D01*
X141440220Y-86507491D01*
X141426516Y-86479460D01*
X141414756Y-86410591D01*
X141426515Y-86370540D01*
X141440220Y-86342509D01*
X141443076Y-86322904D01*
X141472217Y-86259405D01*
X141531065Y-86221739D01*
X141547891Y-86218077D01*
X141567509Y-86215220D01*
X141595539Y-86201516D01*
X141664409Y-86189756D01*
X141704459Y-86201515D01*
X141732491Y-86215220D01*
X141803051Y-86225500D01*
X141996948Y-86225499D01*
X141996950Y-86225499D01*
X142025172Y-86221387D01*
X142067509Y-86215220D01*
X142095539Y-86201516D01*
X142164409Y-86189756D01*
X142204459Y-86201515D01*
X142232491Y-86215220D01*
X142303051Y-86225500D01*
X142496948Y-86225499D01*
X142496950Y-86225499D01*
X142525172Y-86221387D01*
X142567509Y-86215220D01*
X142595539Y-86201516D01*
X142664409Y-86189756D01*
X142704459Y-86201515D01*
X142732491Y-86215220D01*
X142803051Y-86225500D01*
X142996948Y-86225499D01*
X142996950Y-86225499D01*
X143025172Y-86221387D01*
X143067509Y-86215220D01*
X143176347Y-86162012D01*
X143262012Y-86076347D01*
X143262013Y-86076346D01*
X143288600Y-86021962D01*
X143335727Y-85970379D01*
X143403262Y-85952465D01*
X143469760Y-85973906D01*
G37*
%TD.AperFunction*%
%TA.AperFunction,Conductor*%
G36*
X149117539Y-89214585D02*
G01*
X149163294Y-89267389D01*
X149174500Y-89318900D01*
X149174500Y-90156017D01*
X149203497Y-90264236D01*
X149203498Y-90264239D01*
X149207950Y-90271950D01*
X149259515Y-90361263D01*
X149259517Y-90361265D01*
X149286071Y-90387819D01*
X149319556Y-90449142D01*
X149314572Y-90518834D01*
X149272700Y-90574767D01*
X149207236Y-90599184D01*
X149198390Y-90599500D01*
X148831899Y-90599500D01*
X148764860Y-90579815D01*
X148744218Y-90563181D01*
X148638819Y-90457782D01*
X148605334Y-90396459D01*
X148602500Y-90370101D01*
X148602500Y-89319441D01*
X148605921Y-89319441D01*
X148614277Y-89266004D01*
X148660678Y-89213767D01*
X148726429Y-89194900D01*
X149050500Y-89194900D01*
X149117539Y-89214585D01*
G37*
%TD.AperFunction*%
%TA.AperFunction,Conductor*%
G36*
X133449784Y-80220185D02*
G01*
X133470426Y-80236819D01*
X135815653Y-82582046D01*
X135849138Y-82643369D01*
X135844154Y-82713061D01*
X135802282Y-82768994D01*
X135771953Y-82785665D01*
X135767638Y-82787301D01*
X135627762Y-82860715D01*
X135609686Y-82876729D01*
X135513045Y-82962345D01*
X135509516Y-82965471D01*
X135419781Y-83095475D01*
X135419780Y-83095476D01*
X135363762Y-83243181D01*
X135344722Y-83399999D01*
X135344722Y-83400000D01*
X135363762Y-83556818D01*
X135403485Y-83661557D01*
X135419780Y-83704523D01*
X135443741Y-83739237D01*
X135509515Y-83834528D01*
X135509516Y-83834529D01*
X135509517Y-83834530D01*
X135532727Y-83855092D01*
X135569853Y-83914279D01*
X135574500Y-83947907D01*
X135574500Y-83956018D01*
X135603497Y-84064237D01*
X135659515Y-84161263D01*
X135659517Y-84161265D01*
X138739853Y-87241601D01*
X138773338Y-87302924D01*
X138769214Y-87370237D01*
X138742290Y-87447180D01*
X138742289Y-87447185D01*
X138739500Y-87476929D01*
X138739500Y-87863070D01*
X138742289Y-87892814D01*
X138742291Y-87892826D01*
X138785496Y-88016294D01*
X138786148Y-88018157D01*
X138865001Y-88124999D01*
X138971843Y-88203852D01*
X139010003Y-88217204D01*
X139097173Y-88247708D01*
X139097177Y-88247708D01*
X139097181Y-88247710D01*
X139112057Y-88249105D01*
X139126930Y-88250500D01*
X139475500Y-88250500D01*
X139542539Y-88270185D01*
X139588294Y-88322989D01*
X139599500Y-88374500D01*
X139599500Y-88775500D01*
X139579815Y-88842539D01*
X139527011Y-88888294D01*
X139475500Y-88899500D01*
X139071253Y-88899500D01*
X139004214Y-88879815D01*
X138983572Y-88863181D01*
X138409819Y-88289428D01*
X138376334Y-88228105D01*
X138373500Y-88201747D01*
X138373500Y-88170275D01*
X138373500Y-88170273D01*
X138346207Y-88068412D01*
X138293480Y-87977087D01*
X134036819Y-83720426D01*
X134003334Y-83659103D01*
X134000500Y-83632745D01*
X134000500Y-82347275D01*
X134000499Y-82347271D01*
X133999004Y-82341692D01*
X133991496Y-82313670D01*
X133973207Y-82245412D01*
X133920480Y-82154087D01*
X132445913Y-80679520D01*
X132367989Y-80634530D01*
X132354589Y-80626793D01*
X132267644Y-80603497D01*
X132252727Y-80599500D01*
X132252726Y-80599500D01*
X132251593Y-80599351D01*
X132250707Y-80598959D01*
X132244877Y-80597397D01*
X132245120Y-80596487D01*
X132187697Y-80571084D01*
X132165732Y-80546853D01*
X132158433Y-80536279D01*
X132158429Y-80536275D01*
X132158428Y-80536274D01*
X132069865Y-80457814D01*
X132032738Y-80398625D01*
X132033506Y-80328759D01*
X132069864Y-80272185D01*
X132115583Y-80231683D01*
X132178817Y-80201963D01*
X132197808Y-80200500D01*
X133382745Y-80200500D01*
X133449784Y-80220185D01*
G37*
%TD.AperFunction*%
%TA.AperFunction,Conductor*%
G36*
X148605135Y-82350500D02*
G01*
X149328222Y-82350499D01*
X149395261Y-82370183D01*
X149441016Y-82422987D01*
X149451396Y-82488788D01*
X149449500Y-82505126D01*
X149449500Y-83494856D01*
X149449502Y-83494882D01*
X149452413Y-83519987D01*
X149452414Y-83519988D01*
X149452414Y-83519990D01*
X149452415Y-83519991D01*
X149497794Y-83622765D01*
X149497795Y-83622766D01*
X149498964Y-83625413D01*
X149508036Y-83694692D01*
X149478213Y-83757877D01*
X149418963Y-83794908D01*
X149385530Y-83799500D01*
X148566955Y-83799500D01*
X148499916Y-83779815D01*
X148454161Y-83727011D01*
X148444217Y-83657853D01*
X148447181Y-83643405D01*
X148450500Y-83631019D01*
X148450500Y-83518982D01*
X148450500Y-82471777D01*
X148470185Y-82404738D01*
X148522989Y-82358983D01*
X148588794Y-82348604D01*
X148605135Y-82350500D01*
G37*
%TD.AperFunction*%
%TD*%
%TA.AperFunction,Conductor*%
%TO.N,/VFBSMPS*%
G36*
X145448015Y-80073207D02*
G01*
X145514336Y-80095190D01*
X145535146Y-80113341D01*
X145588951Y-80172037D01*
X145750810Y-80348611D01*
X145781403Y-80410219D01*
X145872671Y-80912191D01*
X145874617Y-80938019D01*
X145851532Y-81722889D01*
X145829885Y-81789320D01*
X145811693Y-81810358D01*
X145525011Y-82074989D01*
X145525005Y-82074995D01*
X145525000Y-82075000D01*
X145207692Y-82413461D01*
X145149998Y-82475002D01*
X144950000Y-82899997D01*
X144949999Y-82900002D01*
X144925000Y-83250001D01*
X144925000Y-83954877D01*
X144918637Y-83994089D01*
X144832681Y-84251956D01*
X144809192Y-84293442D01*
X144696430Y-84424997D01*
X144643988Y-84461075D01*
X144325001Y-84574998D01*
X144325001Y-84574999D01*
X144174999Y-84674999D01*
X144149999Y-84775004D01*
X144150760Y-84801636D01*
X144132998Y-84869210D01*
X144114494Y-84892854D01*
X144077151Y-84930197D01*
X144030500Y-85030241D01*
X144024501Y-85075811D01*
X144024500Y-85075827D01*
X144024500Y-85512787D01*
X144004815Y-85579826D01*
X143952011Y-85625581D01*
X143894555Y-85636644D01*
X143893555Y-85636596D01*
X143827536Y-85613720D01*
X143784366Y-85558783D01*
X143775500Y-85512739D01*
X143775500Y-85428076D01*
X143775499Y-85428062D01*
X143775499Y-85075819D01*
X143769499Y-85030243D01*
X143769499Y-85030240D01*
X143722850Y-84930201D01*
X143708048Y-84915399D01*
X143674563Y-84854076D01*
X143672094Y-84837228D01*
X143669356Y-84801636D01*
X143650044Y-84550572D01*
X143649954Y-84549311D01*
X143625106Y-84176597D01*
X143624937Y-84173429D01*
X143600428Y-83560706D01*
X143601416Y-83539374D01*
X143649077Y-83181917D01*
X143651691Y-83168235D01*
X143689848Y-83015606D01*
X143725204Y-82955342D01*
X143732672Y-82948862D01*
X143950000Y-82775000D01*
X144150000Y-82475000D01*
X144200000Y-82025000D01*
X144200000Y-81153999D01*
X144200257Y-81146016D01*
X144214516Y-80925000D01*
X144248063Y-80405016D01*
X144265476Y-80349206D01*
X144371778Y-80172035D01*
X144423148Y-80124678D01*
X144453782Y-80114243D01*
X144760848Y-80052830D01*
X144789426Y-80050497D01*
X145448015Y-80073207D01*
G37*
%TD.AperFunction*%
%TD*%
M02*
