%TF.GenerationSoftware,KiCad,Pcbnew,8.0.5*%
%TF.CreationDate,2024-11-02T08:59:12+01:00*%
%TF.ProjectId,BLESEN,424c4553-454e-42e6-9b69-6361645f7063,rev?*%
%TF.SameCoordinates,Original*%
%TF.FileFunction,Legend,Bot*%
%TF.FilePolarity,Positive*%
%FSLAX46Y46*%
G04 Gerber Fmt 4.6, Leading zero omitted, Abs format (unit mm)*
G04 Created by KiCad (PCBNEW 8.0.5) date 2024-11-02 08:59:12*
%MOMM*%
%LPD*%
G01*
G04 APERTURE LIST*
%ADD10C,0.125000*%
%ADD11C,0.150000*%
%ADD12C,0.120000*%
%ADD13R,1.350000X1.350000*%
%ADD14O,1.350000X1.350000*%
%ADD15C,2.200000*%
%ADD16C,0.990600*%
%ADD17R,2.600000X5.560000*%
%ADD18C,17.800000*%
G04 APERTURE END LIST*
D10*
G36*
X133045028Y-99220105D02*
G01*
X133078301Y-99253378D01*
X133118317Y-99333411D01*
X133162406Y-99509765D01*
X133162406Y-99732472D01*
X133118317Y-99908826D01*
X133078301Y-99988857D01*
X133045025Y-100022134D01*
X132972056Y-100058619D01*
X132906328Y-100058619D01*
X132833358Y-100022134D01*
X132800082Y-99988857D01*
X132760066Y-99908826D01*
X132715978Y-99732471D01*
X132715978Y-99509765D01*
X132760066Y-99333410D01*
X132800083Y-99253378D01*
X132833356Y-99220105D01*
X132906328Y-99183619D01*
X132972056Y-99183619D01*
X133045028Y-99220105D01*
G37*
G36*
X135067168Y-99582428D02*
G01*
X134763471Y-99582428D01*
X134690499Y-99545942D01*
X134657226Y-99512669D01*
X134620740Y-99439697D01*
X134620740Y-99326350D01*
X134657226Y-99253378D01*
X134690499Y-99220105D01*
X134763471Y-99183619D01*
X135067168Y-99183619D01*
X135067168Y-99582428D01*
G37*
G36*
X136350898Y-100294730D02*
G01*
X130575105Y-100294730D01*
X130575105Y-99692547D01*
X130686216Y-99692547D01*
X130686216Y-99930642D01*
X130686826Y-99933713D01*
X130686374Y-99935072D01*
X130689019Y-99944732D01*
X130690974Y-99954560D01*
X130691987Y-99955573D01*
X130692814Y-99958593D01*
X130740433Y-100053831D01*
X130746573Y-100061742D01*
X130752140Y-100070074D01*
X130799759Y-100117694D01*
X130808087Y-100123258D01*
X130816003Y-100129402D01*
X130911241Y-100177021D01*
X130914260Y-100177847D01*
X130915274Y-100178861D01*
X130925101Y-100180815D01*
X130934762Y-100183461D01*
X130936120Y-100183008D01*
X130939192Y-100183619D01*
X131224906Y-100183619D01*
X131227977Y-100183008D01*
X131229336Y-100183461D01*
X131238996Y-100180815D01*
X131248824Y-100178861D01*
X131249837Y-100177847D01*
X131252857Y-100177021D01*
X131348095Y-100129402D01*
X131356010Y-100123258D01*
X131364339Y-100117694D01*
X131411958Y-100070074D01*
X131425505Y-100049797D01*
X131425505Y-100001962D01*
X131391679Y-99968138D01*
X131343845Y-99968138D01*
X131323568Y-99981686D01*
X131283120Y-100022134D01*
X131210151Y-100058619D01*
X130953947Y-100058619D01*
X130880977Y-100022134D01*
X130847701Y-99988857D01*
X130811216Y-99915887D01*
X130811216Y-99707302D01*
X130847702Y-99634330D01*
X130880975Y-99601057D01*
X130953947Y-99564571D01*
X131082049Y-99564571D01*
X131099480Y-99561103D01*
X131102072Y-99561276D01*
X131103089Y-99560385D01*
X131105967Y-99559813D01*
X131121524Y-99544255D01*
X131138073Y-99529776D01*
X131138220Y-99527559D01*
X131139791Y-99525989D01*
X131139791Y-99503998D01*
X131141254Y-99482048D01*
X131139791Y-99479507D01*
X131139791Y-99478153D01*
X131137952Y-99476314D01*
X131129085Y-99460915D01*
X130998431Y-99311595D01*
X131638597Y-99311595D01*
X131638597Y-99406833D01*
X131640551Y-99416658D01*
X131641804Y-99426597D01*
X131689423Y-99569454D01*
X131690974Y-99572174D01*
X131690974Y-99573607D01*
X131696538Y-99581935D01*
X131701501Y-99590640D01*
X131702782Y-99591280D01*
X131704522Y-99593884D01*
X132169256Y-100058619D01*
X131701097Y-100058619D01*
X131677179Y-100063377D01*
X131643355Y-100097201D01*
X131643355Y-100145037D01*
X131677179Y-100178861D01*
X131701097Y-100183619D01*
X132320144Y-100183619D01*
X132344062Y-100178861D01*
X132377886Y-100145037D01*
X132377886Y-100097201D01*
X132377883Y-100097198D01*
X132364338Y-100076925D01*
X131803343Y-99515929D01*
X131798724Y-99502071D01*
X132590978Y-99502071D01*
X132590978Y-99740166D01*
X132592471Y-99747675D01*
X132592844Y-99755324D01*
X132640463Y-99945800D01*
X132643386Y-99951988D01*
X132645195Y-99958593D01*
X132692814Y-100053831D01*
X132698954Y-100061742D01*
X132704521Y-100070074D01*
X132752140Y-100117694D01*
X132760468Y-100123258D01*
X132768384Y-100129402D01*
X132863622Y-100177021D01*
X132866641Y-100177847D01*
X132867655Y-100178861D01*
X132877482Y-100180815D01*
X132887143Y-100183461D01*
X132888501Y-100183008D01*
X132891573Y-100183619D01*
X132986811Y-100183619D01*
X132989882Y-100183008D01*
X132991241Y-100183461D01*
X133000901Y-100180815D01*
X133010729Y-100178861D01*
X133011742Y-100177847D01*
X133014762Y-100177021D01*
X133110000Y-100129402D01*
X133117915Y-100123258D01*
X133126244Y-100117694D01*
X133173863Y-100070074D01*
X133179426Y-100061746D01*
X133185570Y-100053831D01*
X133233189Y-99958593D01*
X133234997Y-99951988D01*
X133237921Y-99945800D01*
X133285540Y-99755325D01*
X133285912Y-99747675D01*
X133287406Y-99740166D01*
X133287406Y-99502071D01*
X133285912Y-99494561D01*
X133285540Y-99486912D01*
X133241711Y-99311595D01*
X133543359Y-99311595D01*
X133543359Y-99406833D01*
X133545313Y-99416658D01*
X133546566Y-99426597D01*
X133594185Y-99569454D01*
X133595736Y-99572174D01*
X133595736Y-99573607D01*
X133601300Y-99581935D01*
X133606263Y-99590640D01*
X133607544Y-99591280D01*
X133609284Y-99593884D01*
X134074018Y-100058619D01*
X133605859Y-100058619D01*
X133581941Y-100063377D01*
X133548117Y-100097201D01*
X133548117Y-100145037D01*
X133581941Y-100178861D01*
X133605859Y-100183619D01*
X134224906Y-100183619D01*
X134248824Y-100178861D01*
X134282648Y-100145037D01*
X134282648Y-100097201D01*
X134282645Y-100097198D01*
X134269100Y-100076925D01*
X133708105Y-99515929D01*
X133668359Y-99396689D01*
X133668359Y-99326350D01*
X133675737Y-99311595D01*
X134495740Y-99311595D01*
X134495740Y-99454452D01*
X134496350Y-99457523D01*
X134495898Y-99458882D01*
X134498543Y-99468542D01*
X134500498Y-99478370D01*
X134501511Y-99479383D01*
X134502338Y-99482403D01*
X134549957Y-99577641D01*
X134556104Y-99585562D01*
X134561665Y-99593884D01*
X134609284Y-99641503D01*
X134617605Y-99647063D01*
X134625527Y-99653211D01*
X134720765Y-99700830D01*
X134723784Y-99701656D01*
X134724798Y-99702670D01*
X134734625Y-99704624D01*
X134744286Y-99707270D01*
X134745644Y-99706817D01*
X134748716Y-99707428D01*
X134771532Y-99707428D01*
X134507038Y-100085278D01*
X134497220Y-100107601D01*
X134505533Y-100154707D01*
X134544722Y-100182139D01*
X134591828Y-100173826D01*
X134609442Y-100156960D01*
X134924114Y-99707428D01*
X135067168Y-99707428D01*
X135067168Y-100121119D01*
X135071926Y-100145037D01*
X135105750Y-100178861D01*
X135153586Y-100178861D01*
X135187410Y-100145037D01*
X135192168Y-100121119D01*
X135192168Y-100049797D01*
X135500497Y-100049797D01*
X135514045Y-100070074D01*
X135561664Y-100117694D01*
X135564268Y-100119434D01*
X135564909Y-100120715D01*
X135573607Y-100125673D01*
X135581941Y-100131242D01*
X135583374Y-100131242D01*
X135586095Y-100132793D01*
X135728951Y-100180412D01*
X135738891Y-100181664D01*
X135748716Y-100183619D01*
X135843954Y-100183619D01*
X135853779Y-100181664D01*
X135863718Y-100180412D01*
X136006575Y-100132793D01*
X136009296Y-100131242D01*
X136010728Y-100131242D01*
X136019056Y-100125677D01*
X136027761Y-100120715D01*
X136028401Y-100119433D01*
X136031005Y-100117694D01*
X136126244Y-100022455D01*
X136131810Y-100014123D01*
X136137951Y-100006212D01*
X136185570Y-99910974D01*
X136187378Y-99904369D01*
X136190302Y-99898181D01*
X136237921Y-99707706D01*
X136238293Y-99700056D01*
X136239787Y-99692547D01*
X136239787Y-99549690D01*
X136238293Y-99542180D01*
X136237921Y-99534531D01*
X136190302Y-99344056D01*
X136187378Y-99337867D01*
X136185570Y-99331263D01*
X136137951Y-99236025D01*
X136131803Y-99228103D01*
X136126243Y-99219782D01*
X136031005Y-99124544D01*
X136028401Y-99122804D01*
X136027761Y-99121523D01*
X136019056Y-99116560D01*
X136010728Y-99110996D01*
X136009296Y-99110996D01*
X136006575Y-99109445D01*
X135863718Y-99061826D01*
X135853779Y-99060573D01*
X135843954Y-99058619D01*
X135748716Y-99058619D01*
X135738891Y-99060573D01*
X135728951Y-99061826D01*
X135586095Y-99109445D01*
X135583374Y-99110996D01*
X135581942Y-99110996D01*
X135573613Y-99116560D01*
X135564909Y-99121523D01*
X135564268Y-99122804D01*
X135561665Y-99124544D01*
X135514046Y-99172163D01*
X135500498Y-99192440D01*
X135500498Y-99240274D01*
X135534323Y-99274099D01*
X135582157Y-99274099D01*
X135602434Y-99260551D01*
X135639619Y-99223365D01*
X135758859Y-99183619D01*
X135833811Y-99183619D01*
X135953050Y-99223365D01*
X136030682Y-99300997D01*
X136070698Y-99381030D01*
X136114787Y-99557384D01*
X136114787Y-99684853D01*
X136070698Y-99861207D01*
X136030681Y-99941240D01*
X135953050Y-100018872D01*
X135833811Y-100058619D01*
X135758859Y-100058619D01*
X135639621Y-100018873D01*
X135602435Y-99981686D01*
X135582158Y-99968138D01*
X135534323Y-99968137D01*
X135500498Y-100001962D01*
X135500497Y-100049797D01*
X135192168Y-100049797D01*
X135192168Y-99121119D01*
X135187410Y-99097201D01*
X135153586Y-99063377D01*
X135129668Y-99058619D01*
X134748716Y-99058619D01*
X134745644Y-99059229D01*
X134744286Y-99058777D01*
X134734625Y-99061422D01*
X134724798Y-99063377D01*
X134723784Y-99064390D01*
X134720765Y-99065217D01*
X134625527Y-99112836D01*
X134617605Y-99118983D01*
X134609284Y-99124544D01*
X134561665Y-99172163D01*
X134556104Y-99180484D01*
X134549957Y-99188406D01*
X134502338Y-99283644D01*
X134501511Y-99286663D01*
X134500498Y-99287677D01*
X134498543Y-99297504D01*
X134495898Y-99307165D01*
X134496350Y-99308523D01*
X134495740Y-99311595D01*
X133675737Y-99311595D01*
X133704845Y-99253378D01*
X133738118Y-99220105D01*
X133811090Y-99183619D01*
X134019675Y-99183619D01*
X134092647Y-99220105D01*
X134133093Y-99260551D01*
X134153370Y-99274099D01*
X134201204Y-99274099D01*
X134235029Y-99240274D01*
X134235029Y-99192440D01*
X134221481Y-99172163D01*
X134173862Y-99124544D01*
X134165540Y-99118983D01*
X134157619Y-99112836D01*
X134062381Y-99065217D01*
X134059361Y-99064390D01*
X134058348Y-99063377D01*
X134048520Y-99061422D01*
X134038860Y-99058777D01*
X134037501Y-99059229D01*
X134034430Y-99058619D01*
X133796335Y-99058619D01*
X133793263Y-99059229D01*
X133791905Y-99058777D01*
X133782244Y-99061422D01*
X133772417Y-99063377D01*
X133771403Y-99064390D01*
X133768384Y-99065217D01*
X133673146Y-99112836D01*
X133665224Y-99118983D01*
X133656903Y-99124544D01*
X133609284Y-99172163D01*
X133603723Y-99180484D01*
X133597576Y-99188406D01*
X133549957Y-99283644D01*
X133549130Y-99286663D01*
X133548117Y-99287677D01*
X133546162Y-99297504D01*
X133543517Y-99307165D01*
X133543969Y-99308523D01*
X133543359Y-99311595D01*
X133241711Y-99311595D01*
X133237921Y-99296437D01*
X133234997Y-99290248D01*
X133233189Y-99283644D01*
X133185570Y-99188406D01*
X133179422Y-99180484D01*
X133173862Y-99172163D01*
X133126243Y-99124544D01*
X133117921Y-99118983D01*
X133110000Y-99112836D01*
X133014762Y-99065217D01*
X133011742Y-99064390D01*
X133010729Y-99063377D01*
X133000901Y-99061422D01*
X132991241Y-99058777D01*
X132989882Y-99059229D01*
X132986811Y-99058619D01*
X132891573Y-99058619D01*
X132888501Y-99059229D01*
X132887143Y-99058777D01*
X132877482Y-99061422D01*
X132867655Y-99063377D01*
X132866641Y-99064390D01*
X132863622Y-99065217D01*
X132768384Y-99112836D01*
X132760462Y-99118983D01*
X132752141Y-99124544D01*
X132704522Y-99172163D01*
X132698961Y-99180484D01*
X132692814Y-99188406D01*
X132645195Y-99283644D01*
X132643386Y-99290248D01*
X132640463Y-99296437D01*
X132592844Y-99486913D01*
X132592471Y-99494561D01*
X132590978Y-99502071D01*
X131798724Y-99502071D01*
X131763597Y-99396689D01*
X131763597Y-99326350D01*
X131800083Y-99253378D01*
X131833356Y-99220105D01*
X131906328Y-99183619D01*
X132114913Y-99183619D01*
X132187885Y-99220105D01*
X132228331Y-99260551D01*
X132248608Y-99274099D01*
X132296442Y-99274099D01*
X132330267Y-99240274D01*
X132330267Y-99192440D01*
X132316719Y-99172163D01*
X132269100Y-99124544D01*
X132260778Y-99118983D01*
X132252857Y-99112836D01*
X132157619Y-99065217D01*
X132154599Y-99064390D01*
X132153586Y-99063377D01*
X132143758Y-99061422D01*
X132134098Y-99058777D01*
X132132739Y-99059229D01*
X132129668Y-99058619D01*
X131891573Y-99058619D01*
X131888501Y-99059229D01*
X131887143Y-99058777D01*
X131877482Y-99061422D01*
X131867655Y-99063377D01*
X131866641Y-99064390D01*
X131863622Y-99065217D01*
X131768384Y-99112836D01*
X131760462Y-99118983D01*
X131752141Y-99124544D01*
X131704522Y-99172163D01*
X131698961Y-99180484D01*
X131692814Y-99188406D01*
X131645195Y-99283644D01*
X131644368Y-99286663D01*
X131643355Y-99287677D01*
X131641400Y-99297504D01*
X131638755Y-99307165D01*
X131639207Y-99308523D01*
X131638597Y-99311595D01*
X130998431Y-99311595D01*
X130886452Y-99183619D01*
X131367763Y-99183619D01*
X131391681Y-99178861D01*
X131425505Y-99145037D01*
X131425505Y-99097201D01*
X131391681Y-99063377D01*
X131367763Y-99058619D01*
X130748716Y-99058619D01*
X130731284Y-99062086D01*
X130728693Y-99061914D01*
X130727675Y-99062804D01*
X130724798Y-99063377D01*
X130709240Y-99078934D01*
X130692692Y-99093414D01*
X130692544Y-99095630D01*
X130690974Y-99097201D01*
X130690974Y-99119191D01*
X130689511Y-99141142D01*
X130690974Y-99143682D01*
X130690974Y-99145037D01*
X130692812Y-99146875D01*
X130701680Y-99162276D01*
X130944313Y-99439571D01*
X130939192Y-99439571D01*
X130936120Y-99440181D01*
X130934762Y-99439729D01*
X130925101Y-99442374D01*
X130915274Y-99444329D01*
X130914260Y-99445342D01*
X130911241Y-99446169D01*
X130816003Y-99493788D01*
X130808081Y-99499935D01*
X130799760Y-99505496D01*
X130752141Y-99553115D01*
X130746580Y-99561436D01*
X130740433Y-99569358D01*
X130692814Y-99664596D01*
X130691987Y-99667615D01*
X130690974Y-99668629D01*
X130689019Y-99678456D01*
X130686374Y-99688117D01*
X130686826Y-99689475D01*
X130686216Y-99692547D01*
X130575105Y-99692547D01*
X130575105Y-98947508D01*
X136350898Y-98947508D01*
X136350898Y-100294730D01*
G37*
D11*
G36*
X153539962Y-81580057D02*
G01*
X153250764Y-81580057D01*
X153395362Y-80929360D01*
X153539962Y-81580057D01*
G37*
G36*
X154827506Y-82325295D02*
G01*
X151202756Y-82325295D01*
X151202756Y-80568996D01*
X151369423Y-80568996D01*
X151369423Y-80598260D01*
X151380622Y-80625296D01*
X151401314Y-80645988D01*
X151428350Y-80657187D01*
X151442982Y-80658628D01*
X151653696Y-80658628D01*
X151653696Y-82083628D01*
X151655137Y-82098260D01*
X151666336Y-82125296D01*
X151687028Y-82145988D01*
X151714064Y-82157187D01*
X151743328Y-82157187D01*
X151770364Y-82145988D01*
X151791056Y-82125296D01*
X151802255Y-82098260D01*
X151803696Y-82083628D01*
X151803696Y-80658628D01*
X152014410Y-80658628D01*
X152029042Y-80657187D01*
X152056078Y-80645988D01*
X152076770Y-80625296D01*
X152087969Y-80598260D01*
X152087969Y-80568996D01*
X152178947Y-80568996D01*
X152178947Y-80598260D01*
X152190146Y-80625296D01*
X152210838Y-80645988D01*
X152237874Y-80657187D01*
X152252506Y-80658628D01*
X152653696Y-80658628D01*
X152653696Y-81222914D01*
X152395363Y-81222914D01*
X152380731Y-81224355D01*
X152353695Y-81235554D01*
X152333003Y-81256246D01*
X152321804Y-81283282D01*
X152321804Y-81312546D01*
X152333003Y-81339582D01*
X152353695Y-81360274D01*
X152380731Y-81371473D01*
X152395363Y-81372914D01*
X152653696Y-81372914D01*
X152653696Y-82083628D01*
X152655137Y-82098260D01*
X152666336Y-82125296D01*
X152687028Y-82145988D01*
X152714064Y-82157187D01*
X152743328Y-82157187D01*
X152770364Y-82145988D01*
X152791056Y-82125296D01*
X152802255Y-82098260D01*
X152803696Y-82083628D01*
X152803696Y-82081954D01*
X152987049Y-82081954D01*
X152992116Y-82110776D01*
X153007826Y-82135464D01*
X153031789Y-82152261D01*
X153060356Y-82158609D01*
X153089178Y-82153542D01*
X153113866Y-82137832D01*
X153130663Y-82113869D01*
X153135244Y-82099898D01*
X153217431Y-81730057D01*
X153573295Y-81730057D01*
X153655482Y-82099898D01*
X153660063Y-82113869D01*
X153676860Y-82137832D01*
X153701548Y-82153542D01*
X153730370Y-82158610D01*
X153758937Y-82152262D01*
X153782900Y-82135464D01*
X153798610Y-82110776D01*
X153803678Y-82081955D01*
X153801910Y-82067359D01*
X153710287Y-81655057D01*
X153939411Y-81655057D01*
X153939411Y-81797914D01*
X153940140Y-81805319D01*
X153940000Y-81807294D01*
X153940590Y-81809891D01*
X153940852Y-81812546D01*
X153941610Y-81814377D01*
X153943260Y-81821631D01*
X153990879Y-81964488D01*
X153992420Y-81967940D01*
X153992709Y-81969399D01*
X153994940Y-81973583D01*
X153996873Y-81977913D01*
X153997846Y-81979035D01*
X153999626Y-81982373D01*
X154047245Y-82053802D01*
X154052842Y-82060637D01*
X154053808Y-82062268D01*
X154055289Y-82063625D01*
X154056561Y-82065178D01*
X154058134Y-82066231D01*
X154064649Y-82072200D01*
X154159887Y-82143628D01*
X154162358Y-82145127D01*
X154163219Y-82145988D01*
X154164978Y-82146716D01*
X154172457Y-82151254D01*
X154181566Y-82153587D01*
X154190255Y-82157187D01*
X154198959Y-82158044D01*
X154200805Y-82158517D01*
X154202010Y-82158344D01*
X154204887Y-82158628D01*
X154442982Y-82158628D01*
X154457614Y-82157187D01*
X154460103Y-82156155D01*
X154462791Y-82155965D01*
X154476523Y-82150710D01*
X154619380Y-82079282D01*
X154631823Y-82071450D01*
X154650996Y-82049342D01*
X154660250Y-82021581D01*
X154658176Y-81992391D01*
X154645089Y-81966216D01*
X154622981Y-81947043D01*
X154595220Y-81937789D01*
X154566030Y-81939863D01*
X154552298Y-81945118D01*
X154425277Y-82008628D01*
X154229887Y-82008628D01*
X154164926Y-81959907D01*
X154130005Y-81907526D01*
X154089411Y-81785743D01*
X154089411Y-81667227D01*
X154130005Y-81545444D01*
X154164926Y-81493062D01*
X154241286Y-81435792D01*
X154421697Y-81368139D01*
X154426101Y-81365973D01*
X154427793Y-81365540D01*
X154431254Y-81363439D01*
X154434891Y-81361652D01*
X154436167Y-81360459D01*
X154440363Y-81357914D01*
X154535601Y-81286485D01*
X154542115Y-81280516D01*
X154543689Y-81279463D01*
X154544961Y-81277909D01*
X154546442Y-81276553D01*
X154547406Y-81274923D01*
X154553005Y-81268088D01*
X154600624Y-81196660D01*
X154602403Y-81193322D01*
X154603377Y-81192200D01*
X154605309Y-81187872D01*
X154607541Y-81183686D01*
X154607829Y-81182226D01*
X154609371Y-81178774D01*
X154656990Y-81035918D01*
X154658639Y-81028662D01*
X154659398Y-81026832D01*
X154659659Y-81024178D01*
X154660250Y-81021581D01*
X154660109Y-81019606D01*
X154660839Y-81012200D01*
X154660839Y-80869342D01*
X154660109Y-80861935D01*
X154660250Y-80859961D01*
X154659659Y-80857363D01*
X154659398Y-80854710D01*
X154658639Y-80852879D01*
X154656990Y-80845624D01*
X154609371Y-80702768D01*
X154607829Y-80699315D01*
X154607541Y-80697856D01*
X154605309Y-80693669D01*
X154603377Y-80689342D01*
X154602403Y-80688219D01*
X154600624Y-80684882D01*
X154553005Y-80613454D01*
X154547406Y-80606618D01*
X154546442Y-80604989D01*
X154544961Y-80603632D01*
X154543689Y-80602079D01*
X154542115Y-80601025D01*
X154535601Y-80595057D01*
X154440363Y-80523628D01*
X154437891Y-80522128D01*
X154437031Y-80521268D01*
X154435271Y-80520539D01*
X154427793Y-80516002D01*
X154418683Y-80513668D01*
X154409995Y-80510069D01*
X154401290Y-80509211D01*
X154399445Y-80508739D01*
X154398239Y-80508911D01*
X154395363Y-80508628D01*
X154157268Y-80508628D01*
X154142636Y-80510069D01*
X154140147Y-80511099D01*
X154137458Y-80511291D01*
X154123727Y-80516546D01*
X153980870Y-80587975D01*
X153968427Y-80595808D01*
X153949254Y-80617915D01*
X153940000Y-80645676D01*
X153942074Y-80674867D01*
X153955162Y-80701041D01*
X153977269Y-80720214D01*
X154005030Y-80729468D01*
X154034221Y-80727394D01*
X154047952Y-80722139D01*
X154174973Y-80658628D01*
X154370363Y-80658628D01*
X154435322Y-80707347D01*
X154470246Y-80759733D01*
X154510839Y-80881512D01*
X154510839Y-81000030D01*
X154470246Y-81121808D01*
X154435322Y-81174194D01*
X154358963Y-81231463D01*
X154178553Y-81299117D01*
X154174147Y-81301282D01*
X154172457Y-81301716D01*
X154168998Y-81303814D01*
X154165358Y-81305604D01*
X154164079Y-81306798D01*
X154159887Y-81309342D01*
X154064649Y-81380771D01*
X154058134Y-81386739D01*
X154056561Y-81387793D01*
X154055289Y-81389345D01*
X154053808Y-81390703D01*
X154052842Y-81392333D01*
X154047245Y-81399169D01*
X153999626Y-81470598D01*
X153997846Y-81473935D01*
X153996873Y-81475058D01*
X153994940Y-81479387D01*
X153992709Y-81483572D01*
X153992420Y-81485030D01*
X153990879Y-81488483D01*
X153943260Y-81631340D01*
X153941610Y-81638593D01*
X153940852Y-81640425D01*
X153940590Y-81643079D01*
X153940000Y-81645677D01*
X153940140Y-81647651D01*
X153939411Y-81655057D01*
X153710287Y-81655057D01*
X153468577Y-80567358D01*
X153465585Y-80558234D01*
X153465277Y-80556480D01*
X153464726Y-80555614D01*
X153463996Y-80553387D01*
X153456540Y-80542751D01*
X153449567Y-80531792D01*
X153448174Y-80530816D01*
X153447199Y-80529424D01*
X153436248Y-80522455D01*
X153425604Y-80514994D01*
X153423942Y-80514624D01*
X153422511Y-80513714D01*
X153409740Y-80511468D01*
X153397037Y-80508646D01*
X153395360Y-80508940D01*
X153393689Y-80508647D01*
X153381016Y-80511463D01*
X153368215Y-80513714D01*
X153366781Y-80514626D01*
X153365122Y-80514995D01*
X153354486Y-80522450D01*
X153343527Y-80529424D01*
X153342551Y-80530816D01*
X153341159Y-80531792D01*
X153334185Y-80542751D01*
X153326730Y-80553387D01*
X153325999Y-80555614D01*
X153325449Y-80556480D01*
X153325140Y-80558234D01*
X153322149Y-80567358D01*
X152988816Y-82067358D01*
X152987049Y-82081954D01*
X152803696Y-82081954D01*
X152803696Y-80583628D01*
X152802255Y-80568996D01*
X152791056Y-80541960D01*
X152770364Y-80521268D01*
X152743328Y-80510069D01*
X152728696Y-80508628D01*
X152252506Y-80508628D01*
X152237874Y-80510069D01*
X152210838Y-80521268D01*
X152190146Y-80541960D01*
X152178947Y-80568996D01*
X152087969Y-80568996D01*
X152076770Y-80541960D01*
X152056078Y-80521268D01*
X152029042Y-80510069D01*
X152014410Y-80508628D01*
X151442982Y-80508628D01*
X151428350Y-80510069D01*
X151401314Y-80521268D01*
X151380622Y-80541960D01*
X151369423Y-80568996D01*
X151202756Y-80568996D01*
X151202756Y-80341961D01*
X154827506Y-80341961D01*
X154827506Y-82325295D01*
G37*
D12*
%TO.C,BT1*%
X133430000Y-84715000D02*
X133430000Y-86600000D01*
X133430000Y-94485000D02*
X133430000Y-92600000D01*
X135037090Y-84715000D02*
X133430000Y-84715000D01*
X135037090Y-94485000D02*
X133430000Y-94485000D01*
X152762910Y-84715000D02*
X154370000Y-84715000D01*
X152762910Y-94485000D02*
X154370000Y-94485000D01*
X154370000Y-84715000D02*
X154370000Y-86600000D01*
X154370000Y-94485000D02*
X154370000Y-92600000D01*
X135037090Y-84715000D02*
G75*
G02*
X152762910Y-84715000I8862910J-4885000D01*
G01*
X152762910Y-94485000D02*
G75*
G02*
X135034979Y-94481168I-8862910J4884999D01*
G01*
%TD*%
%LPC*%
D13*
%TO.C,J3*%
X147600000Y-100600000D03*
D14*
X145600000Y-100600000D03*
X143600000Y-100600000D03*
X141600000Y-100600000D03*
%TD*%
D15*
%TO.C,H4*%
X155000000Y-79000000D03*
%TD*%
%TO.C,H2*%
X155000000Y-100000000D03*
%TD*%
%TO.C,H3*%
X137800000Y-99820000D03*
%TD*%
D16*
%TO.C,J1*%
X131000000Y-78460000D03*
X132016000Y-83540000D03*
X129984000Y-83540000D03*
%TD*%
D17*
%TO.C,BT1*%
X155805000Y-89600000D03*
X131995000Y-89600000D03*
D18*
X143900000Y-89600000D03*
%TD*%
%LPD*%
M02*
