M48
; DRILL file {KiCad 8.0.2} date 2024-05-24T20:03:17+0200
; FORMAT={-:-/ absolute / inch / decimal}
; #@! TF.CreationDate,2024-05-24T20:03:17+02:00
; #@! TF.GenerationSoftware,Kicad,Pcbnew,8.0.2
; #@! TF.FileFunction,Plated,1,4,PTH
FMAT,2
INCH
; #@! TA.AperFunction,Plated,PTH,ViaDrill
T1C0.0079
; #@! TA.AperFunction,Plated,PTH,ComponentDrill
T2C0.0079
; #@! TA.AperFunction,Plated,PTH,ViaDrill
T3C0.0118
; #@! TA.AperFunction,Plated,PTH,ViaDrill
T4C0.0157
; #@! TA.AperFunction,Plated,PTH,ComponentDrill
T5C0.0374
%
G90
G05
T1
X5.1969Y-3.189
X5.2461Y-3.1398
X5.4114Y-3.2618
X5.5871Y-3.5008
X5.5891Y-3.4141
X5.5891Y-3.5893
X5.6378Y-3.4488
X5.6378Y-3.5354
X5.6718Y-3.5874
X5.6737Y-3.4141
X5.7165Y-3.4488
X5.7165Y-3.5354
X5.7604Y-3.4141
X5.7623Y-3.4988
X5.7643Y-3.5893
X5.8652Y-3.2943
X5.8819Y-3.4154
X5.937Y-3.3268
X5.9469Y-3.7815
X5.9685Y-3.2835
X6.0049Y-3.6939
X6.0217Y-3.2057
X6.1083Y-3.6949
X6.1585Y-3.1781
T2
X6.2528Y-3.2598
T3
X5.312Y-3.2756
X5.3661Y-3.2411
X5.9902Y-3.3248
T4
X5.1575Y-3.9764
X5.1929Y-3.3061
X5.2116Y-3.7028
X5.2274Y-3.815
X5.2402Y-3.6457
X5.2547Y-3.3878
X5.2933Y-3.3898
X5.2953Y-3.6496
X5.315Y-3.1181
X5.315Y-3.9764
X5.3189Y-3.6969
X5.3406Y-3.3051
X5.3602Y-3.1161
X5.3829Y-3.7904
X5.4094Y-3.1378
X5.4469Y-3.1654
X5.4547Y-3.4717
X5.4705Y-3.1063
X5.4803Y-3.2717
X5.4803Y-3.3091
X5.4823Y-3.7303
X5.5118Y-3.9764
X5.5181Y-3.8031
X5.5281Y-3.7232
X5.5512Y-3.1575
X5.5689Y-3.0906
X5.5906Y-3.8976
X5.623Y-3.0915
X5.685Y-3.8091
X5.6919Y-3.9557
X5.7087Y-3.0709
X5.7681Y-3.885
X5.7697Y-3.1535
X5.7844Y-3.2411
X5.8244Y-3.7437
X5.8268Y-3.8189
X5.8317Y-3.0935
X5.8602Y-3.5591
X5.8809Y-3.9567
X5.9094Y-3.8406
X5.9124Y-3.1506
X5.9449Y-3.0709
X5.9843Y-3.5827
X5.9843Y-3.9764
X6.0118Y-3.811
X6.0236Y-3.1142
X6.0236Y-3.2677
X6.0335Y-3.8839
X6.0413Y-3.5453
X6.0559Y-3.3827
X6.061Y-3.626
X6.0974Y-3.8652
X6.1033Y-3.2205
X6.122Y-3.2933
X6.1811Y-3.0709
X6.1811Y-3.9764
X6.2205Y-3.0709
X6.2205Y-3.1102
X6.2205Y-3.1496
X6.2205Y-3.189
X6.2205Y-3.2283
X6.2205Y-3.2677
X6.2205Y-3.3071
X6.2205Y-3.4252
X6.2205Y-3.4646
X6.2205Y-3.5039
X6.2205Y-3.5433
X6.2205Y-3.5827
X6.2205Y-3.622
X6.2205Y-3.6614
X6.2205Y-3.7008
X6.2205Y-3.7402
X6.2205Y-3.7795
X6.2205Y-3.8189
X6.2205Y-3.8583
X6.2205Y-3.8976
X6.2205Y-3.937
X6.2205Y-3.9764
X6.2323Y-3.3888
T5
X5.2992Y-3.0315
X5.3976Y-3.0315
X5.4961Y-3.0315
X5.5384Y-4.0157
X5.5945Y-3.0315
X5.6368Y-4.0157
X5.7352Y-4.0157
X5.8337Y-4.0157
M30
