%TF.GenerationSoftware,KiCad,Pcbnew,8.0.5*%
%TF.CreationDate,2024-11-02T08:59:12+01:00*%
%TF.ProjectId,BLESEN,424c4553-454e-42e6-9b69-6361645f7063,rev?*%
%TF.SameCoordinates,Original*%
%TF.FileFunction,Copper,L3,Inr*%
%TF.FilePolarity,Positive*%
%FSLAX46Y46*%
G04 Gerber Fmt 4.6, Leading zero omitted, Abs format (unit mm)*
G04 Created by KiCad (PCBNEW 8.0.5) date 2024-11-02 08:59:12*
%MOMM*%
%LPD*%
G01*
G04 APERTURE LIST*
%TA.AperFunction,ComponentPad*%
%ADD10R,1.350000X1.350000*%
%TD*%
%TA.AperFunction,ComponentPad*%
%ADD11O,1.350000X1.350000*%
%TD*%
%TA.AperFunction,ComponentPad*%
%ADD12R,0.500000X0.900000*%
%TD*%
%TA.AperFunction,ViaPad*%
%ADD13C,0.700000*%
%TD*%
%TA.AperFunction,ViaPad*%
%ADD14C,0.500000*%
%TD*%
%TA.AperFunction,Conductor*%
%ADD15C,0.150000*%
%TD*%
G04 APERTURE END LIST*
D10*
%TO.N,/UART_TX*%
%TO.C,J3*%
X147600000Y-100600000D03*
D11*
%TO.N,/UART_RX*%
X145600000Y-100600000D03*
%TO.N,GND*%
X141600000Y-100600000D03*
%TD*%
D12*
%TO.N,GND*%
%TO.C,AE1*%
X158820000Y-82800000D03*
%TD*%
D13*
%TO.N,GND*%
X148875000Y-90325000D03*
D14*
X145200000Y-89800000D03*
D13*
X140160000Y-96600000D03*
X158000000Y-79000000D03*
D14*
X141963000Y-86719400D03*
X145200000Y-87600000D03*
D13*
X129400000Y-96000000D03*
X135600000Y-91800000D03*
X152000000Y-101000000D03*
X130200000Y-93000000D03*
D14*
X146413000Y-91169400D03*
D13*
X158000000Y-93000000D03*
X146800000Y-99200000D03*
X149375000Y-100500000D03*
D14*
X148975000Y-83675000D03*
D13*
X158000000Y-81000000D03*
X158300000Y-86075000D03*
X158000000Y-78000000D03*
X158000000Y-83000000D03*
X131000000Y-101000000D03*
X134600000Y-82600000D03*
D14*
X143200000Y-89800000D03*
D13*
X155500000Y-83650000D03*
X152700000Y-96800000D03*
X129800000Y-85600000D03*
X132775000Y-96900000D03*
X129800000Y-88400000D03*
X158000000Y-89000000D03*
X142000000Y-99000000D03*
X158000000Y-101000000D03*
X144400000Y-96750000D03*
X139200000Y-84050000D03*
X139200000Y-83100000D03*
X139250000Y-94750000D03*
X139800000Y-99600000D03*
X153250000Y-98650000D03*
D14*
X152950000Y-81425000D03*
D13*
X138550000Y-88180000D03*
X148600000Y-96400000D03*
X158000000Y-99000000D03*
X135000000Y-101000000D03*
X140400000Y-79000000D03*
D14*
X146363000Y-88869400D03*
D13*
X135200000Y-78000000D03*
X158000000Y-91000000D03*
X153820000Y-85920000D03*
D14*
X149400000Y-86750000D03*
D13*
X158000000Y-94000000D03*
X136200000Y-85400000D03*
X133000000Y-78000000D03*
X158000000Y-87000000D03*
X138800000Y-78000000D03*
X153000000Y-79100000D03*
X132375000Y-94050000D03*
X150175000Y-80025000D03*
X157000000Y-101000000D03*
D14*
X146313000Y-86719400D03*
D13*
X158000000Y-98000000D03*
X142000000Y-78000000D03*
X154875000Y-98175000D03*
X158000000Y-100000000D03*
X151200000Y-97200000D03*
X158000000Y-84000000D03*
X136000000Y-80200000D03*
D14*
X144063000Y-91119400D03*
D13*
X158000000Y-82000000D03*
D14*
X152875000Y-92875000D03*
D13*
X148125000Y-78575000D03*
X153000000Y-83000000D03*
X144400000Y-98600000D03*
X146550000Y-80100000D03*
D14*
X153575000Y-94500000D03*
D13*
X147940000Y-95090000D03*
X158000000Y-92000000D03*
X158000000Y-95000000D03*
X129800000Y-90600000D03*
D14*
X141913000Y-88919400D03*
D13*
X133175000Y-86100000D03*
X157000000Y-78000000D03*
X153450000Y-90050000D03*
X158000000Y-90000000D03*
X158000000Y-88000000D03*
X129400000Y-99200000D03*
D14*
X141963000Y-91169400D03*
D13*
X158000000Y-80000000D03*
X145000000Y-78000000D03*
D14*
X144113000Y-86719400D03*
D13*
X158000000Y-97000000D03*
X155025000Y-81800000D03*
D14*
X143200000Y-87600000D03*
D13*
X129000000Y-78000000D03*
X146925000Y-82325000D03*
X137000000Y-79000000D03*
X158000000Y-96000000D03*
X152000000Y-91000000D03*
X151000000Y-78000000D03*
X140413000Y-94569400D03*
D14*
X150800000Y-84500000D03*
X151600000Y-83400000D03*
X156425000Y-80725000D03*
%TO.N,/UART_TX*%
X152525000Y-93825000D03*
%TO.N,/UART_RX*%
X137450000Y-82850000D03*
%TD*%
D15*
%TO.N,/UART_TX*%
X148800000Y-100000000D02*
X148800000Y-100400000D01*
X148800000Y-100400000D02*
X148600000Y-100600000D01*
X151048000Y-97752000D02*
X148800000Y-100000000D01*
X151428646Y-97752000D02*
X151048000Y-97752000D01*
X152000000Y-97180646D02*
X151428646Y-97752000D01*
X152525000Y-93825000D02*
X152525000Y-95875000D01*
X152000000Y-96400000D02*
X152000000Y-97180646D01*
X152525000Y-95875000D02*
X152000000Y-96400000D01*
X148600000Y-100600000D02*
X147600000Y-100600000D01*
%TO.N,/UART_RX*%
X137150000Y-83150000D02*
X137150000Y-86150000D01*
X137150000Y-86150000D02*
X137825000Y-86825000D01*
X137450000Y-82850000D02*
X137150000Y-83150000D01*
X145200000Y-99600000D02*
X145600000Y-100000000D01*
X137825000Y-86825000D02*
X137825000Y-95725000D01*
X137825000Y-95725000D02*
X141700000Y-99600000D01*
X145600000Y-100000000D02*
X145600000Y-100600000D01*
X141700000Y-99600000D02*
X145200000Y-99600000D01*
%TD*%
%TA.AperFunction,Conductor*%
%TO.N,GND*%
G36*
X158642539Y-77320185D02*
G01*
X158688294Y-77372989D01*
X158699500Y-77424500D01*
X158699500Y-78960438D01*
X158699500Y-80039562D01*
X158707827Y-80070637D01*
X158719979Y-80115990D01*
X158719982Y-80115995D01*
X158759535Y-80184504D01*
X158759539Y-80184509D01*
X158759540Y-80184511D01*
X158815489Y-80240460D01*
X158815491Y-80240461D01*
X158815495Y-80240464D01*
X158867757Y-80270637D01*
X158884011Y-80280021D01*
X158960438Y-80300500D01*
X158960441Y-80300500D01*
X158962185Y-80300730D01*
X158963547Y-80301332D01*
X158968288Y-80302603D01*
X158968089Y-80303342D01*
X159026082Y-80328997D01*
X159064553Y-80387321D01*
X159070000Y-80423669D01*
X159070000Y-95769314D01*
X159069992Y-95770707D01*
X159040625Y-98384256D01*
X159020189Y-98451070D01*
X158966874Y-98496229D01*
X158948728Y-98502637D01*
X158884015Y-98519977D01*
X158884004Y-98519982D01*
X158815495Y-98559535D01*
X158815487Y-98559541D01*
X158759541Y-98615487D01*
X158759535Y-98615495D01*
X158719982Y-98684004D01*
X158719979Y-98684009D01*
X158706326Y-98734962D01*
X158703708Y-98744736D01*
X158699500Y-98760439D01*
X158699500Y-101575500D01*
X158679815Y-101642539D01*
X158627011Y-101688294D01*
X158575500Y-101699500D01*
X148499353Y-101699500D01*
X148432314Y-101679815D01*
X148386559Y-101627011D01*
X148376615Y-101557853D01*
X148405640Y-101494297D01*
X148430462Y-101472398D01*
X148455601Y-101455601D01*
X148510966Y-101372740D01*
X148525500Y-101299674D01*
X148525500Y-101049500D01*
X148545185Y-100982461D01*
X148597989Y-100936706D01*
X148635066Y-100928639D01*
X148634793Y-100926561D01*
X148642844Y-100925500D01*
X148642853Y-100925500D01*
X148725639Y-100903318D01*
X148799862Y-100860465D01*
X148999860Y-100660466D01*
X148999862Y-100660465D01*
X149060465Y-100599862D01*
X149100850Y-100529913D01*
X149103318Y-100525639D01*
X149125501Y-100442853D01*
X149125501Y-100357147D01*
X149125501Y-100349552D01*
X149125500Y-100349534D01*
X149125500Y-100186189D01*
X149145185Y-100119150D01*
X149161819Y-100098508D01*
X149366928Y-99893399D01*
X153645500Y-99893399D01*
X153645500Y-100106601D01*
X153649971Y-100134827D01*
X153678853Y-100317180D01*
X153678853Y-100317183D01*
X153744734Y-100519944D01*
X153744736Y-100519947D01*
X153841528Y-100709913D01*
X153966846Y-100882397D01*
X154117603Y-101033154D01*
X154290087Y-101158472D01*
X154480053Y-101255264D01*
X154480055Y-101255265D01*
X154616746Y-101299678D01*
X154682821Y-101321147D01*
X154893399Y-101354500D01*
X154893400Y-101354500D01*
X155106600Y-101354500D01*
X155106601Y-101354500D01*
X155317179Y-101321147D01*
X155317182Y-101321146D01*
X155317183Y-101321146D01*
X155519944Y-101255265D01*
X155519944Y-101255264D01*
X155519947Y-101255264D01*
X155709913Y-101158472D01*
X155882397Y-101033154D01*
X156033154Y-100882397D01*
X156158472Y-100709913D01*
X156255264Y-100519947D01*
X156280314Y-100442851D01*
X156321146Y-100317183D01*
X156321146Y-100317182D01*
X156321147Y-100317179D01*
X156354500Y-100106601D01*
X156354500Y-99893399D01*
X156321147Y-99682821D01*
X156321146Y-99682817D01*
X156321146Y-99682816D01*
X156255265Y-99480055D01*
X156255263Y-99480052D01*
X156183668Y-99339537D01*
X156158472Y-99290087D01*
X156033154Y-99117603D01*
X155882397Y-98966846D01*
X155709913Y-98841528D01*
X155519947Y-98744736D01*
X155519944Y-98744734D01*
X155317181Y-98678853D01*
X155176793Y-98656617D01*
X155106601Y-98645500D01*
X154893399Y-98645500D01*
X154823206Y-98656617D01*
X154682819Y-98678853D01*
X154682816Y-98678853D01*
X154480055Y-98744734D01*
X154480052Y-98744736D01*
X154290086Y-98841528D01*
X154117601Y-98966847D01*
X153966847Y-99117601D01*
X153841528Y-99290086D01*
X153744736Y-99480052D01*
X153744734Y-99480055D01*
X153678853Y-99682816D01*
X153678853Y-99682819D01*
X153653342Y-99843890D01*
X153645500Y-99893399D01*
X149366928Y-99893399D01*
X151146508Y-98113819D01*
X151207831Y-98080334D01*
X151234189Y-98077500D01*
X151471497Y-98077500D01*
X151471499Y-98077500D01*
X151554285Y-98055318D01*
X151628508Y-98012465D01*
X152189655Y-97451315D01*
X152189660Y-97451312D01*
X152199860Y-97441111D01*
X152199862Y-97441111D01*
X152260465Y-97380508D01*
X152303318Y-97306284D01*
X152304531Y-97301757D01*
X152304533Y-97301757D01*
X152304533Y-97301745D01*
X152325501Y-97223498D01*
X152325501Y-97137793D01*
X152325501Y-97130198D01*
X152325500Y-97130180D01*
X152325500Y-96586189D01*
X152345185Y-96519150D01*
X152361819Y-96498508D01*
X152503180Y-96357147D01*
X152785465Y-96074862D01*
X152828318Y-96000639D01*
X152850500Y-95917853D01*
X152850500Y-95832147D01*
X152850500Y-94259887D01*
X152870185Y-94192848D01*
X152880782Y-94178689D01*
X152950377Y-94098373D01*
X153010165Y-93967457D01*
X153027053Y-93849997D01*
X154791081Y-93849997D01*
X154791081Y-93850002D01*
X154808646Y-93960909D01*
X154859626Y-94060965D01*
X154939034Y-94140373D01*
X155039090Y-94191353D01*
X155149998Y-94208919D01*
X155150000Y-94208919D01*
X155150002Y-94208919D01*
X155260909Y-94191353D01*
X155260910Y-94191352D01*
X155260912Y-94191352D01*
X155360967Y-94140372D01*
X155440372Y-94060967D01*
X155491352Y-93960912D01*
X155491352Y-93960910D01*
X155491353Y-93960909D01*
X155508919Y-93850002D01*
X155508919Y-93849997D01*
X155491353Y-93739090D01*
X155440373Y-93639034D01*
X155360965Y-93559626D01*
X155260909Y-93508646D01*
X155150002Y-93491081D01*
X155149998Y-93491081D01*
X155039090Y-93508646D01*
X154939034Y-93559626D01*
X154859626Y-93639034D01*
X154808646Y-93739090D01*
X154791081Y-93849997D01*
X153027053Y-93849997D01*
X153030647Y-93825000D01*
X153010165Y-93682543D01*
X152950377Y-93551627D01*
X152856128Y-93442857D01*
X152735053Y-93365047D01*
X152735051Y-93365046D01*
X152735049Y-93365045D01*
X152735050Y-93365045D01*
X152596963Y-93324500D01*
X152596961Y-93324500D01*
X152453039Y-93324500D01*
X152453036Y-93324500D01*
X152314949Y-93365045D01*
X152193873Y-93442856D01*
X152099623Y-93551626D01*
X152099622Y-93551628D01*
X152039834Y-93682543D01*
X152019353Y-93825000D01*
X152039834Y-93967456D01*
X152082539Y-94060965D01*
X152099623Y-94098373D01*
X152169213Y-94178685D01*
X152198238Y-94242240D01*
X152199500Y-94259887D01*
X152199500Y-95688811D01*
X152179815Y-95755850D01*
X152163181Y-95776492D01*
X151739537Y-96200135D01*
X151739533Y-96200141D01*
X151696681Y-96274361D01*
X151696682Y-96274362D01*
X151674500Y-96357147D01*
X151674500Y-96994457D01*
X151654815Y-97061496D01*
X151638181Y-97082138D01*
X151330138Y-97390181D01*
X151268815Y-97423666D01*
X151242457Y-97426500D01*
X151005147Y-97426500D01*
X150922359Y-97448682D01*
X150848138Y-97491534D01*
X150763313Y-97576360D01*
X150701989Y-97609844D01*
X150632298Y-97604860D01*
X150576364Y-97562988D01*
X150552894Y-97506325D01*
X150550767Y-97491534D01*
X150540574Y-97420636D01*
X150540573Y-97420632D01*
X150505600Y-97344054D01*
X150486282Y-97301752D01*
X150400695Y-97202979D01*
X150290748Y-97132321D01*
X150290746Y-97132320D01*
X150290744Y-97132319D01*
X150165348Y-97095500D01*
X150165347Y-97095500D01*
X150034653Y-97095500D01*
X150034652Y-97095500D01*
X149909255Y-97132319D01*
X149799306Y-97202978D01*
X149713719Y-97301750D01*
X149713717Y-97301753D01*
X149659426Y-97420632D01*
X149659425Y-97420637D01*
X149640826Y-97550000D01*
X149659425Y-97679362D01*
X149659426Y-97679367D01*
X149713717Y-97798246D01*
X149713718Y-97798248D01*
X149799305Y-97897021D01*
X149909252Y-97967679D01*
X149909254Y-97967679D01*
X149909255Y-97967680D01*
X150034652Y-98004500D01*
X150035811Y-98004500D01*
X150036922Y-98004826D01*
X150043430Y-98005762D01*
X150043295Y-98006697D01*
X150102850Y-98024185D01*
X150148605Y-98076989D01*
X150158549Y-98146147D01*
X150129524Y-98209703D01*
X150123492Y-98216181D01*
X148611286Y-99728385D01*
X148549963Y-99761870D01*
X148480271Y-99756886D01*
X148454715Y-99743807D01*
X148372739Y-99689033D01*
X148372735Y-99689032D01*
X148299677Y-99674500D01*
X148299674Y-99674500D01*
X146900326Y-99674500D01*
X146900323Y-99674500D01*
X146827264Y-99689032D01*
X146827260Y-99689033D01*
X146744399Y-99744399D01*
X146689033Y-99827260D01*
X146689032Y-99827264D01*
X146674500Y-99900321D01*
X146674500Y-100147312D01*
X146654815Y-100214351D01*
X146602011Y-100260106D01*
X146532853Y-100270050D01*
X146469297Y-100241025D01*
X146443113Y-100209312D01*
X146361033Y-100067147D01*
X146352870Y-100053008D01*
X146222697Y-99908435D01*
X146222694Y-99908433D01*
X146222693Y-99908432D01*
X146222692Y-99908431D01*
X146133859Y-99843890D01*
X146065297Y-99794076D01*
X145887571Y-99714949D01*
X145780889Y-99692272D01*
X145719407Y-99659079D01*
X145718990Y-99658663D01*
X145399864Y-99339537D01*
X145399862Y-99339535D01*
X145362750Y-99318108D01*
X145325640Y-99296682D01*
X145284246Y-99285591D01*
X145242853Y-99274500D01*
X145242852Y-99274500D01*
X141886188Y-99274500D01*
X141819149Y-99254815D01*
X141798507Y-99238181D01*
X138186819Y-95626492D01*
X138153334Y-95565169D01*
X138150500Y-95538811D01*
X138150500Y-95399997D01*
X150841081Y-95399997D01*
X150841081Y-95400002D01*
X150858646Y-95510909D01*
X150909626Y-95610965D01*
X150989034Y-95690373D01*
X151089090Y-95741353D01*
X151199998Y-95758919D01*
X151200000Y-95758919D01*
X151200002Y-95758919D01*
X151310909Y-95741353D01*
X151310910Y-95741352D01*
X151310912Y-95741352D01*
X151410967Y-95690372D01*
X151490372Y-95610967D01*
X151541352Y-95510912D01*
X151541352Y-95510910D01*
X151541353Y-95510909D01*
X151558919Y-95400002D01*
X151558919Y-95399997D01*
X151541353Y-95289090D01*
X151490373Y-95189034D01*
X151410965Y-95109626D01*
X151310909Y-95058646D01*
X151200002Y-95041081D01*
X151199998Y-95041081D01*
X151089090Y-95058646D01*
X150989034Y-95109626D01*
X150909626Y-95189034D01*
X150858646Y-95289090D01*
X150841081Y-95399997D01*
X138150500Y-95399997D01*
X138150500Y-92100000D01*
X153490826Y-92100000D01*
X153509425Y-92229362D01*
X153509426Y-92229367D01*
X153533610Y-92282321D01*
X153563718Y-92348248D01*
X153649305Y-92447021D01*
X153759252Y-92517679D01*
X153759254Y-92517679D01*
X153759255Y-92517680D01*
X153884652Y-92554500D01*
X153884653Y-92554500D01*
X154015347Y-92554500D01*
X154140748Y-92517679D01*
X154250695Y-92447021D01*
X154336282Y-92348248D01*
X154374919Y-92263643D01*
X154390573Y-92229367D01*
X154390574Y-92229362D01*
X154409174Y-92100000D01*
X154390574Y-91970636D01*
X154390573Y-91970635D01*
X154390573Y-91970632D01*
X154336282Y-91851753D01*
X154336282Y-91851752D01*
X154250695Y-91752979D01*
X154140748Y-91682321D01*
X154140746Y-91682320D01*
X154140744Y-91682319D01*
X154015348Y-91645500D01*
X154015347Y-91645500D01*
X153884653Y-91645500D01*
X153884652Y-91645500D01*
X153759255Y-91682319D01*
X153649306Y-91752978D01*
X153563719Y-91851750D01*
X153563717Y-91851753D01*
X153509426Y-91970632D01*
X153509425Y-91970637D01*
X153490826Y-92100000D01*
X138150500Y-92100000D01*
X138150500Y-86782149D01*
X138150500Y-86782147D01*
X138128318Y-86699362D01*
X138128318Y-86699361D01*
X138085465Y-86625138D01*
X137511819Y-86051492D01*
X137478334Y-85990169D01*
X137475500Y-85963811D01*
X137475500Y-84449996D01*
X151740458Y-84449996D01*
X151740458Y-84450003D01*
X151760500Y-84576551D01*
X151760501Y-84576554D01*
X151760502Y-84576555D01*
X151818674Y-84690723D01*
X151818676Y-84690725D01*
X151818678Y-84690728D01*
X151909271Y-84781321D01*
X151909273Y-84781322D01*
X151909277Y-84781326D01*
X152023445Y-84839498D01*
X152023446Y-84839498D01*
X152023448Y-84839499D01*
X152149997Y-84859542D01*
X152150000Y-84859542D01*
X152150003Y-84859542D01*
X152276551Y-84839499D01*
X152276552Y-84839498D01*
X152276555Y-84839498D01*
X152390723Y-84781326D01*
X152481326Y-84690723D01*
X152539498Y-84576555D01*
X152559542Y-84450000D01*
X152559542Y-84449996D01*
X152539499Y-84323448D01*
X152539498Y-84323446D01*
X152539498Y-84323445D01*
X152481326Y-84209277D01*
X152481322Y-84209273D01*
X152481321Y-84209271D01*
X152390728Y-84118678D01*
X152390725Y-84118676D01*
X152390723Y-84118674D01*
X152276555Y-84060502D01*
X152276554Y-84060501D01*
X152276551Y-84060500D01*
X152150003Y-84040458D01*
X152149997Y-84040458D01*
X152023448Y-84060500D01*
X151967493Y-84089011D01*
X151909277Y-84118674D01*
X151909276Y-84118675D01*
X151909271Y-84118678D01*
X151818678Y-84209271D01*
X151818675Y-84209276D01*
X151760500Y-84323448D01*
X151740458Y-84449996D01*
X137475500Y-84449996D01*
X137475500Y-83456967D01*
X137495185Y-83389928D01*
X137547989Y-83344173D01*
X137564555Y-83337993D01*
X137660053Y-83309953D01*
X137781128Y-83232143D01*
X137875377Y-83123373D01*
X137935165Y-82992457D01*
X137955647Y-82850000D01*
X137935165Y-82707543D01*
X137875377Y-82576627D01*
X137781128Y-82467857D01*
X137660053Y-82390047D01*
X137660051Y-82390046D01*
X137660049Y-82390045D01*
X137660050Y-82390045D01*
X137521963Y-82349500D01*
X137521961Y-82349500D01*
X137378039Y-82349500D01*
X137378036Y-82349500D01*
X137239949Y-82390045D01*
X137118873Y-82467856D01*
X137024623Y-82576626D01*
X137024622Y-82576628D01*
X136964834Y-82707543D01*
X136943091Y-82858778D01*
X136940125Y-82858351D01*
X136924668Y-82910995D01*
X136908036Y-82931635D01*
X136889536Y-82950135D01*
X136846681Y-83024361D01*
X136846682Y-83024362D01*
X136824500Y-83107147D01*
X136824500Y-86192852D01*
X136846682Y-86275640D01*
X136868108Y-86312750D01*
X136889535Y-86349862D01*
X136889537Y-86349864D01*
X137463181Y-86923508D01*
X137496666Y-86984831D01*
X137499500Y-87011189D01*
X137499500Y-95682147D01*
X137499500Y-95767853D01*
X137500265Y-95770707D01*
X137521682Y-95850640D01*
X137543108Y-95887750D01*
X137564535Y-95924862D01*
X137564536Y-95924863D01*
X137564537Y-95924864D01*
X141435194Y-99795520D01*
X141435204Y-99795531D01*
X141439534Y-99799861D01*
X141439535Y-99799862D01*
X141500138Y-99860465D01*
X141557182Y-99893399D01*
X141574362Y-99903318D01*
X141657148Y-99925501D01*
X141657150Y-99925501D01*
X141750449Y-99925501D01*
X141750465Y-99925500D01*
X143049534Y-99925500D01*
X143116573Y-99945185D01*
X143162328Y-99997989D01*
X143172272Y-100067147D01*
X143143247Y-100130703D01*
X143137215Y-100137181D01*
X143091619Y-100182776D01*
X143091616Y-100182780D01*
X143019987Y-100289980D01*
X143019986Y-100289982D01*
X142970652Y-100409087D01*
X142970649Y-100409096D01*
X142945500Y-100535532D01*
X142945500Y-100664467D01*
X142970649Y-100790903D01*
X142970652Y-100790912D01*
X143019986Y-100910017D01*
X143019987Y-100910019D01*
X143091616Y-101017219D01*
X143091619Y-101017223D01*
X143182776Y-101108380D01*
X143182780Y-101108383D01*
X143289978Y-101180011D01*
X143289979Y-101180011D01*
X143289980Y-101180012D01*
X143289982Y-101180013D01*
X143369385Y-101212902D01*
X143409089Y-101229348D01*
X143409091Y-101229348D01*
X143409096Y-101229350D01*
X143535532Y-101254499D01*
X143535536Y-101254500D01*
X143535537Y-101254500D01*
X143664464Y-101254500D01*
X143664465Y-101254499D01*
X143706612Y-101246116D01*
X143790903Y-101229350D01*
X143790906Y-101229348D01*
X143790911Y-101229348D01*
X143910022Y-101180011D01*
X144017220Y-101108383D01*
X144108383Y-101017220D01*
X144180011Y-100910022D01*
X144229348Y-100790911D01*
X144254500Y-100664463D01*
X144254500Y-100535537D01*
X144251398Y-100519944D01*
X144229350Y-100409096D01*
X144229347Y-100409087D01*
X144180013Y-100289982D01*
X144180012Y-100289980D01*
X144108383Y-100182780D01*
X144108380Y-100182776D01*
X144062785Y-100137181D01*
X144029300Y-100075858D01*
X144034284Y-100006166D01*
X144076156Y-99950233D01*
X144141620Y-99925816D01*
X144150466Y-99925500D01*
X144705972Y-99925500D01*
X144773011Y-99945185D01*
X144818766Y-99997989D01*
X144828710Y-100067147D01*
X144813359Y-100111500D01*
X144749857Y-100221488D01*
X144749856Y-100221489D01*
X144689738Y-100406516D01*
X144669402Y-100600000D01*
X144689738Y-100793483D01*
X144749856Y-100978510D01*
X144749857Y-100978511D01*
X144824837Y-101108380D01*
X144847130Y-101146992D01*
X144892476Y-101197354D01*
X144977302Y-101291564D01*
X144977305Y-101291566D01*
X144977308Y-101291569D01*
X145018019Y-101321147D01*
X145134702Y-101405923D01*
X145217501Y-101442786D01*
X145261150Y-101462220D01*
X145314387Y-101507470D01*
X145334709Y-101574319D01*
X145315664Y-101641543D01*
X145263299Y-101687799D01*
X145210715Y-101699500D01*
X128424500Y-101699500D01*
X128357461Y-101679815D01*
X128311706Y-101627011D01*
X128300500Y-101575500D01*
X128300500Y-99713399D01*
X136445500Y-99713399D01*
X136445500Y-99926601D01*
X136449243Y-99950233D01*
X136478853Y-100137180D01*
X136478853Y-100137181D01*
X136544734Y-100339944D01*
X136544736Y-100339947D01*
X136641528Y-100529913D01*
X136766846Y-100702397D01*
X136917603Y-100853154D01*
X137090087Y-100978472D01*
X137280053Y-101075264D01*
X137280055Y-101075265D01*
X137381974Y-101108380D01*
X137482821Y-101141147D01*
X137693399Y-101174500D01*
X137693400Y-101174500D01*
X137906600Y-101174500D01*
X137906601Y-101174500D01*
X138117179Y-101141147D01*
X138117182Y-101141146D01*
X138117183Y-101141146D01*
X138319944Y-101075265D01*
X138319944Y-101075264D01*
X138319947Y-101075264D01*
X138509913Y-100978472D01*
X138682397Y-100853154D01*
X138833154Y-100702397D01*
X138958472Y-100529913D01*
X139055264Y-100339947D01*
X139055265Y-100339944D01*
X139121147Y-100137181D01*
X139121146Y-100137180D01*
X139121147Y-100137179D01*
X139154500Y-99926601D01*
X139154500Y-99713399D01*
X139121147Y-99502821D01*
X139121146Y-99502817D01*
X139121146Y-99502816D01*
X139055265Y-99300055D01*
X139055263Y-99300052D01*
X139050186Y-99290086D01*
X138958472Y-99110087D01*
X138833154Y-98937603D01*
X138682397Y-98786846D01*
X138509913Y-98661528D01*
X138319947Y-98564736D01*
X138319944Y-98564734D01*
X138117181Y-98498853D01*
X137976793Y-98476617D01*
X137906601Y-98465500D01*
X137693399Y-98465500D01*
X137623206Y-98476617D01*
X137482819Y-98498853D01*
X137482816Y-98498853D01*
X137280055Y-98564734D01*
X137280052Y-98564736D01*
X137090086Y-98661528D01*
X136917601Y-98786847D01*
X136766847Y-98937601D01*
X136641528Y-99110086D01*
X136544736Y-99300052D01*
X136544734Y-99300055D01*
X136478853Y-99502816D01*
X136478853Y-99502819D01*
X136450343Y-99682821D01*
X136445500Y-99713399D01*
X128300500Y-99713399D01*
X128300500Y-96275000D01*
X136265826Y-96275000D01*
X136284425Y-96404362D01*
X136284426Y-96404367D01*
X136338717Y-96523246D01*
X136338718Y-96523248D01*
X136424305Y-96622021D01*
X136534252Y-96692679D01*
X136534254Y-96692679D01*
X136534255Y-96692680D01*
X136659652Y-96729500D01*
X136659653Y-96729500D01*
X136790347Y-96729500D01*
X136915748Y-96692679D01*
X137025695Y-96622021D01*
X137111282Y-96523248D01*
X137165574Y-96404364D01*
X137184174Y-96275000D01*
X137165574Y-96145636D01*
X137165573Y-96145635D01*
X137165573Y-96145632D01*
X137111282Y-96026753D01*
X137111282Y-96026752D01*
X137025695Y-95927979D01*
X136915748Y-95857321D01*
X136915746Y-95857320D01*
X136915744Y-95857319D01*
X136790348Y-95820500D01*
X136790347Y-95820500D01*
X136659653Y-95820500D01*
X136659652Y-95820500D01*
X136534255Y-95857319D01*
X136424306Y-95927978D01*
X136338719Y-96026750D01*
X136338717Y-96026753D01*
X136284426Y-96145632D01*
X136284425Y-96145637D01*
X136265826Y-96275000D01*
X128300500Y-96275000D01*
X128300500Y-93900000D01*
X134640826Y-93900000D01*
X134659425Y-94029362D01*
X134659426Y-94029367D01*
X134713717Y-94148246D01*
X134713718Y-94148248D01*
X134799305Y-94247021D01*
X134909252Y-94317679D01*
X134909254Y-94317679D01*
X134909255Y-94317680D01*
X135034652Y-94354500D01*
X135034653Y-94354500D01*
X135165347Y-94354500D01*
X135290748Y-94317679D01*
X135400695Y-94247021D01*
X135486282Y-94148248D01*
X135540574Y-94029364D01*
X135559174Y-93900000D01*
X135540574Y-93770636D01*
X135540573Y-93770635D01*
X135540573Y-93770632D01*
X135486282Y-93651753D01*
X135486282Y-93651752D01*
X135400695Y-93552979D01*
X135290748Y-93482321D01*
X135290746Y-93482320D01*
X135290744Y-93482319D01*
X135165348Y-93445500D01*
X135165347Y-93445500D01*
X135034653Y-93445500D01*
X135034652Y-93445500D01*
X134909255Y-93482319D01*
X134799306Y-93552978D01*
X134713719Y-93651750D01*
X134713717Y-93651753D01*
X134659426Y-93770632D01*
X134659425Y-93770637D01*
X134640826Y-93900000D01*
X128300500Y-93900000D01*
X128300500Y-92600000D01*
X131415826Y-92600000D01*
X131434425Y-92729362D01*
X131434426Y-92729367D01*
X131480093Y-92829362D01*
X131488718Y-92848248D01*
X131574305Y-92947021D01*
X131684252Y-93017679D01*
X131684254Y-93017679D01*
X131684255Y-93017680D01*
X131809652Y-93054500D01*
X131809653Y-93054500D01*
X131940347Y-93054500D01*
X132065748Y-93017679D01*
X132175695Y-92947021D01*
X132261282Y-92848248D01*
X132315574Y-92729364D01*
X132319796Y-92700000D01*
X132815826Y-92700000D01*
X132834425Y-92829362D01*
X132834426Y-92829367D01*
X132888158Y-92947021D01*
X132888718Y-92948248D01*
X132974305Y-93047021D01*
X133084252Y-93117679D01*
X133084254Y-93117679D01*
X133084255Y-93117680D01*
X133209652Y-93154500D01*
X133209653Y-93154500D01*
X133340347Y-93154500D01*
X133465748Y-93117679D01*
X133575695Y-93047021D01*
X133661282Y-92948248D01*
X133715574Y-92829364D01*
X133734174Y-92700000D01*
X133715574Y-92570636D01*
X133715573Y-92570635D01*
X133715573Y-92570632D01*
X133661282Y-92451753D01*
X133661282Y-92451752D01*
X133575695Y-92352979D01*
X133465748Y-92282321D01*
X133465746Y-92282320D01*
X133465744Y-92282319D01*
X133340348Y-92245500D01*
X133340347Y-92245500D01*
X133209653Y-92245500D01*
X133209652Y-92245500D01*
X133084255Y-92282319D01*
X132974306Y-92352978D01*
X132888719Y-92451750D01*
X132888717Y-92451753D01*
X132834426Y-92570632D01*
X132834425Y-92570637D01*
X132815826Y-92700000D01*
X132319796Y-92700000D01*
X132334174Y-92600000D01*
X132315574Y-92470636D01*
X132315573Y-92470635D01*
X132315573Y-92470632D01*
X132261842Y-92352979D01*
X132261282Y-92351752D01*
X132175695Y-92252979D01*
X132065748Y-92182321D01*
X132065746Y-92182320D01*
X132065744Y-92182319D01*
X131940348Y-92145500D01*
X131940347Y-92145500D01*
X131809653Y-92145500D01*
X131809652Y-92145500D01*
X131684255Y-92182319D01*
X131574306Y-92252978D01*
X131488719Y-92351750D01*
X131488717Y-92351753D01*
X131434426Y-92470632D01*
X131434425Y-92470637D01*
X131415826Y-92600000D01*
X128300500Y-92600000D01*
X128300500Y-86130000D01*
X131785826Y-86130000D01*
X131804425Y-86259362D01*
X131804426Y-86259367D01*
X131858717Y-86378246D01*
X131858718Y-86378248D01*
X131944305Y-86477021D01*
X132054252Y-86547679D01*
X132054254Y-86547679D01*
X132054255Y-86547680D01*
X132179652Y-86584500D01*
X132179653Y-86584500D01*
X132310347Y-86584500D01*
X132435748Y-86547679D01*
X132545695Y-86477021D01*
X132631282Y-86378248D01*
X132685574Y-86259364D01*
X132704174Y-86130000D01*
X132685574Y-86000636D01*
X132685573Y-86000635D01*
X132685573Y-86000632D01*
X132631282Y-85881753D01*
X132631282Y-85881752D01*
X132545695Y-85782979D01*
X132435748Y-85712321D01*
X132435746Y-85712320D01*
X132435744Y-85712319D01*
X132310348Y-85675500D01*
X132310347Y-85675500D01*
X132179653Y-85675500D01*
X132179652Y-85675500D01*
X132054255Y-85712319D01*
X131944306Y-85782978D01*
X131858719Y-85881750D01*
X131858717Y-85881753D01*
X131804426Y-86000632D01*
X131804425Y-86000637D01*
X131785826Y-86130000D01*
X128300500Y-86130000D01*
X128300500Y-83466146D01*
X129234200Y-83466146D01*
X129234200Y-83613853D01*
X129263012Y-83758701D01*
X129263014Y-83758709D01*
X129319534Y-83895160D01*
X129319539Y-83895170D01*
X129401591Y-84017969D01*
X129401594Y-84017973D01*
X129506026Y-84122405D01*
X129506030Y-84122408D01*
X129628829Y-84204460D01*
X129628833Y-84204462D01*
X129628836Y-84204464D01*
X129765291Y-84260986D01*
X129910146Y-84289799D01*
X129910150Y-84289800D01*
X129910151Y-84289800D01*
X130057850Y-84289800D01*
X130057851Y-84289799D01*
X130202709Y-84260986D01*
X130339164Y-84204464D01*
X130461970Y-84122408D01*
X130566408Y-84017970D01*
X130648464Y-83895164D01*
X130704986Y-83758709D01*
X130733800Y-83613849D01*
X130733800Y-83466151D01*
X130733799Y-83466146D01*
X131266200Y-83466146D01*
X131266200Y-83613853D01*
X131295012Y-83758701D01*
X131295014Y-83758709D01*
X131351534Y-83895160D01*
X131351539Y-83895170D01*
X131433591Y-84017969D01*
X131433594Y-84017973D01*
X131538026Y-84122405D01*
X131538030Y-84122408D01*
X131660829Y-84204460D01*
X131660833Y-84204462D01*
X131660836Y-84204464D01*
X131797291Y-84260986D01*
X131942146Y-84289799D01*
X131942150Y-84289800D01*
X131942151Y-84289800D01*
X132089850Y-84289800D01*
X132089851Y-84289799D01*
X132234709Y-84260986D01*
X132371164Y-84204464D01*
X132493970Y-84122408D01*
X132598408Y-84017970D01*
X132680464Y-83895164D01*
X132736986Y-83758709D01*
X132765800Y-83613849D01*
X132765800Y-83466151D01*
X132752642Y-83400000D01*
X135540826Y-83400000D01*
X135559425Y-83529362D01*
X135559426Y-83529367D01*
X135598009Y-83613850D01*
X135613718Y-83648248D01*
X135699305Y-83747021D01*
X135809252Y-83817679D01*
X135809254Y-83817679D01*
X135809255Y-83817680D01*
X135934652Y-83854500D01*
X135934653Y-83854500D01*
X136065347Y-83854500D01*
X136190748Y-83817679D01*
X136300695Y-83747021D01*
X136386282Y-83648248D01*
X136440574Y-83529364D01*
X136459174Y-83400000D01*
X136440574Y-83270636D01*
X136440573Y-83270635D01*
X136440573Y-83270632D01*
X136386282Y-83151753D01*
X136386282Y-83151752D01*
X136300695Y-83052979D01*
X136190748Y-82982321D01*
X136190746Y-82982320D01*
X136190744Y-82982319D01*
X136065348Y-82945500D01*
X136065347Y-82945500D01*
X135934653Y-82945500D01*
X135934652Y-82945500D01*
X135809255Y-82982319D01*
X135699306Y-83052978D01*
X135613719Y-83151750D01*
X135613717Y-83151753D01*
X135559426Y-83270632D01*
X135559425Y-83270637D01*
X135540826Y-83400000D01*
X132752642Y-83400000D01*
X132736986Y-83321291D01*
X132680464Y-83184836D01*
X132680462Y-83184833D01*
X132680460Y-83184829D01*
X132598408Y-83062030D01*
X132598405Y-83062026D01*
X132493973Y-82957594D01*
X132493969Y-82957591D01*
X132371170Y-82875539D01*
X132371160Y-82875534D01*
X132234709Y-82819014D01*
X132234701Y-82819012D01*
X132089853Y-82790200D01*
X132089849Y-82790200D01*
X131942151Y-82790200D01*
X131942146Y-82790200D01*
X131797298Y-82819012D01*
X131797290Y-82819014D01*
X131660839Y-82875534D01*
X131660829Y-82875539D01*
X131538030Y-82957591D01*
X131538026Y-82957594D01*
X131433594Y-83062026D01*
X131433591Y-83062030D01*
X131351539Y-83184829D01*
X131351534Y-83184839D01*
X131295014Y-83321290D01*
X131295012Y-83321298D01*
X131266200Y-83466146D01*
X130733799Y-83466146D01*
X130704986Y-83321291D01*
X130648464Y-83184836D01*
X130648462Y-83184833D01*
X130648460Y-83184829D01*
X130566408Y-83062030D01*
X130566405Y-83062026D01*
X130461973Y-82957594D01*
X130461969Y-82957591D01*
X130339170Y-82875539D01*
X130339160Y-82875534D01*
X130202709Y-82819014D01*
X130202701Y-82819012D01*
X130057853Y-82790200D01*
X130057849Y-82790200D01*
X129910151Y-82790200D01*
X129910146Y-82790200D01*
X129765298Y-82819012D01*
X129765290Y-82819014D01*
X129628839Y-82875534D01*
X129628829Y-82875539D01*
X129506030Y-82957591D01*
X129506026Y-82957594D01*
X129401594Y-83062026D01*
X129401591Y-83062030D01*
X129319539Y-83184829D01*
X129319534Y-83184839D01*
X129263014Y-83321290D01*
X129263012Y-83321298D01*
X129234200Y-83466146D01*
X128300500Y-83466146D01*
X128300500Y-80400000D01*
X137890826Y-80400000D01*
X137909425Y-80529362D01*
X137909426Y-80529367D01*
X137949758Y-80617680D01*
X137963718Y-80648248D01*
X138049305Y-80747021D01*
X138159252Y-80817679D01*
X138159254Y-80817679D01*
X138159255Y-80817680D01*
X138284652Y-80854500D01*
X138284653Y-80854500D01*
X138415347Y-80854500D01*
X138540748Y-80817679D01*
X138650695Y-80747021D01*
X138736282Y-80648248D01*
X138774919Y-80563643D01*
X138790573Y-80529367D01*
X138790574Y-80529362D01*
X138809174Y-80400000D01*
X138790574Y-80270636D01*
X138790573Y-80270635D01*
X138790573Y-80270632D01*
X138758316Y-80200000D01*
X140540826Y-80200000D01*
X140559425Y-80329362D01*
X140559426Y-80329367D01*
X140602493Y-80423669D01*
X140613718Y-80448248D01*
X140699305Y-80547021D01*
X140809252Y-80617679D01*
X140809254Y-80617679D01*
X140809255Y-80617680D01*
X140934652Y-80654500D01*
X140934653Y-80654500D01*
X141065347Y-80654500D01*
X141190748Y-80617679D01*
X141300695Y-80547021D01*
X141386282Y-80448248D01*
X141440574Y-80329364D01*
X141459174Y-80200000D01*
X141440574Y-80070636D01*
X141440573Y-80070635D01*
X141440573Y-80070632D01*
X141400241Y-79982319D01*
X141386282Y-79951752D01*
X141300695Y-79852979D01*
X141190748Y-79782321D01*
X141190746Y-79782320D01*
X141190744Y-79782319D01*
X141065348Y-79745500D01*
X141065347Y-79745500D01*
X140934653Y-79745500D01*
X140934652Y-79745500D01*
X140809255Y-79782319D01*
X140699306Y-79852978D01*
X140613719Y-79951750D01*
X140613717Y-79951753D01*
X140559426Y-80070632D01*
X140559425Y-80070637D01*
X140540826Y-80200000D01*
X138758316Y-80200000D01*
X138736282Y-80151753D01*
X138736282Y-80151752D01*
X138650695Y-80052979D01*
X138540748Y-79982321D01*
X138540746Y-79982320D01*
X138540744Y-79982319D01*
X138415348Y-79945500D01*
X138415347Y-79945500D01*
X138284653Y-79945500D01*
X138284652Y-79945500D01*
X138159255Y-79982319D01*
X138049306Y-80052978D01*
X137963719Y-80151750D01*
X137963717Y-80151753D01*
X137909426Y-80270632D01*
X137909425Y-80270637D01*
X137890826Y-80400000D01*
X128300500Y-80400000D01*
X128300500Y-79730000D01*
X128940826Y-79730000D01*
X128959425Y-79859362D01*
X128959426Y-79859367D01*
X129001618Y-79951753D01*
X129013718Y-79978248D01*
X129099305Y-80077021D01*
X129209252Y-80147679D01*
X129209254Y-80147679D01*
X129209255Y-80147680D01*
X129334652Y-80184500D01*
X129334653Y-80184500D01*
X129465347Y-80184500D01*
X129590748Y-80147679D01*
X129700695Y-80077021D01*
X129786282Y-79978248D01*
X129840574Y-79859364D01*
X129859174Y-79730000D01*
X129840574Y-79600636D01*
X129840573Y-79600635D01*
X129840573Y-79600632D01*
X129803725Y-79519947D01*
X129786282Y-79481752D01*
X129700695Y-79382979D01*
X129590748Y-79312321D01*
X129590746Y-79312320D01*
X129590744Y-79312319D01*
X129465348Y-79275500D01*
X129465347Y-79275500D01*
X129334653Y-79275500D01*
X129334652Y-79275500D01*
X129209255Y-79312319D01*
X129099306Y-79382978D01*
X129013719Y-79481750D01*
X129013717Y-79481753D01*
X128959426Y-79600632D01*
X128959425Y-79600637D01*
X128940826Y-79730000D01*
X128300500Y-79730000D01*
X128300500Y-78386146D01*
X130250200Y-78386146D01*
X130250200Y-78533853D01*
X130279012Y-78678701D01*
X130279014Y-78678709D01*
X130335534Y-78815160D01*
X130335539Y-78815170D01*
X130417591Y-78937969D01*
X130417594Y-78937973D01*
X130522026Y-79042405D01*
X130522030Y-79042408D01*
X130644829Y-79124460D01*
X130644833Y-79124462D01*
X130644836Y-79124464D01*
X130781291Y-79180986D01*
X130926146Y-79209799D01*
X130926150Y-79209800D01*
X130926151Y-79209800D01*
X131073850Y-79209800D01*
X131073851Y-79209799D01*
X131218709Y-79180986D01*
X131355164Y-79124464D01*
X131477970Y-79042408D01*
X131582408Y-78937970D01*
X131612189Y-78893399D01*
X153645500Y-78893399D01*
X153645500Y-79106601D01*
X153657282Y-79180985D01*
X153678853Y-79317180D01*
X153678853Y-79317183D01*
X153744734Y-79519944D01*
X153744736Y-79519947D01*
X153841528Y-79709913D01*
X153966846Y-79882397D01*
X154117603Y-80033154D01*
X154290087Y-80158472D01*
X154480053Y-80255264D01*
X154480055Y-80255265D01*
X154669182Y-80316715D01*
X154682821Y-80321147D01*
X154893399Y-80354500D01*
X154893400Y-80354500D01*
X155106600Y-80354500D01*
X155106601Y-80354500D01*
X155317179Y-80321147D01*
X155317182Y-80321146D01*
X155317183Y-80321146D01*
X155519944Y-80255265D01*
X155519944Y-80255264D01*
X155519947Y-80255264D01*
X155709913Y-80158472D01*
X155882397Y-80033154D01*
X156033154Y-79882397D01*
X156158472Y-79709913D01*
X156255264Y-79519947D01*
X156267675Y-79481750D01*
X156321146Y-79317183D01*
X156321146Y-79317182D01*
X156321147Y-79317179D01*
X156354500Y-79106601D01*
X156354500Y-78893399D01*
X156321147Y-78682821D01*
X156321146Y-78682817D01*
X156321146Y-78682816D01*
X156255265Y-78480055D01*
X156255263Y-78480052D01*
X156207419Y-78386151D01*
X156158472Y-78290087D01*
X156033154Y-78117603D01*
X155882397Y-77966846D01*
X155709913Y-77841528D01*
X155519947Y-77744736D01*
X155519944Y-77744734D01*
X155317181Y-77678853D01*
X155176793Y-77656617D01*
X155106601Y-77645500D01*
X154893399Y-77645500D01*
X154823206Y-77656617D01*
X154682819Y-77678853D01*
X154682816Y-77678853D01*
X154480055Y-77744734D01*
X154480052Y-77744736D01*
X154290086Y-77841528D01*
X154117601Y-77966847D01*
X153966847Y-78117601D01*
X153841528Y-78290086D01*
X153744736Y-78480052D01*
X153744734Y-78480055D01*
X153678853Y-78682816D01*
X153678853Y-78682819D01*
X153645500Y-78893399D01*
X131612189Y-78893399D01*
X131664464Y-78815164D01*
X131720986Y-78678709D01*
X131749800Y-78533849D01*
X131749800Y-78386151D01*
X131720986Y-78241291D01*
X131664464Y-78104836D01*
X131664462Y-78104833D01*
X131664460Y-78104829D01*
X131582408Y-77982030D01*
X131582405Y-77982026D01*
X131477973Y-77877594D01*
X131477969Y-77877591D01*
X131355170Y-77795539D01*
X131355160Y-77795534D01*
X131218709Y-77739014D01*
X131218701Y-77739012D01*
X131073853Y-77710200D01*
X131073849Y-77710200D01*
X130926151Y-77710200D01*
X130926146Y-77710200D01*
X130781298Y-77739012D01*
X130781290Y-77739014D01*
X130644839Y-77795534D01*
X130644829Y-77795539D01*
X130522030Y-77877591D01*
X130522026Y-77877594D01*
X130417594Y-77982026D01*
X130417591Y-77982030D01*
X130335539Y-78104829D01*
X130335534Y-78104839D01*
X130279014Y-78241290D01*
X130279012Y-78241298D01*
X130250200Y-78386146D01*
X128300500Y-78386146D01*
X128300500Y-77424500D01*
X128320185Y-77357461D01*
X128372989Y-77311706D01*
X128424500Y-77300500D01*
X158575500Y-77300500D01*
X158642539Y-77320185D01*
G37*
%TD.AperFunction*%
%TD*%
M02*
