%TF.GenerationSoftware,KiCad,Pcbnew,8.0.3*%
%TF.CreationDate,2024-07-28T18:35:34+02:00*%
%TF.ProjectId,BLESEN,424c4553-454e-42e6-9b69-6361645f7063,rev?*%
%TF.SameCoordinates,Original*%
%TF.FileFunction,Paste,Top*%
%TF.FilePolarity,Positive*%
%FSLAX46Y46*%
G04 Gerber Fmt 4.6, Leading zero omitted, Abs format (unit mm)*
G04 Created by KiCad (PCBNEW 8.0.3) date 2024-07-28 18:35:34*
%MOMM*%
%LPD*%
G01*
G04 APERTURE LIST*
G04 Aperture macros list*
%AMRoundRect*
0 Rectangle with rounded corners*
0 $1 Rounding radius*
0 $2 $3 $4 $5 $6 $7 $8 $9 X,Y pos of 4 corners*
0 Add a 4 corners polygon primitive as box body*
4,1,4,$2,$3,$4,$5,$6,$7,$8,$9,$2,$3,0*
0 Add four circle primitives for the rounded corners*
1,1,$1+$1,$2,$3*
1,1,$1+$1,$4,$5*
1,1,$1+$1,$6,$7*
1,1,$1+$1,$8,$9*
0 Add four rect primitives between the rounded corners*
20,1,$1+$1,$2,$3,$4,$5,0*
20,1,$1+$1,$4,$5,$6,$7,0*
20,1,$1+$1,$6,$7,$8,$9,0*
20,1,$1+$1,$8,$9,$2,$3,0*%
G04 Aperture macros list end*
%ADD10RoundRect,0.147500X0.172500X-0.147500X0.172500X0.147500X-0.172500X0.147500X-0.172500X-0.147500X0*%
%ADD11R,0.900000X1.700000*%
%ADD12RoundRect,0.140000X-0.140000X-0.170000X0.140000X-0.170000X0.140000X0.170000X-0.140000X0.170000X0*%
%ADD13RoundRect,0.068750X0.068750X-0.281250X0.068750X0.281250X-0.068750X0.281250X-0.068750X-0.281250X0*%
%ADD14RoundRect,0.061250X-0.163750X-0.061250X0.163750X-0.061250X0.163750X0.061250X-0.163750X0.061250X0*%
%ADD15RoundRect,0.140000X-0.170000X0.140000X-0.170000X-0.140000X0.170000X-0.140000X0.170000X0.140000X0*%
%ADD16RoundRect,0.135000X0.185000X-0.135000X0.185000X0.135000X-0.185000X0.135000X-0.185000X-0.135000X0*%
%ADD17RoundRect,0.218750X0.256250X-0.218750X0.256250X0.218750X-0.256250X0.218750X-0.256250X-0.218750X0*%
%ADD18RoundRect,0.225000X-0.225000X-0.250000X0.225000X-0.250000X0.225000X0.250000X-0.225000X0.250000X0*%
%ADD19R,0.600000X1.100000*%
%ADD20RoundRect,0.135000X-0.185000X0.135000X-0.185000X-0.135000X0.185000X-0.135000X0.185000X0.135000X0*%
%ADD21RoundRect,0.225000X0.225000X0.250000X-0.225000X0.250000X-0.225000X-0.250000X0.225000X-0.250000X0*%
%ADD22RoundRect,0.140000X0.170000X-0.140000X0.170000X0.140000X-0.170000X0.140000X-0.170000X-0.140000X0*%
%ADD23R,0.500000X0.300000*%
%ADD24RoundRect,0.135000X-0.135000X-0.185000X0.135000X-0.185000X0.135000X0.185000X-0.135000X0.185000X0*%
%ADD25RoundRect,0.140000X0.140000X0.170000X-0.140000X0.170000X-0.140000X-0.170000X0.140000X-0.170000X0*%
%ADD26RoundRect,0.218750X-0.218750X-0.381250X0.218750X-0.381250X0.218750X0.381250X-0.218750X0.381250X0*%
%ADD27RoundRect,0.147500X-0.147500X-0.172500X0.147500X-0.172500X0.147500X0.172500X-0.147500X0.172500X0*%
%ADD28RoundRect,0.218750X-0.218750X-0.256250X0.218750X-0.256250X0.218750X0.256250X-0.218750X0.256250X0*%
%ADD29R,0.800000X0.900000*%
%ADD30RoundRect,0.250000X0.315000X-0.315000X0.315000X0.315000X-0.315000X0.315000X-0.315000X-0.315000X0*%
%ADD31RoundRect,0.062500X0.062500X-0.375000X0.062500X0.375000X-0.062500X0.375000X-0.062500X-0.375000X0*%
%ADD32RoundRect,0.062500X0.375000X-0.062500X0.375000X0.062500X-0.375000X0.062500X-0.375000X-0.062500X0*%
G04 APERTURE END LIST*
D10*
%TO.C,L2*%
X142890000Y-83615000D03*
X142890000Y-82645000D03*
%TD*%
D11*
%TO.C,RST1*%
X134800000Y-97800000D03*
X131400000Y-97800000D03*
%TD*%
D12*
%TO.C,C3*%
X145710000Y-93610000D03*
X146670000Y-93610000D03*
%TD*%
D13*
%TO.C,FLT1*%
X154537500Y-87700000D03*
D14*
X155150000Y-87472500D03*
D13*
X155762500Y-87700000D03*
D14*
X155150000Y-87927500D03*
%TD*%
D15*
%TO.C,C4*%
X148863000Y-88614400D03*
X148863000Y-89574400D03*
%TD*%
D16*
%TO.C,R1*%
X135400000Y-90210000D03*
X135400000Y-89190000D03*
%TD*%
D17*
%TO.C,Q1*%
X155150000Y-96537500D03*
X155150000Y-94962500D03*
%TD*%
D15*
%TO.C,C2*%
X139350000Y-87670000D03*
X139350000Y-88630000D03*
%TD*%
D18*
%TO.C,C16*%
X144200000Y-83725000D03*
X145750000Y-83725000D03*
%TD*%
D19*
%TO.C,Y2*%
X142560000Y-94340000D03*
X143960000Y-94340000D03*
%TD*%
D20*
%TO.C,R2*%
X135400000Y-86990000D03*
X135400000Y-88010000D03*
%TD*%
D12*
%TO.C,C13*%
X145710000Y-94660000D03*
X146670000Y-94660000D03*
%TD*%
D21*
%TO.C,C18*%
X141025000Y-81790000D03*
X139475000Y-81790000D03*
%TD*%
D12*
%TO.C,C15*%
X143960000Y-95830000D03*
X144920000Y-95830000D03*
%TD*%
D15*
%TO.C,C8*%
X150263000Y-87689400D03*
X150263000Y-88649400D03*
%TD*%
%TO.C,C12*%
X130800000Y-88120000D03*
X130800000Y-89080000D03*
%TD*%
D22*
%TO.C,C10*%
X148858018Y-86024400D03*
X148858018Y-85064400D03*
%TD*%
%TO.C,C11*%
X149869678Y-86024400D03*
X149869678Y-85064400D03*
%TD*%
D23*
%TO.C,U2*%
X133500000Y-89000000D03*
X133500000Y-88200000D03*
X132100000Y-88200000D03*
X132100000Y-89000000D03*
%TD*%
D15*
%TO.C,C1*%
X139150000Y-91670000D03*
X139150000Y-92630000D03*
%TD*%
D24*
%TO.C,R3*%
X151090000Y-99000000D03*
X152110000Y-99000000D03*
%TD*%
D25*
%TO.C,C7*%
X141080000Y-84190000D03*
X140120000Y-84190000D03*
%TD*%
D26*
%TO.C,L3*%
X142887500Y-81200000D03*
X145012500Y-81200000D03*
%TD*%
D27*
%TO.C,L1*%
X151278000Y-87669400D03*
X152248000Y-87669400D03*
%TD*%
D24*
%TO.C,R4*%
X153240000Y-93600000D03*
X154260000Y-93600000D03*
%TD*%
D28*
%TO.C,D1*%
X147012500Y-98000000D03*
X148587500Y-98000000D03*
%TD*%
D18*
%TO.C,C6*%
X137663000Y-93869400D03*
X139213000Y-93869400D03*
%TD*%
D25*
%TO.C,C14*%
X142560000Y-95830000D03*
X141600000Y-95830000D03*
%TD*%
D15*
%TO.C,C9*%
X153263000Y-87689400D03*
X153263000Y-88649400D03*
%TD*%
D25*
%TO.C,C17*%
X141010000Y-83090000D03*
X140050000Y-83090000D03*
%TD*%
%TO.C,C5*%
X141405000Y-93602400D03*
X140445000Y-93602400D03*
%TD*%
D29*
%TO.C,Y1*%
X149050000Y-81600000D03*
X149050000Y-83000000D03*
X150150000Y-83000000D03*
X150150000Y-81600000D03*
%TD*%
D30*
%TO.C,U1*%
X142050000Y-91025000D03*
X143450000Y-91025000D03*
X144850000Y-91025000D03*
X146250000Y-91025000D03*
X142050000Y-89625000D03*
X143450000Y-89625000D03*
X144850000Y-89625000D03*
X146250000Y-89625000D03*
X142050000Y-88225000D03*
X143450000Y-88225000D03*
X144850000Y-88225000D03*
X146250000Y-88225000D03*
X142050000Y-86825000D03*
X143450000Y-86825000D03*
X144850000Y-86825000D03*
X146250000Y-86825000D03*
D31*
X141400000Y-92362500D03*
X141900000Y-92362500D03*
X142400000Y-92362500D03*
X142900000Y-92362500D03*
X143400000Y-92362500D03*
X143900000Y-92362500D03*
X144400000Y-92362500D03*
X144900000Y-92362500D03*
X145400000Y-92362500D03*
X145900000Y-92362500D03*
X146400000Y-92362500D03*
X146900000Y-92362500D03*
D32*
X147587500Y-91675000D03*
X147587500Y-91175000D03*
X147587500Y-90675000D03*
X147587500Y-90175000D03*
X147587500Y-89675000D03*
X147587500Y-89175000D03*
X147587500Y-88675000D03*
X147587500Y-88175000D03*
X147587500Y-87675000D03*
X147587500Y-87175000D03*
X147587500Y-86675000D03*
X147587500Y-86175000D03*
D31*
X146900000Y-85487500D03*
X146400000Y-85487500D03*
X145900000Y-85487500D03*
X145400000Y-85487500D03*
X144900000Y-85487500D03*
X144400000Y-85487500D03*
X143900000Y-85487500D03*
X143400000Y-85487500D03*
X142900000Y-85487500D03*
X142400000Y-85487500D03*
X141900000Y-85487500D03*
X141400000Y-85487500D03*
D32*
X140712500Y-86175000D03*
X140712500Y-86675000D03*
X140712500Y-87175000D03*
X140712500Y-87675000D03*
X140712500Y-88175000D03*
X140712500Y-88675000D03*
X140712500Y-89175000D03*
X140712500Y-89675000D03*
X140712500Y-90175000D03*
X140712500Y-90675000D03*
X140712500Y-91175000D03*
X140712500Y-91675000D03*
%TD*%
M02*
