%TF.GenerationSoftware,KiCad,Pcbnew,8.0.2*%
%TF.CreationDate,2024-05-24T20:03:17+02:00*%
%TF.ProjectId,STM32-Breakout,53544d33-322d-4427-9265-616b6f75742e,rev?*%
%TF.SameCoordinates,Original*%
%TF.FileFunction,Copper,L1,Top*%
%TF.FilePolarity,Positive*%
%FSLAX46Y46*%
G04 Gerber Fmt 4.6, Leading zero omitted, Abs format (unit mm)*
G04 Created by KiCad (PCBNEW 8.0.2) date 2024-05-24 20:03:17*
%MOMM*%
%LPD*%
G01*
G04 APERTURE LIST*
G04 Aperture macros list*
%AMRoundRect*
0 Rectangle with rounded corners*
0 $1 Rounding radius*
0 $2 $3 $4 $5 $6 $7 $8 $9 X,Y pos of 4 corners*
0 Add a 4 corners polygon primitive as box body*
4,1,4,$2,$3,$4,$5,$6,$7,$8,$9,$2,$3,0*
0 Add four circle primitives for the rounded corners*
1,1,$1+$1,$2,$3*
1,1,$1+$1,$4,$5*
1,1,$1+$1,$6,$7*
1,1,$1+$1,$8,$9*
0 Add four rect primitives between the rounded corners*
20,1,$1+$1,$2,$3,$4,$5,0*
20,1,$1+$1,$4,$5,$6,$7,0*
20,1,$1+$1,$6,$7,$8,$9,0*
20,1,$1+$1,$8,$9,$2,$3,0*%
G04 Aperture macros list end*
%TA.AperFunction,EtchedComponent*%
%ADD10C,0.000000*%
%TD*%
%TA.AperFunction,SMDPad,CuDef*%
%ADD11RoundRect,0.147500X0.172500X-0.147500X0.172500X0.147500X-0.172500X0.147500X-0.172500X-0.147500X0*%
%TD*%
%TA.AperFunction,SMDPad,CuDef*%
%ADD12R,0.900000X1.700000*%
%TD*%
%TA.AperFunction,SMDPad,CuDef*%
%ADD13RoundRect,0.140000X-0.140000X-0.170000X0.140000X-0.170000X0.140000X0.170000X-0.140000X0.170000X0*%
%TD*%
%TA.AperFunction,SMDPad,CuDef*%
%ADD14RoundRect,0.068750X0.068750X-0.281250X0.068750X0.281250X-0.068750X0.281250X-0.068750X-0.281250X0*%
%TD*%
%TA.AperFunction,SMDPad,CuDef*%
%ADD15RoundRect,0.061250X-0.163750X-0.061250X0.163750X-0.061250X0.163750X0.061250X-0.163750X0.061250X0*%
%TD*%
%TA.AperFunction,CastellatedPad*%
%ADD16R,1.700000X1.950000*%
%TD*%
%TA.AperFunction,SMDPad,CuDef*%
%ADD17RoundRect,0.140000X-0.170000X0.140000X-0.170000X-0.140000X0.170000X-0.140000X0.170000X0.140000X0*%
%TD*%
%TA.AperFunction,SMDPad,CuDef*%
%ADD18RoundRect,0.135000X0.185000X-0.135000X0.185000X0.135000X-0.185000X0.135000X-0.185000X-0.135000X0*%
%TD*%
%TA.AperFunction,SMDPad,CuDef*%
%ADD19RoundRect,0.218750X0.256250X-0.218750X0.256250X0.218750X-0.256250X0.218750X-0.256250X-0.218750X0*%
%TD*%
%TA.AperFunction,SMDPad,CuDef*%
%ADD20RoundRect,0.225000X-0.225000X-0.250000X0.225000X-0.250000X0.225000X0.250000X-0.225000X0.250000X0*%
%TD*%
%TA.AperFunction,SMDPad,CuDef*%
%ADD21R,0.600000X1.100000*%
%TD*%
%TA.AperFunction,SMDPad,CuDef*%
%ADD22RoundRect,0.225000X0.225000X0.250000X-0.225000X0.250000X-0.225000X-0.250000X0.225000X-0.250000X0*%
%TD*%
%TA.AperFunction,SMDPad,CuDef*%
%ADD23RoundRect,0.140000X0.140000X0.170000X-0.140000X0.170000X-0.140000X-0.170000X0.140000X-0.170000X0*%
%TD*%
%TA.AperFunction,SMDPad,CuDef*%
%ADD24RoundRect,0.140000X0.170000X-0.140000X0.170000X0.140000X-0.170000X0.140000X-0.170000X-0.140000X0*%
%TD*%
%TA.AperFunction,SMDPad,CuDef*%
%ADD25RoundRect,0.087500X-0.187500X-0.087500X0.187500X-0.087500X0.187500X0.087500X-0.187500X0.087500X0*%
%TD*%
%TA.AperFunction,SMDPad,CuDef*%
%ADD26RoundRect,0.175000X-0.175000X-0.625000X0.175000X-0.625000X0.175000X0.625000X-0.175000X0.625000X0*%
%TD*%
%TA.AperFunction,SMDPad,CuDef*%
%ADD27RoundRect,0.218750X-0.218750X-0.381250X0.218750X-0.381250X0.218750X0.381250X-0.218750X0.381250X0*%
%TD*%
%TA.AperFunction,SMDPad,CuDef*%
%ADD28RoundRect,0.147500X-0.147500X-0.172500X0.147500X-0.172500X0.147500X0.172500X-0.147500X0.172500X0*%
%TD*%
%TA.AperFunction,SMDPad,CuDef*%
%ADD29RoundRect,0.135000X-0.135000X-0.185000X0.135000X-0.185000X0.135000X0.185000X-0.135000X0.185000X0*%
%TD*%
%TA.AperFunction,SMDPad,CuDef*%
%ADD30RoundRect,0.218750X-0.218750X-0.256250X0.218750X-0.256250X0.218750X0.256250X-0.218750X0.256250X0*%
%TD*%
%TA.AperFunction,ConnectorPad*%
%ADD31R,0.500000X0.500000*%
%TD*%
%TA.AperFunction,ComponentPad*%
%ADD32R,0.500000X0.900000*%
%TD*%
%TA.AperFunction,SMDPad,CuDef*%
%ADD33R,0.800000X0.900000*%
%TD*%
%TA.AperFunction,ConnectorPad*%
%ADD34C,0.787400*%
%TD*%
%TA.AperFunction,SMDPad,CuDef*%
%ADD35RoundRect,0.062500X0.062500X-0.375000X0.062500X0.375000X-0.062500X0.375000X-0.062500X-0.375000X0*%
%TD*%
%TA.AperFunction,SMDPad,CuDef*%
%ADD36RoundRect,0.062500X0.375000X-0.062500X0.375000X0.062500X-0.375000X0.062500X-0.375000X-0.062500X0*%
%TD*%
%TA.AperFunction,HeatsinkPad*%
%ADD37R,5.600000X5.600000*%
%TD*%
%TA.AperFunction,ViaPad*%
%ADD38C,0.700000*%
%TD*%
%TA.AperFunction,ViaPad*%
%ADD39C,0.800000*%
%TD*%
%TA.AperFunction,ViaPad*%
%ADD40C,0.500000*%
%TD*%
%TA.AperFunction,ViaPad*%
%ADD41C,0.600000*%
%TD*%
%TA.AperFunction,Conductor*%
%ADD42C,0.500000*%
%TD*%
%TA.AperFunction,Conductor*%
%ADD43C,0.250000*%
%TD*%
%TA.AperFunction,Conductor*%
%ADD44C,0.350000*%
%TD*%
%TA.AperFunction,Conductor*%
%ADD45C,0.200000*%
%TD*%
%TA.AperFunction,Conductor*%
%ADD46C,0.150000*%
%TD*%
%TA.AperFunction,Conductor*%
%ADD47C,0.156500*%
%TD*%
G04 APERTURE END LIST*
D10*
%TA.AperFunction,EtchedComponent*%
%TO.C,AE1*%
G36*
X158813215Y-82350000D02*
G01*
X163970000Y-82350000D01*
X163970000Y-87350000D01*
X161330000Y-87350000D01*
X161330000Y-89350000D01*
X163970000Y-89350000D01*
X163970000Y-92050000D01*
X161330000Y-92050000D01*
X161330000Y-94050000D01*
X163970000Y-94050000D01*
X163970000Y-96750000D01*
X159530000Y-96750000D01*
X159530000Y-96250000D01*
X163470000Y-96250000D01*
X163470000Y-94550000D01*
X160830000Y-94550000D01*
X160830000Y-91550000D01*
X163470000Y-91550000D01*
X163470000Y-89850000D01*
X160830000Y-89850000D01*
X160830000Y-86850000D01*
X163470000Y-86850000D01*
X163470000Y-85150000D01*
X158570000Y-85150000D01*
X158570000Y-84650000D01*
X163470000Y-84650000D01*
X163470000Y-83250000D01*
X158570000Y-83250000D01*
X158570000Y-82774844D01*
X158673957Y-82774844D01*
X158674700Y-82823363D01*
X158687600Y-82868878D01*
X158698213Y-82887489D01*
X158733447Y-82921132D01*
X158778632Y-82941691D01*
X158828158Y-82948222D01*
X158876417Y-82939782D01*
X158908643Y-82922888D01*
X158941313Y-82887628D01*
X158961408Y-82842318D01*
X158967982Y-82792733D01*
X158960092Y-82744647D01*
X158943186Y-82711755D01*
X158906416Y-82676815D01*
X158861622Y-82657153D01*
X158813215Y-82652417D01*
X158765605Y-82662258D01*
X158723203Y-82686326D01*
X158690419Y-82724269D01*
X158686065Y-82732181D01*
X158673957Y-82774844D01*
X158570000Y-82774844D01*
X158570000Y-82350000D01*
X158813215Y-82350000D01*
G37*
%TD.AperFunction*%
%TD*%
D11*
%TO.P,L2,1,1*%
%TO.N,/SMPSX*%
X142890000Y-83615000D03*
%TO.P,L2,2,2*%
%TO.N,/SMPSXL*%
X142890000Y-82645000D03*
%TD*%
D12*
%TO.P,RST1,1*%
%TO.N,/NRST*%
X134800000Y-97600000D03*
%TO.P,RST1,2*%
%TO.N,GND*%
X131400000Y-97600000D03*
%TD*%
D13*
%TO.P,C3,1*%
%TO.N,+3.3V*%
X145710000Y-93610000D03*
%TO.P,C3,2*%
%TO.N,GND*%
X146670000Y-93610000D03*
%TD*%
D14*
%TO.P,FLT1,1,IN*%
%TO.N,/RF_FLT_IN*%
X154407500Y-87700000D03*
D15*
%TO.P,FLT1,2,GND*%
%TO.N,GND*%
X155020000Y-87472500D03*
D14*
%TO.P,FLT1,3,OUT*%
%TO.N,/RF_FLT_OUT*%
X155632500Y-87700000D03*
D15*
%TO.P,FLT1,4,GND*%
%TO.N,GND*%
X155020000Y-87927500D03*
%TD*%
D16*
%TO.P,J3,1,Pin_1*%
%TO.N,/UART_TX*%
X148175000Y-102000000D03*
%TO.P,J3,2,Pin_2*%
%TO.N,/UART_RX*%
X145675000Y-102000000D03*
%TO.P,J3,3,Pin_3*%
%TO.N,+3.3V*%
X143175000Y-102000000D03*
%TO.P,J3,4,Pin_4*%
%TO.N,GND*%
X140675000Y-102000000D03*
%TD*%
D17*
%TO.P,C4,1*%
%TO.N,+3.3V*%
X148863000Y-88614400D03*
%TO.P,C4,2*%
%TO.N,GND*%
X148863000Y-89574400D03*
%TD*%
D18*
%TO.P,R1,1*%
%TO.N,+3.3V*%
X135000000Y-91610000D03*
%TO.P,R1,2*%
%TO.N,SDA*%
X135000000Y-90590000D03*
%TD*%
D19*
%TO.P,Q1,1,C*%
%TO.N,PHOTO_V*%
X155150000Y-96537500D03*
%TO.P,Q1,2,E*%
%TO.N,PHOTO_OUT*%
X155150000Y-94962500D03*
%TD*%
D17*
%TO.P,C2,1*%
%TO.N,+3.3V*%
X139350000Y-87670000D03*
%TO.P,C2,2*%
%TO.N,GND*%
X139350000Y-88630000D03*
%TD*%
D20*
%TO.P,C16,1*%
%TO.N,/VFBSMPS*%
X144200000Y-83725000D03*
%TO.P,C16,2*%
%TO.N,GND*%
X145750000Y-83725000D03*
%TD*%
D21*
%TO.P,Y2,1,1*%
%TO.N,Net-(U1-PC14)*%
X142560000Y-94340000D03*
%TO.P,Y2,2,2*%
%TO.N,Net-(U1-PC15)*%
X143960000Y-94340000D03*
%TD*%
D18*
%TO.P,R2,1*%
%TO.N,+3.3V*%
X133100000Y-91610000D03*
%TO.P,R2,2*%
%TO.N,SCL*%
X133100000Y-90590000D03*
%TD*%
D13*
%TO.P,C13,1*%
%TO.N,/NRST*%
X145710000Y-94660000D03*
%TO.P,C13,2*%
%TO.N,GND*%
X146670000Y-94660000D03*
%TD*%
D22*
%TO.P,C18,1*%
%TO.N,+3.3V*%
X141025000Y-81790000D03*
%TO.P,C18,2*%
%TO.N,GND*%
X139475000Y-81790000D03*
%TD*%
D13*
%TO.P,C15,1*%
%TO.N,Net-(U1-PC15)*%
X143960000Y-95830000D03*
%TO.P,C15,2*%
%TO.N,GND*%
X144920000Y-95830000D03*
%TD*%
D17*
%TO.P,C8,1*%
%TO.N,/RF_ST_PIN*%
X150263000Y-87689400D03*
%TO.P,C8,2*%
%TO.N,GND*%
X150263000Y-88649400D03*
%TD*%
D23*
%TO.P,C12,1*%
%TO.N,+3.3V*%
X134430000Y-86900000D03*
%TO.P,C12,2*%
%TO.N,GND*%
X133470000Y-86900000D03*
%TD*%
D24*
%TO.P,C10,1*%
%TO.N,+3.3V*%
X148858018Y-86024400D03*
%TO.P,C10,2*%
%TO.N,GND*%
X148858018Y-85064400D03*
%TD*%
%TO.P,C11,1*%
%TO.N,+3.3V*%
X149869678Y-86024400D03*
%TO.P,C11,2*%
%TO.N,GND*%
X149869678Y-85064400D03*
%TD*%
D25*
%TO.P,U2,1,VDD*%
%TO.N,GND*%
X133100000Y-88200000D03*
%TO.P,U2,2,SCL*%
%TO.N,SCL*%
X133100000Y-89200000D03*
%TO.P,U2,3,SDA*%
%TO.N,SDA*%
X134950000Y-89200000D03*
%TO.P,U2,4,VSS*%
%TO.N,+3.3V*%
X134950000Y-88200000D03*
D26*
%TO.P,U2,5,NC*%
%TO.N,unconnected-(U2-NC-Pad5)*%
X134025000Y-88700000D03*
%TD*%
D17*
%TO.P,C1,1*%
%TO.N,+3.3V*%
X139150000Y-91670000D03*
%TO.P,C1,2*%
%TO.N,GND*%
X139150000Y-92630000D03*
%TD*%
D18*
%TO.P,R3,1*%
%TO.N,Net-(D1-A)*%
X148540000Y-99510000D03*
%TO.P,R3,2*%
%TO.N,LED*%
X148540000Y-98490000D03*
%TD*%
D23*
%TO.P,C7,1*%
%TO.N,+3.3V*%
X141080000Y-84190000D03*
%TO.P,C7,2*%
%TO.N,GND*%
X140120000Y-84190000D03*
%TD*%
D16*
%TO.P,J2,1,Pin_1*%
%TO.N,+3.3V*%
X134600000Y-77000000D03*
%TO.P,J2,2,Pin_2*%
%TO.N,/SWDIO*%
X137100000Y-77000000D03*
%TO.P,J2,3,Pin_3*%
%TO.N,/SWDCLK*%
X139600000Y-77000000D03*
%TO.P,J2,4,Pin_4*%
%TO.N,GND*%
X142100000Y-77000000D03*
%TD*%
D27*
%TO.P,L3,1,1*%
%TO.N,/SMPSXL*%
X142887500Y-81200000D03*
%TO.P,L3,2,2*%
%TO.N,/VFBSMPS*%
X145012500Y-81200000D03*
%TD*%
D28*
%TO.P,L1,1,1*%
%TO.N,/RF_ST_PIN*%
X151278000Y-87669400D03*
%TO.P,L1,2,2*%
%TO.N,/RF_FLT_IN*%
X152248000Y-87669400D03*
%TD*%
D29*
%TO.P,R4,1*%
%TO.N,GND*%
X153240000Y-93600000D03*
%TO.P,R4,2*%
%TO.N,PHOTO_OUT*%
X154260000Y-93600000D03*
%TD*%
D30*
%TO.P,D1,1,K*%
%TO.N,GND*%
X143702500Y-99430000D03*
%TO.P,D1,2,A*%
%TO.N,Net-(D1-A)*%
X145277500Y-99430000D03*
%TD*%
D20*
%TO.P,C6,1*%
%TO.N,+3.3V*%
X137663000Y-93869400D03*
%TO.P,C6,2*%
%TO.N,GND*%
X139213000Y-93869400D03*
%TD*%
D31*
%TO.P,AE1,1,A*%
%TO.N,/RF_FLT_OUT*%
X158820000Y-84900000D03*
D32*
%TO.P,AE1,2*%
%TO.N,GND*%
X158820000Y-82800000D03*
%TD*%
D23*
%TO.P,C14,1*%
%TO.N,Net-(U1-PC14)*%
X142560000Y-95830000D03*
%TO.P,C14,2*%
%TO.N,GND*%
X141600000Y-95830000D03*
%TD*%
D17*
%TO.P,C9,1*%
%TO.N,/RF_FLT_IN*%
X153263000Y-87689400D03*
%TO.P,C9,2*%
%TO.N,GND*%
X153263000Y-88649400D03*
%TD*%
D23*
%TO.P,C17,1*%
%TO.N,+3.3V*%
X141010000Y-83090000D03*
%TO.P,C17,2*%
%TO.N,GND*%
X140050000Y-83090000D03*
%TD*%
%TO.P,C5,1*%
%TO.N,+3.3V*%
X141421200Y-93602400D03*
%TO.P,C5,2*%
%TO.N,GND*%
X140461200Y-93602400D03*
%TD*%
D33*
%TO.P,Y1,1,1*%
%TO.N,/OSC_IN*%
X149050000Y-81600000D03*
%TO.P,Y1,2,2*%
%TO.N,GND*%
X149050000Y-83000000D03*
%TO.P,Y1,3,3*%
%TO.N,/OSC_OUT*%
X150150000Y-83000000D03*
%TO.P,Y1,4,4*%
%TO.N,GND*%
X150150000Y-81600000D03*
%TD*%
D34*
%TO.P,J1,1,VCC*%
%TO.N,+3.3V*%
X135220000Y-80440000D03*
%TO.P,J1,2,SWDIO*%
%TO.N,/SWDIO*%
X135220000Y-81710000D03*
%TO.P,J1,3,~{RESET}*%
%TO.N,/NRST*%
X133950000Y-80440000D03*
%TO.P,J1,4,SWCLK*%
%TO.N,/SWDCLK*%
X133950000Y-81710000D03*
%TO.P,J1,5,GND*%
%TO.N,GND*%
X132680000Y-80440000D03*
%TO.P,J1,6,SWO*%
%TO.N,unconnected-(J1-SWO-Pad6)*%
X132680000Y-81710000D03*
%TD*%
D35*
%TO.P,U1,1,VBAT*%
%TO.N,+3.3V*%
X141400000Y-92362500D03*
%TO.P,U1,2,RCC_OSC32_IN*%
%TO.N,Net-(U1-PC14)*%
X141900000Y-92362500D03*
%TO.P,U1,3,RCC_OSC32_OUT*%
%TO.N,Net-(U1-PC15)*%
X142400000Y-92362500D03*
%TO.P,U1,4,PH3*%
%TO.N,unconnected-(U1-PH3-Pad4)*%
X142900000Y-92362500D03*
%TO.P,U1,5,PB8*%
%TO.N,unconnected-(U1-PB8-Pad5)*%
X143400000Y-92362500D03*
%TO.P,U1,6,PB9*%
%TO.N,unconnected-(U1-PB9-Pad6)*%
X143900000Y-92362500D03*
%TO.P,U1,7,NRST*%
%TO.N,/NRST*%
X144400000Y-92362500D03*
%TO.P,U1,8,VDDA*%
%TO.N,+3.3V*%
X144900000Y-92362500D03*
%TO.P,U1,9,PA0*%
%TO.N,unconnected-(U1-PA0-Pad9)*%
X145400000Y-92362500D03*
%TO.P,U1,10,PA1*%
%TO.N,unconnected-(U1-PA1-Pad10)*%
X145900000Y-92362500D03*
%TO.P,U1,11,PA2*%
%TO.N,unconnected-(U1-PA2-Pad11)*%
X146400000Y-92362500D03*
%TO.P,U1,12,ADC1_IN8*%
%TO.N,PHOTO_OUT*%
X146900000Y-92362500D03*
D36*
%TO.P,U1,13,PA4*%
%TO.N,LED*%
X147587500Y-91675000D03*
%TO.P,U1,14,PA5*%
%TO.N,PHOTO_V*%
X147587500Y-91175000D03*
%TO.P,U1,15,PA6*%
%TO.N,unconnected-(U1-PA6-Pad15)*%
X147587500Y-90675000D03*
%TO.P,U1,16,PA7*%
%TO.N,unconnected-(U1-PA7-Pad16)*%
X147587500Y-90175000D03*
%TO.P,U1,17,PA8*%
%TO.N,unconnected-(U1-PA8-Pad17)*%
X147587500Y-89675000D03*
%TO.P,U1,18,USART1_TX*%
%TO.N,/UART_TX*%
X147587500Y-89175000D03*
%TO.P,U1,19,PB2*%
%TO.N,unconnected-(U1-PB2-Pad19)*%
X147587500Y-88675000D03*
%TO.P,U1,20,VDD*%
%TO.N,+3.3V*%
X147587500Y-88175000D03*
%TO.P,U1,21,RF1*%
%TO.N,/RF_ST_PIN*%
X147587500Y-87675000D03*
%TO.P,U1,22,VSSRF*%
%TO.N,GND*%
X147587500Y-87175000D03*
%TO.P,U1,23,VDDRF*%
%TO.N,+3.3V*%
X147587500Y-86675000D03*
%TO.P,U1,24,OSC_OUT*%
%TO.N,/OSC_OUT*%
X147587500Y-86175000D03*
D35*
%TO.P,U1,25,OSC_IN*%
%TO.N,/OSC_IN*%
X146900000Y-85487500D03*
%TO.P,U1,26,AT0*%
%TO.N,unconnected-(U1-AT0-Pad26)*%
X146400000Y-85487500D03*
%TO.P,U1,27,AT1*%
%TO.N,unconnected-(U1-AT1-Pad27)*%
X145900000Y-85487500D03*
%TO.P,U1,28,PB0*%
%TO.N,unconnected-(U1-PB0-Pad28)*%
X145400000Y-85487500D03*
%TO.P,U1,29,PB1*%
%TO.N,unconnected-(U1-PB1-Pad29)*%
X144900000Y-85487500D03*
%TO.P,U1,30,PE4*%
%TO.N,unconnected-(U1-PE4-Pad30)*%
X144400000Y-85487500D03*
%TO.P,U1,31,VFBSMPS*%
%TO.N,/VFBSMPS*%
X143900000Y-85487500D03*
%TO.P,U1,32,VSSSMPS*%
%TO.N,GND*%
X143400000Y-85487500D03*
%TO.P,U1,33,VLXSMPS*%
%TO.N,/SMPSX*%
X142900000Y-85487500D03*
%TO.P,U1,34,VDDSMPS*%
%TO.N,+3.3V*%
X142400000Y-85487500D03*
%TO.P,U1,35,VDD*%
X141900000Y-85487500D03*
%TO.P,U1,36,USART1_RX*%
%TO.N,/UART_RX*%
X141400000Y-85487500D03*
D36*
%TO.P,U1,37,PA11*%
%TO.N,unconnected-(U1-PA11-Pad37)*%
X140712500Y-86175000D03*
%TO.P,U1,38,PA12*%
%TO.N,unconnected-(U1-PA12-Pad38)*%
X140712500Y-86675000D03*
%TO.P,U1,39,SYS_JTMS-SWDIO*%
%TO.N,/SWDIO*%
X140712500Y-87175000D03*
%TO.P,U1,40,VDDUSB*%
%TO.N,+3.3V*%
X140712500Y-87675000D03*
%TO.P,U1,41,SYS_JTCK-SWCLK*%
%TO.N,/SWDCLK*%
X140712500Y-88175000D03*
%TO.P,U1,42,PA15*%
%TO.N,unconnected-(U1-PA15-Pad42)*%
X140712500Y-88675000D03*
%TO.P,U1,43,PB3*%
%TO.N,unconnected-(U1-PB3-Pad43)*%
X140712500Y-89175000D03*
%TO.P,U1,44,PB4*%
%TO.N,unconnected-(U1-PB4-Pad44)*%
X140712500Y-89675000D03*
%TO.P,U1,45,PB5*%
%TO.N,unconnected-(U1-PB5-Pad45)*%
X140712500Y-90175000D03*
%TO.P,U1,46,I2C1_SCL*%
%TO.N,SCL*%
X140712500Y-90675000D03*
%TO.P,U1,47,I2C1_SDA*%
%TO.N,SDA*%
X140712500Y-91175000D03*
%TO.P,U1,48,VDD*%
%TO.N,+3.3V*%
X140712500Y-91675000D03*
D37*
%TO.P,U1,49,VSS*%
%TO.N,GND*%
X144150000Y-88925000D03*
%TD*%
D38*
%TO.N,+3.3V*%
X141000000Y-80200000D03*
D39*
X135000000Y-79200000D03*
D38*
X134500000Y-92700000D03*
X135650000Y-83950000D03*
X135100000Y-93900000D03*
X152150000Y-84450000D03*
D39*
X136150000Y-79150000D03*
D38*
X153950000Y-92100000D03*
X138350000Y-80400000D03*
X136725000Y-96275000D03*
X134450000Y-86100000D03*
X133100000Y-92600000D03*
D39*
X137400000Y-79700000D03*
D38*
X150100000Y-97550000D03*
%TO.N,GND*%
X148850000Y-90400000D03*
D40*
X145200000Y-89800000D03*
D38*
X140160000Y-96600000D03*
X158000000Y-79000000D03*
D40*
X141963000Y-86719400D03*
X145200000Y-87600000D03*
D38*
X152000000Y-101000000D03*
D40*
X146413000Y-91169400D03*
D38*
X158000000Y-93000000D03*
X146510000Y-98680000D03*
X149375000Y-100500000D03*
D40*
X148975000Y-83675000D03*
D38*
X158000000Y-81000000D03*
X158300000Y-86075000D03*
X158000000Y-78000000D03*
X158000000Y-83000000D03*
X131000000Y-101000000D03*
D40*
X143200000Y-89800000D03*
D38*
X155500000Y-83650000D03*
X152700000Y-96800000D03*
X132775000Y-96900000D03*
X158000000Y-89000000D03*
X141450000Y-78500000D03*
X142000000Y-99000000D03*
X158000000Y-101000000D03*
X144400000Y-96750000D03*
X139200000Y-84050000D03*
X139200000Y-83100000D03*
X139250000Y-94750000D03*
X140000000Y-101000000D03*
X153250000Y-98650000D03*
D40*
X152950000Y-81425000D03*
D38*
X138550000Y-88180000D03*
X148000000Y-97000000D03*
X158000000Y-99000000D03*
X135000000Y-101000000D03*
D40*
X146363000Y-88869400D03*
D38*
X158000000Y-91000000D03*
D40*
X132000000Y-81000000D03*
D38*
X153820000Y-85920000D03*
D40*
X149400000Y-86750000D03*
D38*
X158000000Y-94000000D03*
X158000000Y-87000000D03*
X153000000Y-79100000D03*
X132375000Y-94050000D03*
X150175000Y-80025000D03*
X157000000Y-101000000D03*
D40*
X146313000Y-86719400D03*
D38*
X158000000Y-98000000D03*
X142825000Y-78525000D03*
X154875000Y-98175000D03*
X158000000Y-100000000D03*
X158000000Y-84000000D03*
D40*
X144063000Y-91119400D03*
D38*
X158000000Y-82000000D03*
X131900000Y-83975000D03*
X148125000Y-78575000D03*
X153000000Y-83000000D03*
X144575000Y-100475000D03*
X146550000Y-80100000D03*
X147940000Y-95090000D03*
X158000000Y-92000000D03*
X138950000Y-78900000D03*
X158000000Y-95000000D03*
D40*
X141913000Y-88919400D03*
D38*
X133470000Y-86050000D03*
X157000000Y-78000000D03*
X153450000Y-90050000D03*
X158000000Y-90000000D03*
X158000000Y-88000000D03*
D40*
X141963000Y-91169400D03*
D38*
X158000000Y-80000000D03*
X145000000Y-78000000D03*
D40*
X144113000Y-86719400D03*
D38*
X158000000Y-97000000D03*
X155025000Y-81800000D03*
D40*
X143200000Y-87600000D03*
D38*
X146925000Y-82325000D03*
X158000000Y-96000000D03*
X152000000Y-91000000D03*
D40*
X133250000Y-79750000D03*
D38*
X151000000Y-78000000D03*
X140413000Y-94569400D03*
D40*
X150800000Y-84500000D03*
X151600000Y-83400000D03*
X156425000Y-80725000D03*
D41*
%TO.N,/SWDIO*%
X136300000Y-82325000D03*
D40*
%TO.N,/UART_TX*%
X152525000Y-93825000D03*
%TO.N,/UART_RX*%
X137450000Y-82850000D03*
D41*
%TO.N,/SWDCLK*%
X134925000Y-83200000D03*
D40*
%TO.N,PHOTO_OUT*%
X155150000Y-93850000D03*
X151050000Y-96050000D03*
%TD*%
D42*
%TO.N,+3.3V*%
X137400000Y-79700000D02*
X137450000Y-79650000D01*
D43*
X142400000Y-85000000D02*
X141800000Y-84400000D01*
X141400000Y-93581200D02*
X141421200Y-93602400D01*
D44*
X141000000Y-81765000D02*
X141025000Y-81790000D01*
D43*
X134500000Y-92700000D02*
X135000000Y-92200000D01*
D42*
X137350000Y-79650000D02*
X137400000Y-79700000D01*
D45*
X150100000Y-97550000D02*
X150100000Y-95250000D01*
D43*
X137750000Y-92250000D02*
X137663000Y-92337000D01*
X141800000Y-83650000D02*
X141240000Y-83090000D01*
X135650000Y-83950000D02*
X138525000Y-86825000D01*
D46*
X145710000Y-93610000D02*
X145740000Y-93610000D01*
D43*
X141010000Y-83090000D02*
X141010000Y-81805000D01*
X140707500Y-87670000D02*
X140712500Y-87675000D01*
X137750003Y-92250000D02*
X137750000Y-92250000D01*
D44*
X138330003Y-91670000D02*
X137750003Y-92250000D01*
D46*
X145710000Y-93610000D02*
X145710000Y-93590000D01*
D43*
X145260000Y-93610000D02*
X145710000Y-93610000D01*
X144900000Y-92362500D02*
X144900000Y-93250000D01*
X141400000Y-92362500D02*
X141400000Y-93581200D01*
X140650000Y-85000000D02*
X139150000Y-85000000D01*
D42*
X136650000Y-79650000D02*
X137350000Y-79650000D01*
D45*
X150100000Y-95250000D02*
X147900000Y-93050000D01*
D43*
X138525000Y-86825000D02*
X138875000Y-86825000D01*
X147587500Y-86675000D02*
X148575000Y-86675000D01*
X149114400Y-88614400D02*
X148863000Y-88614400D01*
X137300000Y-95700000D02*
X140300000Y-95700000D01*
X147587500Y-88175000D02*
X148093600Y-88175000D01*
X152150000Y-84450000D02*
X150575600Y-86024400D01*
X139350000Y-87670000D02*
X140707500Y-87670000D01*
X148858018Y-86024400D02*
X149888000Y-86024400D01*
D44*
X141000000Y-80200000D02*
X141000000Y-81765000D01*
D43*
X151100000Y-92100000D02*
X149600000Y-90600000D01*
D42*
X136150000Y-79150000D02*
X136650000Y-79650000D01*
D43*
X141900000Y-85487500D02*
X141900000Y-85103498D01*
D44*
X135100000Y-93900000D02*
X137632400Y-93900000D01*
D43*
X137738000Y-93794400D02*
X137663000Y-93869400D01*
X141900000Y-85103498D02*
X141366502Y-84570000D01*
X138875000Y-86825000D02*
X139350000Y-87300000D01*
D45*
X147900000Y-93050000D02*
X146300000Y-93050000D01*
D44*
X137632400Y-93900000D02*
X137663000Y-93869400D01*
D43*
X142400000Y-85487500D02*
X142400000Y-85000000D01*
X148093600Y-88175000D02*
X148533000Y-88614400D01*
X139155000Y-91675000D02*
X139150000Y-91670000D01*
X134950000Y-87420000D02*
X134430000Y-86900000D01*
X141800000Y-84400000D02*
X141800000Y-83650000D01*
D44*
X139150000Y-91670000D02*
X138330003Y-91670000D01*
X137663000Y-92337000D02*
X137663000Y-93869400D01*
D45*
X146300000Y-93050000D02*
X145740000Y-93610000D01*
D43*
X138350000Y-84200000D02*
X138350000Y-80500000D01*
D42*
X137600000Y-79650000D02*
X138350000Y-80400000D01*
D43*
X141080000Y-84570000D02*
X140650000Y-85000000D01*
X141240000Y-83090000D02*
X141010000Y-83090000D01*
X140712500Y-91675000D02*
X139155000Y-91675000D01*
D46*
X145710000Y-93610000D02*
X145710000Y-93555000D01*
D43*
X134950000Y-88200000D02*
X134950000Y-87420000D01*
X135000000Y-92200000D02*
X135000000Y-91610000D01*
D42*
X137450000Y-79650000D02*
X137600000Y-79650000D01*
D43*
X133100000Y-92600000D02*
X133100000Y-91610000D01*
X148575000Y-86675000D02*
X148858018Y-86391982D01*
X149600000Y-90600000D02*
X149600000Y-89100000D01*
X141080000Y-84190000D02*
X141080000Y-84570000D01*
X148858018Y-86391982D02*
X148858018Y-86024400D01*
X148533000Y-88614400D02*
X148863000Y-88614400D01*
X153950000Y-92100000D02*
X151100000Y-92100000D01*
X139350000Y-87300000D02*
X139350000Y-87670000D01*
X134450000Y-86100000D02*
X134450000Y-86880000D01*
X149600000Y-89100000D02*
X149114400Y-88614400D01*
X134450000Y-86880000D02*
X134430000Y-86900000D01*
X141366502Y-84570000D02*
X141080000Y-84570000D01*
X141421200Y-94578800D02*
X141421200Y-93602400D01*
X150575600Y-86024400D02*
X149869678Y-86024400D01*
X136725000Y-96275000D02*
X137300000Y-95700000D01*
X144900000Y-93250000D02*
X145260000Y-93610000D01*
X139150000Y-85000000D02*
X138350000Y-84200000D01*
X140300000Y-95700000D02*
X141421200Y-94578800D01*
X137663000Y-93869400D02*
G75*
G03*
X137800000Y-93732400I0J137000D01*
G01*
X141010000Y-81805000D02*
G75*
G02*
X141025000Y-81790000I15000J0D01*
G01*
%TO.N,GND*%
X139214000Y-93843400D02*
X139227000Y-93856400D01*
X139000000Y-88630000D02*
X139350000Y-88630000D01*
D42*
X148975000Y-83075000D02*
X149050000Y-83000000D01*
D43*
X147587500Y-87175000D02*
X145900000Y-87175000D01*
X133470000Y-86050000D02*
X133470000Y-86855000D01*
X138550000Y-88180000D02*
X139000000Y-88630000D01*
X143400000Y-85487500D02*
X143400000Y-88175000D01*
X149050000Y-83000000D02*
X149050000Y-82800000D01*
X133100000Y-88200000D02*
X133100000Y-87270000D01*
X133100000Y-87270000D02*
X133470000Y-86900000D01*
D42*
X148975000Y-83675000D02*
X148975000Y-83075000D01*
D43*
X150150000Y-81854000D02*
X150150000Y-81600000D01*
X143400000Y-88175000D02*
X144150000Y-88925000D01*
X145900000Y-87175000D02*
G75*
G03*
X144150000Y-88925000I0J-1750000D01*
G01*
D47*
%TO.N,/RF_FLT_OUT*%
X155820000Y-87680000D02*
X155652500Y-87680000D01*
X158820000Y-84900000D02*
X158600000Y-84900000D01*
X155652500Y-87680000D02*
X155632500Y-87700000D01*
X157425000Y-86075000D02*
G75*
G02*
X155820000Y-87680000I-1605000J0D01*
G01*
X158600000Y-84900000D02*
G75*
G03*
X157425000Y-86075000I0J-1175000D01*
G01*
D43*
%TO.N,/NRST*%
X134000000Y-95500000D02*
X134800000Y-96300000D01*
X131000000Y-79000000D02*
X130500000Y-79500000D01*
D45*
X145710000Y-94660000D02*
X145750000Y-94700000D01*
D43*
X145710000Y-94660000D02*
X145710000Y-97140000D01*
X145710000Y-97140000D02*
X145250000Y-97600000D01*
X133950000Y-79450000D02*
X133500000Y-79000000D01*
X133500000Y-79000000D02*
X131000000Y-79000000D01*
X145250000Y-97600000D02*
X134800000Y-97600000D01*
X130500000Y-94800000D02*
X131200000Y-95500000D01*
X133950000Y-80440000D02*
X133950000Y-79450000D01*
D45*
X144400000Y-92362500D02*
X144400000Y-93350000D01*
D43*
X130500000Y-79500000D02*
X130500000Y-94800000D01*
D45*
X144400000Y-93350000D02*
X145710000Y-94660000D01*
D43*
X134800000Y-96300000D02*
X134800000Y-97600000D01*
X131200000Y-95500000D02*
X134000000Y-95500000D01*
D45*
%TO.N,/SWDIO*%
X136300000Y-82325000D02*
X136100000Y-82325000D01*
X135220000Y-82270000D02*
X135220000Y-81710000D01*
X140125000Y-87175000D02*
X135220000Y-82270000D01*
X140712500Y-87175000D02*
X140125000Y-87175000D01*
X135485000Y-81710000D02*
X135220000Y-81710000D01*
X136100000Y-82325000D02*
X135485000Y-81710000D01*
D46*
%TO.N,/UART_TX*%
X148525000Y-90975000D02*
X148925000Y-90975000D01*
X149512552Y-90975000D02*
X152362552Y-93825000D01*
X148024999Y-89175000D02*
X148227000Y-89377001D01*
X147587500Y-89175000D02*
X148024999Y-89175000D01*
X148227000Y-89377001D02*
X148227000Y-90677000D01*
X148925000Y-90975000D02*
X149512552Y-90975000D01*
X148227000Y-90677000D02*
X148525000Y-90975000D01*
X152362552Y-93825000D02*
X152525000Y-93825000D01*
%TO.N,/UART_RX*%
X137450000Y-83762448D02*
X139175052Y-85487500D01*
X139175052Y-85487500D02*
X141400000Y-85487500D01*
X137450000Y-82850000D02*
X137450000Y-83762448D01*
D47*
%TO.N,/RF_ST_PIN*%
X147587500Y-87675000D02*
X150248600Y-87675000D01*
X151258000Y-87689400D02*
X151278000Y-87669400D01*
X150263000Y-87689400D02*
X151258000Y-87689400D01*
X150248600Y-87675000D02*
X150263000Y-87689400D01*
%TO.N,/RF_FLT_IN*%
X153263000Y-87689400D02*
X154396900Y-87689400D01*
X153243000Y-87669400D02*
X153263000Y-87689400D01*
X152248000Y-87669400D02*
X153243000Y-87669400D01*
D43*
%TO.N,/OSC_OUT*%
X147600000Y-84925000D02*
X148300000Y-84225000D01*
X147600000Y-86162500D02*
X147600000Y-84925000D01*
X150150000Y-83825000D02*
X150150000Y-83000000D01*
X148300000Y-84225000D02*
X149750000Y-84225000D01*
X147587500Y-86175000D02*
X147600000Y-86162500D01*
X149750000Y-84225000D02*
X150150000Y-83825000D01*
%TO.N,/OSC_IN*%
X148025000Y-83575000D02*
X148025000Y-81675000D01*
X148100000Y-81600000D02*
X148025000Y-81675000D01*
X149050000Y-81600000D02*
X148100000Y-81600000D01*
X146900000Y-85487500D02*
X146900000Y-84700000D01*
X146900000Y-84700000D02*
X148025000Y-83575000D01*
%TO.N,SDA*%
X139225000Y-90400000D02*
X136650000Y-90400000D01*
X136650000Y-90400000D02*
X135450000Y-89200000D01*
X135000000Y-89200000D02*
X135000000Y-90590000D01*
X140000000Y-91175000D02*
X139225000Y-90400000D01*
X140712500Y-91175000D02*
X140000000Y-91175000D01*
X135450000Y-89200000D02*
X135000000Y-89200000D01*
%TO.N,SCL*%
X134670000Y-85230000D02*
X132660000Y-85230000D01*
X132400000Y-88500000D02*
X133100000Y-89200000D01*
X135380000Y-86880000D02*
X135380000Y-85940000D01*
X132660000Y-85230000D02*
X132400000Y-85490000D01*
X135380000Y-85940000D02*
X134670000Y-85230000D01*
X140712500Y-90675000D02*
X140225000Y-90675000D01*
X140225000Y-90675000D02*
X139350000Y-89800000D01*
X133100000Y-90590000D02*
X133100000Y-89200000D01*
X138300000Y-89800000D02*
X135380000Y-86880000D01*
X139350000Y-89800000D02*
X138300000Y-89800000D01*
X132400000Y-85490000D02*
X132400000Y-88500000D01*
D45*
%TO.N,/SWDCLK*%
X140000000Y-88400000D02*
X140225000Y-88175000D01*
X134925000Y-83200000D02*
X134700000Y-82975000D01*
X133950000Y-83500000D02*
X137750000Y-87300000D01*
X133950000Y-81710000D02*
X133950000Y-83500000D01*
X139700000Y-89300000D02*
X140000000Y-89000000D01*
X137750000Y-88310000D02*
X138740000Y-89300000D01*
X137750000Y-87300000D02*
X137750000Y-88310000D01*
X134700000Y-82460000D02*
X133950000Y-81710000D01*
X140000000Y-89000000D02*
X140000000Y-88400000D01*
X140225000Y-88175000D02*
X140712500Y-88175000D01*
X134700000Y-82975000D02*
X134700000Y-82460000D01*
X138740000Y-89300000D02*
X139700000Y-89300000D01*
D43*
%TO.N,Net-(U1-PC14)*%
X141900000Y-93020000D02*
X141900000Y-92362500D01*
X142560000Y-95830000D02*
X142560000Y-94340000D01*
X142560000Y-93680000D02*
X141900000Y-93020000D01*
X142560000Y-94340000D02*
X142560000Y-93680000D01*
%TO.N,Net-(U1-PC15)*%
X142850000Y-93200000D02*
X143475000Y-93200000D01*
X143960000Y-93685000D02*
X143960000Y-94340000D01*
X142400000Y-92750000D02*
X142850000Y-93200000D01*
X142400000Y-92362500D02*
X142400000Y-92750000D01*
X143475000Y-93200000D02*
X143960000Y-93685000D01*
X143960000Y-95830000D02*
X143960000Y-94340000D01*
%TO.N,/VFBSMPS*%
X143900000Y-84925000D02*
X143900000Y-85487500D01*
D42*
X143900000Y-84925000D02*
X143900000Y-84675000D01*
D45*
%TO.N,Net-(D1-A)*%
X148540000Y-99510000D02*
X145357500Y-99510000D01*
X145357500Y-99510000D02*
X145277500Y-99430000D01*
D42*
%TO.N,/SMPSX*%
X142900000Y-84900000D02*
X142900000Y-83927500D01*
D43*
X142900000Y-85487500D02*
X142900000Y-84900000D01*
D42*
X142900000Y-83927500D02*
X142890000Y-83917500D01*
%TO.N,/SMPSXL*%
X142890000Y-81227500D02*
X142862500Y-81200000D01*
X142890000Y-82342500D02*
X142890000Y-81227500D01*
D45*
%TO.N,LED*%
X151750000Y-94725000D02*
X151750000Y-96740000D01*
X150940000Y-98450000D02*
X148580000Y-98450000D01*
X151750000Y-96740000D02*
X151140000Y-97350000D01*
X147587500Y-91675000D02*
X148700000Y-91675000D01*
X148580000Y-98450000D02*
X148540000Y-98490000D01*
X151140000Y-98250000D02*
X150940000Y-98450000D01*
X147587500Y-91675000D02*
X147885000Y-91675000D01*
X151140000Y-97350000D02*
X151140000Y-98250000D01*
X148700000Y-91675000D02*
X151750000Y-94725000D01*
%TO.N,PHOTO_OUT*%
X154900000Y-93600000D02*
X154260000Y-93600000D01*
X151050000Y-95000000D02*
X151050000Y-96050000D01*
X155150000Y-93850000D02*
X154900000Y-93600000D01*
X148412500Y-92362500D02*
X151050000Y-95000000D01*
X146900000Y-92362500D02*
X148412500Y-92362500D01*
X155150000Y-93850000D02*
X155150000Y-94962500D01*
%TO.N,PHOTO_V*%
X148086146Y-91325000D02*
X149250000Y-91325000D01*
X154000000Y-96075000D02*
X154000000Y-96400000D01*
X149250000Y-91325000D02*
X154000000Y-96075000D01*
X147587500Y-91175000D02*
X147936146Y-91175000D01*
X154137500Y-96537500D02*
X155150000Y-96537500D01*
X147936146Y-91175000D02*
X148086146Y-91325000D01*
X154000000Y-96400000D02*
X154137500Y-96537500D01*
%TD*%
%TA.AperFunction,Conductor*%
%TO.N,+3.3V*%
G36*
X135892540Y-77320185D02*
G01*
X135938295Y-77372989D01*
X135949501Y-77424500D01*
X135949501Y-78019856D01*
X135949502Y-78019882D01*
X135952413Y-78044987D01*
X135952415Y-78044991D01*
X135997793Y-78147764D01*
X135997794Y-78147765D01*
X136077235Y-78227206D01*
X136180009Y-78272585D01*
X136205135Y-78275500D01*
X136786875Y-78275499D01*
X136853912Y-78295183D01*
X136877899Y-78315296D01*
X137418750Y-78900000D01*
X138388948Y-79948863D01*
X138420021Y-80011443D01*
X138412327Y-80080888D01*
X138368309Y-80135149D01*
X138301944Y-80156999D01*
X138301098Y-80157023D01*
X136625000Y-80200000D01*
X136624999Y-80200000D01*
X136472173Y-80304369D01*
X136421858Y-80322664D01*
X136422126Y-80324011D01*
X136271298Y-80354012D01*
X136271290Y-80354014D01*
X136134839Y-80410534D01*
X136134829Y-80410539D01*
X136012030Y-80492591D01*
X136012026Y-80492594D01*
X135907593Y-80597027D01*
X135825533Y-80719840D01*
X135824566Y-80722176D01*
X135823731Y-80723211D01*
X135822662Y-80725212D01*
X135822282Y-80725009D01*
X135780720Y-80776576D01*
X135779941Y-80777112D01*
X135631630Y-80878399D01*
X135565167Y-80899951D01*
X135561698Y-80900000D01*
X135344000Y-80900000D01*
X135276961Y-80880315D01*
X135231206Y-80827511D01*
X135220000Y-80776000D01*
X135220000Y-80440000D01*
X134899952Y-80440000D01*
X134832913Y-80420315D01*
X134787158Y-80367511D01*
X134784821Y-80362054D01*
X134764228Y-80310573D01*
X134757767Y-80288837D01*
X134731405Y-80157023D01*
X134700000Y-80000000D01*
X134200000Y-78900000D01*
X134048082Y-78897220D01*
X133981414Y-78876312D01*
X133962670Y-78860922D01*
X133761265Y-78659517D01*
X133761263Y-78659515D01*
X133664237Y-78603497D01*
X133556018Y-78574500D01*
X131056019Y-78574500D01*
X130943982Y-78574500D01*
X130835763Y-78603497D01*
X130835760Y-78603498D01*
X130738737Y-78659515D01*
X130602012Y-78796240D01*
X130540689Y-78829724D01*
X130512062Y-78832537D01*
X130422231Y-78830893D01*
X130355563Y-78809985D01*
X130310782Y-78756353D01*
X130300500Y-78706914D01*
X130300500Y-77424500D01*
X130320185Y-77357461D01*
X130372989Y-77311706D01*
X130424500Y-77300500D01*
X135825501Y-77300500D01*
X135892540Y-77320185D01*
G37*
%TD.AperFunction*%
%TD*%
%TA.AperFunction,Conductor*%
%TO.N,GND*%
G36*
X158642539Y-77320185D02*
G01*
X158688294Y-77372989D01*
X158699500Y-77424500D01*
X158699500Y-80037598D01*
X158710773Y-80072290D01*
X158712616Y-80078511D01*
X158719980Y-80105993D01*
X158723089Y-80113499D01*
X158722799Y-80113618D01*
X158727988Y-80125275D01*
X158728912Y-80128119D01*
X158728914Y-80128123D01*
X158728915Y-80128125D01*
X158743814Y-80148632D01*
X158750882Y-80159515D01*
X158759537Y-80174507D01*
X158759541Y-80174512D01*
X158763889Y-80178860D01*
X158776521Y-80193648D01*
X158784866Y-80205134D01*
X158784867Y-80205134D01*
X158784868Y-80205136D01*
X158796344Y-80213474D01*
X158811138Y-80226110D01*
X158815486Y-80230458D01*
X158815488Y-80230459D01*
X158815489Y-80230460D01*
X158828437Y-80237935D01*
X158830477Y-80239113D01*
X158841365Y-80246184D01*
X158861871Y-80261083D01*
X158861877Y-80261086D01*
X158864712Y-80262007D01*
X158876389Y-80267205D01*
X158876510Y-80266914D01*
X158884007Y-80270019D01*
X158884011Y-80270021D01*
X158911504Y-80277387D01*
X158917704Y-80279225D01*
X158952400Y-80290499D01*
X158952403Y-80290499D01*
X158952405Y-80290500D01*
X158952406Y-80290500D01*
X158962042Y-80292026D01*
X158961560Y-80295068D01*
X159013039Y-80310185D01*
X159058794Y-80362989D01*
X159070000Y-80414500D01*
X159070000Y-84225500D01*
X159050315Y-84292539D01*
X158997511Y-84338294D01*
X158946000Y-84349500D01*
X158525143Y-84349500D01*
X158525117Y-84349502D01*
X158500012Y-84352413D01*
X158500008Y-84352415D01*
X158397235Y-84397793D01*
X158317796Y-84477232D01*
X158317790Y-84477242D01*
X158309958Y-84494979D01*
X158264872Y-84548355D01*
X158231460Y-84563868D01*
X158055627Y-84615497D01*
X157853476Y-84707816D01*
X157853460Y-84707825D01*
X157666500Y-84827978D01*
X157666494Y-84827982D01*
X157625662Y-84863362D01*
X157498525Y-84973525D01*
X157421260Y-85062696D01*
X157352982Y-85141494D01*
X157352980Y-85141496D01*
X157352980Y-85141497D01*
X157352978Y-85141500D01*
X157232825Y-85328460D01*
X157232816Y-85328476D01*
X157140497Y-85530627D01*
X157077881Y-85743877D01*
X157077878Y-85743887D01*
X157046250Y-85963875D01*
X157046250Y-86070124D01*
X157045868Y-86079853D01*
X157031918Y-86257100D01*
X157028874Y-86276318D01*
X156988511Y-86444442D01*
X156982498Y-86462948D01*
X156916330Y-86622691D01*
X156907496Y-86640028D01*
X156817154Y-86787453D01*
X156805717Y-86803194D01*
X156693422Y-86934675D01*
X156679675Y-86948422D01*
X156558708Y-87051738D01*
X156548194Y-87060718D01*
X156532453Y-87072154D01*
X156385028Y-87162496D01*
X156367691Y-87171330D01*
X156207948Y-87237498D01*
X156189443Y-87243511D01*
X156139839Y-87255420D01*
X156070056Y-87251929D01*
X156013238Y-87211266D01*
X156009971Y-87206896D01*
X156005915Y-87201215D01*
X155918782Y-87114082D01*
X155808068Y-87059957D01*
X155797813Y-87058463D01*
X155736295Y-87049500D01*
X155736289Y-87049500D01*
X155528706Y-87049500D01*
X155456932Y-87059957D01*
X155346217Y-87114082D01*
X155259082Y-87201217D01*
X155212624Y-87296250D01*
X155204957Y-87311933D01*
X155194500Y-87383705D01*
X155194500Y-87383709D01*
X155194500Y-87383710D01*
X155194500Y-88016293D01*
X155204068Y-88081962D01*
X155204957Y-88088067D01*
X155220129Y-88119103D01*
X155259082Y-88198782D01*
X155346217Y-88285917D01*
X155346218Y-88285917D01*
X155346220Y-88285919D01*
X155456933Y-88340043D01*
X155528705Y-88350500D01*
X155736294Y-88350499D01*
X155808067Y-88340043D01*
X155918780Y-88285919D01*
X156005919Y-88198780D01*
X156053700Y-88101041D01*
X156100825Y-88049461D01*
X156148912Y-88032564D01*
X156207841Y-88024807D01*
X156459024Y-87957503D01*
X156699273Y-87857988D01*
X156924477Y-87727967D01*
X157130783Y-87569662D01*
X157130787Y-87569657D01*
X157130792Y-87569654D01*
X157314654Y-87385792D01*
X157314657Y-87385787D01*
X157314662Y-87385783D01*
X157472967Y-87179477D01*
X157602988Y-86954273D01*
X157702503Y-86714024D01*
X157769807Y-86462841D01*
X157803750Y-86205022D01*
X157803750Y-86081092D01*
X157804347Y-86068938D01*
X157808974Y-86021962D01*
X157817853Y-85931805D01*
X157822592Y-85907981D01*
X157860818Y-85781965D01*
X157870116Y-85759520D01*
X157932188Y-85643391D01*
X157945684Y-85623192D01*
X158029222Y-85521401D01*
X158046401Y-85504222D01*
X158148192Y-85420684D01*
X158168384Y-85407192D01*
X158239668Y-85369090D01*
X158308067Y-85354850D01*
X158373311Y-85379850D01*
X158385798Y-85390769D01*
X158397235Y-85402206D01*
X158500009Y-85447585D01*
X158525135Y-85450500D01*
X158946000Y-85450499D01*
X159013039Y-85470183D01*
X159058794Y-85522987D01*
X159070000Y-85574499D01*
X159070000Y-98575500D01*
X159050315Y-98642539D01*
X158997511Y-98688294D01*
X158961743Y-98696075D01*
X158962044Y-98697974D01*
X158952399Y-98699501D01*
X158917699Y-98710775D01*
X158911482Y-98712617D01*
X158884007Y-98719979D01*
X158876510Y-98723085D01*
X158876390Y-98722796D01*
X158864727Y-98727987D01*
X158861880Y-98728912D01*
X158861873Y-98728915D01*
X158841364Y-98743816D01*
X158830486Y-98750880D01*
X158815491Y-98759538D01*
X158811133Y-98763896D01*
X158796349Y-98776522D01*
X158784866Y-98784866D01*
X158776525Y-98796346D01*
X158763896Y-98811133D01*
X158759538Y-98815491D01*
X158750880Y-98830486D01*
X158743816Y-98841364D01*
X158728915Y-98861873D01*
X158728912Y-98861880D01*
X158727987Y-98864727D01*
X158722796Y-98876390D01*
X158723085Y-98876510D01*
X158719979Y-98884007D01*
X158712617Y-98911482D01*
X158710775Y-98917699D01*
X158699501Y-98952399D01*
X158699500Y-98952408D01*
X158699500Y-101575500D01*
X158679815Y-101642539D01*
X158627011Y-101688294D01*
X158575500Y-101699500D01*
X149449499Y-101699500D01*
X149382460Y-101679815D01*
X149336705Y-101627011D01*
X149325499Y-101575500D01*
X149325499Y-100980143D01*
X149325499Y-100980136D01*
X149325306Y-100978471D01*
X149322586Y-100955012D01*
X149322585Y-100955010D01*
X149322585Y-100955009D01*
X149277206Y-100852235D01*
X149197765Y-100772794D01*
X149197763Y-100772793D01*
X149094992Y-100727415D01*
X149069865Y-100724500D01*
X147280143Y-100724500D01*
X147280117Y-100724502D01*
X147255012Y-100727413D01*
X147255008Y-100727415D01*
X147152235Y-100772793D01*
X147072795Y-100852233D01*
X147038433Y-100930054D01*
X146993346Y-100983429D01*
X146926560Y-101003956D01*
X146859278Y-100985117D01*
X146812862Y-100932893D01*
X146811607Y-100930146D01*
X146777206Y-100852235D01*
X146697765Y-100772794D01*
X146697763Y-100772793D01*
X146594992Y-100727415D01*
X146569865Y-100724500D01*
X144780143Y-100724500D01*
X144780117Y-100724502D01*
X144755012Y-100727413D01*
X144755008Y-100727415D01*
X144652235Y-100772793D01*
X144572795Y-100852233D01*
X144538433Y-100930054D01*
X144493346Y-100983429D01*
X144426560Y-101003956D01*
X144359278Y-100985117D01*
X144312862Y-100932893D01*
X144311607Y-100930146D01*
X144277206Y-100852235D01*
X144197765Y-100772794D01*
X144197763Y-100772793D01*
X144094992Y-100727415D01*
X144069865Y-100724500D01*
X142280143Y-100724500D01*
X142280117Y-100724502D01*
X142255012Y-100727413D01*
X142255008Y-100727415D01*
X142152235Y-100772793D01*
X142072794Y-100852234D01*
X142027415Y-100955006D01*
X142027415Y-100955008D01*
X142024500Y-100980131D01*
X142024500Y-101575500D01*
X142004815Y-101642539D01*
X141952011Y-101688294D01*
X141900500Y-101699500D01*
X130424500Y-101699500D01*
X130357461Y-101679815D01*
X130311706Y-101627011D01*
X130300500Y-101575500D01*
X130300500Y-99713399D01*
X136445500Y-99713399D01*
X136445500Y-99926601D01*
X136450723Y-99959575D01*
X136478853Y-100137180D01*
X136478853Y-100137183D01*
X136544734Y-100339944D01*
X136544736Y-100339947D01*
X136641528Y-100529913D01*
X136766846Y-100702397D01*
X136917603Y-100853154D01*
X137090087Y-100978472D01*
X137280053Y-101075264D01*
X137280055Y-101075265D01*
X137469182Y-101136715D01*
X137482821Y-101141147D01*
X137693399Y-101174500D01*
X137693400Y-101174500D01*
X137906600Y-101174500D01*
X137906601Y-101174500D01*
X138117179Y-101141147D01*
X138117182Y-101141146D01*
X138117183Y-101141146D01*
X138319944Y-101075265D01*
X138319944Y-101075264D01*
X138319947Y-101075264D01*
X138509913Y-100978472D01*
X138682397Y-100853154D01*
X138833154Y-100702397D01*
X138958472Y-100529913D01*
X139055264Y-100339947D01*
X139102204Y-100195479D01*
X139121146Y-100137183D01*
X139121146Y-100137182D01*
X139121147Y-100137179D01*
X139154500Y-99926601D01*
X139154500Y-99713399D01*
X139121147Y-99502821D01*
X139121146Y-99502817D01*
X139121146Y-99502816D01*
X139055265Y-99300055D01*
X139055263Y-99300052D01*
X139051732Y-99293121D01*
X138958472Y-99110087D01*
X138833154Y-98937603D01*
X138682397Y-98786846D01*
X138509913Y-98661528D01*
X138319947Y-98564736D01*
X138319944Y-98564734D01*
X138117181Y-98498853D01*
X137976793Y-98476617D01*
X137906601Y-98465500D01*
X137693399Y-98465500D01*
X137623206Y-98476617D01*
X137482819Y-98498853D01*
X137482816Y-98498853D01*
X137280055Y-98564734D01*
X137280052Y-98564736D01*
X137090086Y-98661528D01*
X136917601Y-98786847D01*
X136766847Y-98937601D01*
X136641528Y-99110086D01*
X136544736Y-99300052D01*
X136544734Y-99300055D01*
X136478853Y-99502816D01*
X136478853Y-99502819D01*
X136450343Y-99682821D01*
X136445500Y-99713399D01*
X130300500Y-99713399D01*
X130300500Y-95501610D01*
X130320185Y-95434571D01*
X130372989Y-95388816D01*
X130442147Y-95378872D01*
X130505703Y-95407897D01*
X130512181Y-95413929D01*
X130859515Y-95761263D01*
X130938737Y-95840485D01*
X131029448Y-95892857D01*
X131035763Y-95896503D01*
X131143981Y-95925500D01*
X131143982Y-95925500D01*
X133772390Y-95925500D01*
X133839429Y-95945185D01*
X133860071Y-95961819D01*
X134201501Y-96303249D01*
X134234986Y-96364572D01*
X134230002Y-96434264D01*
X134188130Y-96490197D01*
X134183902Y-96493226D01*
X134177236Y-96497792D01*
X134097794Y-96577234D01*
X134052415Y-96680006D01*
X134052415Y-96680008D01*
X134049500Y-96705131D01*
X134049500Y-98494856D01*
X134049502Y-98494882D01*
X134052413Y-98519987D01*
X134052415Y-98519991D01*
X134097793Y-98622764D01*
X134097794Y-98622765D01*
X134177235Y-98702206D01*
X134280009Y-98747585D01*
X134305135Y-98750500D01*
X135294864Y-98750499D01*
X135294879Y-98750497D01*
X135294882Y-98750497D01*
X135319987Y-98747586D01*
X135319988Y-98747585D01*
X135319991Y-98747585D01*
X135422765Y-98702206D01*
X135502206Y-98622765D01*
X135547585Y-98519991D01*
X135550500Y-98494865D01*
X135550500Y-98149500D01*
X135570185Y-98082461D01*
X135622989Y-98036706D01*
X135674500Y-98025500D01*
X145306016Y-98025500D01*
X145306018Y-98025500D01*
X145414237Y-97996503D01*
X145511263Y-97940485D01*
X145961056Y-97490689D01*
X145961061Y-97490686D01*
X145971261Y-97480485D01*
X145971263Y-97480485D01*
X146050485Y-97401263D01*
X146106503Y-97304237D01*
X146135500Y-97196018D01*
X146135500Y-95225772D01*
X146155185Y-95158733D01*
X146159730Y-95152138D01*
X146167060Y-95142206D01*
X146243852Y-95038157D01*
X146279996Y-94934864D01*
X146287708Y-94912826D01*
X146287708Y-94912823D01*
X146287710Y-94912819D01*
X146290500Y-94883066D01*
X146290500Y-94436934D01*
X146287710Y-94407181D01*
X146287708Y-94407177D01*
X146287708Y-94407173D01*
X146247751Y-94292987D01*
X146243852Y-94281843D01*
X146189820Y-94208633D01*
X146165850Y-94143005D01*
X146181165Y-94074834D01*
X146189821Y-94061366D01*
X146193178Y-94056818D01*
X146243852Y-93988157D01*
X146286288Y-93866884D01*
X146287708Y-93862826D01*
X146287708Y-93862823D01*
X146287710Y-93862819D01*
X146289260Y-93846289D01*
X146290500Y-93833070D01*
X146290500Y-93677254D01*
X146310185Y-93610215D01*
X146326819Y-93589573D01*
X146429573Y-93486819D01*
X146490896Y-93453334D01*
X146517254Y-93450500D01*
X147682745Y-93450500D01*
X147749784Y-93470185D01*
X147770426Y-93486819D01*
X149663181Y-95379574D01*
X149696666Y-95440897D01*
X149699500Y-95467255D01*
X149699500Y-96979944D01*
X149679815Y-97046983D01*
X149657727Y-97072759D01*
X149609521Y-97115465D01*
X149609515Y-97115472D01*
X149519781Y-97245475D01*
X149519780Y-97245476D01*
X149463762Y-97393181D01*
X149444722Y-97549999D01*
X149444722Y-97550000D01*
X149463762Y-97706818D01*
X149519780Y-97854523D01*
X149520148Y-97855056D01*
X149520297Y-97855507D01*
X149523267Y-97861167D01*
X149522326Y-97861660D01*
X149542034Y-97921409D01*
X149524571Y-97989062D01*
X149473306Y-98036534D01*
X149418101Y-98049500D01*
X149085252Y-98049500D01*
X149018213Y-98029815D01*
X149011618Y-98025270D01*
X148956417Y-97984530D01*
X148930794Y-97965619D01*
X148930792Y-97965618D01*
X148806880Y-97922258D01*
X148777461Y-97919500D01*
X148302546Y-97919500D01*
X148273125Y-97922258D01*
X148273115Y-97922260D01*
X148149207Y-97965618D01*
X148043576Y-98043576D01*
X147965618Y-98149207D01*
X147922258Y-98273118D01*
X147922258Y-98273120D01*
X147919500Y-98302538D01*
X147919500Y-98677453D01*
X147922258Y-98706874D01*
X147922260Y-98706884D01*
X147962964Y-98823207D01*
X147965619Y-98830794D01*
X147999359Y-98876510D01*
X148025453Y-98911866D01*
X148049424Y-98977495D01*
X148034109Y-99045666D01*
X147984368Y-99094734D01*
X147925683Y-99109500D01*
X146113473Y-99109500D01*
X146046434Y-99089815D01*
X146000679Y-99037011D01*
X145998129Y-99031018D01*
X145953115Y-98916868D01*
X145928196Y-98884007D01*
X145866867Y-98803132D01*
X145753134Y-98716886D01*
X145753132Y-98716885D01*
X145620346Y-98664521D01*
X145620345Y-98664520D01*
X145620343Y-98664520D01*
X145536902Y-98654500D01*
X145018098Y-98654500D01*
X144934656Y-98664520D01*
X144934655Y-98664520D01*
X144801865Y-98716886D01*
X144688132Y-98803132D01*
X144601886Y-98916865D01*
X144549520Y-99049655D01*
X144549520Y-99049656D01*
X144539500Y-99133097D01*
X144539500Y-99726902D01*
X144549520Y-99810343D01*
X144549520Y-99810344D01*
X144549521Y-99810346D01*
X144596779Y-99930185D01*
X144601886Y-99943134D01*
X144688132Y-100056867D01*
X144794045Y-100137183D01*
X144801868Y-100143115D01*
X144934654Y-100195479D01*
X145018098Y-100205500D01*
X145536902Y-100205500D01*
X145620346Y-100195479D01*
X145753132Y-100143115D01*
X145866867Y-100056867D01*
X145883919Y-100034381D01*
X145940646Y-99959575D01*
X145996838Y-99918052D01*
X146039450Y-99910500D01*
X147947086Y-99910500D01*
X148014125Y-99930185D01*
X148036083Y-99950768D01*
X148037003Y-99949849D01*
X148043574Y-99956419D01*
X148043577Y-99956423D01*
X148149206Y-100034381D01*
X148190511Y-100048834D01*
X148273119Y-100077741D01*
X148280796Y-100078460D01*
X148302543Y-100080500D01*
X148777456Y-100080499D01*
X148806879Y-100077741D01*
X148930794Y-100034381D01*
X149036423Y-99956423D01*
X149082937Y-99893399D01*
X153645500Y-99893399D01*
X153645500Y-100106600D01*
X153678853Y-100317180D01*
X153678853Y-100317183D01*
X153744734Y-100519944D01*
X153744736Y-100519947D01*
X153841528Y-100709913D01*
X153966846Y-100882397D01*
X154117603Y-101033154D01*
X154290087Y-101158472D01*
X154480053Y-101255264D01*
X154480055Y-101255265D01*
X154669182Y-101316715D01*
X154682821Y-101321147D01*
X154893399Y-101354500D01*
X154893400Y-101354500D01*
X155106600Y-101354500D01*
X155106601Y-101354500D01*
X155317179Y-101321147D01*
X155317182Y-101321146D01*
X155317183Y-101321146D01*
X155519944Y-101255265D01*
X155519944Y-101255264D01*
X155519947Y-101255264D01*
X155709913Y-101158472D01*
X155882397Y-101033154D01*
X156033154Y-100882397D01*
X156158472Y-100709913D01*
X156255264Y-100519947D01*
X156255265Y-100519944D01*
X156321146Y-100317183D01*
X156321146Y-100317182D01*
X156321147Y-100317179D01*
X156354500Y-100106601D01*
X156354500Y-99893399D01*
X156321147Y-99682821D01*
X156321146Y-99682817D01*
X156321146Y-99682816D01*
X156255265Y-99480055D01*
X156255263Y-99480052D01*
X156175011Y-99322546D01*
X156158472Y-99290087D01*
X156033154Y-99117603D01*
X155882397Y-98966846D01*
X155709913Y-98841528D01*
X155519947Y-98744736D01*
X155519944Y-98744734D01*
X155317181Y-98678853D01*
X155176793Y-98656617D01*
X155106601Y-98645500D01*
X154893399Y-98645500D01*
X154823206Y-98656617D01*
X154682819Y-98678853D01*
X154682816Y-98678853D01*
X154480055Y-98744734D01*
X154480052Y-98744736D01*
X154290086Y-98841528D01*
X154117601Y-98966847D01*
X153966847Y-99117601D01*
X153841528Y-99290086D01*
X153744736Y-99480052D01*
X153744734Y-99480055D01*
X153678853Y-99682816D01*
X153678853Y-99682819D01*
X153645500Y-99893399D01*
X149082937Y-99893399D01*
X149114381Y-99850794D01*
X149136061Y-99788836D01*
X149157741Y-99726881D01*
X149157741Y-99726879D01*
X149159005Y-99713399D01*
X149160500Y-99697457D01*
X149160499Y-99322544D01*
X149157741Y-99293121D01*
X149114381Y-99169206D01*
X149114380Y-99169204D01*
X149043845Y-99073632D01*
X149019874Y-99008004D01*
X149035190Y-98939833D01*
X149043842Y-98926369D01*
X149062667Y-98900864D01*
X149118315Y-98858615D01*
X149162435Y-98850500D01*
X150992725Y-98850500D01*
X150992727Y-98850500D01*
X151094588Y-98823207D01*
X151185913Y-98770480D01*
X151368472Y-98587918D01*
X151368475Y-98587917D01*
X151385912Y-98570480D01*
X151385913Y-98570480D01*
X151460480Y-98495913D01*
X151513207Y-98404587D01*
X151517485Y-98388621D01*
X151540501Y-98302727D01*
X151540501Y-98197273D01*
X151540501Y-98189678D01*
X151540500Y-98189660D01*
X151540500Y-97567255D01*
X151560185Y-97500216D01*
X151576819Y-97479574D01*
X151810918Y-97245475D01*
X152070480Y-96985913D01*
X152123207Y-96894588D01*
X152150500Y-96792727D01*
X152150500Y-96687273D01*
X152150500Y-95091255D01*
X152170185Y-95024216D01*
X152222989Y-94978461D01*
X152292147Y-94968517D01*
X152355703Y-94997542D01*
X152362181Y-95003574D01*
X153563181Y-96204574D01*
X153596666Y-96265897D01*
X153599500Y-96292255D01*
X153599500Y-96347273D01*
X153599500Y-96452727D01*
X153611575Y-96497792D01*
X153626793Y-96554589D01*
X153638062Y-96574107D01*
X153679520Y-96645913D01*
X153817019Y-96783412D01*
X153817020Y-96783413D01*
X153891587Y-96857980D01*
X153982913Y-96910707D01*
X154084773Y-96938000D01*
X154190227Y-96938000D01*
X154322863Y-96938000D01*
X154389902Y-96957685D01*
X154431930Y-97006188D01*
X154432729Y-97005740D01*
X154434922Y-97009641D01*
X154435657Y-97010489D01*
X154436456Y-97012370D01*
X154436886Y-97013134D01*
X154523132Y-97126867D01*
X154614322Y-97196018D01*
X154636868Y-97213115D01*
X154769654Y-97265479D01*
X154853098Y-97275500D01*
X155446902Y-97275500D01*
X155530346Y-97265479D01*
X155663132Y-97213115D01*
X155776867Y-97126867D01*
X155863115Y-97013132D01*
X155915479Y-96880346D01*
X155925500Y-96796902D01*
X155925500Y-96278098D01*
X155915479Y-96194654D01*
X155863115Y-96061868D01*
X155863113Y-96061865D01*
X155776867Y-95948132D01*
X155663134Y-95861886D01*
X155656378Y-95858088D01*
X155607589Y-95808075D01*
X155593583Y-95739624D01*
X155618808Y-95674466D01*
X155656378Y-95641912D01*
X155663126Y-95638117D01*
X155663132Y-95638115D01*
X155776867Y-95551867D01*
X155863115Y-95438132D01*
X155915479Y-95305346D01*
X155925500Y-95221902D01*
X155925500Y-94703098D01*
X155915479Y-94619654D01*
X155863115Y-94486868D01*
X155827031Y-94439284D01*
X155776867Y-94373132D01*
X155663884Y-94287455D01*
X155622360Y-94231263D01*
X155617809Y-94161541D01*
X155628063Y-94135263D01*
X155627751Y-94135134D01*
X155658306Y-94061366D01*
X155686330Y-93993709D01*
X155705250Y-93850000D01*
X155686330Y-93706291D01*
X155637985Y-93589573D01*
X155630862Y-93572377D01*
X155630861Y-93572376D01*
X155630861Y-93572375D01*
X155542621Y-93457379D01*
X155427625Y-93369139D01*
X155427624Y-93369138D01*
X155427622Y-93369137D01*
X155293712Y-93313671D01*
X155293710Y-93313670D01*
X155293709Y-93313670D01*
X155238124Y-93306351D01*
X155201965Y-93301591D01*
X155154021Y-93281730D01*
X155152951Y-93283584D01*
X155145914Y-93279521D01*
X155145913Y-93279520D01*
X155104029Y-93255338D01*
X155054589Y-93226793D01*
X155001976Y-93212696D01*
X154952727Y-93199500D01*
X154952726Y-93199500D01*
X154839816Y-93199500D01*
X154772777Y-93179815D01*
X154740046Y-93149134D01*
X154706425Y-93103580D01*
X154706423Y-93103577D01*
X154600794Y-93025619D01*
X154600792Y-93025618D01*
X154476880Y-92982258D01*
X154447461Y-92979500D01*
X154121125Y-92979500D01*
X154060517Y-92961703D01*
X154016593Y-92991541D01*
X153919207Y-93025618D01*
X153813576Y-93103576D01*
X153735618Y-93209207D01*
X153692258Y-93333118D01*
X153692258Y-93333120D01*
X153689500Y-93362538D01*
X153689500Y-93837453D01*
X153692258Y-93866874D01*
X153692260Y-93866884D01*
X153734696Y-93988157D01*
X153735619Y-93990794D01*
X153737773Y-93993712D01*
X153813576Y-94096423D01*
X153852029Y-94124802D01*
X153919206Y-94174381D01*
X153960511Y-94188834D01*
X154043119Y-94217741D01*
X154050796Y-94218460D01*
X154072543Y-94220500D01*
X154389224Y-94220499D01*
X154456263Y-94240183D01*
X154502018Y-94292987D01*
X154511962Y-94362146D01*
X154488029Y-94419423D01*
X154436886Y-94486866D01*
X154384520Y-94619655D01*
X154384520Y-94619656D01*
X154374500Y-94703097D01*
X154374500Y-95221902D01*
X154384520Y-95305343D01*
X154384520Y-95305344D01*
X154436886Y-95438134D01*
X154523132Y-95551867D01*
X154636868Y-95638115D01*
X154643624Y-95641914D01*
X154692412Y-95691928D01*
X154706416Y-95760380D01*
X154681188Y-95825537D01*
X154643624Y-95858086D01*
X154636868Y-95861884D01*
X154542009Y-95933818D01*
X154476697Y-95958641D01*
X154408334Y-95944213D01*
X154359698Y-95897015D01*
X154320480Y-95829087D01*
X154245913Y-95754520D01*
X152899566Y-94408173D01*
X152866081Y-94346850D01*
X152871065Y-94277158D01*
X152911763Y-94222115D01*
X152917621Y-94217621D01*
X153005861Y-94102625D01*
X153061330Y-93968709D01*
X153080250Y-93825000D01*
X153061330Y-93681291D01*
X153005861Y-93547375D01*
X152917621Y-93432379D01*
X152802625Y-93344139D01*
X152802624Y-93344138D01*
X152802622Y-93344137D01*
X152668712Y-93288671D01*
X152668710Y-93288670D01*
X152668709Y-93288670D01*
X152596854Y-93279210D01*
X152525001Y-93269750D01*
X152524999Y-93269750D01*
X152476489Y-93276136D01*
X152420682Y-93283483D01*
X152351648Y-93272719D01*
X152316816Y-93248226D01*
X151805771Y-92737181D01*
X151772286Y-92675858D01*
X151777270Y-92606166D01*
X151819142Y-92550233D01*
X151884606Y-92525816D01*
X151893452Y-92525500D01*
X153402298Y-92525500D01*
X153469337Y-92545185D01*
X153484517Y-92556678D01*
X153540378Y-92606166D01*
X153577762Y-92639285D01*
X153717634Y-92712696D01*
X153871014Y-92750500D01*
X153975638Y-92750500D01*
X154036591Y-92768397D01*
X154086190Y-92736523D01*
X154091427Y-92735109D01*
X154182365Y-92712696D01*
X154322240Y-92639283D01*
X154440483Y-92534530D01*
X154530220Y-92404523D01*
X154586237Y-92256818D01*
X154605278Y-92100000D01*
X154603737Y-92087304D01*
X154586237Y-91943181D01*
X154530972Y-91797461D01*
X154530220Y-91795477D01*
X154440483Y-91665470D01*
X154322240Y-91560717D01*
X154322238Y-91560716D01*
X154322237Y-91560715D01*
X154182365Y-91487303D01*
X154028986Y-91449500D01*
X154028985Y-91449500D01*
X153871015Y-91449500D01*
X153871014Y-91449500D01*
X153717634Y-91487303D01*
X153577762Y-91560714D01*
X153530281Y-91602779D01*
X153484522Y-91643317D01*
X153421292Y-91673037D01*
X153402298Y-91674500D01*
X151327609Y-91674500D01*
X151260570Y-91654815D01*
X151239928Y-91638181D01*
X150061819Y-90460071D01*
X150028334Y-90398748D01*
X150025500Y-90372390D01*
X150025500Y-89043984D01*
X150025500Y-89043982D01*
X149996503Y-88935763D01*
X149940485Y-88838737D01*
X149861263Y-88759515D01*
X149836319Y-88734571D01*
X149802834Y-88673248D01*
X149800000Y-88646890D01*
X149800000Y-88368326D01*
X149819685Y-88301287D01*
X149872489Y-88255532D01*
X149941647Y-88245588D01*
X149964956Y-88251285D01*
X150010181Y-88267110D01*
X150025057Y-88268505D01*
X150039930Y-88269900D01*
X150039934Y-88269900D01*
X150486070Y-88269900D01*
X150499289Y-88268660D01*
X150515819Y-88267110D01*
X150515823Y-88267108D01*
X150515826Y-88267108D01*
X150564836Y-88249957D01*
X150641157Y-88223252D01*
X150693333Y-88184743D01*
X150758962Y-88160773D01*
X150827132Y-88176088D01*
X150840594Y-88184740D01*
X150918799Y-88242457D01*
X151046271Y-88287062D01*
X151076537Y-88289900D01*
X151479462Y-88289899D01*
X151509729Y-88287062D01*
X151637201Y-88242457D01*
X151689367Y-88203956D01*
X151754995Y-88179986D01*
X151823165Y-88195301D01*
X151836626Y-88203952D01*
X151888799Y-88242457D01*
X152016271Y-88287062D01*
X152046537Y-88289900D01*
X152449462Y-88289899D01*
X152479729Y-88287062D01*
X152607201Y-88242457D01*
X152685400Y-88184743D01*
X152751028Y-88160773D01*
X152819199Y-88176088D01*
X152832663Y-88184741D01*
X152884843Y-88223252D01*
X152923003Y-88236604D01*
X153010173Y-88267108D01*
X153010177Y-88267108D01*
X153010181Y-88267110D01*
X153025057Y-88268505D01*
X153039930Y-88269900D01*
X153039934Y-88269900D01*
X153486070Y-88269900D01*
X153499289Y-88268660D01*
X153515819Y-88267110D01*
X153515823Y-88267108D01*
X153515826Y-88267108D01*
X153641157Y-88223252D01*
X153641158Y-88223251D01*
X153747993Y-88144404D01*
X153747994Y-88144402D01*
X153747999Y-88144399D01*
X153767101Y-88118515D01*
X153822748Y-88076266D01*
X153866871Y-88068150D01*
X153892815Y-88068150D01*
X153959854Y-88087835D01*
X154004215Y-88137689D01*
X154034081Y-88198781D01*
X154121217Y-88285917D01*
X154121218Y-88285917D01*
X154121220Y-88285919D01*
X154231933Y-88340043D01*
X154303705Y-88350500D01*
X154511294Y-88350499D01*
X154583067Y-88340043D01*
X154693780Y-88285919D01*
X154780919Y-88198780D01*
X154835043Y-88088067D01*
X154845500Y-88016295D01*
X154845499Y-87383706D01*
X154835043Y-87311933D01*
X154780919Y-87201220D01*
X154780917Y-87201218D01*
X154780917Y-87201217D01*
X154693782Y-87114082D01*
X154583068Y-87059957D01*
X154572813Y-87058463D01*
X154511295Y-87049500D01*
X154511289Y-87049500D01*
X154303706Y-87049500D01*
X154231932Y-87059957D01*
X154121217Y-87114082D01*
X154034081Y-87201218D01*
X154014579Y-87241111D01*
X153967451Y-87292693D01*
X153903179Y-87310650D01*
X153866871Y-87310650D01*
X153799832Y-87290965D01*
X153767101Y-87260284D01*
X153766729Y-87259780D01*
X153747999Y-87234401D01*
X153747996Y-87234399D01*
X153747993Y-87234395D01*
X153641158Y-87155548D01*
X153641157Y-87155547D01*
X153515826Y-87111691D01*
X153515814Y-87111689D01*
X153486070Y-87108900D01*
X153486066Y-87108900D01*
X153039934Y-87108900D01*
X153039930Y-87108900D01*
X153010185Y-87111689D01*
X153010173Y-87111691D01*
X152884844Y-87155547D01*
X152859764Y-87174057D01*
X152794134Y-87198027D01*
X152725964Y-87182709D01*
X152712499Y-87174056D01*
X152607200Y-87096342D01*
X152479733Y-87051739D01*
X152479724Y-87051737D01*
X152449467Y-87048900D01*
X152046539Y-87048900D01*
X152016275Y-87051737D01*
X152016266Y-87051739D01*
X151888800Y-87096342D01*
X151836633Y-87134843D01*
X151771004Y-87158813D01*
X151702834Y-87143497D01*
X151689367Y-87134843D01*
X151637200Y-87096342D01*
X151509733Y-87051739D01*
X151509724Y-87051737D01*
X151479467Y-87048900D01*
X151076539Y-87048900D01*
X151046275Y-87051737D01*
X151046266Y-87051739D01*
X150918800Y-87096342D01*
X150813500Y-87174056D01*
X150747871Y-87198026D01*
X150679700Y-87182710D01*
X150666234Y-87174055D01*
X150641158Y-87155548D01*
X150641157Y-87155547D01*
X150515826Y-87111691D01*
X150515814Y-87111689D01*
X150486070Y-87108900D01*
X150486066Y-87108900D01*
X150039934Y-87108900D01*
X150039930Y-87108900D01*
X150010185Y-87111689D01*
X150010177Y-87111690D01*
X149964954Y-87127515D01*
X149895175Y-87131076D01*
X149834548Y-87096347D01*
X149802321Y-87034353D01*
X149800000Y-87010473D01*
X149800000Y-87000000D01*
X149170123Y-87000000D01*
X149130906Y-86993635D01*
X149116646Y-86988881D01*
X149059273Y-86949005D01*
X149032567Y-86884440D01*
X149045006Y-86815687D01*
X149068176Y-86783571D01*
X149198503Y-86653245D01*
X149253161Y-86558572D01*
X149286890Y-86520822D01*
X149290192Y-86518384D01*
X149355812Y-86494399D01*
X149423986Y-86509698D01*
X149437474Y-86518363D01*
X149491521Y-86558252D01*
X149529681Y-86571604D01*
X149616851Y-86602108D01*
X149616855Y-86602108D01*
X149616859Y-86602110D01*
X149631735Y-86603505D01*
X149646608Y-86604900D01*
X149646612Y-86604900D01*
X150092748Y-86604900D01*
X150105967Y-86603660D01*
X150122497Y-86602110D01*
X150122501Y-86602108D01*
X150122504Y-86602108D01*
X150247835Y-86558252D01*
X150247836Y-86558251D01*
X150250590Y-86556219D01*
X150270025Y-86541875D01*
X150361818Y-86474130D01*
X150427447Y-86450159D01*
X150435451Y-86449900D01*
X150631616Y-86449900D01*
X150631618Y-86449900D01*
X150739837Y-86420903D01*
X150836863Y-86364885D01*
X152064929Y-85136819D01*
X152126252Y-85103334D01*
X152152610Y-85100500D01*
X152228985Y-85100500D01*
X152382365Y-85062696D01*
X152522240Y-84989283D01*
X152640483Y-84884530D01*
X152730220Y-84754523D01*
X152786237Y-84606818D01*
X152805278Y-84450000D01*
X152804545Y-84443959D01*
X152786237Y-84293181D01*
X152759906Y-84223752D01*
X152730220Y-84145477D01*
X152640483Y-84015470D01*
X152522240Y-83910717D01*
X152522238Y-83910716D01*
X152522237Y-83910715D01*
X152382365Y-83837303D01*
X152228986Y-83799500D01*
X152228985Y-83799500D01*
X152071015Y-83799500D01*
X152071014Y-83799500D01*
X151917634Y-83837303D01*
X151777762Y-83910715D01*
X151727914Y-83954876D01*
X151672678Y-84003811D01*
X151659516Y-84015471D01*
X151569781Y-84145475D01*
X151569780Y-84145476D01*
X151513762Y-84293181D01*
X151494722Y-84449999D01*
X151494722Y-84452167D01*
X151494273Y-84453694D01*
X151493818Y-84457445D01*
X151493194Y-84457369D01*
X151475037Y-84519206D01*
X151458403Y-84539848D01*
X150472809Y-85525442D01*
X150411486Y-85558927D01*
X150341794Y-85553943D01*
X150311496Y-85537532D01*
X150247835Y-85490548D01*
X150247833Y-85490547D01*
X150122504Y-85446691D01*
X150122492Y-85446689D01*
X150092748Y-85443900D01*
X150092744Y-85443900D01*
X149646612Y-85443900D01*
X149646608Y-85443900D01*
X149616863Y-85446689D01*
X149616851Y-85446691D01*
X149491522Y-85490547D01*
X149437481Y-85530431D01*
X149371852Y-85554401D01*
X149303681Y-85539085D01*
X149290215Y-85530431D01*
X149254697Y-85504218D01*
X149236175Y-85490548D01*
X149236173Y-85490547D01*
X149110844Y-85446691D01*
X149110832Y-85446689D01*
X149081088Y-85443900D01*
X149081084Y-85443900D01*
X148634952Y-85443900D01*
X148634948Y-85443900D01*
X148605203Y-85446689D01*
X148605191Y-85446691D01*
X148479862Y-85490547D01*
X148373019Y-85569401D01*
X148294165Y-85676244D01*
X148282195Y-85710450D01*
X148241472Y-85767225D01*
X148176519Y-85792970D01*
X148110690Y-85780890D01*
X148095035Y-85773236D01*
X148043455Y-85726107D01*
X148025500Y-85661838D01*
X148025500Y-85152610D01*
X148045185Y-85085571D01*
X148061819Y-85064929D01*
X148439929Y-84686819D01*
X148501252Y-84653334D01*
X148527610Y-84650500D01*
X149806016Y-84650500D01*
X149806018Y-84650500D01*
X149914237Y-84621503D01*
X150011263Y-84565485D01*
X150490484Y-84086264D01*
X150492449Y-84082862D01*
X150546503Y-83989237D01*
X150550532Y-83974201D01*
X150555711Y-83954876D01*
X150565657Y-83917755D01*
X150575500Y-83881019D01*
X150575500Y-83848027D01*
X150595185Y-83780988D01*
X150647989Y-83735233D01*
X150649279Y-83734652D01*
X150722765Y-83702206D01*
X150802206Y-83622765D01*
X150847585Y-83519991D01*
X150850500Y-83494865D01*
X150850499Y-82505136D01*
X150850178Y-82502364D01*
X150847586Y-82480012D01*
X150847585Y-82480010D01*
X150847585Y-82480009D01*
X150802206Y-82377235D01*
X150722765Y-82297794D01*
X150619992Y-82252415D01*
X150594868Y-82249500D01*
X149871777Y-82249500D01*
X149804738Y-82229815D01*
X149758983Y-82177011D01*
X149748604Y-82111204D01*
X149750499Y-82094873D01*
X149750500Y-82094865D01*
X149750499Y-81105136D01*
X149749307Y-81094858D01*
X149747586Y-81080012D01*
X149747585Y-81080010D01*
X149747585Y-81080009D01*
X149702206Y-80977235D01*
X149622765Y-80897794D01*
X149603415Y-80889250D01*
X149519992Y-80852415D01*
X149494865Y-80849500D01*
X148605143Y-80849500D01*
X148605117Y-80849502D01*
X148580012Y-80852413D01*
X148580008Y-80852415D01*
X148477235Y-80897793D01*
X148397794Y-80977234D01*
X148352415Y-81080006D01*
X148351587Y-81083053D01*
X148349754Y-81086032D01*
X148348647Y-81088542D01*
X148348305Y-81088391D01*
X148314993Y-81142573D01*
X148252030Y-81172861D01*
X148231936Y-81174500D01*
X148043982Y-81174500D01*
X147935763Y-81203497D01*
X147935760Y-81203498D01*
X147838740Y-81259513D01*
X147838734Y-81259517D01*
X147684517Y-81413734D01*
X147684513Y-81413740D01*
X147628498Y-81510760D01*
X147628497Y-81510763D01*
X147599500Y-81618982D01*
X147599500Y-83347389D01*
X147579815Y-83414428D01*
X147563181Y-83435070D01*
X146621295Y-84376955D01*
X146621296Y-84376956D01*
X146559514Y-84438738D01*
X146559513Y-84438740D01*
X146503498Y-84535760D01*
X146503497Y-84535763D01*
X146480524Y-84621502D01*
X146472397Y-84651832D01*
X146470536Y-84651333D01*
X146446528Y-84705591D01*
X146388200Y-84744056D01*
X146351865Y-84749500D01*
X146303050Y-84749500D01*
X146232492Y-84759779D01*
X146232491Y-84759779D01*
X146204457Y-84773484D01*
X146135584Y-84785241D01*
X146095543Y-84773484D01*
X146067511Y-84759781D01*
X146067509Y-84759780D01*
X146063013Y-84759125D01*
X145996949Y-84749500D01*
X145996943Y-84749500D01*
X145803049Y-84749500D01*
X145732492Y-84759779D01*
X145732491Y-84759779D01*
X145704457Y-84773484D01*
X145635584Y-84785241D01*
X145595543Y-84773484D01*
X145567511Y-84759781D01*
X145567509Y-84759780D01*
X145563013Y-84759125D01*
X145496949Y-84749500D01*
X145496943Y-84749500D01*
X145303049Y-84749500D01*
X145232492Y-84759779D01*
X145232491Y-84759779D01*
X145204457Y-84773484D01*
X145135584Y-84785241D01*
X145095543Y-84773484D01*
X145067511Y-84759781D01*
X145067509Y-84759780D01*
X145067507Y-84759779D01*
X145067503Y-84759778D01*
X145063016Y-84759125D01*
X144999515Y-84729981D01*
X144961851Y-84671132D01*
X144961983Y-84601262D01*
X144986746Y-84555723D01*
X144989183Y-84552880D01*
X145041144Y-84492259D01*
X145075038Y-84443962D01*
X145098527Y-84402476D01*
X145122504Y-84348564D01*
X145208460Y-84090697D01*
X145220192Y-84043023D01*
X145226555Y-84003811D01*
X145226964Y-83998748D01*
X145230500Y-83954874D01*
X145230500Y-83265324D01*
X145230815Y-83256490D01*
X145231806Y-83242621D01*
X145249019Y-83001609D01*
X145260506Y-82957647D01*
X145397536Y-82666459D01*
X145419271Y-82634452D01*
X145425470Y-82627841D01*
X145430567Y-82622404D01*
X145430566Y-82622403D01*
X145464885Y-82585800D01*
X145464893Y-82585787D01*
X145737278Y-82295243D01*
X145743600Y-82288970D01*
X146018908Y-82034840D01*
X146042778Y-82010182D01*
X146060970Y-81989144D01*
X146060971Y-81989143D01*
X146066541Y-81982515D01*
X146066544Y-81982510D01*
X146066546Y-81982508D01*
X146120353Y-81883971D01*
X146142000Y-81817540D01*
X146156900Y-81731871D01*
X146179985Y-80947001D01*
X146179254Y-80915066D01*
X146177308Y-80889238D01*
X146173243Y-80857541D01*
X146081975Y-80355569D01*
X146081620Y-80354500D01*
X146055025Y-80274348D01*
X146054180Y-80272647D01*
X146024431Y-80212737D01*
X145976011Y-80142177D01*
X145880147Y-80037598D01*
X145812332Y-79963617D01*
X145812324Y-79963609D01*
X145778328Y-79926523D01*
X145760346Y-79906906D01*
X145735957Y-79883112D01*
X145715147Y-79864961D01*
X145708719Y-79859509D01*
X145610455Y-79805205D01*
X145544134Y-79783222D01*
X145544133Y-79783221D01*
X145458538Y-79767887D01*
X144799958Y-79745178D01*
X144799955Y-79745178D01*
X144799954Y-79745178D01*
X144796630Y-79745256D01*
X144764573Y-79746009D01*
X144736017Y-79748340D01*
X144735996Y-79748342D01*
X144735991Y-79748343D01*
X144728414Y-79749406D01*
X144700942Y-79753261D01*
X144393864Y-79814676D01*
X144355274Y-79825060D01*
X144355256Y-79825065D01*
X144324659Y-79835488D01*
X144311202Y-79840427D01*
X144216074Y-79900064D01*
X144164722Y-79947405D01*
X144164712Y-79947416D01*
X144164709Y-79947419D01*
X144164706Y-79947423D01*
X144109814Y-80014856D01*
X144109807Y-80014866D01*
X144003514Y-80192022D01*
X144003513Y-80192025D01*
X143973846Y-80258202D01*
X143973838Y-80258224D01*
X143956428Y-80314024D01*
X143956426Y-80314032D01*
X143943197Y-80385343D01*
X143909650Y-80905331D01*
X143895390Y-81126360D01*
X143894914Y-81136184D01*
X143894657Y-81144170D01*
X143894500Y-81153999D01*
X143894500Y-82001211D01*
X143893742Y-82014905D01*
X143857908Y-82337401D01*
X143837840Y-82392490D01*
X143737673Y-82542741D01*
X143684108Y-82587602D01*
X143614792Y-82596382D01*
X143551733Y-82566293D01*
X143514952Y-82506889D01*
X143510499Y-82473958D01*
X143510499Y-82443539D01*
X143509405Y-82431865D01*
X143507662Y-82413271D01*
X143463057Y-82285799D01*
X143463055Y-82285796D01*
X143458715Y-82277583D01*
X143460546Y-82276615D01*
X143440758Y-82222434D01*
X143440500Y-82214432D01*
X143440500Y-82039596D01*
X143460185Y-81972557D01*
X143476819Y-81951915D01*
X143476862Y-81951871D01*
X143476862Y-81951870D01*
X143476867Y-81951867D01*
X143563115Y-81838132D01*
X143615479Y-81705346D01*
X143625500Y-81621902D01*
X143625500Y-80778098D01*
X143615479Y-80694654D01*
X143563115Y-80561868D01*
X143563113Y-80561865D01*
X143476867Y-80448132D01*
X143363134Y-80361886D01*
X143363132Y-80361885D01*
X143230346Y-80309521D01*
X143230345Y-80309520D01*
X143230343Y-80309520D01*
X143146902Y-80299500D01*
X142628098Y-80299500D01*
X142544656Y-80309520D01*
X142544655Y-80309520D01*
X142411865Y-80361886D01*
X142298132Y-80448132D01*
X142211886Y-80561865D01*
X142159520Y-80694655D01*
X142159520Y-80694656D01*
X142149500Y-80778097D01*
X142149500Y-81621902D01*
X142159520Y-81705343D01*
X142159520Y-81705344D01*
X142211886Y-81838134D01*
X142298132Y-81951866D01*
X142303177Y-81956911D01*
X142336665Y-82018232D01*
X142339500Y-82044596D01*
X142339500Y-82214432D01*
X142321000Y-82277432D01*
X142321285Y-82277583D01*
X142320546Y-82278980D01*
X142319815Y-82281471D01*
X142317304Y-82285113D01*
X142316943Y-82285796D01*
X142272339Y-82413266D01*
X142272337Y-82413275D01*
X142269500Y-82443532D01*
X142269500Y-82846460D01*
X142272337Y-82876724D01*
X142272339Y-82876733D01*
X142316942Y-83004199D01*
X142355443Y-83056367D01*
X142379413Y-83121996D01*
X142364097Y-83190166D01*
X142355443Y-83203633D01*
X142316943Y-83255798D01*
X142301921Y-83298728D01*
X142261197Y-83355503D01*
X142196244Y-83381248D01*
X142127683Y-83367790D01*
X142097199Y-83345451D01*
X141607066Y-82855318D01*
X141577706Y-82808594D01*
X141543852Y-82711843D01*
X141505251Y-82659541D01*
X141481281Y-82593913D01*
X141496597Y-82525742D01*
X141530094Y-82487106D01*
X141625078Y-82415078D01*
X141712364Y-82299975D01*
X141765359Y-82165590D01*
X141775500Y-82081144D01*
X141775500Y-81498856D01*
X141765359Y-81414410D01*
X141712364Y-81280025D01*
X141712363Y-81280024D01*
X141712363Y-81280023D01*
X141625079Y-81164923D01*
X141603882Y-81148849D01*
X141524573Y-81088706D01*
X141483051Y-81032514D01*
X141475500Y-80989903D01*
X141475500Y-80694877D01*
X141495185Y-80627838D01*
X141497450Y-80624437D01*
X141516367Y-80597030D01*
X141580220Y-80504523D01*
X141636237Y-80356818D01*
X141655278Y-80200000D01*
X141647125Y-80132849D01*
X141636237Y-80043181D01*
X141599919Y-79947419D01*
X141580220Y-79895477D01*
X141490483Y-79765470D01*
X141372240Y-79660717D01*
X141372238Y-79660716D01*
X141372237Y-79660715D01*
X141232365Y-79587303D01*
X141078986Y-79549500D01*
X141078985Y-79549500D01*
X140921015Y-79549500D01*
X140921014Y-79549500D01*
X140767634Y-79587303D01*
X140627762Y-79660715D01*
X140509516Y-79765471D01*
X140419781Y-79895475D01*
X140419780Y-79895476D01*
X140363762Y-80043181D01*
X140344722Y-80199999D01*
X140344722Y-80200000D01*
X140363762Y-80356818D01*
X140398394Y-80448133D01*
X140419780Y-80504523D01*
X140458547Y-80560687D01*
X140502550Y-80624437D01*
X140524433Y-80690792D01*
X140524500Y-80694877D01*
X140524500Y-81027819D01*
X140504815Y-81094858D01*
X140475426Y-81126622D01*
X140424922Y-81164920D01*
X140337636Y-81280023D01*
X140284640Y-81414411D01*
X140282749Y-81430164D01*
X140274500Y-81498856D01*
X140274500Y-82081144D01*
X140276148Y-82094865D01*
X140284640Y-82165588D01*
X140337636Y-82299976D01*
X140424921Y-82415078D01*
X140500667Y-82472518D01*
X140542191Y-82528711D01*
X140546742Y-82598432D01*
X140525513Y-82644955D01*
X140476147Y-82711844D01*
X140432291Y-82837173D01*
X140432289Y-82837185D01*
X140429500Y-82866929D01*
X140429500Y-83313070D01*
X140432289Y-83342814D01*
X140432291Y-83342826D01*
X140464570Y-83435070D01*
X140476148Y-83468157D01*
X140555001Y-83574999D01*
X140562661Y-83580652D01*
X140604912Y-83636300D01*
X140610370Y-83705956D01*
X140588797Y-83754056D01*
X140546147Y-83811844D01*
X140502291Y-83937173D01*
X140502289Y-83937185D01*
X140499500Y-83966929D01*
X140499500Y-83966934D01*
X140499500Y-84413066D01*
X140501908Y-84438740D01*
X140501925Y-84438924D01*
X140488584Y-84507509D01*
X140440282Y-84557993D01*
X140378466Y-84574500D01*
X139377610Y-84574500D01*
X139310571Y-84554815D01*
X139289929Y-84538181D01*
X138811819Y-84060071D01*
X138778334Y-83998748D01*
X138775500Y-83972390D01*
X138775500Y-80947907D01*
X138795185Y-80880868D01*
X138817270Y-80855094D01*
X138840483Y-80834530D01*
X138930220Y-80704523D01*
X138986237Y-80556818D01*
X139005278Y-80400000D01*
X138995704Y-80321146D01*
X138986237Y-80243181D01*
X138960194Y-80174512D01*
X138930220Y-80095477D01*
X138840483Y-79965470D01*
X138722240Y-79860717D01*
X138722238Y-79860716D01*
X138722237Y-79860715D01*
X138722233Y-79860712D01*
X138707389Y-79852922D01*
X138662928Y-79813515D01*
X138662578Y-79813008D01*
X138662574Y-79812999D01*
X138613215Y-79741416D01*
X137828799Y-78893399D01*
X153645500Y-78893399D01*
X153645500Y-79106600D01*
X153678853Y-79317180D01*
X153678853Y-79317183D01*
X153744734Y-79519944D01*
X153744736Y-79519947D01*
X153841528Y-79709913D01*
X153966846Y-79882397D01*
X154117603Y-80033154D01*
X154290087Y-80158472D01*
X154480053Y-80255264D01*
X154480055Y-80255265D01*
X154647040Y-80309521D01*
X154682821Y-80321147D01*
X154893399Y-80354500D01*
X154893400Y-80354500D01*
X155106600Y-80354500D01*
X155106601Y-80354500D01*
X155317179Y-80321147D01*
X155317182Y-80321146D01*
X155317183Y-80321146D01*
X155519944Y-80255265D01*
X155519944Y-80255264D01*
X155519947Y-80255264D01*
X155709913Y-80158472D01*
X155882397Y-80033154D01*
X156033154Y-79882397D01*
X156158472Y-79709913D01*
X156255264Y-79519947D01*
X156321147Y-79317179D01*
X156354500Y-79106601D01*
X156354500Y-78893399D01*
X156321147Y-78682821D01*
X156321146Y-78682817D01*
X156321146Y-78682816D01*
X156255265Y-78480055D01*
X156255263Y-78480052D01*
X156158471Y-78290086D01*
X156147873Y-78275499D01*
X156033154Y-78117603D01*
X155882397Y-77966846D01*
X155709913Y-77841528D01*
X155519947Y-77744736D01*
X155519944Y-77744734D01*
X155317181Y-77678853D01*
X155176793Y-77656617D01*
X155106601Y-77645500D01*
X154893399Y-77645500D01*
X154823206Y-77656617D01*
X154682819Y-77678853D01*
X154682816Y-77678853D01*
X154480055Y-77744734D01*
X154480052Y-77744736D01*
X154290086Y-77841528D01*
X154117601Y-77966847D01*
X153966847Y-78117601D01*
X153841528Y-78290086D01*
X153744736Y-78480052D01*
X153744734Y-78480055D01*
X153678853Y-78682816D01*
X153678853Y-78682819D01*
X153645500Y-78893399D01*
X137828799Y-78893399D01*
X137643017Y-78692553D01*
X137449828Y-78483700D01*
X137418755Y-78421120D01*
X137426449Y-78351675D01*
X137470467Y-78297414D01*
X137536832Y-78275564D01*
X137540856Y-78275499D01*
X137994856Y-78275499D01*
X137994864Y-78275499D01*
X137994879Y-78275497D01*
X137994882Y-78275497D01*
X138019987Y-78272586D01*
X138019988Y-78272585D01*
X138019991Y-78272585D01*
X138122765Y-78227206D01*
X138202206Y-78147765D01*
X138236566Y-78069947D01*
X138281651Y-78016571D01*
X138348438Y-77996043D01*
X138415720Y-78014881D01*
X138462136Y-78067104D01*
X138463434Y-78069947D01*
X138497793Y-78147764D01*
X138497794Y-78147765D01*
X138577235Y-78227206D01*
X138680009Y-78272585D01*
X138705135Y-78275500D01*
X140494864Y-78275499D01*
X140494879Y-78275497D01*
X140494882Y-78275497D01*
X140519987Y-78272586D01*
X140519988Y-78272585D01*
X140519991Y-78272585D01*
X140622765Y-78227206D01*
X140702206Y-78147765D01*
X140747585Y-78044991D01*
X140750500Y-78019865D01*
X140750500Y-77424500D01*
X140770185Y-77357461D01*
X140822989Y-77311706D01*
X140874500Y-77300500D01*
X158575500Y-77300500D01*
X158642539Y-77320185D01*
G37*
%TD.AperFunction*%
%TA.AperFunction,Conductor*%
G36*
X133399246Y-82139386D02*
G01*
X133417049Y-82159932D01*
X133426567Y-82173721D01*
X133507728Y-82245624D01*
X133544853Y-82304810D01*
X133549500Y-82338437D01*
X133549500Y-83447273D01*
X133549500Y-83552727D01*
X133555468Y-83574999D01*
X133576793Y-83654589D01*
X133599947Y-83694692D01*
X133629520Y-83745913D01*
X133629522Y-83745915D01*
X134476426Y-84592819D01*
X134509911Y-84654142D01*
X134504927Y-84723834D01*
X134463055Y-84779767D01*
X134397591Y-84804184D01*
X134388745Y-84804500D01*
X132603982Y-84804500D01*
X132495763Y-84833497D01*
X132495760Y-84833498D01*
X132398740Y-84889513D01*
X132398734Y-84889517D01*
X132059517Y-85228734D01*
X132059513Y-85228740D01*
X132003498Y-85325760D01*
X132003497Y-85325763D01*
X131974500Y-85433982D01*
X131974500Y-88443982D01*
X131974500Y-88556018D01*
X131976323Y-88562819D01*
X132003497Y-88664236D01*
X132003498Y-88664239D01*
X132009999Y-88675499D01*
X132059515Y-88761263D01*
X132059517Y-88761265D01*
X132488181Y-89189929D01*
X132521666Y-89251252D01*
X132524500Y-89277607D01*
X132524500Y-89318035D01*
X132524501Y-89318038D01*
X132538889Y-89408888D01*
X132538889Y-89408889D01*
X132538890Y-89408892D01*
X132538891Y-89408893D01*
X132589130Y-89507493D01*
X132594690Y-89518404D01*
X132594692Y-89518407D01*
X132638180Y-89561894D01*
X132671666Y-89623217D01*
X132674500Y-89649576D01*
X132674500Y-90028634D01*
X132654815Y-90095673D01*
X132624136Y-90128402D01*
X132603582Y-90143571D01*
X132603577Y-90143577D01*
X132525618Y-90249207D01*
X132482258Y-90373118D01*
X132482258Y-90373120D01*
X132479500Y-90402538D01*
X132479500Y-90777453D01*
X132482258Y-90806874D01*
X132482260Y-90806884D01*
X132525619Y-90930794D01*
X132525619Y-90930795D01*
X132596154Y-91026367D01*
X132620125Y-91091996D01*
X132604809Y-91160166D01*
X132596154Y-91173633D01*
X132525619Y-91269204D01*
X132525619Y-91269205D01*
X132482258Y-91393118D01*
X132482258Y-91393120D01*
X132479500Y-91422538D01*
X132479500Y-91797453D01*
X132482258Y-91826874D01*
X132482260Y-91826884D01*
X132512009Y-91911900D01*
X132525619Y-91950794D01*
X132592975Y-92042058D01*
X132616946Y-92107686D01*
X132601631Y-92175856D01*
X132595255Y-92186130D01*
X132519783Y-92295470D01*
X132519780Y-92295476D01*
X132463762Y-92443181D01*
X132444722Y-92599999D01*
X132444722Y-92600000D01*
X132463762Y-92756818D01*
X132501688Y-92856818D01*
X132519780Y-92904523D01*
X132609517Y-93034530D01*
X132727760Y-93139283D01*
X132727762Y-93139284D01*
X132867634Y-93212696D01*
X133021014Y-93250500D01*
X133021015Y-93250500D01*
X133178985Y-93250500D01*
X133332365Y-93212696D01*
X133339015Y-93209206D01*
X133472240Y-93139283D01*
X133590483Y-93034530D01*
X133676142Y-92910430D01*
X133730425Y-92866441D01*
X133799873Y-92858781D01*
X133862438Y-92889884D01*
X133894134Y-92936900D01*
X133919780Y-93004523D01*
X134009517Y-93134530D01*
X134127760Y-93239283D01*
X134127762Y-93239284D01*
X134267634Y-93312696D01*
X134421014Y-93350500D01*
X134452613Y-93350500D01*
X134519652Y-93370185D01*
X134565407Y-93422989D01*
X134575351Y-93492147D01*
X134554663Y-93544940D01*
X134519781Y-93595475D01*
X134519780Y-93595476D01*
X134463762Y-93743181D01*
X134444722Y-93899999D01*
X134444722Y-93900000D01*
X134463762Y-94056818D01*
X134508584Y-94175001D01*
X134519780Y-94204523D01*
X134609517Y-94334530D01*
X134727760Y-94439283D01*
X134727762Y-94439284D01*
X134867634Y-94512696D01*
X135021014Y-94550500D01*
X135021015Y-94550500D01*
X135178985Y-94550500D01*
X135332365Y-94512696D01*
X135367076Y-94494478D01*
X135472240Y-94439283D01*
X135494658Y-94419423D01*
X135509038Y-94406684D01*
X135572271Y-94376963D01*
X135591264Y-94375500D01*
X136911108Y-94375500D01*
X136978147Y-94395185D01*
X137009911Y-94424573D01*
X137021066Y-94439283D01*
X137062923Y-94494479D01*
X137178023Y-94581763D01*
X137178024Y-94581763D01*
X137178025Y-94581764D01*
X137312410Y-94634759D01*
X137396856Y-94644900D01*
X137396862Y-94644900D01*
X137929138Y-94644900D01*
X137929144Y-94644900D01*
X138013590Y-94634759D01*
X138147975Y-94581764D01*
X138263078Y-94494478D01*
X138350364Y-94379375D01*
X138403359Y-94244990D01*
X138413500Y-94160544D01*
X138413500Y-93578256D01*
X138403359Y-93493810D01*
X138350364Y-93359425D01*
X138350363Y-93359424D01*
X138350363Y-93359423D01*
X138267763Y-93250500D01*
X138263078Y-93244322D01*
X138263077Y-93244321D01*
X138187574Y-93187064D01*
X138146051Y-93130872D01*
X138138500Y-93088261D01*
X138138500Y-92585324D01*
X138158185Y-92518285D01*
X138174819Y-92497643D01*
X138490643Y-92181819D01*
X138551966Y-92148334D01*
X138578324Y-92145500D01*
X138651976Y-92145500D01*
X138719015Y-92165185D01*
X138725601Y-92169723D01*
X138771843Y-92203852D01*
X138810003Y-92217204D01*
X138897173Y-92247708D01*
X138897177Y-92247708D01*
X138897181Y-92247710D01*
X138912057Y-92249105D01*
X138926930Y-92250500D01*
X138926934Y-92250500D01*
X139373070Y-92250500D01*
X139386289Y-92249260D01*
X139402819Y-92247710D01*
X139402823Y-92247708D01*
X139402826Y-92247708D01*
X139528157Y-92203852D01*
X139528158Y-92203851D01*
X139635365Y-92124730D01*
X139700994Y-92100759D01*
X139708998Y-92100500D01*
X140782952Y-92100500D01*
X140782960Y-92100499D01*
X140850500Y-92100499D01*
X140917539Y-92120184D01*
X140963294Y-92172988D01*
X140974500Y-92224499D01*
X140974500Y-93065353D01*
X140954815Y-93132392D01*
X140950272Y-93138982D01*
X140950051Y-93139284D01*
X140887347Y-93224244D01*
X140843491Y-93349573D01*
X140843489Y-93349585D01*
X140840700Y-93379329D01*
X140840700Y-93825470D01*
X140843489Y-93855214D01*
X140843491Y-93855226D01*
X140883202Y-93968709D01*
X140887348Y-93980557D01*
X140897054Y-93993708D01*
X140971470Y-94094538D01*
X140995441Y-94160167D01*
X140995700Y-94168172D01*
X140995700Y-94351190D01*
X140976015Y-94418229D01*
X140959381Y-94438871D01*
X140160071Y-95238181D01*
X140098748Y-95271666D01*
X140072390Y-95274500D01*
X137243982Y-95274500D01*
X137135763Y-95303497D01*
X137135760Y-95303498D01*
X137038740Y-95359513D01*
X137038734Y-95359517D01*
X136810071Y-95588181D01*
X136748748Y-95621666D01*
X136722390Y-95624500D01*
X136646014Y-95624500D01*
X136492634Y-95662303D01*
X136352762Y-95735715D01*
X136234516Y-95840471D01*
X136144781Y-95970475D01*
X136144780Y-95970476D01*
X136088762Y-96118181D01*
X136069722Y-96274999D01*
X136069722Y-96275000D01*
X136088762Y-96431818D01*
X136126325Y-96530861D01*
X136144780Y-96579523D01*
X136234517Y-96709530D01*
X136352760Y-96814283D01*
X136352762Y-96814284D01*
X136492634Y-96887696D01*
X136646014Y-96925500D01*
X136646015Y-96925500D01*
X136803985Y-96925500D01*
X136957365Y-96887696D01*
X137013987Y-96857978D01*
X137097240Y-96814283D01*
X137215483Y-96709530D01*
X137305220Y-96579523D01*
X137361237Y-96431818D01*
X137380278Y-96275000D01*
X137380278Y-96274999D01*
X137380278Y-96272832D01*
X137380726Y-96271303D01*
X137381182Y-96267555D01*
X137381805Y-96267630D01*
X137399963Y-96205793D01*
X137416599Y-96185149D01*
X137439932Y-96161817D01*
X137501256Y-96128333D01*
X137527611Y-96125500D01*
X140356016Y-96125500D01*
X140356018Y-96125500D01*
X140464237Y-96096503D01*
X140561263Y-96040485D01*
X141682460Y-94919286D01*
X141682463Y-94919285D01*
X141747995Y-94853752D01*
X141809314Y-94820270D01*
X141879006Y-94825254D01*
X141934940Y-94867125D01*
X141958887Y-94931331D01*
X141959088Y-94931308D01*
X141959182Y-94932120D01*
X141959357Y-94932589D01*
X141959465Y-94934257D01*
X141959500Y-94934860D01*
X141962413Y-94959987D01*
X141962415Y-94959991D01*
X142007793Y-95062764D01*
X142095360Y-95150331D01*
X142092921Y-95152769D01*
X142124755Y-95191759D01*
X142134500Y-95239944D01*
X142134500Y-95264228D01*
X142114815Y-95331267D01*
X142110270Y-95337862D01*
X142026147Y-95451844D01*
X141982291Y-95577173D01*
X141982289Y-95577185D01*
X141979500Y-95606929D01*
X141979500Y-96053070D01*
X141982289Y-96082814D01*
X141982291Y-96082826D01*
X142026147Y-96208155D01*
X142026148Y-96208157D01*
X142105001Y-96314999D01*
X142211843Y-96393852D01*
X142250003Y-96407204D01*
X142337173Y-96437708D01*
X142337177Y-96437708D01*
X142337181Y-96437710D01*
X142352057Y-96439105D01*
X142366930Y-96440500D01*
X142366934Y-96440500D01*
X142753070Y-96440500D01*
X142766289Y-96439260D01*
X142782819Y-96437710D01*
X142782823Y-96437708D01*
X142782826Y-96437708D01*
X142831836Y-96420557D01*
X142908157Y-96393852D01*
X143014999Y-96314999D01*
X143093852Y-96208157D01*
X143137710Y-96082819D01*
X143137710Y-96082813D01*
X143138855Y-96077576D01*
X143172390Y-96016280D01*
X143233740Y-95982845D01*
X143303427Y-95987885D01*
X143359327Y-96029802D01*
X143381145Y-96077576D01*
X143382291Y-96082825D01*
X143426147Y-96208155D01*
X143426148Y-96208157D01*
X143505001Y-96314999D01*
X143611843Y-96393852D01*
X143650003Y-96407204D01*
X143737173Y-96437708D01*
X143737177Y-96437708D01*
X143737181Y-96437710D01*
X143752057Y-96439105D01*
X143766930Y-96440500D01*
X143766934Y-96440500D01*
X144153070Y-96440500D01*
X144166289Y-96439260D01*
X144182819Y-96437710D01*
X144182823Y-96437708D01*
X144182826Y-96437708D01*
X144231836Y-96420557D01*
X144308157Y-96393852D01*
X144414999Y-96314999D01*
X144493852Y-96208157D01*
X144532922Y-96096502D01*
X144537708Y-96082826D01*
X144537708Y-96082823D01*
X144537710Y-96082819D01*
X144540500Y-96053066D01*
X144540500Y-95606934D01*
X144537710Y-95577181D01*
X144537708Y-95577177D01*
X144537708Y-95577173D01*
X144493852Y-95451844D01*
X144493852Y-95451843D01*
X144414999Y-95345001D01*
X144414998Y-95345000D01*
X144409730Y-95337862D01*
X144385759Y-95272233D01*
X144385500Y-95264228D01*
X144385500Y-95239944D01*
X144405185Y-95172905D01*
X144425891Y-95151582D01*
X144424640Y-95150331D01*
X144432765Y-95142206D01*
X144512206Y-95062765D01*
X144557585Y-94959991D01*
X144560500Y-94934865D01*
X144560499Y-94376251D01*
X144580183Y-94309214D01*
X144632987Y-94263459D01*
X144702146Y-94253515D01*
X144765702Y-94282540D01*
X144772180Y-94288572D01*
X145093181Y-94609573D01*
X145126666Y-94670896D01*
X145129500Y-94697254D01*
X145129500Y-94883070D01*
X145132289Y-94912814D01*
X145132291Y-94912826D01*
X145176147Y-95038155D01*
X145176148Y-95038157D01*
X145215336Y-95091255D01*
X145260270Y-95152138D01*
X145284241Y-95217767D01*
X145284500Y-95225772D01*
X145284500Y-96912390D01*
X145264815Y-96979429D01*
X145248181Y-97000071D01*
X145110071Y-97138181D01*
X145048748Y-97171666D01*
X145022390Y-97174500D01*
X135674499Y-97174500D01*
X135607460Y-97154815D01*
X135561705Y-97102011D01*
X135550499Y-97050500D01*
X135550499Y-96705143D01*
X135550499Y-96705136D01*
X135550497Y-96705117D01*
X135547586Y-96680012D01*
X135547585Y-96680010D01*
X135547585Y-96680009D01*
X135502206Y-96577235D01*
X135422765Y-96497794D01*
X135422760Y-96497792D01*
X135319985Y-96452412D01*
X135316938Y-96451583D01*
X135313959Y-96449751D01*
X135311458Y-96448647D01*
X135311608Y-96448305D01*
X135257420Y-96414985D01*
X135227137Y-96352019D01*
X135225500Y-96331935D01*
X135225500Y-96243984D01*
X135225500Y-96243982D01*
X135196503Y-96135763D01*
X135140485Y-96038737D01*
X135061263Y-95959515D01*
X134261263Y-95159515D01*
X134164237Y-95103497D01*
X134056018Y-95074500D01*
X134056017Y-95074500D01*
X131427610Y-95074500D01*
X131360571Y-95054815D01*
X131339929Y-95038181D01*
X130961819Y-94660071D01*
X130928334Y-94598748D01*
X130925500Y-94572390D01*
X130925500Y-82887470D01*
X130945185Y-82820431D01*
X130997989Y-82774676D01*
X131067147Y-82764732D01*
X131096948Y-82772907D01*
X131191291Y-82811986D01*
X131317917Y-82837173D01*
X131336146Y-82840799D01*
X131336150Y-82840800D01*
X131336151Y-82840800D01*
X131483850Y-82840800D01*
X131483851Y-82840799D01*
X131628709Y-82811986D01*
X131765164Y-82755464D01*
X131887970Y-82673408D01*
X131992408Y-82568970D01*
X132074464Y-82446164D01*
X132114360Y-82349846D01*
X132158201Y-82295443D01*
X132224495Y-82273378D01*
X132286546Y-82287502D01*
X132378565Y-82335798D01*
X132432025Y-82363856D01*
X132432024Y-82363856D01*
X132595709Y-82404200D01*
X132764291Y-82404200D01*
X132927975Y-82363856D01*
X133077247Y-82285512D01*
X133203433Y-82173721D01*
X133212950Y-82159932D01*
X133267233Y-82115943D01*
X133336681Y-82108283D01*
X133399246Y-82139386D01*
G37*
%TD.AperFunction*%
%TA.AperFunction,Conductor*%
G36*
X143469760Y-85973906D02*
G01*
X143511400Y-86021962D01*
X143537986Y-86076346D01*
X143623651Y-86162011D01*
X143732488Y-86215219D01*
X143732489Y-86215219D01*
X143732491Y-86215220D01*
X143803051Y-86225500D01*
X143996948Y-86225499D01*
X143996950Y-86225499D01*
X144026088Y-86221254D01*
X144067509Y-86215220D01*
X144095539Y-86201516D01*
X144164409Y-86189756D01*
X144204459Y-86201515D01*
X144232491Y-86215220D01*
X144303051Y-86225500D01*
X144496948Y-86225499D01*
X144496950Y-86225499D01*
X144526088Y-86221254D01*
X144567509Y-86215220D01*
X144595539Y-86201516D01*
X144664409Y-86189756D01*
X144704459Y-86201515D01*
X144732491Y-86215220D01*
X144803051Y-86225500D01*
X144996948Y-86225499D01*
X144996950Y-86225499D01*
X145026088Y-86221254D01*
X145067509Y-86215220D01*
X145095539Y-86201516D01*
X145164409Y-86189756D01*
X145204459Y-86201515D01*
X145232491Y-86215220D01*
X145303051Y-86225500D01*
X145496948Y-86225499D01*
X145496950Y-86225499D01*
X145526088Y-86221254D01*
X145567509Y-86215220D01*
X145595539Y-86201516D01*
X145664409Y-86189756D01*
X145704459Y-86201515D01*
X145732491Y-86215220D01*
X145803051Y-86225500D01*
X145996948Y-86225499D01*
X145996950Y-86225499D01*
X146026088Y-86221254D01*
X146067509Y-86215220D01*
X146095539Y-86201516D01*
X146164409Y-86189756D01*
X146204459Y-86201515D01*
X146232491Y-86215220D01*
X146303051Y-86225500D01*
X146496948Y-86225499D01*
X146496950Y-86225499D01*
X146526088Y-86221254D01*
X146567509Y-86215220D01*
X146595539Y-86201516D01*
X146664409Y-86189756D01*
X146704459Y-86201515D01*
X146732491Y-86215220D01*
X146752095Y-86218076D01*
X146815595Y-86247217D01*
X146853261Y-86306065D01*
X146856924Y-86322905D01*
X146859779Y-86342508D01*
X146873484Y-86370543D01*
X146885241Y-86439416D01*
X146873484Y-86479457D01*
X146871356Y-86483811D01*
X146859780Y-86507491D01*
X146849500Y-86578051D01*
X146849500Y-86578055D01*
X146849500Y-86578056D01*
X146849500Y-86771950D01*
X146859779Y-86842506D01*
X146859779Y-86842507D01*
X146859780Y-86842509D01*
X146911843Y-86949005D01*
X146912989Y-86951349D01*
X146998651Y-87037011D01*
X147053038Y-87063600D01*
X147104620Y-87110728D01*
X147122534Y-87178262D01*
X147101093Y-87244761D01*
X147053038Y-87286400D01*
X146998652Y-87312988D01*
X146998651Y-87312988D01*
X146912988Y-87398651D01*
X146859780Y-87507488D01*
X146858127Y-87518834D01*
X146849500Y-87578051D01*
X146849500Y-87578055D01*
X146849500Y-87578056D01*
X146849500Y-87771950D01*
X146859779Y-87842507D01*
X146859779Y-87842508D01*
X146873484Y-87870543D01*
X146885241Y-87939416D01*
X146873484Y-87979457D01*
X146859781Y-88007488D01*
X146859780Y-88007490D01*
X146858498Y-88016289D01*
X146849500Y-88078051D01*
X146849500Y-88078055D01*
X146849500Y-88078056D01*
X146849500Y-88271950D01*
X146859779Y-88342507D01*
X146859779Y-88342508D01*
X146873484Y-88370543D01*
X146885241Y-88439416D01*
X146873484Y-88479457D01*
X146859781Y-88507488D01*
X146859780Y-88507491D01*
X146849500Y-88578051D01*
X146849500Y-88578055D01*
X146849500Y-88578056D01*
X146849500Y-88771950D01*
X146859779Y-88842507D01*
X146859779Y-88842508D01*
X146873484Y-88870543D01*
X146885241Y-88939416D01*
X146873484Y-88979457D01*
X146859781Y-89007488D01*
X146859780Y-89007491D01*
X146849500Y-89078051D01*
X146849500Y-89078055D01*
X146849500Y-89078056D01*
X146849500Y-89271950D01*
X146859779Y-89342507D01*
X146859779Y-89342508D01*
X146873484Y-89370543D01*
X146885241Y-89439416D01*
X146873484Y-89479457D01*
X146859781Y-89507488D01*
X146859780Y-89507491D01*
X146849500Y-89578051D01*
X146849500Y-89578055D01*
X146849500Y-89578056D01*
X146849500Y-89771950D01*
X146859779Y-89842507D01*
X146859779Y-89842508D01*
X146873484Y-89870543D01*
X146885241Y-89939416D01*
X146873484Y-89979457D01*
X146859781Y-90007488D01*
X146859780Y-90007491D01*
X146849500Y-90078051D01*
X146849500Y-90078055D01*
X146849500Y-90078056D01*
X146849500Y-90271950D01*
X146859779Y-90342507D01*
X146859779Y-90342508D01*
X146873484Y-90370543D01*
X146885241Y-90439416D01*
X146873484Y-90479457D01*
X146859781Y-90507488D01*
X146859780Y-90507491D01*
X146849500Y-90578051D01*
X146849500Y-90578055D01*
X146849500Y-90578056D01*
X146849500Y-90771950D01*
X146859779Y-90842507D01*
X146859779Y-90842508D01*
X146873484Y-90870543D01*
X146885241Y-90939416D01*
X146873484Y-90979457D01*
X146859781Y-91007488D01*
X146859780Y-91007491D01*
X146849500Y-91078051D01*
X146849500Y-91078055D01*
X146849500Y-91078056D01*
X146849500Y-91271950D01*
X146859779Y-91342507D01*
X146859779Y-91342508D01*
X146873484Y-91370543D01*
X146885241Y-91439416D01*
X146873484Y-91479457D01*
X146859781Y-91507488D01*
X146859778Y-91507496D01*
X146856923Y-91527097D01*
X146827779Y-91590598D01*
X146768930Y-91628262D01*
X146752094Y-91631924D01*
X146732492Y-91634779D01*
X146732491Y-91634779D01*
X146704457Y-91648484D01*
X146635584Y-91660241D01*
X146595543Y-91648484D01*
X146567511Y-91634781D01*
X146567509Y-91634780D01*
X146567495Y-91634778D01*
X146496949Y-91624500D01*
X146496943Y-91624500D01*
X146303049Y-91624500D01*
X146232492Y-91634779D01*
X146232491Y-91634779D01*
X146204457Y-91648484D01*
X146135584Y-91660241D01*
X146095543Y-91648484D01*
X146067511Y-91634781D01*
X146067509Y-91634780D01*
X146067495Y-91634778D01*
X145996949Y-91624500D01*
X145996943Y-91624500D01*
X145803049Y-91624500D01*
X145732492Y-91634779D01*
X145732491Y-91634779D01*
X145704457Y-91648484D01*
X145635584Y-91660241D01*
X145595543Y-91648484D01*
X145567511Y-91634781D01*
X145567509Y-91634780D01*
X145567495Y-91634778D01*
X145496949Y-91624500D01*
X145496943Y-91624500D01*
X145303049Y-91624500D01*
X145232492Y-91634779D01*
X145232491Y-91634779D01*
X145204457Y-91648484D01*
X145135584Y-91660241D01*
X145095543Y-91648484D01*
X145067511Y-91634781D01*
X145067509Y-91634780D01*
X145067495Y-91634778D01*
X144996949Y-91624500D01*
X144996943Y-91624500D01*
X144803049Y-91624500D01*
X144732492Y-91634779D01*
X144732491Y-91634779D01*
X144704457Y-91648484D01*
X144635584Y-91660241D01*
X144595543Y-91648484D01*
X144567511Y-91634781D01*
X144567509Y-91634780D01*
X144567495Y-91634778D01*
X144496949Y-91624500D01*
X144496943Y-91624500D01*
X144303049Y-91624500D01*
X144232492Y-91634779D01*
X144232491Y-91634779D01*
X144204457Y-91648484D01*
X144135584Y-91660241D01*
X144095543Y-91648484D01*
X144067511Y-91634781D01*
X144067509Y-91634780D01*
X144067495Y-91634778D01*
X143996949Y-91624500D01*
X143996943Y-91624500D01*
X143803049Y-91624500D01*
X143732492Y-91634779D01*
X143732491Y-91634779D01*
X143704457Y-91648484D01*
X143635584Y-91660241D01*
X143595543Y-91648484D01*
X143567511Y-91634781D01*
X143567509Y-91634780D01*
X143567495Y-91634778D01*
X143496949Y-91624500D01*
X143496943Y-91624500D01*
X143303049Y-91624500D01*
X143232492Y-91634779D01*
X143232491Y-91634779D01*
X143204457Y-91648484D01*
X143135584Y-91660241D01*
X143095543Y-91648484D01*
X143067511Y-91634781D01*
X143067509Y-91634780D01*
X143067495Y-91634778D01*
X142996949Y-91624500D01*
X142996943Y-91624500D01*
X142803049Y-91624500D01*
X142732492Y-91634779D01*
X142732491Y-91634779D01*
X142704457Y-91648484D01*
X142635584Y-91660241D01*
X142595543Y-91648484D01*
X142567511Y-91634781D01*
X142567509Y-91634780D01*
X142567495Y-91634778D01*
X142496949Y-91624500D01*
X142496943Y-91624500D01*
X142303049Y-91624500D01*
X142232492Y-91634779D01*
X142232491Y-91634779D01*
X142204457Y-91648484D01*
X142135584Y-91660241D01*
X142095543Y-91648484D01*
X142067511Y-91634781D01*
X142067509Y-91634780D01*
X142067495Y-91634778D01*
X141996949Y-91624500D01*
X141996943Y-91624500D01*
X141803049Y-91624500D01*
X141732492Y-91634779D01*
X141732491Y-91634779D01*
X141704457Y-91648484D01*
X141635584Y-91660241D01*
X141595543Y-91648484D01*
X141567511Y-91634781D01*
X141567509Y-91634780D01*
X141567507Y-91634779D01*
X141567503Y-91634778D01*
X141547903Y-91631923D01*
X141484402Y-91602779D01*
X141446738Y-91543930D01*
X141443076Y-91527094D01*
X141441568Y-91516748D01*
X141440220Y-91507491D01*
X141426516Y-91479460D01*
X141414756Y-91410591D01*
X141426515Y-91370540D01*
X141440220Y-91342509D01*
X141450500Y-91271949D01*
X141450499Y-91078052D01*
X141440220Y-91007491D01*
X141426516Y-90979460D01*
X141414756Y-90910591D01*
X141426515Y-90870540D01*
X141440220Y-90842509D01*
X141450500Y-90771949D01*
X141450499Y-90578052D01*
X141440220Y-90507491D01*
X141426516Y-90479460D01*
X141414756Y-90410591D01*
X141426515Y-90370540D01*
X141440220Y-90342509D01*
X141450500Y-90271949D01*
X141450499Y-90078052D01*
X141449727Y-90072754D01*
X141440220Y-90007493D01*
X141440220Y-90007491D01*
X141426516Y-89979460D01*
X141414756Y-89910591D01*
X141426515Y-89870540D01*
X141440220Y-89842509D01*
X141450500Y-89771949D01*
X141450499Y-89578052D01*
X141440220Y-89507491D01*
X141426516Y-89479460D01*
X141414756Y-89410591D01*
X141426515Y-89370540D01*
X141440220Y-89342509D01*
X141450500Y-89271949D01*
X141450499Y-89078052D01*
X141440220Y-89007491D01*
X141426516Y-88979460D01*
X141414756Y-88910591D01*
X141426515Y-88870540D01*
X141440220Y-88842509D01*
X141450500Y-88771949D01*
X141450499Y-88578052D01*
X141440220Y-88507491D01*
X141426516Y-88479460D01*
X141414756Y-88410591D01*
X141426515Y-88370540D01*
X141440220Y-88342509D01*
X141450500Y-88271949D01*
X141450499Y-88078052D01*
X141449490Y-88071128D01*
X141444331Y-88035715D01*
X141440220Y-88007491D01*
X141426516Y-87979460D01*
X141414756Y-87910591D01*
X141426515Y-87870540D01*
X141440220Y-87842509D01*
X141450500Y-87771949D01*
X141450499Y-87578052D01*
X141450020Y-87574767D01*
X141440220Y-87507493D01*
X141440220Y-87507491D01*
X141426516Y-87479460D01*
X141414756Y-87410591D01*
X141426515Y-87370540D01*
X141440220Y-87342509D01*
X141450500Y-87271949D01*
X141450499Y-87078052D01*
X141448897Y-87067057D01*
X141440220Y-87007493D01*
X141440220Y-87007491D01*
X141426516Y-86979460D01*
X141414756Y-86910591D01*
X141426515Y-86870540D01*
X141440220Y-86842509D01*
X141450500Y-86771949D01*
X141450499Y-86578052D01*
X141447614Y-86558251D01*
X141441807Y-86518386D01*
X141440220Y-86507491D01*
X141426516Y-86479460D01*
X141414756Y-86410591D01*
X141426515Y-86370540D01*
X141440220Y-86342509D01*
X141443076Y-86322904D01*
X141472217Y-86259405D01*
X141531065Y-86221739D01*
X141547891Y-86218077D01*
X141567509Y-86215220D01*
X141595539Y-86201516D01*
X141664409Y-86189756D01*
X141704459Y-86201515D01*
X141732491Y-86215220D01*
X141803051Y-86225500D01*
X141996948Y-86225499D01*
X141996950Y-86225499D01*
X142026088Y-86221254D01*
X142067509Y-86215220D01*
X142095539Y-86201516D01*
X142164409Y-86189756D01*
X142204459Y-86201515D01*
X142232491Y-86215220D01*
X142303051Y-86225500D01*
X142496948Y-86225499D01*
X142496950Y-86225499D01*
X142526088Y-86221254D01*
X142567509Y-86215220D01*
X142595539Y-86201516D01*
X142664409Y-86189756D01*
X142704459Y-86201515D01*
X142732491Y-86215220D01*
X142803051Y-86225500D01*
X142996948Y-86225499D01*
X142996950Y-86225499D01*
X143026088Y-86221254D01*
X143067509Y-86215220D01*
X143176347Y-86162012D01*
X143262012Y-86076347D01*
X143262013Y-86076346D01*
X143288600Y-86021962D01*
X143335727Y-85970379D01*
X143403262Y-85952465D01*
X143469760Y-85973906D01*
G37*
%TD.AperFunction*%
%TA.AperFunction,Conductor*%
G36*
X149108829Y-89214585D02*
G01*
X149129471Y-89231219D01*
X149138181Y-89239929D01*
X149171666Y-89301252D01*
X149174500Y-89327610D01*
X149174500Y-90475500D01*
X149154815Y-90542539D01*
X149102011Y-90588294D01*
X149050500Y-90599500D01*
X148731900Y-90599500D01*
X148664861Y-90579815D01*
X148644219Y-90563181D01*
X148638819Y-90557781D01*
X148605334Y-90496458D01*
X148602500Y-90470100D01*
X148602500Y-89319438D01*
X148605936Y-89319438D01*
X148614239Y-89266085D01*
X148660603Y-89213815D01*
X148726429Y-89194900D01*
X149041790Y-89194900D01*
X149108829Y-89214585D01*
G37*
%TD.AperFunction*%
%TA.AperFunction,Conductor*%
G36*
X138336498Y-87207493D02*
G01*
X138360763Y-87221503D01*
X138468982Y-87250500D01*
X138636350Y-87250500D01*
X138703389Y-87270185D01*
X138749144Y-87322989D01*
X138759088Y-87392147D01*
X138753391Y-87415455D01*
X138742290Y-87447179D01*
X138742289Y-87447181D01*
X138739500Y-87476929D01*
X138739500Y-87863070D01*
X138742289Y-87892814D01*
X138742291Y-87892826D01*
X138785496Y-88016294D01*
X138786148Y-88018157D01*
X138865001Y-88124999D01*
X138971843Y-88203852D01*
X139010003Y-88217204D01*
X139097173Y-88247708D01*
X139097177Y-88247708D01*
X139097181Y-88247710D01*
X139112057Y-88249105D01*
X139126930Y-88250500D01*
X139475500Y-88250500D01*
X139542539Y-88270185D01*
X139588294Y-88322989D01*
X139599500Y-88374500D01*
X139599500Y-88775500D01*
X139579815Y-88842539D01*
X139527011Y-88888294D01*
X139475500Y-88899500D01*
X138957255Y-88899500D01*
X138890216Y-88879815D01*
X138869574Y-88863181D01*
X138186819Y-88180426D01*
X138153334Y-88119103D01*
X138150500Y-88092745D01*
X138150500Y-87362729D01*
X138150501Y-87362716D01*
X138150501Y-87314882D01*
X138170186Y-87247843D01*
X138222990Y-87202088D01*
X138292148Y-87192144D01*
X138336498Y-87207493D01*
G37*
%TD.AperFunction*%
%TA.AperFunction,Conductor*%
G36*
X133810260Y-85675185D02*
G01*
X133856015Y-85727989D01*
X133865959Y-85797147D01*
X133859163Y-85823471D01*
X133813763Y-85943181D01*
X133794722Y-86099999D01*
X133794722Y-86100000D01*
X133813762Y-86256818D01*
X133869780Y-86404523D01*
X133869782Y-86404526D01*
X133878706Y-86417456D01*
X133900587Y-86483811D01*
X133893696Y-86528847D01*
X133852290Y-86647177D01*
X133852289Y-86647185D01*
X133849500Y-86676929D01*
X133849500Y-87123070D01*
X133852289Y-87152814D01*
X133852291Y-87152826D01*
X133896147Y-87278155D01*
X133896148Y-87278157D01*
X133958565Y-87362729D01*
X133975002Y-87385000D01*
X133977821Y-87387819D01*
X133979920Y-87391664D01*
X133980519Y-87392475D01*
X133980408Y-87392556D01*
X134011306Y-87449142D01*
X134006322Y-87518834D01*
X133964450Y-87574767D01*
X133898986Y-87599184D01*
X133890141Y-87599500D01*
X133804519Y-87599500D01*
X133804509Y-87599501D01*
X133747885Y-87605587D01*
X133619773Y-87653372D01*
X133510313Y-87735313D01*
X133428373Y-87844771D01*
X133380587Y-87972889D01*
X133374500Y-88029498D01*
X133374500Y-88573390D01*
X133354815Y-88640429D01*
X133302011Y-88686184D01*
X133232853Y-88696128D01*
X133169297Y-88667103D01*
X133162819Y-88661071D01*
X132861819Y-88360071D01*
X132828334Y-88298748D01*
X132825500Y-88272390D01*
X132825500Y-85779500D01*
X132845185Y-85712461D01*
X132897989Y-85666706D01*
X132949500Y-85655500D01*
X133743221Y-85655500D01*
X133810260Y-85675185D01*
G37*
%TD.AperFunction*%
%TA.AperFunction,Conductor*%
G36*
X148605135Y-82350500D02*
G01*
X149328222Y-82350499D01*
X149395261Y-82370183D01*
X149441016Y-82422987D01*
X149451396Y-82488788D01*
X149449500Y-82505126D01*
X149449500Y-83494856D01*
X149449502Y-83494882D01*
X149452413Y-83519987D01*
X149452414Y-83519988D01*
X149452414Y-83519990D01*
X149452415Y-83519991D01*
X149497794Y-83622765D01*
X149497795Y-83622766D01*
X149498964Y-83625413D01*
X149508036Y-83694692D01*
X149478213Y-83757877D01*
X149418963Y-83794908D01*
X149385530Y-83799500D01*
X148566955Y-83799500D01*
X148499916Y-83779815D01*
X148454161Y-83727011D01*
X148444217Y-83657853D01*
X148447181Y-83643405D01*
X148450500Y-83631019D01*
X148450500Y-83518982D01*
X148450500Y-82471777D01*
X148470185Y-82404738D01*
X148522989Y-82358983D01*
X148588794Y-82348604D01*
X148605135Y-82350500D01*
G37*
%TD.AperFunction*%
%TA.AperFunction,Conductor*%
G36*
X133339429Y-79445185D02*
G01*
X133360071Y-79461819D01*
X133488181Y-79589929D01*
X133521666Y-79651252D01*
X133524500Y-79677610D01*
X133524500Y-79833709D01*
X133504815Y-79900748D01*
X133482728Y-79926523D01*
X133426572Y-79976273D01*
X133426565Y-79976281D01*
X133330802Y-80115018D01*
X133330801Y-80115019D01*
X133271021Y-80272645D01*
X133263942Y-80330947D01*
X133236320Y-80395125D01*
X133178386Y-80434181D01*
X133140846Y-80440000D01*
X132680000Y-80440000D01*
X132680000Y-80897876D01*
X132660315Y-80964915D01*
X132607511Y-81010670D01*
X132585675Y-81018273D01*
X132432026Y-81056143D01*
X132282751Y-81134488D01*
X132156568Y-81246277D01*
X132060802Y-81385018D01*
X132060799Y-81385024D01*
X132043728Y-81430035D01*
X132001550Y-81485738D01*
X131935952Y-81509794D01*
X131867762Y-81494566D01*
X131858896Y-81489165D01*
X131765170Y-81426539D01*
X131765160Y-81426534D01*
X131628709Y-81370014D01*
X131628701Y-81370012D01*
X131483853Y-81341200D01*
X131483849Y-81341200D01*
X131336151Y-81341200D01*
X131336146Y-81341200D01*
X131191298Y-81370012D01*
X131191286Y-81370015D01*
X131096952Y-81409090D01*
X131027483Y-81416559D01*
X130965004Y-81385284D01*
X130929352Y-81325195D01*
X130925500Y-81294529D01*
X130925500Y-80855470D01*
X130945185Y-80788431D01*
X130997989Y-80742676D01*
X131067147Y-80732732D01*
X131096948Y-80740907D01*
X131191291Y-80779986D01*
X131336146Y-80808799D01*
X131336150Y-80808800D01*
X131336151Y-80808800D01*
X131483850Y-80808800D01*
X131483851Y-80808799D01*
X131628709Y-80779986D01*
X131765164Y-80723464D01*
X131887970Y-80641408D01*
X131992408Y-80536970D01*
X132073362Y-80415811D01*
X132074460Y-80414170D01*
X132074460Y-80414169D01*
X132074464Y-80414164D01*
X132130986Y-80277709D01*
X132159800Y-80132849D01*
X132159800Y-79985151D01*
X132130986Y-79840291D01*
X132074464Y-79703836D01*
X132074462Y-79703833D01*
X132074460Y-79703829D01*
X132017372Y-79618391D01*
X131996494Y-79551713D01*
X132014979Y-79484333D01*
X132066957Y-79437643D01*
X132120474Y-79425500D01*
X133272390Y-79425500D01*
X133339429Y-79445185D01*
G37*
%TD.AperFunction*%
%TD*%
%TA.AperFunction,Conductor*%
%TO.N,/VFBSMPS*%
G36*
X145448015Y-80073207D02*
G01*
X145514336Y-80095190D01*
X145535146Y-80113341D01*
X145588951Y-80172037D01*
X145750810Y-80348611D01*
X145781403Y-80410219D01*
X145872671Y-80912191D01*
X145874617Y-80938019D01*
X145851532Y-81722889D01*
X145829885Y-81789320D01*
X145811693Y-81810358D01*
X145525011Y-82074989D01*
X145525005Y-82074995D01*
X145525000Y-82075000D01*
X145207692Y-82413461D01*
X145149998Y-82475002D01*
X144950000Y-82899997D01*
X144949999Y-82900002D01*
X144925000Y-83250001D01*
X144925000Y-83954877D01*
X144918637Y-83994089D01*
X144832681Y-84251956D01*
X144809192Y-84293442D01*
X144696430Y-84424997D01*
X144643988Y-84461075D01*
X144325001Y-84574998D01*
X144325001Y-84574999D01*
X144174999Y-84674999D01*
X144149999Y-84775004D01*
X144150760Y-84801636D01*
X144132998Y-84869210D01*
X144114494Y-84892854D01*
X144077151Y-84930197D01*
X144030500Y-85030241D01*
X144024501Y-85075811D01*
X144024500Y-85075827D01*
X144024500Y-85512787D01*
X144004815Y-85579826D01*
X143952011Y-85625581D01*
X143894555Y-85636644D01*
X143893555Y-85636596D01*
X143827536Y-85613720D01*
X143784366Y-85558783D01*
X143775500Y-85512739D01*
X143775500Y-85428076D01*
X143775499Y-85428062D01*
X143775499Y-85075819D01*
X143769499Y-85030243D01*
X143769499Y-85030240D01*
X143722850Y-84930201D01*
X143708048Y-84915399D01*
X143674563Y-84854076D01*
X143672094Y-84837228D01*
X143669356Y-84801636D01*
X143650044Y-84550572D01*
X143649954Y-84549311D01*
X143625106Y-84176597D01*
X143624937Y-84173429D01*
X143600428Y-83560706D01*
X143601416Y-83539374D01*
X143649077Y-83181917D01*
X143651691Y-83168235D01*
X143689848Y-83015606D01*
X143725204Y-82955342D01*
X143732672Y-82948862D01*
X143950000Y-82775000D01*
X144150000Y-82475000D01*
X144200000Y-82025000D01*
X144200000Y-81153999D01*
X144200257Y-81146016D01*
X144214516Y-80925000D01*
X144248063Y-80405016D01*
X144265476Y-80349206D01*
X144371778Y-80172035D01*
X144423148Y-80124678D01*
X144453782Y-80114243D01*
X144760848Y-80052830D01*
X144789426Y-80050497D01*
X145448015Y-80073207D01*
G37*
%TD.AperFunction*%
%TD*%
M02*
