%TF.GenerationSoftware,KiCad,Pcbnew,8.0.3*%
%TF.CreationDate,2024-07-13T07:38:14+02:00*%
%TF.ProjectId,BLESEN,424c4553-454e-42e6-9b69-6361645f7063,rev?*%
%TF.SameCoordinates,Original*%
%TF.FileFunction,Copper,L4,Bot*%
%TF.FilePolarity,Positive*%
%FSLAX46Y46*%
G04 Gerber Fmt 4.6, Leading zero omitted, Abs format (unit mm)*
G04 Created by KiCad (PCBNEW 8.0.3) date 2024-07-13 07:38:14*
%MOMM*%
%LPD*%
G01*
G04 APERTURE LIST*
%TA.AperFunction,ComponentPad*%
%ADD10R,1.350000X1.350000*%
%TD*%
%TA.AperFunction,ComponentPad*%
%ADD11O,1.350000X1.350000*%
%TD*%
%TA.AperFunction,ComponentPad*%
%ADD12R,0.500000X0.900000*%
%TD*%
%TA.AperFunction,SMDPad,CuDef*%
%ADD13R,2.600000X5.560000*%
%TD*%
%TA.AperFunction,SMDPad,CuDef*%
%ADD14C,17.800000*%
%TD*%
%TA.AperFunction,ViaPad*%
%ADD15C,0.700000*%
%TD*%
%TA.AperFunction,ViaPad*%
%ADD16C,0.800000*%
%TD*%
%TA.AperFunction,ViaPad*%
%ADD17C,0.500000*%
%TD*%
%TA.AperFunction,Conductor*%
%ADD18C,0.300000*%
%TD*%
%TA.AperFunction,Conductor*%
%ADD19C,0.200000*%
%TD*%
G04 APERTURE END LIST*
D10*
%TO.P,J3,1,Pin_1*%
%TO.N,/UART_TX*%
X147600000Y-100600000D03*
D11*
%TO.P,J3,2,Pin_2*%
%TO.N,/UART_RX*%
X145600000Y-100600000D03*
%TO.P,J3,3,Pin_3*%
%TO.N,+3.3V*%
X143600000Y-100600000D03*
%TO.P,J3,4,Pin_4*%
%TO.N,GND*%
X141600000Y-100600000D03*
%TD*%
D12*
%TO.P,AE1,2,Shield*%
%TO.N,GND*%
X158820000Y-82800000D03*
%TD*%
D13*
%TO.P,BT1,1,+*%
%TO.N,+3.3V*%
X155805000Y-89600000D03*
X131995000Y-89600000D03*
D14*
%TO.P,BT1,2,-*%
%TO.N,GND*%
X143900000Y-89600000D03*
%TD*%
D15*
%TO.N,+3.3V*%
X141000000Y-80200000D03*
X134500000Y-87000000D03*
X133800000Y-91400000D03*
X136000000Y-83400000D03*
X135100000Y-93900000D03*
X152150000Y-84450000D03*
X153950000Y-92100000D03*
X138350000Y-80400000D03*
X136725000Y-96275000D03*
X130800000Y-87150000D03*
D16*
X129400000Y-79730000D03*
D15*
X150100000Y-97550000D03*
%TO.N,GND*%
X148875000Y-90325000D03*
D17*
X145200000Y-89800000D03*
D15*
X140160000Y-96600000D03*
X158000000Y-79000000D03*
D17*
X141963000Y-86719400D03*
X145200000Y-87600000D03*
D15*
X129400000Y-96000000D03*
X135600000Y-91800000D03*
X130200000Y-93000000D03*
D17*
X146413000Y-91169400D03*
D15*
X158000000Y-93000000D03*
X146800000Y-99200000D03*
X149375000Y-100500000D03*
D17*
X148975000Y-83675000D03*
D15*
X158000000Y-81000000D03*
X158300000Y-86075000D03*
X158000000Y-78000000D03*
X158000000Y-83000000D03*
X131000000Y-101000000D03*
X134600000Y-82600000D03*
D17*
X143200000Y-89800000D03*
D15*
X155500000Y-83650000D03*
X152700000Y-96800000D03*
X129800000Y-85600000D03*
X132775000Y-96900000D03*
X129800000Y-88400000D03*
X158000000Y-89000000D03*
X142000000Y-99000000D03*
X158000000Y-101000000D03*
X144400000Y-96750000D03*
X139200000Y-84050000D03*
X139200000Y-83100000D03*
X139250000Y-94750000D03*
X139800000Y-99600000D03*
X153250000Y-98650000D03*
D17*
X152950000Y-81425000D03*
D15*
X138550000Y-88180000D03*
X148600000Y-96400000D03*
X158000000Y-99000000D03*
X135000000Y-101000000D03*
X140400000Y-79000000D03*
D17*
X146363000Y-88869400D03*
D15*
X135200000Y-78000000D03*
X158000000Y-91000000D03*
X153820000Y-85920000D03*
D17*
X149400000Y-86750000D03*
D15*
X158000000Y-94000000D03*
X136200000Y-85400000D03*
X133000000Y-78000000D03*
X158000000Y-87000000D03*
X138800000Y-78000000D03*
X153000000Y-79100000D03*
X132375000Y-94050000D03*
X150175000Y-80025000D03*
X157000000Y-101000000D03*
D17*
X146313000Y-86719400D03*
D15*
X158000000Y-98000000D03*
X142000000Y-78000000D03*
X154875000Y-98175000D03*
X158000000Y-100000000D03*
X151200000Y-97200000D03*
X158000000Y-84000000D03*
X136000000Y-80200000D03*
D17*
X144063000Y-91119400D03*
D15*
X158000000Y-82000000D03*
D17*
X152875000Y-92875000D03*
D15*
X148125000Y-78575000D03*
X153000000Y-83000000D03*
X144400000Y-98600000D03*
X146550000Y-80100000D03*
D17*
X153575000Y-94500000D03*
D15*
X147940000Y-95090000D03*
X158000000Y-92000000D03*
X158000000Y-95000000D03*
X129800000Y-90600000D03*
D17*
X141913000Y-88919400D03*
D15*
X157000000Y-78000000D03*
X153450000Y-90050000D03*
X158000000Y-90000000D03*
X158000000Y-88000000D03*
X129400000Y-99200000D03*
D17*
X141963000Y-91169400D03*
D15*
X158000000Y-80000000D03*
X145000000Y-78000000D03*
D17*
X144113000Y-86719400D03*
D15*
X158000000Y-97000000D03*
X155025000Y-81800000D03*
D17*
X143200000Y-87600000D03*
D15*
X129000000Y-78000000D03*
X146925000Y-82325000D03*
X137000000Y-79000000D03*
X158000000Y-96000000D03*
X152000000Y-91000000D03*
X151000000Y-78000000D03*
X140413000Y-94569400D03*
D17*
X150800000Y-84500000D03*
X151600000Y-83400000D03*
X156425000Y-80725000D03*
%TO.N,/UART_TX*%
X152525000Y-93825000D03*
%TO.N,/UART_RX*%
X137450000Y-82850000D03*
%TO.N,PHOTO_OUT*%
X155150000Y-93850000D03*
X151200000Y-95400000D03*
%TD*%
D18*
%TO.N,GND*%
X137675000Y-93900000D02*
X137700000Y-93875000D01*
D19*
%TO.N,PHOTO_OUT*%
X151200000Y-95400000D02*
X151250000Y-95350000D01*
X151250000Y-95350000D02*
X153650000Y-95350000D01*
X153650000Y-95350000D02*
X155150000Y-93850000D01*
%TD*%
%TA.AperFunction,Conductor*%
%TO.N,+3.3V*%
G36*
X132626923Y-77320185D02*
G01*
X132672678Y-77372989D01*
X132682622Y-77442147D01*
X132653597Y-77505703D01*
X132635374Y-77522873D01*
X132571718Y-77571718D01*
X132475463Y-77697160D01*
X132414956Y-77843237D01*
X132414955Y-77843239D01*
X132394318Y-77999998D01*
X132394318Y-78000001D01*
X132414955Y-78156760D01*
X132414956Y-78156762D01*
X132475464Y-78302841D01*
X132571718Y-78428282D01*
X132697159Y-78524536D01*
X132843238Y-78585044D01*
X132921619Y-78595363D01*
X132999999Y-78605682D01*
X133000000Y-78605682D01*
X133000001Y-78605682D01*
X133052254Y-78598802D01*
X133156762Y-78585044D01*
X133302841Y-78524536D01*
X133428282Y-78428282D01*
X133524536Y-78302841D01*
X133585044Y-78156762D01*
X133605682Y-78000000D01*
X133601317Y-77966847D01*
X133585044Y-77843239D01*
X133585044Y-77843238D01*
X133524536Y-77697159D01*
X133428282Y-77571718D01*
X133364628Y-77522874D01*
X133323427Y-77466448D01*
X133319272Y-77396702D01*
X133353485Y-77335781D01*
X133415202Y-77303029D01*
X133440116Y-77300500D01*
X134759884Y-77300500D01*
X134826923Y-77320185D01*
X134872678Y-77372989D01*
X134882622Y-77442147D01*
X134853597Y-77505703D01*
X134835374Y-77522873D01*
X134771718Y-77571718D01*
X134675463Y-77697160D01*
X134614956Y-77843237D01*
X134614955Y-77843239D01*
X134594318Y-77999998D01*
X134594318Y-78000001D01*
X134614955Y-78156760D01*
X134614956Y-78156762D01*
X134675464Y-78302841D01*
X134771718Y-78428282D01*
X134897159Y-78524536D01*
X135043238Y-78585044D01*
X135121619Y-78595363D01*
X135199999Y-78605682D01*
X135200000Y-78605682D01*
X135200001Y-78605682D01*
X135252254Y-78598802D01*
X135356762Y-78585044D01*
X135502841Y-78524536D01*
X135628282Y-78428282D01*
X135724536Y-78302841D01*
X135785044Y-78156762D01*
X135805682Y-78000000D01*
X135801317Y-77966847D01*
X135785044Y-77843239D01*
X135785044Y-77843238D01*
X135724536Y-77697159D01*
X135628282Y-77571718D01*
X135564628Y-77522874D01*
X135523427Y-77466448D01*
X135519272Y-77396702D01*
X135553485Y-77335781D01*
X135615202Y-77303029D01*
X135640116Y-77300500D01*
X138359884Y-77300500D01*
X138426923Y-77320185D01*
X138472678Y-77372989D01*
X138482622Y-77442147D01*
X138453597Y-77505703D01*
X138435374Y-77522873D01*
X138371718Y-77571718D01*
X138275463Y-77697160D01*
X138214956Y-77843237D01*
X138214955Y-77843239D01*
X138194318Y-77999998D01*
X138194318Y-78000001D01*
X138214955Y-78156760D01*
X138214956Y-78156762D01*
X138275464Y-78302841D01*
X138371718Y-78428282D01*
X138497159Y-78524536D01*
X138643238Y-78585044D01*
X138721619Y-78595363D01*
X138799999Y-78605682D01*
X138800000Y-78605682D01*
X138800001Y-78605682D01*
X138852254Y-78598802D01*
X138956762Y-78585044D01*
X139102841Y-78524536D01*
X139228282Y-78428282D01*
X139324536Y-78302841D01*
X139385044Y-78156762D01*
X139405682Y-78000000D01*
X139401317Y-77966847D01*
X139385044Y-77843239D01*
X139385044Y-77843238D01*
X139324536Y-77697159D01*
X139228282Y-77571718D01*
X139164628Y-77522874D01*
X139123427Y-77466448D01*
X139119272Y-77396702D01*
X139153485Y-77335781D01*
X139215202Y-77303029D01*
X139240116Y-77300500D01*
X141559884Y-77300500D01*
X141626923Y-77320185D01*
X141672678Y-77372989D01*
X141682622Y-77442147D01*
X141653597Y-77505703D01*
X141635374Y-77522873D01*
X141571718Y-77571718D01*
X141475463Y-77697160D01*
X141414956Y-77843237D01*
X141414955Y-77843239D01*
X141394318Y-77999998D01*
X141394318Y-78000001D01*
X141414955Y-78156760D01*
X141414956Y-78156762D01*
X141475464Y-78302841D01*
X141571718Y-78428282D01*
X141697159Y-78524536D01*
X141843238Y-78585044D01*
X141921619Y-78595363D01*
X141999999Y-78605682D01*
X142000000Y-78605682D01*
X142000001Y-78605682D01*
X142052254Y-78598802D01*
X142156762Y-78585044D01*
X142302841Y-78524536D01*
X142428282Y-78428282D01*
X142524536Y-78302841D01*
X142585044Y-78156762D01*
X142605682Y-78000000D01*
X142601317Y-77966847D01*
X142585044Y-77843239D01*
X142585044Y-77843238D01*
X142524536Y-77697159D01*
X142428282Y-77571718D01*
X142364628Y-77522874D01*
X142323427Y-77466448D01*
X142319272Y-77396702D01*
X142353485Y-77335781D01*
X142415202Y-77303029D01*
X142440116Y-77300500D01*
X144559884Y-77300500D01*
X144626923Y-77320185D01*
X144672678Y-77372989D01*
X144682622Y-77442147D01*
X144653597Y-77505703D01*
X144635374Y-77522873D01*
X144571718Y-77571718D01*
X144475463Y-77697160D01*
X144414956Y-77843237D01*
X144414955Y-77843239D01*
X144394318Y-77999998D01*
X144394318Y-78000001D01*
X144414955Y-78156760D01*
X144414956Y-78156762D01*
X144475464Y-78302841D01*
X144571718Y-78428282D01*
X144697159Y-78524536D01*
X144843238Y-78585044D01*
X144921619Y-78595363D01*
X144999999Y-78605682D01*
X145000000Y-78605682D01*
X145000001Y-78605682D01*
X145052254Y-78598802D01*
X145156762Y-78585044D01*
X145181015Y-78574998D01*
X147519318Y-78574998D01*
X147519318Y-78575001D01*
X147539955Y-78731760D01*
X147539956Y-78731762D01*
X147586130Y-78843237D01*
X147600464Y-78877841D01*
X147696718Y-79003282D01*
X147822159Y-79099536D01*
X147968238Y-79160044D01*
X148046619Y-79170363D01*
X148124999Y-79180682D01*
X148125000Y-79180682D01*
X148125001Y-79180682D01*
X148177254Y-79173802D01*
X148281762Y-79160044D01*
X148426726Y-79099998D01*
X152394318Y-79099998D01*
X152394318Y-79100001D01*
X152414955Y-79256760D01*
X152414956Y-79256762D01*
X152475464Y-79402841D01*
X152571718Y-79528282D01*
X152697159Y-79624536D01*
X152843238Y-79685044D01*
X152921619Y-79695363D01*
X152999999Y-79705682D01*
X153000000Y-79705682D01*
X153000001Y-79705682D01*
X153064754Y-79697157D01*
X153156762Y-79685044D01*
X153302841Y-79624536D01*
X153428282Y-79528282D01*
X153509024Y-79423055D01*
X153565451Y-79381854D01*
X153635197Y-79377699D01*
X153696117Y-79411911D01*
X153725330Y-79460224D01*
X153743114Y-79514955D01*
X153744736Y-79519947D01*
X153841528Y-79709913D01*
X153966846Y-79882397D01*
X154117603Y-80033154D01*
X154290087Y-80158472D01*
X154480053Y-80255264D01*
X154480055Y-80255265D01*
X154669182Y-80316715D01*
X154682821Y-80321147D01*
X154893399Y-80354500D01*
X154893400Y-80354500D01*
X155106600Y-80354500D01*
X155106601Y-80354500D01*
X155317179Y-80321147D01*
X155317182Y-80321146D01*
X155317183Y-80321146D01*
X155519944Y-80255265D01*
X155519944Y-80255264D01*
X155519947Y-80255264D01*
X155709913Y-80158472D01*
X155882397Y-80033154D01*
X156033154Y-79882397D01*
X156158472Y-79709913D01*
X156255264Y-79519947D01*
X156321147Y-79317179D01*
X156354500Y-79106601D01*
X156354500Y-78893399D01*
X156321147Y-78682821D01*
X156321146Y-78682817D01*
X156321146Y-78682816D01*
X156255265Y-78480055D01*
X156255263Y-78480052D01*
X156252926Y-78475464D01*
X156158472Y-78290087D01*
X156033154Y-78117603D01*
X155882397Y-77966846D01*
X155709913Y-77841528D01*
X155519947Y-77744736D01*
X155519944Y-77744734D01*
X155317181Y-77678853D01*
X155176793Y-77656617D01*
X155106601Y-77645500D01*
X154893399Y-77645500D01*
X154823206Y-77656617D01*
X154682819Y-77678853D01*
X154682816Y-77678853D01*
X154480055Y-77744734D01*
X154480052Y-77744736D01*
X154290086Y-77841528D01*
X154117601Y-77966847D01*
X153966847Y-78117601D01*
X153841528Y-78290086D01*
X153744736Y-78480052D01*
X153744734Y-78480055D01*
X153679678Y-78680279D01*
X153640240Y-78737955D01*
X153575882Y-78765153D01*
X153507035Y-78753238D01*
X153463373Y-78717449D01*
X153428282Y-78671718D01*
X153302841Y-78575464D01*
X153301723Y-78575001D01*
X153156762Y-78514956D01*
X153156760Y-78514955D01*
X153000001Y-78494318D01*
X152999999Y-78494318D01*
X152843239Y-78514955D01*
X152843237Y-78514956D01*
X152697160Y-78575463D01*
X152571718Y-78671718D01*
X152475463Y-78797160D01*
X152414956Y-78943237D01*
X152414955Y-78943239D01*
X152394318Y-79099998D01*
X148426726Y-79099998D01*
X148427841Y-79099536D01*
X148553282Y-79003282D01*
X148649536Y-78877841D01*
X148710044Y-78731762D01*
X148730682Y-78575000D01*
X148725264Y-78533849D01*
X148710044Y-78418239D01*
X148710044Y-78418238D01*
X148649536Y-78272159D01*
X148553282Y-78146718D01*
X148427841Y-78050464D01*
X148306005Y-77999998D01*
X148281762Y-77989956D01*
X148281760Y-77989955D01*
X148125001Y-77969318D01*
X148124999Y-77969318D01*
X147968239Y-77989955D01*
X147968237Y-77989956D01*
X147822160Y-78050463D01*
X147696718Y-78146718D01*
X147600463Y-78272160D01*
X147539956Y-78418237D01*
X147539955Y-78418239D01*
X147519318Y-78574998D01*
X145181015Y-78574998D01*
X145302841Y-78524536D01*
X145428282Y-78428282D01*
X145524536Y-78302841D01*
X145585044Y-78156762D01*
X145605682Y-78000000D01*
X145601317Y-77966847D01*
X145585044Y-77843239D01*
X145585044Y-77843238D01*
X145524536Y-77697159D01*
X145428282Y-77571718D01*
X145364628Y-77522874D01*
X145323427Y-77466448D01*
X145319272Y-77396702D01*
X145353485Y-77335781D01*
X145415202Y-77303029D01*
X145440116Y-77300500D01*
X150559884Y-77300500D01*
X150626923Y-77320185D01*
X150672678Y-77372989D01*
X150682622Y-77442147D01*
X150653597Y-77505703D01*
X150635374Y-77522873D01*
X150571718Y-77571718D01*
X150475463Y-77697160D01*
X150414956Y-77843237D01*
X150414955Y-77843239D01*
X150394318Y-77999998D01*
X150394318Y-78000001D01*
X150414955Y-78156760D01*
X150414956Y-78156762D01*
X150475464Y-78302841D01*
X150571718Y-78428282D01*
X150697159Y-78524536D01*
X150843238Y-78585044D01*
X150921619Y-78595363D01*
X150999999Y-78605682D01*
X151000000Y-78605682D01*
X151000001Y-78605682D01*
X151052254Y-78598802D01*
X151156762Y-78585044D01*
X151302841Y-78524536D01*
X151428282Y-78428282D01*
X151524536Y-78302841D01*
X151585044Y-78156762D01*
X151605682Y-78000000D01*
X151601317Y-77966847D01*
X151585044Y-77843239D01*
X151585044Y-77843238D01*
X151524536Y-77697159D01*
X151428282Y-77571718D01*
X151364628Y-77522874D01*
X151323427Y-77466448D01*
X151319272Y-77396702D01*
X151353485Y-77335781D01*
X151415202Y-77303029D01*
X151440116Y-77300500D01*
X156559884Y-77300500D01*
X156626923Y-77320185D01*
X156672678Y-77372989D01*
X156682622Y-77442147D01*
X156653597Y-77505703D01*
X156635374Y-77522873D01*
X156571718Y-77571718D01*
X156475463Y-77697160D01*
X156414956Y-77843237D01*
X156414955Y-77843239D01*
X156394318Y-77999998D01*
X156394318Y-78000001D01*
X156414955Y-78156760D01*
X156414956Y-78156762D01*
X156475464Y-78302841D01*
X156571718Y-78428282D01*
X156697159Y-78524536D01*
X156843238Y-78585044D01*
X156921619Y-78595363D01*
X156999999Y-78605682D01*
X157000000Y-78605682D01*
X157000001Y-78605682D01*
X157052254Y-78598802D01*
X157156762Y-78585044D01*
X157302841Y-78524536D01*
X157302845Y-78524532D01*
X157309881Y-78520472D01*
X157311476Y-78523235D01*
X157362625Y-78503434D01*
X157431077Y-78517440D01*
X157481089Y-78566231D01*
X157496784Y-78634315D01*
X157477228Y-78688791D01*
X157479528Y-78690119D01*
X157475465Y-78697156D01*
X157414956Y-78843237D01*
X157414955Y-78843239D01*
X157394318Y-78999998D01*
X157394318Y-79000001D01*
X157414955Y-79156760D01*
X157414956Y-79156762D01*
X157475464Y-79302842D01*
X157568826Y-79424514D01*
X157594020Y-79489683D01*
X157579981Y-79558128D01*
X157568826Y-79575486D01*
X157475464Y-79697157D01*
X157414956Y-79843237D01*
X157414955Y-79843239D01*
X157394318Y-79999998D01*
X157394318Y-80000001D01*
X157414955Y-80156760D01*
X157414956Y-80156762D01*
X157475464Y-80302842D01*
X157568826Y-80424514D01*
X157594020Y-80489683D01*
X157579981Y-80558128D01*
X157568826Y-80575486D01*
X157475464Y-80697157D01*
X157414956Y-80843237D01*
X157414955Y-80843239D01*
X157394318Y-80999998D01*
X157394318Y-81000001D01*
X157414955Y-81156760D01*
X157414956Y-81156762D01*
X157475464Y-81302842D01*
X157568826Y-81424514D01*
X157594020Y-81489683D01*
X157579981Y-81558128D01*
X157568826Y-81575486D01*
X157475464Y-81697157D01*
X157414956Y-81843237D01*
X157414955Y-81843239D01*
X157394318Y-81999998D01*
X157394318Y-82000001D01*
X157414955Y-82156760D01*
X157414956Y-82156762D01*
X157475464Y-82302842D01*
X157568826Y-82424514D01*
X157594020Y-82489683D01*
X157579981Y-82558128D01*
X157568826Y-82575486D01*
X157475464Y-82697157D01*
X157414956Y-82843237D01*
X157414955Y-82843239D01*
X157394318Y-82999998D01*
X157394318Y-83000001D01*
X157414955Y-83156760D01*
X157414956Y-83156762D01*
X157475464Y-83302842D01*
X157568826Y-83424514D01*
X157594020Y-83489683D01*
X157579981Y-83558128D01*
X157568826Y-83575486D01*
X157475464Y-83697157D01*
X157414956Y-83843237D01*
X157414955Y-83843239D01*
X157394318Y-83999998D01*
X157394318Y-84000001D01*
X157414955Y-84156760D01*
X157414956Y-84156762D01*
X157447381Y-84235044D01*
X157475464Y-84302841D01*
X157571718Y-84428282D01*
X157697159Y-84524536D01*
X157843238Y-84585044D01*
X157892185Y-84591487D01*
X157956080Y-84619752D01*
X157994552Y-84678076D01*
X158000000Y-84714426D01*
X158000000Y-85487134D01*
X157980315Y-85554173D01*
X157951489Y-85585507D01*
X157910239Y-85617160D01*
X157871718Y-85646718D01*
X157775463Y-85772160D01*
X157714956Y-85918237D01*
X157714955Y-85918239D01*
X157694318Y-86074998D01*
X157694318Y-86075001D01*
X157714955Y-86231760D01*
X157714957Y-86231765D01*
X157751369Y-86319672D01*
X157758838Y-86389141D01*
X157727563Y-86451620D01*
X157698817Y-86474506D01*
X157697161Y-86475461D01*
X157571719Y-86571716D01*
X157475463Y-86697160D01*
X157414956Y-86843237D01*
X157414955Y-86843239D01*
X157394318Y-86999998D01*
X157394318Y-87000001D01*
X157414955Y-87156760D01*
X157414956Y-87156762D01*
X157475464Y-87302842D01*
X157568826Y-87424514D01*
X157594020Y-87489683D01*
X157579981Y-87558128D01*
X157568826Y-87575486D01*
X157475464Y-87697157D01*
X157414956Y-87843237D01*
X157414955Y-87843239D01*
X157394318Y-87999998D01*
X157394318Y-88000001D01*
X157414955Y-88156760D01*
X157414956Y-88156762D01*
X157475464Y-88302842D01*
X157568826Y-88424514D01*
X157594020Y-88489683D01*
X157579981Y-88558128D01*
X157568826Y-88575486D01*
X157475464Y-88697157D01*
X157414956Y-88843237D01*
X157414955Y-88843239D01*
X157394318Y-88999998D01*
X157394318Y-89000001D01*
X157414955Y-89156760D01*
X157414956Y-89156762D01*
X157475464Y-89302842D01*
X157568826Y-89424514D01*
X157594020Y-89489683D01*
X157579981Y-89558128D01*
X157568826Y-89575486D01*
X157475464Y-89697157D01*
X157414956Y-89843237D01*
X157414955Y-89843239D01*
X157394318Y-89999998D01*
X157394318Y-90000001D01*
X157414955Y-90156760D01*
X157414956Y-90156762D01*
X157475464Y-90302842D01*
X157568826Y-90424514D01*
X157594020Y-90489683D01*
X157579981Y-90558128D01*
X157568826Y-90575486D01*
X157475464Y-90697157D01*
X157414956Y-90843237D01*
X157414955Y-90843239D01*
X157394318Y-90999998D01*
X157394318Y-91000001D01*
X157414955Y-91156760D01*
X157414956Y-91156762D01*
X157475464Y-91302842D01*
X157568826Y-91424514D01*
X157594020Y-91489683D01*
X157579981Y-91558128D01*
X157568826Y-91575486D01*
X157475464Y-91697157D01*
X157414956Y-91843237D01*
X157414955Y-91843239D01*
X157394318Y-91999998D01*
X157394318Y-92000001D01*
X157414955Y-92156760D01*
X157414956Y-92156762D01*
X157475464Y-92302842D01*
X157568826Y-92424514D01*
X157594020Y-92489683D01*
X157579981Y-92558128D01*
X157568826Y-92575486D01*
X157475464Y-92697157D01*
X157414956Y-92843237D01*
X157414955Y-92843239D01*
X157394318Y-92999998D01*
X157394318Y-93000001D01*
X157414955Y-93156760D01*
X157414956Y-93156762D01*
X157475464Y-93302842D01*
X157568826Y-93424514D01*
X157594020Y-93489683D01*
X157579981Y-93558128D01*
X157568826Y-93575486D01*
X157475464Y-93697157D01*
X157414956Y-93843237D01*
X157414955Y-93843239D01*
X157394318Y-93999998D01*
X157394318Y-94000001D01*
X157414955Y-94156760D01*
X157414956Y-94156762D01*
X157475464Y-94302842D01*
X157568826Y-94424514D01*
X157594020Y-94489683D01*
X157579981Y-94558128D01*
X157568826Y-94575486D01*
X157475464Y-94697157D01*
X157414956Y-94843237D01*
X157414955Y-94843239D01*
X157394318Y-94999998D01*
X157394318Y-95000001D01*
X157414955Y-95156760D01*
X157414956Y-95156762D01*
X157475464Y-95302842D01*
X157568826Y-95424514D01*
X157594020Y-95489683D01*
X157579981Y-95558128D01*
X157568826Y-95575486D01*
X157475464Y-95697157D01*
X157414956Y-95843237D01*
X157414955Y-95843239D01*
X157394318Y-95999998D01*
X157394318Y-96000001D01*
X157414955Y-96156760D01*
X157414956Y-96156762D01*
X157475464Y-96302842D01*
X157568826Y-96424514D01*
X157594020Y-96489683D01*
X157579981Y-96558128D01*
X157568826Y-96575486D01*
X157475464Y-96697157D01*
X157414956Y-96843237D01*
X157414955Y-96843239D01*
X157394318Y-96999998D01*
X157394318Y-97000001D01*
X157414955Y-97156760D01*
X157414956Y-97156762D01*
X157475464Y-97302842D01*
X157568826Y-97424514D01*
X157594020Y-97489683D01*
X157579981Y-97558128D01*
X157568826Y-97575486D01*
X157475464Y-97697157D01*
X157414956Y-97843237D01*
X157414955Y-97843239D01*
X157394318Y-97999998D01*
X157394318Y-98000001D01*
X157414955Y-98156760D01*
X157414956Y-98156762D01*
X157475464Y-98302842D01*
X157568826Y-98424514D01*
X157594020Y-98489683D01*
X157579981Y-98558128D01*
X157568826Y-98575486D01*
X157475464Y-98697157D01*
X157414956Y-98843237D01*
X157414955Y-98843239D01*
X157394318Y-98999998D01*
X157394318Y-99000001D01*
X157414955Y-99156760D01*
X157414956Y-99156762D01*
X157475464Y-99302842D01*
X157568826Y-99424514D01*
X157594020Y-99489683D01*
X157579981Y-99558128D01*
X157568826Y-99575486D01*
X157475464Y-99697157D01*
X157414956Y-99843237D01*
X157414955Y-99843239D01*
X157394318Y-99999998D01*
X157394318Y-100000001D01*
X157414955Y-100156760D01*
X157414956Y-100156762D01*
X157441766Y-100221488D01*
X157475465Y-100302843D01*
X157479528Y-100309881D01*
X157476773Y-100311471D01*
X157496571Y-100362695D01*
X157482526Y-100431138D01*
X157433707Y-100481123D01*
X157365614Y-100496780D01*
X157311214Y-100477217D01*
X157309881Y-100479528D01*
X157302843Y-100475465D01*
X157302838Y-100475463D01*
X157156762Y-100414956D01*
X157156760Y-100414955D01*
X157000001Y-100394318D01*
X156999999Y-100394318D01*
X156843239Y-100414955D01*
X156843237Y-100414956D01*
X156697160Y-100475463D01*
X156571718Y-100571718D01*
X156475463Y-100697160D01*
X156414956Y-100843237D01*
X156414955Y-100843239D01*
X156394318Y-100999998D01*
X156394318Y-101000001D01*
X156414955Y-101156760D01*
X156414956Y-101156762D01*
X156455756Y-101255263D01*
X156475464Y-101302841D01*
X156571718Y-101428282D01*
X156635371Y-101477125D01*
X156676573Y-101533552D01*
X156680728Y-101603298D01*
X156646515Y-101664219D01*
X156584798Y-101696971D01*
X156559884Y-101699500D01*
X148499353Y-101699500D01*
X148432314Y-101679815D01*
X148386559Y-101627011D01*
X148376615Y-101557853D01*
X148405640Y-101494297D01*
X148430462Y-101472398D01*
X148455601Y-101455601D01*
X148510966Y-101372740D01*
X148525500Y-101299674D01*
X148525500Y-100539892D01*
X148537045Y-100500574D01*
X148535324Y-100496921D01*
X148763312Y-100496921D01*
X148768477Y-100504957D01*
X148772439Y-100523707D01*
X148789955Y-100656760D01*
X148789956Y-100656762D01*
X148850464Y-100802841D01*
X148946718Y-100928282D01*
X149072159Y-101024536D01*
X149218238Y-101085044D01*
X149296619Y-101095363D01*
X149374999Y-101105682D01*
X149375000Y-101105682D01*
X149375001Y-101105682D01*
X149427254Y-101098802D01*
X149531762Y-101085044D01*
X149677841Y-101024536D01*
X149803282Y-100928282D01*
X149899536Y-100802841D01*
X149960044Y-100656762D01*
X149978056Y-100519944D01*
X149980682Y-100500001D01*
X149980682Y-100499998D01*
X149966769Y-100394318D01*
X149960044Y-100343238D01*
X149899536Y-100197159D01*
X149803282Y-100071718D01*
X149677841Y-99975464D01*
X149645891Y-99962230D01*
X149531762Y-99914956D01*
X149531760Y-99914955D01*
X149375001Y-99894318D01*
X149374999Y-99894318D01*
X149218239Y-99914955D01*
X149218237Y-99914956D01*
X149072160Y-99975463D01*
X148946718Y-100071718D01*
X148850463Y-100197160D01*
X148789956Y-100343237D01*
X148789955Y-100343239D01*
X148772439Y-100476292D01*
X148763312Y-100496921D01*
X148535324Y-100496921D01*
X148526981Y-100479213D01*
X148525500Y-100460107D01*
X148525500Y-99900323D01*
X148525499Y-99900321D01*
X148524122Y-99893399D01*
X153645500Y-99893399D01*
X153645500Y-100106600D01*
X153678853Y-100317180D01*
X153678853Y-100317183D01*
X153744734Y-100519944D01*
X153744736Y-100519947D01*
X153841528Y-100709913D01*
X153966846Y-100882397D01*
X154117603Y-101033154D01*
X154290087Y-101158472D01*
X154480053Y-101255264D01*
X154480055Y-101255265D01*
X154669182Y-101316715D01*
X154682821Y-101321147D01*
X154893399Y-101354500D01*
X154893400Y-101354500D01*
X155106600Y-101354500D01*
X155106601Y-101354500D01*
X155317179Y-101321147D01*
X155317182Y-101321146D01*
X155317183Y-101321146D01*
X155519944Y-101255265D01*
X155519944Y-101255264D01*
X155519947Y-101255264D01*
X155709913Y-101158472D01*
X155882397Y-101033154D01*
X156033154Y-100882397D01*
X156158472Y-100709913D01*
X156255264Y-100519947D01*
X156285048Y-100428282D01*
X156321146Y-100317183D01*
X156321146Y-100317182D01*
X156321147Y-100317179D01*
X156354500Y-100106601D01*
X156354500Y-99893399D01*
X156321147Y-99682821D01*
X156321146Y-99682817D01*
X156321146Y-99682816D01*
X156255265Y-99480055D01*
X156255263Y-99480052D01*
X156241034Y-99452124D01*
X156158472Y-99290087D01*
X156033154Y-99117603D01*
X155882397Y-98966846D01*
X155709913Y-98841528D01*
X155519947Y-98744736D01*
X155519944Y-98744734D01*
X155426508Y-98714376D01*
X155368833Y-98674939D01*
X155341634Y-98610581D01*
X155353548Y-98541734D01*
X155366451Y-98520958D01*
X155387721Y-98493239D01*
X155399536Y-98477841D01*
X155460044Y-98331762D01*
X155473802Y-98227254D01*
X155480682Y-98175001D01*
X155480682Y-98174998D01*
X155466923Y-98070492D01*
X155460044Y-98018238D01*
X155399536Y-97872159D01*
X155303282Y-97746718D01*
X155177841Y-97650464D01*
X155031762Y-97589956D01*
X155031760Y-97589955D01*
X154875001Y-97569318D01*
X154874999Y-97569318D01*
X154718239Y-97589955D01*
X154718237Y-97589956D01*
X154572160Y-97650463D01*
X154446718Y-97746718D01*
X154350463Y-97872160D01*
X154289956Y-98018237D01*
X154289955Y-98018239D01*
X154269318Y-98174998D01*
X154269318Y-98175001D01*
X154289955Y-98331760D01*
X154289956Y-98331762D01*
X154350464Y-98477842D01*
X154443358Y-98598903D01*
X154468552Y-98664072D01*
X154454514Y-98732517D01*
X154405700Y-98782506D01*
X154401277Y-98784874D01*
X154290086Y-98841528D01*
X154117601Y-98966847D01*
X153966847Y-99117601D01*
X153841528Y-99290086D01*
X153744736Y-99480052D01*
X153744734Y-99480055D01*
X153678853Y-99682816D01*
X153678853Y-99682819D01*
X153645500Y-99893399D01*
X148524122Y-99893399D01*
X148510967Y-99827264D01*
X148510966Y-99827260D01*
X148496548Y-99805682D01*
X148455601Y-99744399D01*
X148372740Y-99689034D01*
X148372739Y-99689033D01*
X148372735Y-99689032D01*
X148299677Y-99674500D01*
X148299674Y-99674500D01*
X147439012Y-99674500D01*
X147371973Y-99654815D01*
X147326218Y-99602011D01*
X147316274Y-99532853D01*
X147324451Y-99503048D01*
X147381727Y-99364769D01*
X147385044Y-99356762D01*
X147405682Y-99200000D01*
X147399989Y-99156760D01*
X147385044Y-99043239D01*
X147385044Y-99043238D01*
X147324536Y-98897159D01*
X147228282Y-98771718D01*
X147102841Y-98675464D01*
X147075338Y-98664072D01*
X147041361Y-98649998D01*
X152644318Y-98649998D01*
X152644318Y-98650001D01*
X152664955Y-98806760D01*
X152664956Y-98806762D01*
X152725464Y-98952841D01*
X152821718Y-99078282D01*
X152947159Y-99174536D01*
X153093238Y-99235044D01*
X153171619Y-99245363D01*
X153249999Y-99255682D01*
X153250000Y-99255682D01*
X153250001Y-99255682D01*
X153302254Y-99248802D01*
X153406762Y-99235044D01*
X153552841Y-99174536D01*
X153678282Y-99078282D01*
X153774536Y-98952841D01*
X153835044Y-98806762D01*
X153848802Y-98702254D01*
X153855682Y-98650001D01*
X153855682Y-98649998D01*
X153835044Y-98493239D01*
X153835044Y-98493238D01*
X153774536Y-98347159D01*
X153678282Y-98221718D01*
X153552841Y-98125464D01*
X153406762Y-98064956D01*
X153406760Y-98064955D01*
X153250001Y-98044318D01*
X153249999Y-98044318D01*
X153093239Y-98064955D01*
X153093237Y-98064956D01*
X152947160Y-98125463D01*
X152821718Y-98221718D01*
X152725463Y-98347160D01*
X152664956Y-98493237D01*
X152664955Y-98493239D01*
X152644318Y-98649998D01*
X147041361Y-98649998D01*
X146956762Y-98614956D01*
X146956760Y-98614955D01*
X146800001Y-98594318D01*
X146799999Y-98594318D01*
X146643239Y-98614955D01*
X146643237Y-98614956D01*
X146497160Y-98675463D01*
X146371718Y-98771718D01*
X146275463Y-98897160D01*
X146214956Y-99043237D01*
X146214955Y-99043239D01*
X146194318Y-99199998D01*
X146194318Y-99200001D01*
X146214955Y-99356760D01*
X146214956Y-99356762D01*
X146275453Y-99502816D01*
X146275464Y-99502841D01*
X146371718Y-99628282D01*
X146497159Y-99724536D01*
X146599288Y-99766839D01*
X146653691Y-99810680D01*
X146675756Y-99876974D01*
X146674370Y-99894189D01*
X146675097Y-99894261D01*
X146674500Y-99900323D01*
X146674500Y-100147312D01*
X146654815Y-100214351D01*
X146602011Y-100260106D01*
X146532853Y-100270050D01*
X146469297Y-100241025D01*
X146443113Y-100209312D01*
X146363672Y-100071718D01*
X146352870Y-100053008D01*
X146330604Y-100028279D01*
X146222697Y-99908435D01*
X146222694Y-99908433D01*
X146222693Y-99908432D01*
X146222692Y-99908431D01*
X146132960Y-99843237D01*
X146065297Y-99794076D01*
X145909104Y-99724536D01*
X145887571Y-99714949D01*
X145887569Y-99714948D01*
X145697274Y-99674500D01*
X145502726Y-99674500D01*
X145312431Y-99714948D01*
X145134702Y-99794076D01*
X144977305Y-99908433D01*
X144977302Y-99908435D01*
X144847129Y-100053009D01*
X144749857Y-100221488D01*
X144749856Y-100221489D01*
X144689738Y-100406516D01*
X144669402Y-100600000D01*
X144689738Y-100793483D01*
X144749856Y-100978510D01*
X144749857Y-100978511D01*
X144811364Y-101085043D01*
X144847130Y-101146992D01*
X144892476Y-101197354D01*
X144977302Y-101291564D01*
X144977305Y-101291566D01*
X144977308Y-101291569D01*
X145018019Y-101321147D01*
X145134702Y-101405923D01*
X145217501Y-101442786D01*
X145261150Y-101462220D01*
X145314387Y-101507470D01*
X145334709Y-101574319D01*
X145315664Y-101641543D01*
X145263299Y-101687799D01*
X145210715Y-101699500D01*
X141989285Y-101699500D01*
X141922246Y-101679815D01*
X141876491Y-101627011D01*
X141866547Y-101557853D01*
X141895572Y-101494297D01*
X141938849Y-101462220D01*
X142065299Y-101405922D01*
X142222692Y-101291569D01*
X142352870Y-101146992D01*
X142450144Y-100978508D01*
X142510262Y-100793482D01*
X142530598Y-100600000D01*
X142510262Y-100406518D01*
X142450144Y-100221492D01*
X142450143Y-100221491D01*
X142450143Y-100221489D01*
X142450142Y-100221488D01*
X142401468Y-100137183D01*
X142352870Y-100053008D01*
X142271133Y-99962230D01*
X142222697Y-99908435D01*
X142222694Y-99908433D01*
X142222693Y-99908432D01*
X142222692Y-99908431D01*
X142087203Y-99809992D01*
X142044539Y-99754663D01*
X142038560Y-99685049D01*
X142071166Y-99623254D01*
X142132005Y-99588897D01*
X142143882Y-99586739D01*
X142156762Y-99585044D01*
X142302841Y-99524536D01*
X142428282Y-99428282D01*
X142524536Y-99302841D01*
X142585044Y-99156762D01*
X142605682Y-99000000D01*
X142601317Y-98966847D01*
X142585044Y-98843239D01*
X142585043Y-98843237D01*
X142585043Y-98843236D01*
X142582940Y-98835387D01*
X142585836Y-98834610D01*
X142579882Y-98779396D01*
X142611137Y-98716907D01*
X142671215Y-98681235D01*
X142714069Y-98677971D01*
X143163281Y-98722215D01*
X143301196Y-98735799D01*
X143301198Y-98735799D01*
X143301208Y-98735800D01*
X143733308Y-98749945D01*
X143799668Y-98771813D01*
X143843670Y-98826086D01*
X143843790Y-98826373D01*
X143875464Y-98902841D01*
X143971718Y-99028282D01*
X144097159Y-99124536D01*
X144243238Y-99185044D01*
X144321619Y-99195363D01*
X144399999Y-99205682D01*
X144400000Y-99205682D01*
X144400001Y-99205682D01*
X144452254Y-99198802D01*
X144556762Y-99185044D01*
X144702841Y-99124536D01*
X144828282Y-99028282D01*
X144924536Y-98902841D01*
X144985044Y-98756762D01*
X144985044Y-98756760D01*
X144986335Y-98753644D01*
X145030176Y-98699241D01*
X145088745Y-98677694D01*
X145095010Y-98677077D01*
X145095010Y-98677076D01*
X145095020Y-98677076D01*
X145686130Y-98579484D01*
X146269592Y-98443439D01*
X146842908Y-98269526D01*
X147403621Y-98058489D01*
X147949331Y-97811230D01*
X148250106Y-97650463D01*
X148477687Y-97528819D01*
X148477709Y-97528806D01*
X148708899Y-97385043D01*
X148986469Y-97212439D01*
X149003830Y-97199998D01*
X150594318Y-97199998D01*
X150594318Y-97200001D01*
X150614955Y-97356760D01*
X150614956Y-97356762D01*
X150675464Y-97502841D01*
X150771718Y-97628282D01*
X150897159Y-97724536D01*
X151043238Y-97785044D01*
X151121619Y-97795363D01*
X151199999Y-97805682D01*
X151200000Y-97805682D01*
X151200001Y-97805682D01*
X151252254Y-97798802D01*
X151356762Y-97785044D01*
X151502841Y-97724536D01*
X151628282Y-97628282D01*
X151724536Y-97502841D01*
X151785044Y-97356762D01*
X151805682Y-97200000D01*
X151799989Y-97156760D01*
X151785044Y-97043239D01*
X151785044Y-97043238D01*
X151724536Y-96897159D01*
X151649982Y-96799998D01*
X152094318Y-96799998D01*
X152094318Y-96800001D01*
X152114955Y-96956760D01*
X152114956Y-96956762D01*
X152156376Y-97056760D01*
X152175464Y-97102841D01*
X152271718Y-97228282D01*
X152397159Y-97324536D01*
X152543238Y-97385044D01*
X152621619Y-97395363D01*
X152699999Y-97405682D01*
X152700000Y-97405682D01*
X152700001Y-97405682D01*
X152752254Y-97398802D01*
X152856762Y-97385044D01*
X153002841Y-97324536D01*
X153128282Y-97228282D01*
X153224536Y-97102841D01*
X153285044Y-96956762D01*
X153305682Y-96800000D01*
X153285044Y-96643238D01*
X153224536Y-96497159D01*
X153128282Y-96371718D01*
X153002841Y-96275464D01*
X152856762Y-96214956D01*
X152856760Y-96214955D01*
X152700001Y-96194318D01*
X152699999Y-96194318D01*
X152543239Y-96214955D01*
X152543237Y-96214956D01*
X152397160Y-96275463D01*
X152271718Y-96371718D01*
X152175463Y-96497160D01*
X152114956Y-96643237D01*
X152114955Y-96643239D01*
X152094318Y-96799998D01*
X151649982Y-96799998D01*
X151628282Y-96771718D01*
X151502841Y-96675464D01*
X151356762Y-96614956D01*
X151356760Y-96614955D01*
X151200001Y-96594318D01*
X151199999Y-96594318D01*
X151043239Y-96614955D01*
X151043237Y-96614956D01*
X150897160Y-96675463D01*
X150771718Y-96771718D01*
X150675463Y-96897160D01*
X150614956Y-97043237D01*
X150614955Y-97043239D01*
X150594318Y-97199998D01*
X149003830Y-97199998D01*
X149473456Y-96863469D01*
X149936576Y-96483396D01*
X150373847Y-96073847D01*
X150668193Y-95759576D01*
X150728384Y-95724104D01*
X150798202Y-95726805D01*
X150852405Y-95763139D01*
X150868872Y-95782143D01*
X150989947Y-95859953D01*
X150989950Y-95859954D01*
X150989949Y-95859954D01*
X151128036Y-95900499D01*
X151128038Y-95900500D01*
X151128039Y-95900500D01*
X151271962Y-95900500D01*
X151271962Y-95900499D01*
X151410053Y-95859953D01*
X151531128Y-95782143D01*
X151564788Y-95743296D01*
X151623567Y-95705523D01*
X151658501Y-95700500D01*
X153696142Y-95700500D01*
X153696144Y-95700500D01*
X153785288Y-95676614D01*
X153788007Y-95675044D01*
X153865212Y-95630470D01*
X155108862Y-94386818D01*
X155170185Y-94353334D01*
X155196543Y-94350500D01*
X155221962Y-94350500D01*
X155221962Y-94350499D01*
X155360053Y-94309953D01*
X155481128Y-94232143D01*
X155575377Y-94123373D01*
X155635165Y-93992457D01*
X155655647Y-93850000D01*
X155635165Y-93707543D01*
X155575377Y-93576627D01*
X155481128Y-93467857D01*
X155360053Y-93390047D01*
X155360051Y-93390046D01*
X155360049Y-93390045D01*
X155360050Y-93390045D01*
X155221963Y-93349500D01*
X155221961Y-93349500D01*
X155078039Y-93349500D01*
X155078036Y-93349500D01*
X154939949Y-93390045D01*
X154818873Y-93467856D01*
X154724623Y-93576626D01*
X154724622Y-93576628D01*
X154664834Y-93707543D01*
X154648552Y-93820789D01*
X154619526Y-93884344D01*
X154613495Y-93890822D01*
X154213602Y-94290715D01*
X154152279Y-94324200D01*
X154082587Y-94319216D01*
X154026654Y-94277344D01*
X154013129Y-94254551D01*
X154000377Y-94226627D01*
X153906128Y-94117857D01*
X153785053Y-94040047D01*
X153785051Y-94040046D01*
X153785049Y-94040045D01*
X153785050Y-94040045D01*
X153646963Y-93999500D01*
X153646961Y-93999500D01*
X153503039Y-93999500D01*
X153503036Y-93999500D01*
X153364949Y-94040045D01*
X153243873Y-94117856D01*
X153243872Y-94117856D01*
X153243872Y-94117857D01*
X153210163Y-94156760D01*
X153169283Y-94203938D01*
X153141854Y-94221564D01*
X153137224Y-94253774D01*
X153137224Y-94253775D01*
X153089834Y-94357544D01*
X153069353Y-94500000D01*
X153089834Y-94642456D01*
X153149622Y-94773371D01*
X153149623Y-94773373D01*
X153167754Y-94794297D01*
X153196779Y-94857853D01*
X153186835Y-94927011D01*
X153141081Y-94979815D01*
X153074041Y-94999500D01*
X151538974Y-94999500D01*
X151471940Y-94979819D01*
X151465474Y-94975664D01*
X151419716Y-94922862D01*
X151409769Y-94853704D01*
X151431716Y-94799117D01*
X151450165Y-94773372D01*
X151512439Y-94686469D01*
X151828811Y-94177701D01*
X151876297Y-94088859D01*
X151925257Y-94039017D01*
X151993394Y-94023556D01*
X152059074Y-94047387D01*
X152094595Y-94091062D01*
X152094829Y-94090913D01*
X152096167Y-94092995D01*
X152098445Y-94095796D01*
X152099619Y-94098367D01*
X152099623Y-94098373D01*
X152193872Y-94207143D01*
X152314947Y-94284953D01*
X152314950Y-94284954D01*
X152314949Y-94284954D01*
X152422107Y-94316417D01*
X152431637Y-94319216D01*
X152453036Y-94325499D01*
X152453038Y-94325500D01*
X152453039Y-94325500D01*
X152596962Y-94325500D01*
X152596962Y-94325499D01*
X152735053Y-94284953D01*
X152856128Y-94207143D01*
X152930719Y-94121059D01*
X152958144Y-94103433D01*
X152962776Y-94071223D01*
X152995531Y-93999500D01*
X153010165Y-93967457D01*
X153030647Y-93825000D01*
X153010165Y-93682543D01*
X152950377Y-93551627D01*
X152950374Y-93551624D01*
X152945582Y-93544166D01*
X152948119Y-93542535D01*
X152925354Y-93492704D01*
X152935289Y-93423544D01*
X152981037Y-93370734D01*
X153013156Y-93356064D01*
X153085050Y-93334954D01*
X153085050Y-93334953D01*
X153085053Y-93334953D01*
X153206128Y-93257143D01*
X153300377Y-93148373D01*
X153360165Y-93017457D01*
X153380647Y-92875000D01*
X153360165Y-92732543D01*
X153300377Y-92601627D01*
X153206128Y-92492857D01*
X153085053Y-92415047D01*
X153085051Y-92415046D01*
X153085049Y-92415045D01*
X153085050Y-92415045D01*
X152946963Y-92374500D01*
X152946961Y-92374500D01*
X152803039Y-92374500D01*
X152794170Y-92374500D01*
X152794170Y-92372616D01*
X152735993Y-92364245D01*
X152683194Y-92318485D01*
X152663516Y-92251443D01*
X152668854Y-92215463D01*
X152743439Y-91969592D01*
X152879484Y-91386130D01*
X152977076Y-90795020D01*
X152988219Y-90681876D01*
X153014380Y-90617091D01*
X153071414Y-90576732D01*
X153141214Y-90573615D01*
X153159066Y-90579468D01*
X153293238Y-90635044D01*
X153371619Y-90645363D01*
X153449999Y-90655682D01*
X153450000Y-90655682D01*
X153450001Y-90655682D01*
X153502254Y-90648802D01*
X153606762Y-90635044D01*
X153752841Y-90574536D01*
X153878282Y-90478282D01*
X153974536Y-90352841D01*
X154035044Y-90206762D01*
X154055682Y-90050000D01*
X154051068Y-90014956D01*
X154035044Y-89893239D01*
X154035044Y-89893238D01*
X153974536Y-89747159D01*
X153878282Y-89621718D01*
X153752841Y-89525464D01*
X153606762Y-89464956D01*
X153606760Y-89464955D01*
X153450001Y-89444318D01*
X153449999Y-89444318D01*
X153293239Y-89464955D01*
X153293234Y-89464957D01*
X153219745Y-89495397D01*
X153150275Y-89502866D01*
X153087796Y-89471590D01*
X153052145Y-89411501D01*
X153048360Y-89384903D01*
X153035800Y-89001208D01*
X152977076Y-88404980D01*
X152879484Y-87813870D01*
X152743439Y-87230408D01*
X152569526Y-86657092D01*
X152358489Y-86096379D01*
X152278573Y-85920001D01*
X152278572Y-85919998D01*
X153214318Y-85919998D01*
X153214318Y-85920001D01*
X153234955Y-86076760D01*
X153234956Y-86076762D01*
X153279807Y-86185043D01*
X153295464Y-86222841D01*
X153391718Y-86348282D01*
X153517159Y-86444536D01*
X153663238Y-86505044D01*
X153741619Y-86515363D01*
X153819999Y-86525682D01*
X153820000Y-86525682D01*
X153820001Y-86525682D01*
X153872254Y-86518802D01*
X153976762Y-86505044D01*
X154122841Y-86444536D01*
X154248282Y-86348282D01*
X154344536Y-86222841D01*
X154405044Y-86076762D01*
X154425682Y-85920000D01*
X154405044Y-85763238D01*
X154344536Y-85617159D01*
X154248282Y-85491718D01*
X154122841Y-85395464D01*
X153976762Y-85334956D01*
X153976760Y-85334955D01*
X153820001Y-85314318D01*
X153819999Y-85314318D01*
X153663239Y-85334955D01*
X153663237Y-85334956D01*
X153517160Y-85395463D01*
X153391718Y-85491718D01*
X153295463Y-85617160D01*
X153234956Y-85763237D01*
X153234955Y-85763239D01*
X153214318Y-85919998D01*
X152278572Y-85919998D01*
X152111234Y-85550677D01*
X152111220Y-85550650D01*
X151828819Y-85022312D01*
X151828806Y-85022290D01*
X151512447Y-84513543D01*
X151512441Y-84513533D01*
X151163469Y-84026543D01*
X151163467Y-84026541D01*
X151120968Y-83974757D01*
X151093654Y-83910447D01*
X151105444Y-83841580D01*
X151152596Y-83790019D01*
X151220138Y-83772135D01*
X151283859Y-83791775D01*
X151307180Y-83806762D01*
X151363939Y-83843239D01*
X151389949Y-83859954D01*
X151497107Y-83891417D01*
X151509886Y-83895170D01*
X151528036Y-83900499D01*
X151528038Y-83900500D01*
X151528039Y-83900500D01*
X151671962Y-83900500D01*
X151671962Y-83900499D01*
X151810053Y-83859953D01*
X151931128Y-83782143D01*
X152025377Y-83673373D01*
X152036052Y-83649998D01*
X154894318Y-83649998D01*
X154894318Y-83650001D01*
X154914955Y-83806760D01*
X154914956Y-83806762D01*
X154975464Y-83952841D01*
X155071718Y-84078282D01*
X155197159Y-84174536D01*
X155343238Y-84235044D01*
X155421619Y-84245363D01*
X155499999Y-84255682D01*
X155500000Y-84255682D01*
X155500001Y-84255682D01*
X155552254Y-84248802D01*
X155656762Y-84235044D01*
X155802841Y-84174536D01*
X155928282Y-84078282D01*
X156024536Y-83952841D01*
X156085044Y-83806762D01*
X156105682Y-83650000D01*
X156103519Y-83633573D01*
X156085044Y-83493239D01*
X156085044Y-83493238D01*
X156024536Y-83347159D01*
X155928282Y-83221718D01*
X155802841Y-83125464D01*
X155656762Y-83064956D01*
X155656760Y-83064955D01*
X155500001Y-83044318D01*
X155499999Y-83044318D01*
X155343239Y-83064955D01*
X155343237Y-83064956D01*
X155197160Y-83125463D01*
X155071718Y-83221718D01*
X154975463Y-83347160D01*
X154914956Y-83493237D01*
X154914955Y-83493239D01*
X154894318Y-83649998D01*
X152036052Y-83649998D01*
X152085165Y-83542457D01*
X152105647Y-83400000D01*
X152085165Y-83257543D01*
X152025377Y-83126627D01*
X151931128Y-83017857D01*
X151903339Y-82999998D01*
X152394318Y-82999998D01*
X152394318Y-83000001D01*
X152414955Y-83156760D01*
X152414956Y-83156762D01*
X152475464Y-83302841D01*
X152571718Y-83428282D01*
X152697159Y-83524536D01*
X152843238Y-83585044D01*
X152921619Y-83595363D01*
X152999999Y-83605682D01*
X153000000Y-83605682D01*
X153000001Y-83605682D01*
X153052254Y-83598802D01*
X153156762Y-83585044D01*
X153302841Y-83524536D01*
X153428282Y-83428282D01*
X153524536Y-83302841D01*
X153585044Y-83156762D01*
X153605682Y-83000000D01*
X153585044Y-82843238D01*
X153524536Y-82697159D01*
X153428282Y-82571718D01*
X153302841Y-82475464D01*
X153156762Y-82414956D01*
X153156760Y-82414955D01*
X153000001Y-82394318D01*
X152999999Y-82394318D01*
X152843239Y-82414955D01*
X152843237Y-82414956D01*
X152697160Y-82475463D01*
X152571718Y-82571718D01*
X152475463Y-82697160D01*
X152414956Y-82843237D01*
X152414955Y-82843239D01*
X152394318Y-82999998D01*
X151903339Y-82999998D01*
X151810053Y-82940047D01*
X151810051Y-82940046D01*
X151810049Y-82940045D01*
X151810050Y-82940045D01*
X151671963Y-82899500D01*
X151671961Y-82899500D01*
X151528039Y-82899500D01*
X151528036Y-82899500D01*
X151389949Y-82940045D01*
X151268873Y-83017856D01*
X151174623Y-83126626D01*
X151174622Y-83126628D01*
X151114834Y-83257543D01*
X151094353Y-83400000D01*
X151114834Y-83542456D01*
X151134284Y-83585044D01*
X151147439Y-83613850D01*
X151156447Y-83633573D01*
X151166391Y-83702731D01*
X151137366Y-83766287D01*
X151078588Y-83804062D01*
X151008719Y-83804062D01*
X150949940Y-83766288D01*
X150947800Y-83763750D01*
X150824782Y-83613853D01*
X150783396Y-83563424D01*
X150373847Y-83126153D01*
X149936576Y-82716604D01*
X149543870Y-82394318D01*
X149473455Y-82336530D01*
X149473456Y-82336530D01*
X148986466Y-81987558D01*
X148986456Y-81987552D01*
X148477709Y-81671193D01*
X148477687Y-81671180D01*
X148017114Y-81425000D01*
X152444353Y-81425000D01*
X152464834Y-81567456D01*
X152524622Y-81698371D01*
X152524623Y-81698373D01*
X152618872Y-81807143D01*
X152739947Y-81884953D01*
X152739950Y-81884954D01*
X152739949Y-81884954D01*
X152878036Y-81925499D01*
X152878038Y-81925500D01*
X152878039Y-81925500D01*
X153021962Y-81925500D01*
X153021962Y-81925499D01*
X153160053Y-81884953D01*
X153281128Y-81807143D01*
X153287319Y-81799998D01*
X154419318Y-81799998D01*
X154419318Y-81800001D01*
X154439955Y-81956760D01*
X154439956Y-81956762D01*
X154500464Y-82102841D01*
X154596718Y-82228282D01*
X154722159Y-82324536D01*
X154868238Y-82385044D01*
X154906225Y-82390045D01*
X155024999Y-82405682D01*
X155025000Y-82405682D01*
X155025001Y-82405682D01*
X155077254Y-82398802D01*
X155181762Y-82385044D01*
X155327841Y-82324536D01*
X155453282Y-82228282D01*
X155549536Y-82102841D01*
X155610044Y-81956762D01*
X155630682Y-81800000D01*
X155610044Y-81643238D01*
X155549536Y-81497159D01*
X155453282Y-81371718D01*
X155327841Y-81275464D01*
X155181762Y-81214956D01*
X155181760Y-81214955D01*
X155025001Y-81194318D01*
X155024999Y-81194318D01*
X154868239Y-81214955D01*
X154868237Y-81214956D01*
X154722160Y-81275463D01*
X154596718Y-81371718D01*
X154500463Y-81497160D01*
X154439956Y-81643237D01*
X154439955Y-81643239D01*
X154419318Y-81799998D01*
X153287319Y-81799998D01*
X153375377Y-81698373D01*
X153435165Y-81567457D01*
X153455647Y-81425000D01*
X153435165Y-81282543D01*
X153375377Y-81151627D01*
X153281128Y-81042857D01*
X153160053Y-80965047D01*
X153160051Y-80965046D01*
X153160049Y-80965045D01*
X153160050Y-80965045D01*
X153021963Y-80924500D01*
X153021961Y-80924500D01*
X152878039Y-80924500D01*
X152878036Y-80924500D01*
X152739949Y-80965045D01*
X152618873Y-81042856D01*
X152524623Y-81151626D01*
X152524622Y-81151628D01*
X152464834Y-81282543D01*
X152444353Y-81425000D01*
X148017114Y-81425000D01*
X147949349Y-81388779D01*
X147949322Y-81388765D01*
X147403620Y-81141510D01*
X146842917Y-80930477D01*
X146842903Y-80930472D01*
X146753917Y-80903479D01*
X146695478Y-80865181D01*
X146667022Y-80801369D01*
X146677582Y-80732302D01*
X146684024Y-80725000D01*
X155919353Y-80725000D01*
X155939834Y-80867456D01*
X155984402Y-80965045D01*
X155999623Y-80998373D01*
X156093872Y-81107143D01*
X156214947Y-81184953D01*
X156214950Y-81184954D01*
X156214949Y-81184954D01*
X156353036Y-81225499D01*
X156353038Y-81225500D01*
X156353039Y-81225500D01*
X156496962Y-81225500D01*
X156496962Y-81225499D01*
X156635053Y-81184953D01*
X156756128Y-81107143D01*
X156850377Y-80998373D01*
X156910165Y-80867457D01*
X156930647Y-80725000D01*
X156910165Y-80582543D01*
X156850377Y-80451627D01*
X156756128Y-80342857D01*
X156635053Y-80265047D01*
X156635051Y-80265046D01*
X156635049Y-80265045D01*
X156635050Y-80265045D01*
X156496963Y-80224500D01*
X156496961Y-80224500D01*
X156353039Y-80224500D01*
X156353036Y-80224500D01*
X156214949Y-80265045D01*
X156093873Y-80342856D01*
X155999623Y-80451626D01*
X155999622Y-80451628D01*
X155939834Y-80582543D01*
X155919353Y-80725000D01*
X146684024Y-80725000D01*
X146723806Y-80679909D01*
X146742456Y-80670258D01*
X146852841Y-80624536D01*
X146978282Y-80528282D01*
X147074536Y-80402841D01*
X147135044Y-80256762D01*
X147155682Y-80100000D01*
X147145808Y-80024998D01*
X149569318Y-80024998D01*
X149569318Y-80025001D01*
X149589955Y-80181760D01*
X149589956Y-80181762D01*
X149620401Y-80255264D01*
X149650464Y-80327841D01*
X149746718Y-80453282D01*
X149872159Y-80549536D01*
X150018238Y-80610044D01*
X150096619Y-80620363D01*
X150174999Y-80630682D01*
X150175000Y-80630682D01*
X150175001Y-80630682D01*
X150233480Y-80622983D01*
X150331762Y-80610044D01*
X150477841Y-80549536D01*
X150603282Y-80453282D01*
X150699536Y-80327841D01*
X150760044Y-80181762D01*
X150780682Y-80025000D01*
X150777390Y-79999998D01*
X150763852Y-79897160D01*
X150760044Y-79868238D01*
X150699536Y-79722159D01*
X150603282Y-79596718D01*
X150477841Y-79500464D01*
X150463003Y-79494318D01*
X150331762Y-79439956D01*
X150331760Y-79439955D01*
X150175001Y-79419318D01*
X150174999Y-79419318D01*
X150018239Y-79439955D01*
X150018237Y-79439956D01*
X149872160Y-79500463D01*
X149746718Y-79596718D01*
X149650463Y-79722160D01*
X149589956Y-79868237D01*
X149589955Y-79868239D01*
X149569318Y-80024998D01*
X147145808Y-80024998D01*
X147135044Y-79943238D01*
X147074536Y-79797159D01*
X146978282Y-79671718D01*
X146852841Y-79575464D01*
X146843797Y-79571718D01*
X146706762Y-79514956D01*
X146706760Y-79514955D01*
X146550001Y-79494318D01*
X146549999Y-79494318D01*
X146393239Y-79514955D01*
X146393237Y-79514956D01*
X146247160Y-79575463D01*
X146121718Y-79671718D01*
X146025463Y-79797160D01*
X145964956Y-79943237D01*
X145964955Y-79943239D01*
X145944318Y-80099998D01*
X145944318Y-80100001D01*
X145964955Y-80256760D01*
X145964956Y-80256762D01*
X146025464Y-80402842D01*
X146091859Y-80489369D01*
X146117053Y-80554538D01*
X146103015Y-80622983D01*
X146054201Y-80672972D01*
X145986109Y-80688636D01*
X145965329Y-80685616D01*
X145703371Y-80624536D01*
X145686126Y-80620515D01*
X145382152Y-80570329D01*
X145095020Y-80522924D01*
X145095015Y-80522923D01*
X145095012Y-80522923D01*
X144498803Y-80464200D01*
X143900000Y-80444598D01*
X143301196Y-80464200D01*
X142704990Y-80522923D01*
X142704984Y-80522923D01*
X142113873Y-80620515D01*
X141530408Y-80756560D01*
X141530400Y-80756563D01*
X140957097Y-80930472D01*
X140957082Y-80930477D01*
X140396379Y-81141510D01*
X139850677Y-81388765D01*
X139850650Y-81388779D01*
X139322312Y-81671180D01*
X139322290Y-81671193D01*
X138813543Y-81987552D01*
X138813533Y-81987558D01*
X138326544Y-82336530D01*
X138034613Y-82576111D01*
X137970303Y-82603424D01*
X137901435Y-82591633D01*
X137862235Y-82561460D01*
X137781129Y-82467858D01*
X137781128Y-82467857D01*
X137660053Y-82390047D01*
X137660051Y-82390046D01*
X137660049Y-82390045D01*
X137660050Y-82390045D01*
X137521963Y-82349500D01*
X137521961Y-82349500D01*
X137378039Y-82349500D01*
X137378036Y-82349500D01*
X137239949Y-82390045D01*
X137118873Y-82467856D01*
X137024623Y-82576626D01*
X137024622Y-82576628D01*
X136964834Y-82707543D01*
X136944353Y-82850000D01*
X136964834Y-82992456D01*
X137024622Y-83123371D01*
X137024623Y-83123373D01*
X137118872Y-83232143D01*
X137123522Y-83235131D01*
X137169278Y-83287933D01*
X137179223Y-83357091D01*
X137150201Y-83420648D01*
X137146989Y-83424213D01*
X137016598Y-83563430D01*
X137016596Y-83563433D01*
X136636530Y-84026544D01*
X136287559Y-84513531D01*
X136136164Y-84756996D01*
X136084046Y-84803531D01*
X136047054Y-84814453D01*
X136043243Y-84814954D01*
X136043237Y-84814956D01*
X135897160Y-84875463D01*
X135771718Y-84971718D01*
X135675463Y-85097160D01*
X135614956Y-85243237D01*
X135614955Y-85243239D01*
X135594318Y-85399998D01*
X135594318Y-85400001D01*
X135614956Y-85556761D01*
X135628318Y-85589022D01*
X135635785Y-85658491D01*
X135626703Y-85687647D01*
X135441517Y-86096362D01*
X135441503Y-86096396D01*
X135230477Y-86657082D01*
X135230472Y-86657097D01*
X135056563Y-87230400D01*
X135056560Y-87230408D01*
X134920515Y-87813873D01*
X134822923Y-88404984D01*
X134822923Y-88404990D01*
X134764200Y-89001196D01*
X134744598Y-89600000D01*
X134764200Y-90198803D01*
X134822923Y-90795009D01*
X134822923Y-90795015D01*
X134920517Y-91386137D01*
X134960620Y-91558128D01*
X134993037Y-91697157D01*
X134997386Y-91715806D01*
X134999564Y-91760148D01*
X134994318Y-91799997D01*
X134994318Y-91800001D01*
X135014955Y-91956760D01*
X135014956Y-91956762D01*
X135075464Y-92102842D01*
X135097313Y-92131316D01*
X135117598Y-92170807D01*
X135230472Y-92542902D01*
X135230477Y-92542917D01*
X135441510Y-93103620D01*
X135688765Y-93649322D01*
X135688779Y-93649349D01*
X135971180Y-94177687D01*
X135971193Y-94177709D01*
X136287552Y-94686456D01*
X136287558Y-94686466D01*
X136624567Y-95156760D01*
X136636531Y-95173456D01*
X137016604Y-95636576D01*
X137426153Y-96073847D01*
X137863424Y-96483396D01*
X138214745Y-96771718D01*
X138326544Y-96863469D01*
X138326543Y-96863469D01*
X138813533Y-97212441D01*
X138813543Y-97212447D01*
X139322290Y-97528806D01*
X139322312Y-97528819D01*
X139850650Y-97811220D01*
X139850677Y-97811234D01*
X140307546Y-98018239D01*
X140396379Y-98058489D01*
X140957092Y-98269526D01*
X141472316Y-98425817D01*
X141530755Y-98464115D01*
X141559211Y-98527927D01*
X141548651Y-98596994D01*
X141534697Y-98619964D01*
X141475464Y-98697157D01*
X141414956Y-98843237D01*
X141414955Y-98843239D01*
X141394318Y-98999998D01*
X141394318Y-99000001D01*
X141414955Y-99156760D01*
X141414956Y-99156762D01*
X141447381Y-99235044D01*
X141475464Y-99302841D01*
X141571718Y-99428282D01*
X141591210Y-99443239D01*
X141602790Y-99452124D01*
X141643993Y-99508552D01*
X141648148Y-99578298D01*
X141613936Y-99639218D01*
X141552219Y-99671971D01*
X141527304Y-99674500D01*
X141502726Y-99674500D01*
X141312431Y-99714948D01*
X141134702Y-99794076D01*
X140977305Y-99908433D01*
X140977302Y-99908435D01*
X140847129Y-100053009D01*
X140749857Y-100221488D01*
X140749856Y-100221489D01*
X140689738Y-100406516D01*
X140669402Y-100600000D01*
X140689738Y-100793483D01*
X140749856Y-100978510D01*
X140749857Y-100978511D01*
X140811364Y-101085043D01*
X140847130Y-101146992D01*
X140892476Y-101197354D01*
X140977302Y-101291564D01*
X140977305Y-101291566D01*
X140977308Y-101291569D01*
X141018019Y-101321147D01*
X141134702Y-101405923D01*
X141217501Y-101442786D01*
X141261150Y-101462220D01*
X141314387Y-101507470D01*
X141334709Y-101574319D01*
X141315664Y-101641543D01*
X141263299Y-101687799D01*
X141210715Y-101699500D01*
X135440116Y-101699500D01*
X135373077Y-101679815D01*
X135327322Y-101627011D01*
X135317378Y-101557853D01*
X135346403Y-101494297D01*
X135364625Y-101477126D01*
X135428282Y-101428282D01*
X135524536Y-101302841D01*
X135585044Y-101156762D01*
X135601317Y-101033154D01*
X135605682Y-101000001D01*
X135605682Y-100999998D01*
X135585044Y-100843239D01*
X135585044Y-100843238D01*
X135524536Y-100697159D01*
X135428282Y-100571718D01*
X135302841Y-100475464D01*
X135156762Y-100414956D01*
X135156760Y-100414955D01*
X135000001Y-100394318D01*
X134999999Y-100394318D01*
X134843239Y-100414955D01*
X134843237Y-100414956D01*
X134697160Y-100475463D01*
X134571718Y-100571718D01*
X134475463Y-100697160D01*
X134414956Y-100843237D01*
X134414955Y-100843239D01*
X134394318Y-100999998D01*
X134394318Y-101000001D01*
X134414955Y-101156760D01*
X134414956Y-101156762D01*
X134455756Y-101255263D01*
X134475464Y-101302841D01*
X134571718Y-101428282D01*
X134635371Y-101477125D01*
X134676573Y-101533552D01*
X134680728Y-101603298D01*
X134646515Y-101664219D01*
X134584798Y-101696971D01*
X134559884Y-101699500D01*
X131440116Y-101699500D01*
X131373077Y-101679815D01*
X131327322Y-101627011D01*
X131317378Y-101557853D01*
X131346403Y-101494297D01*
X131364625Y-101477126D01*
X131428282Y-101428282D01*
X131524536Y-101302841D01*
X131585044Y-101156762D01*
X131601317Y-101033154D01*
X131605682Y-101000001D01*
X131605682Y-100999998D01*
X131585044Y-100843239D01*
X131585044Y-100843238D01*
X131524536Y-100697159D01*
X131428282Y-100571718D01*
X131302841Y-100475464D01*
X131156762Y-100414956D01*
X131156760Y-100414955D01*
X131000001Y-100394318D01*
X130999999Y-100394318D01*
X130843239Y-100414955D01*
X130843237Y-100414956D01*
X130697160Y-100475463D01*
X130571718Y-100571718D01*
X130475463Y-100697160D01*
X130414956Y-100843237D01*
X130414955Y-100843239D01*
X130394318Y-100999998D01*
X130394318Y-101000001D01*
X130414955Y-101156760D01*
X130414956Y-101156762D01*
X130455756Y-101255263D01*
X130475464Y-101302841D01*
X130571718Y-101428282D01*
X130635371Y-101477125D01*
X130676573Y-101533552D01*
X130680728Y-101603298D01*
X130646515Y-101664219D01*
X130584798Y-101696971D01*
X130559884Y-101699500D01*
X128424500Y-101699500D01*
X128357461Y-101679815D01*
X128311706Y-101627011D01*
X128300500Y-101575500D01*
X128300500Y-99199998D01*
X128794318Y-99199998D01*
X128794318Y-99200001D01*
X128814955Y-99356760D01*
X128814956Y-99356762D01*
X128875453Y-99502816D01*
X128875464Y-99502841D01*
X128971718Y-99628282D01*
X129097159Y-99724536D01*
X129243238Y-99785044D01*
X129321619Y-99795363D01*
X129399999Y-99805682D01*
X129400000Y-99805682D01*
X129400001Y-99805682D01*
X129452254Y-99798802D01*
X129556762Y-99785044D01*
X129702841Y-99724536D01*
X129717355Y-99713399D01*
X136445500Y-99713399D01*
X136445500Y-99926600D01*
X136478853Y-100137180D01*
X136478853Y-100137183D01*
X136544734Y-100339944D01*
X136544736Y-100339947D01*
X136641528Y-100529913D01*
X136766846Y-100702397D01*
X136917603Y-100853154D01*
X137090087Y-100978472D01*
X137280053Y-101075264D01*
X137280055Y-101075265D01*
X137373670Y-101105682D01*
X137482821Y-101141147D01*
X137693399Y-101174500D01*
X137693400Y-101174500D01*
X137906600Y-101174500D01*
X137906601Y-101174500D01*
X138117179Y-101141147D01*
X138117182Y-101141146D01*
X138117183Y-101141146D01*
X138319944Y-101075265D01*
X138319944Y-101075264D01*
X138319947Y-101075264D01*
X138509913Y-100978472D01*
X138682397Y-100853154D01*
X138833154Y-100702397D01*
X138958472Y-100529913D01*
X139055264Y-100339947D01*
X139093753Y-100221489D01*
X139121146Y-100137183D01*
X139121147Y-100137179D01*
X139133165Y-100061299D01*
X139163094Y-99998164D01*
X139222405Y-99961232D01*
X139292267Y-99962230D01*
X139350500Y-100000839D01*
X139354013Y-100005209D01*
X139371715Y-100028279D01*
X139371716Y-100028280D01*
X139371718Y-100028282D01*
X139497159Y-100124536D01*
X139643238Y-100185044D01*
X139721619Y-100195363D01*
X139799999Y-100205682D01*
X139800000Y-100205682D01*
X139800001Y-100205682D01*
X139864739Y-100197159D01*
X139956762Y-100185044D01*
X140102841Y-100124536D01*
X140228282Y-100028282D01*
X140324536Y-99902841D01*
X140385044Y-99756762D01*
X140405682Y-99600000D01*
X140404220Y-99588897D01*
X140385044Y-99443239D01*
X140385044Y-99443238D01*
X140324536Y-99297159D01*
X140228282Y-99171718D01*
X140102841Y-99075464D01*
X139956762Y-99014956D01*
X139956760Y-99014955D01*
X139800001Y-98994318D01*
X139799999Y-98994318D01*
X139643239Y-99014955D01*
X139643237Y-99014956D01*
X139497160Y-99075463D01*
X139371718Y-99171718D01*
X139275458Y-99297166D01*
X139271899Y-99303332D01*
X139221332Y-99351547D01*
X139152725Y-99364769D01*
X139087860Y-99338801D01*
X139054028Y-99297626D01*
X138965834Y-99124536D01*
X138958472Y-99110087D01*
X138833154Y-98937603D01*
X138682397Y-98786846D01*
X138509913Y-98661528D01*
X138319947Y-98564736D01*
X138319944Y-98564734D01*
X138117181Y-98498853D01*
X137976793Y-98476617D01*
X137906601Y-98465500D01*
X137693399Y-98465500D01*
X137623206Y-98476617D01*
X137482819Y-98498853D01*
X137482816Y-98498853D01*
X137280055Y-98564734D01*
X137280052Y-98564736D01*
X137090086Y-98661528D01*
X136917601Y-98786847D01*
X136766847Y-98937601D01*
X136641528Y-99110086D01*
X136544736Y-99300052D01*
X136544734Y-99300055D01*
X136478853Y-99502816D01*
X136478853Y-99502819D01*
X136445500Y-99713399D01*
X129717355Y-99713399D01*
X129828282Y-99628282D01*
X129924536Y-99502841D01*
X129985044Y-99356762D01*
X130005682Y-99200000D01*
X129999989Y-99156760D01*
X129985044Y-99043239D01*
X129985044Y-99043238D01*
X129924536Y-98897159D01*
X129828282Y-98771718D01*
X129702841Y-98675464D01*
X129675338Y-98664072D01*
X129556762Y-98614956D01*
X129556760Y-98614955D01*
X129400001Y-98594318D01*
X129399999Y-98594318D01*
X129243239Y-98614955D01*
X129243237Y-98614956D01*
X129097160Y-98675463D01*
X128971718Y-98771718D01*
X128875463Y-98897160D01*
X128814956Y-99043237D01*
X128814955Y-99043239D01*
X128794318Y-99199998D01*
X128300500Y-99199998D01*
X128300500Y-96899998D01*
X132169318Y-96899998D01*
X132169318Y-96900001D01*
X132189955Y-97056760D01*
X132189956Y-97056762D01*
X132249287Y-97200001D01*
X132250464Y-97202841D01*
X132346718Y-97328282D01*
X132472159Y-97424536D01*
X132618238Y-97485044D01*
X132653475Y-97489683D01*
X132774999Y-97505682D01*
X132775000Y-97505682D01*
X132775001Y-97505682D01*
X132827254Y-97498802D01*
X132931762Y-97485044D01*
X133077841Y-97424536D01*
X133203282Y-97328282D01*
X133299536Y-97202841D01*
X133360044Y-97056762D01*
X133380682Y-96900000D01*
X133360044Y-96743238D01*
X133299536Y-96597159D01*
X133203282Y-96471718D01*
X133077841Y-96375464D01*
X133068797Y-96371718D01*
X132931762Y-96314956D01*
X132931760Y-96314955D01*
X132775001Y-96294318D01*
X132774999Y-96294318D01*
X132618239Y-96314955D01*
X132618237Y-96314956D01*
X132472160Y-96375463D01*
X132346718Y-96471718D01*
X132250463Y-96597160D01*
X132189956Y-96743237D01*
X132189955Y-96743239D01*
X132169318Y-96899998D01*
X128300500Y-96899998D01*
X128300500Y-95999998D01*
X128794318Y-95999998D01*
X128794318Y-96000001D01*
X128814955Y-96156760D01*
X128814956Y-96156762D01*
X128871933Y-96294318D01*
X128875464Y-96302841D01*
X128971718Y-96428282D01*
X129097159Y-96524536D01*
X129243238Y-96585044D01*
X129313681Y-96594318D01*
X129399999Y-96605682D01*
X129400000Y-96605682D01*
X129400001Y-96605682D01*
X129464739Y-96597159D01*
X129556762Y-96585044D01*
X129702841Y-96524536D01*
X129828282Y-96428282D01*
X129924536Y-96302841D01*
X129985044Y-96156762D01*
X130005682Y-96000000D01*
X129985044Y-95843238D01*
X129924536Y-95697159D01*
X129828282Y-95571718D01*
X129702841Y-95475464D01*
X129556762Y-95414956D01*
X129556760Y-95414955D01*
X129400001Y-95394318D01*
X129399999Y-95394318D01*
X129243239Y-95414955D01*
X129243237Y-95414956D01*
X129097160Y-95475463D01*
X128971718Y-95571718D01*
X128875463Y-95697160D01*
X128814956Y-95843237D01*
X128814955Y-95843239D01*
X128794318Y-95999998D01*
X128300500Y-95999998D01*
X128300500Y-94049998D01*
X131769318Y-94049998D01*
X131769318Y-94050001D01*
X131789955Y-94206760D01*
X131789956Y-94206762D01*
X131839138Y-94325499D01*
X131850464Y-94352841D01*
X131946718Y-94478282D01*
X132072159Y-94574536D01*
X132218238Y-94635044D01*
X132274538Y-94642456D01*
X132374999Y-94655682D01*
X132375000Y-94655682D01*
X132375001Y-94655682D01*
X132427254Y-94648802D01*
X132531762Y-94635044D01*
X132677841Y-94574536D01*
X132803282Y-94478282D01*
X132899536Y-94352841D01*
X132960044Y-94206762D01*
X132980682Y-94050000D01*
X132979371Y-94040045D01*
X132960044Y-93893239D01*
X132960044Y-93893238D01*
X132899536Y-93747159D01*
X132803282Y-93621718D01*
X132677841Y-93525464D01*
X132598751Y-93492704D01*
X132531762Y-93464956D01*
X132531760Y-93464955D01*
X132375001Y-93444318D01*
X132374999Y-93444318D01*
X132218239Y-93464955D01*
X132218237Y-93464956D01*
X132072160Y-93525463D01*
X131946718Y-93621718D01*
X131850463Y-93747160D01*
X131789956Y-93893237D01*
X131789955Y-93893239D01*
X131769318Y-94049998D01*
X128300500Y-94049998D01*
X128300500Y-92999998D01*
X129594318Y-92999998D01*
X129594318Y-93000001D01*
X129614955Y-93156760D01*
X129614956Y-93156762D01*
X129675464Y-93302841D01*
X129771718Y-93428282D01*
X129897159Y-93524536D01*
X130043238Y-93585044D01*
X130121619Y-93595363D01*
X130199999Y-93605682D01*
X130200000Y-93605682D01*
X130200001Y-93605682D01*
X130252254Y-93598802D01*
X130356762Y-93585044D01*
X130502841Y-93524536D01*
X130628282Y-93428282D01*
X130724536Y-93302841D01*
X130785044Y-93156762D01*
X130805682Y-93000000D01*
X130785044Y-92843238D01*
X130724536Y-92697159D01*
X130628282Y-92571718D01*
X130502841Y-92475464D01*
X130356762Y-92414956D01*
X130356760Y-92414955D01*
X130200001Y-92394318D01*
X130199999Y-92394318D01*
X130043239Y-92414955D01*
X130043237Y-92414956D01*
X129897160Y-92475463D01*
X129771718Y-92571718D01*
X129675463Y-92697160D01*
X129614956Y-92843237D01*
X129614955Y-92843239D01*
X129594318Y-92999998D01*
X128300500Y-92999998D01*
X128300500Y-90599998D01*
X129194318Y-90599998D01*
X129194318Y-90600001D01*
X129214955Y-90756760D01*
X129214956Y-90756762D01*
X129250775Y-90843238D01*
X129275464Y-90902841D01*
X129371718Y-91028282D01*
X129497159Y-91124536D01*
X129643238Y-91185044D01*
X129721619Y-91195363D01*
X129799999Y-91205682D01*
X129800000Y-91205682D01*
X129800001Y-91205682D01*
X129852254Y-91198802D01*
X129956762Y-91185044D01*
X130102841Y-91124536D01*
X130228282Y-91028282D01*
X130324536Y-90902841D01*
X130385044Y-90756762D01*
X130405682Y-90600000D01*
X130402979Y-90579471D01*
X130385044Y-90443239D01*
X130385044Y-90443238D01*
X130324536Y-90297159D01*
X130228282Y-90171718D01*
X130102841Y-90075464D01*
X129956762Y-90014956D01*
X129956760Y-90014955D01*
X129800001Y-89994318D01*
X129799999Y-89994318D01*
X129643239Y-90014955D01*
X129643237Y-90014956D01*
X129497160Y-90075463D01*
X129371718Y-90171718D01*
X129275463Y-90297160D01*
X129214956Y-90443237D01*
X129214955Y-90443239D01*
X129194318Y-90599998D01*
X128300500Y-90599998D01*
X128300500Y-88399998D01*
X129194318Y-88399998D01*
X129194318Y-88400001D01*
X129214955Y-88556760D01*
X129214956Y-88556762D01*
X129273109Y-88697157D01*
X129275464Y-88702841D01*
X129371718Y-88828282D01*
X129497159Y-88924536D01*
X129643238Y-88985044D01*
X129721619Y-88995363D01*
X129799999Y-89005682D01*
X129800000Y-89005682D01*
X129800001Y-89005682D01*
X129852254Y-88998802D01*
X129956762Y-88985044D01*
X130102841Y-88924536D01*
X130228282Y-88828282D01*
X130324536Y-88702841D01*
X130385044Y-88556762D01*
X130405682Y-88400000D01*
X130385044Y-88243238D01*
X130324536Y-88097159D01*
X130228282Y-87971718D01*
X130102841Y-87875464D01*
X129956762Y-87814956D01*
X129956760Y-87814955D01*
X129800001Y-87794318D01*
X129799999Y-87794318D01*
X129643239Y-87814955D01*
X129643237Y-87814956D01*
X129497160Y-87875463D01*
X129371718Y-87971718D01*
X129275463Y-88097160D01*
X129214956Y-88243237D01*
X129214955Y-88243239D01*
X129194318Y-88399998D01*
X128300500Y-88399998D01*
X128300500Y-85599998D01*
X129194318Y-85599998D01*
X129194318Y-85600001D01*
X129214955Y-85756760D01*
X129214956Y-85756762D01*
X129275464Y-85902841D01*
X129371718Y-86028282D01*
X129497159Y-86124536D01*
X129643238Y-86185044D01*
X129721619Y-86195363D01*
X129799999Y-86205682D01*
X129800000Y-86205682D01*
X129800001Y-86205682D01*
X129852254Y-86198802D01*
X129956762Y-86185044D01*
X130102841Y-86124536D01*
X130228282Y-86028282D01*
X130324536Y-85902841D01*
X130385044Y-85756762D01*
X130398802Y-85652254D01*
X130405682Y-85600001D01*
X130405682Y-85599998D01*
X130391426Y-85491718D01*
X130385044Y-85443238D01*
X130324536Y-85297159D01*
X130228282Y-85171718D01*
X130102841Y-85075464D01*
X129956762Y-85014956D01*
X129956760Y-85014955D01*
X129800001Y-84994318D01*
X129799999Y-84994318D01*
X129643239Y-85014955D01*
X129643237Y-85014956D01*
X129497160Y-85075463D01*
X129371718Y-85171718D01*
X129275463Y-85297160D01*
X129214956Y-85443237D01*
X129214955Y-85443239D01*
X129194318Y-85599998D01*
X128300500Y-85599998D01*
X128300500Y-83466146D01*
X129234200Y-83466146D01*
X129234200Y-83613853D01*
X129263012Y-83758701D01*
X129263014Y-83758709D01*
X129319534Y-83895160D01*
X129319539Y-83895170D01*
X129401591Y-84017969D01*
X129401594Y-84017973D01*
X129506026Y-84122405D01*
X129506030Y-84122408D01*
X129628829Y-84204460D01*
X129628833Y-84204462D01*
X129628836Y-84204464D01*
X129765291Y-84260986D01*
X129910146Y-84289799D01*
X129910150Y-84289800D01*
X129910151Y-84289800D01*
X130057850Y-84289800D01*
X130057851Y-84289799D01*
X130202709Y-84260986D01*
X130339164Y-84204464D01*
X130461970Y-84122408D01*
X130566408Y-84017970D01*
X130648464Y-83895164D01*
X130704986Y-83758709D01*
X130733800Y-83613849D01*
X130733800Y-83466151D01*
X130733799Y-83466146D01*
X131266200Y-83466146D01*
X131266200Y-83613853D01*
X131295012Y-83758701D01*
X131295014Y-83758709D01*
X131351534Y-83895160D01*
X131351539Y-83895170D01*
X131433591Y-84017969D01*
X131433594Y-84017973D01*
X131538026Y-84122405D01*
X131538030Y-84122408D01*
X131660829Y-84204460D01*
X131660833Y-84204462D01*
X131660836Y-84204464D01*
X131797291Y-84260986D01*
X131942146Y-84289799D01*
X131942150Y-84289800D01*
X131942151Y-84289800D01*
X132089850Y-84289800D01*
X132089851Y-84289799D01*
X132234709Y-84260986D01*
X132371164Y-84204464D01*
X132493970Y-84122408D01*
X132598408Y-84017970D01*
X132680464Y-83895164D01*
X132736986Y-83758709D01*
X132765800Y-83613849D01*
X132765800Y-83466151D01*
X132736986Y-83321291D01*
X132680464Y-83184836D01*
X132680462Y-83184833D01*
X132680460Y-83184829D01*
X132598408Y-83062030D01*
X132598405Y-83062026D01*
X132493973Y-82957594D01*
X132493969Y-82957591D01*
X132371170Y-82875539D01*
X132371160Y-82875534D01*
X132234709Y-82819014D01*
X132234701Y-82819012D01*
X132089853Y-82790200D01*
X132089849Y-82790200D01*
X131942151Y-82790200D01*
X131942146Y-82790200D01*
X131797298Y-82819012D01*
X131797290Y-82819014D01*
X131660839Y-82875534D01*
X131660829Y-82875539D01*
X131538030Y-82957591D01*
X131538026Y-82957594D01*
X131433594Y-83062026D01*
X131433591Y-83062030D01*
X131351539Y-83184829D01*
X131351534Y-83184839D01*
X131295014Y-83321290D01*
X131295012Y-83321298D01*
X131266200Y-83466146D01*
X130733799Y-83466146D01*
X130704986Y-83321291D01*
X130648464Y-83184836D01*
X130648462Y-83184833D01*
X130648460Y-83184829D01*
X130566408Y-83062030D01*
X130566405Y-83062026D01*
X130461973Y-82957594D01*
X130461969Y-82957591D01*
X130339170Y-82875539D01*
X130339160Y-82875534D01*
X130202709Y-82819014D01*
X130202701Y-82819012D01*
X130057853Y-82790200D01*
X130057849Y-82790200D01*
X129910151Y-82790200D01*
X129910146Y-82790200D01*
X129765298Y-82819012D01*
X129765290Y-82819014D01*
X129628839Y-82875534D01*
X129628829Y-82875539D01*
X129506030Y-82957591D01*
X129506026Y-82957594D01*
X129401594Y-83062026D01*
X129401591Y-83062030D01*
X129319539Y-83184829D01*
X129319534Y-83184839D01*
X129263014Y-83321290D01*
X129263012Y-83321298D01*
X129234200Y-83466146D01*
X128300500Y-83466146D01*
X128300500Y-82599998D01*
X133994318Y-82599998D01*
X133994318Y-82600001D01*
X134014955Y-82756760D01*
X134014956Y-82756762D01*
X134053576Y-82850000D01*
X134075464Y-82902841D01*
X134171718Y-83028282D01*
X134297159Y-83124536D01*
X134443238Y-83185044D01*
X134521619Y-83195363D01*
X134599999Y-83205682D01*
X134600000Y-83205682D01*
X134600001Y-83205682D01*
X134652254Y-83198802D01*
X134756762Y-83185044D01*
X134902841Y-83124536D01*
X135028282Y-83028282D01*
X135124536Y-82902841D01*
X135185044Y-82756762D01*
X135205682Y-82600000D01*
X135204580Y-82591633D01*
X135185044Y-82443239D01*
X135185044Y-82443238D01*
X135124536Y-82297159D01*
X135028282Y-82171718D01*
X134902841Y-82075464D01*
X134756762Y-82014956D01*
X134756760Y-82014955D01*
X134600001Y-81994318D01*
X134599999Y-81994318D01*
X134443239Y-82014955D01*
X134443237Y-82014956D01*
X134297160Y-82075463D01*
X134171718Y-82171718D01*
X134075463Y-82297160D01*
X134014956Y-82443237D01*
X134014955Y-82443239D01*
X133994318Y-82599998D01*
X128300500Y-82599998D01*
X128300500Y-80199998D01*
X135394318Y-80199998D01*
X135394318Y-80200001D01*
X135414955Y-80356760D01*
X135414956Y-80356762D01*
X135454935Y-80453281D01*
X135475464Y-80502841D01*
X135571718Y-80628282D01*
X135697159Y-80724536D01*
X135843238Y-80785044D01*
X135921619Y-80795363D01*
X135999999Y-80805682D01*
X136000000Y-80805682D01*
X136000001Y-80805682D01*
X136052254Y-80798802D01*
X136156762Y-80785044D01*
X136302841Y-80724536D01*
X136428282Y-80628282D01*
X136524536Y-80502841D01*
X136585044Y-80356762D01*
X136605682Y-80200000D01*
X136599989Y-80156760D01*
X136585044Y-80043239D01*
X136585044Y-80043238D01*
X136524536Y-79897159D01*
X136428282Y-79771718D01*
X136302841Y-79675464D01*
X136293797Y-79671718D01*
X136156762Y-79614956D01*
X136156760Y-79614955D01*
X136000001Y-79594318D01*
X135999999Y-79594318D01*
X135843239Y-79614955D01*
X135843237Y-79614956D01*
X135697160Y-79675463D01*
X135571718Y-79771718D01*
X135475463Y-79897160D01*
X135414956Y-80043237D01*
X135414955Y-80043239D01*
X135394318Y-80199998D01*
X128300500Y-80199998D01*
X128300500Y-78440115D01*
X128320185Y-78373076D01*
X128372989Y-78327321D01*
X128442147Y-78317377D01*
X128505703Y-78346402D01*
X128522873Y-78364625D01*
X128529357Y-78373076D01*
X128564011Y-78418239D01*
X128571718Y-78428282D01*
X128697159Y-78524536D01*
X128843238Y-78585044D01*
X128921619Y-78595363D01*
X128999999Y-78605682D01*
X129000000Y-78605682D01*
X129000001Y-78605682D01*
X129052254Y-78598802D01*
X129156762Y-78585044D01*
X129302841Y-78524536D01*
X129428282Y-78428282D01*
X129460614Y-78386146D01*
X130250200Y-78386146D01*
X130250200Y-78533853D01*
X130279012Y-78678701D01*
X130279014Y-78678709D01*
X130335534Y-78815160D01*
X130335539Y-78815170D01*
X130417591Y-78937969D01*
X130417594Y-78937973D01*
X130522026Y-79042405D01*
X130522030Y-79042408D01*
X130644829Y-79124460D01*
X130644833Y-79124462D01*
X130644836Y-79124464D01*
X130781291Y-79180986D01*
X130926146Y-79209799D01*
X130926150Y-79209800D01*
X130926151Y-79209800D01*
X131073850Y-79209800D01*
X131073851Y-79209799D01*
X131218709Y-79180986D01*
X131355164Y-79124464D01*
X131477970Y-79042408D01*
X131520380Y-78999998D01*
X136394318Y-78999998D01*
X136394318Y-79000001D01*
X136414955Y-79156760D01*
X136414956Y-79156762D01*
X136456376Y-79256760D01*
X136475464Y-79302841D01*
X136571718Y-79428282D01*
X136697159Y-79524536D01*
X136843238Y-79585044D01*
X136913681Y-79594318D01*
X136999999Y-79605682D01*
X137000000Y-79605682D01*
X137000001Y-79605682D01*
X137052254Y-79598802D01*
X137156762Y-79585044D01*
X137302841Y-79524536D01*
X137428282Y-79428282D01*
X137524536Y-79302841D01*
X137585044Y-79156762D01*
X137605682Y-79000000D01*
X137605682Y-78999998D01*
X139794318Y-78999998D01*
X139794318Y-79000001D01*
X139814955Y-79156760D01*
X139814956Y-79156762D01*
X139856376Y-79256760D01*
X139875464Y-79302841D01*
X139971718Y-79428282D01*
X140097159Y-79524536D01*
X140243238Y-79585044D01*
X140313681Y-79594318D01*
X140399999Y-79605682D01*
X140400000Y-79605682D01*
X140400001Y-79605682D01*
X140452254Y-79598802D01*
X140556762Y-79585044D01*
X140702841Y-79524536D01*
X140828282Y-79428282D01*
X140924536Y-79302841D01*
X140985044Y-79156762D01*
X141005682Y-79000000D01*
X140985044Y-78843238D01*
X140924536Y-78697159D01*
X140828282Y-78571718D01*
X140702841Y-78475464D01*
X140556762Y-78414956D01*
X140556760Y-78414955D01*
X140400001Y-78394318D01*
X140399999Y-78394318D01*
X140243239Y-78414955D01*
X140243237Y-78414956D01*
X140097160Y-78475463D01*
X139971718Y-78571718D01*
X139875463Y-78697160D01*
X139814956Y-78843237D01*
X139814955Y-78843239D01*
X139794318Y-78999998D01*
X137605682Y-78999998D01*
X137585044Y-78843238D01*
X137524536Y-78697159D01*
X137428282Y-78571718D01*
X137302841Y-78475464D01*
X137156762Y-78414956D01*
X137156760Y-78414955D01*
X137000001Y-78394318D01*
X136999999Y-78394318D01*
X136843239Y-78414955D01*
X136843237Y-78414956D01*
X136697160Y-78475463D01*
X136571718Y-78571718D01*
X136475463Y-78697160D01*
X136414956Y-78843237D01*
X136414955Y-78843239D01*
X136394318Y-78999998D01*
X131520380Y-78999998D01*
X131582408Y-78937970D01*
X131664464Y-78815164D01*
X131720986Y-78678709D01*
X131749800Y-78533849D01*
X131749800Y-78386151D01*
X131720986Y-78241291D01*
X131664464Y-78104836D01*
X131664462Y-78104833D01*
X131664460Y-78104829D01*
X131582408Y-77982030D01*
X131582405Y-77982026D01*
X131477973Y-77877594D01*
X131477969Y-77877591D01*
X131355170Y-77795539D01*
X131355160Y-77795534D01*
X131218709Y-77739014D01*
X131218701Y-77739012D01*
X131073853Y-77710200D01*
X131073849Y-77710200D01*
X130926151Y-77710200D01*
X130926146Y-77710200D01*
X130781298Y-77739012D01*
X130781290Y-77739014D01*
X130644839Y-77795534D01*
X130644829Y-77795539D01*
X130522030Y-77877591D01*
X130522026Y-77877594D01*
X130417594Y-77982026D01*
X130417591Y-77982030D01*
X130335539Y-78104829D01*
X130335534Y-78104839D01*
X130279014Y-78241290D01*
X130279012Y-78241298D01*
X130250200Y-78386146D01*
X129460614Y-78386146D01*
X129524536Y-78302841D01*
X129585044Y-78156762D01*
X129605682Y-78000000D01*
X129601317Y-77966847D01*
X129585044Y-77843239D01*
X129585044Y-77843238D01*
X129524536Y-77697159D01*
X129428282Y-77571718D01*
X129364628Y-77522874D01*
X129323427Y-77466448D01*
X129319272Y-77396702D01*
X129353485Y-77335781D01*
X129415202Y-77303029D01*
X129440116Y-77300500D01*
X132559884Y-77300500D01*
X132626923Y-77320185D01*
G37*
%TD.AperFunction*%
%TD*%
M02*
