%TF.GenerationSoftware,KiCad,Pcbnew,8.0.2*%
%TF.CreationDate,2024-05-24T20:03:17+02:00*%
%TF.ProjectId,STM32-Breakout,53544d33-322d-4427-9265-616b6f75742e,rev?*%
%TF.SameCoordinates,Original*%
%TF.FileFunction,Copper,L4,Bot*%
%TF.FilePolarity,Positive*%
%FSLAX46Y46*%
G04 Gerber Fmt 4.6, Leading zero omitted, Abs format (unit mm)*
G04 Created by KiCad (PCBNEW 8.0.2) date 2024-05-24 20:03:17*
%MOMM*%
%LPD*%
G01*
G04 APERTURE LIST*
%TA.AperFunction,CastellatedPad*%
%ADD10R,1.700000X1.950000*%
%TD*%
%TA.AperFunction,ComponentPad*%
%ADD11R,0.500000X0.900000*%
%TD*%
%TA.AperFunction,SMDPad,CuDef*%
%ADD12R,2.600000X5.560000*%
%TD*%
%TA.AperFunction,SMDPad,CuDef*%
%ADD13C,17.800000*%
%TD*%
%TA.AperFunction,ViaPad*%
%ADD14C,0.700000*%
%TD*%
%TA.AperFunction,ViaPad*%
%ADD15C,0.800000*%
%TD*%
%TA.AperFunction,ViaPad*%
%ADD16C,0.500000*%
%TD*%
%TA.AperFunction,ViaPad*%
%ADD17C,0.600000*%
%TD*%
%TA.AperFunction,Conductor*%
%ADD18C,0.300000*%
%TD*%
%TA.AperFunction,Conductor*%
%ADD19C,0.200000*%
%TD*%
G04 APERTURE END LIST*
D10*
%TO.P,J3,1,Pin_1*%
%TO.N,/UART_TX*%
X148175000Y-102000000D03*
%TO.P,J3,2,Pin_2*%
%TO.N,/UART_RX*%
X145675000Y-102000000D03*
%TO.P,J3,3,Pin_3*%
%TO.N,+3.3V*%
X143175000Y-102000000D03*
%TO.P,J3,4,Pin_4*%
%TO.N,GND*%
X140675000Y-102000000D03*
%TD*%
%TO.P,J2,1,Pin_1*%
%TO.N,+3.3V*%
X134600000Y-77000000D03*
%TO.P,J2,2,Pin_2*%
%TO.N,/SWDIO*%
X137100000Y-77000000D03*
%TO.P,J2,3,Pin_3*%
%TO.N,/SWDCLK*%
X139600000Y-77000000D03*
%TO.P,J2,4,Pin_4*%
%TO.N,GND*%
X142100000Y-77000000D03*
%TD*%
D11*
%TO.P,AE1,2*%
%TO.N,GND*%
X158820000Y-82800000D03*
%TD*%
D12*
%TO.P,BT1,1,+*%
%TO.N,+3.3V*%
X155805000Y-89600000D03*
X131995000Y-89600000D03*
D13*
%TO.P,BT1,2,-*%
%TO.N,GND*%
X143900000Y-89600000D03*
%TD*%
D14*
%TO.N,+3.3V*%
X141000000Y-80200000D03*
D15*
X135000000Y-79200000D03*
D14*
X134500000Y-92700000D03*
X135650000Y-83950000D03*
X135100000Y-93900000D03*
X152150000Y-84450000D03*
D15*
X136150000Y-79150000D03*
D14*
X153950000Y-92100000D03*
X138350000Y-80400000D03*
X136725000Y-96275000D03*
X134450000Y-86100000D03*
X133100000Y-92600000D03*
D15*
X137400000Y-79700000D03*
D14*
X150100000Y-97550000D03*
%TO.N,GND*%
X148850000Y-90400000D03*
D16*
X145200000Y-89800000D03*
D14*
X140160000Y-96600000D03*
X158000000Y-79000000D03*
D16*
X141963000Y-86719400D03*
X145200000Y-87600000D03*
D14*
X152000000Y-101000000D03*
D16*
X146413000Y-91169400D03*
D14*
X158000000Y-93000000D03*
X146510000Y-98680000D03*
X149375000Y-100500000D03*
D16*
X148975000Y-83675000D03*
D14*
X158000000Y-81000000D03*
X158300000Y-86075000D03*
X158000000Y-78000000D03*
X158000000Y-83000000D03*
X131000000Y-101000000D03*
D16*
X143200000Y-89800000D03*
D14*
X155500000Y-83650000D03*
X152700000Y-96800000D03*
X132775000Y-96900000D03*
X158000000Y-89000000D03*
X141450000Y-78500000D03*
X142000000Y-99000000D03*
X158000000Y-101000000D03*
X144400000Y-96750000D03*
X139200000Y-84050000D03*
X139200000Y-83100000D03*
X139250000Y-94750000D03*
X140000000Y-101000000D03*
X153250000Y-98650000D03*
D16*
X152950000Y-81425000D03*
D14*
X138550000Y-88180000D03*
X148000000Y-97000000D03*
X158000000Y-99000000D03*
X135000000Y-101000000D03*
D16*
X146363000Y-88869400D03*
D14*
X158000000Y-91000000D03*
D16*
X132000000Y-81000000D03*
D14*
X153820000Y-85920000D03*
D16*
X149400000Y-86750000D03*
D14*
X158000000Y-94000000D03*
X158000000Y-87000000D03*
X153000000Y-79100000D03*
X132375000Y-94050000D03*
X150175000Y-80025000D03*
X157000000Y-101000000D03*
D16*
X146313000Y-86719400D03*
D14*
X158000000Y-98000000D03*
X142825000Y-78525000D03*
X154875000Y-98175000D03*
X158000000Y-100000000D03*
X158000000Y-84000000D03*
D16*
X144063000Y-91119400D03*
D14*
X158000000Y-82000000D03*
X131900000Y-83975000D03*
X148125000Y-78575000D03*
X153000000Y-83000000D03*
X144575000Y-100475000D03*
X146550000Y-80100000D03*
X147940000Y-95090000D03*
X158000000Y-92000000D03*
X138950000Y-78900000D03*
X158000000Y-95000000D03*
D16*
X141913000Y-88919400D03*
D14*
X133470000Y-86050000D03*
X157000000Y-78000000D03*
X153450000Y-90050000D03*
X158000000Y-90000000D03*
X158000000Y-88000000D03*
D16*
X141963000Y-91169400D03*
D14*
X158000000Y-80000000D03*
X145000000Y-78000000D03*
D16*
X144113000Y-86719400D03*
D14*
X158000000Y-97000000D03*
X155025000Y-81800000D03*
D16*
X143200000Y-87600000D03*
D14*
X146925000Y-82325000D03*
X158000000Y-96000000D03*
X152000000Y-91000000D03*
D16*
X133250000Y-79750000D03*
D14*
X151000000Y-78000000D03*
X140413000Y-94569400D03*
D16*
X150800000Y-84500000D03*
X151600000Y-83400000D03*
X156425000Y-80725000D03*
D17*
%TO.N,/SWDIO*%
X136300000Y-82325000D03*
D16*
%TO.N,/UART_TX*%
X152525000Y-93825000D03*
%TO.N,/UART_RX*%
X137450000Y-82850000D03*
D17*
%TO.N,/SWDCLK*%
X134925000Y-83200000D03*
D16*
%TO.N,PHOTO_OUT*%
X155150000Y-93850000D03*
X151050000Y-96050000D03*
%TD*%
D18*
%TO.N,GND*%
X137675000Y-93900000D02*
X137700000Y-93875000D01*
D19*
%TO.N,/SWDIO*%
X137100000Y-77000000D02*
X137100000Y-79113288D01*
X137100000Y-79113288D02*
X136773000Y-79440288D01*
X136600000Y-82325000D02*
X136300000Y-82325000D01*
X137140288Y-80327000D02*
X137452000Y-80327000D01*
X137675000Y-81250000D02*
X136600000Y-82325000D01*
X136773000Y-79959712D02*
X137140288Y-80327000D01*
X137452000Y-80327000D02*
X137675000Y-80550000D01*
X137675000Y-80550000D02*
X137675000Y-81250000D01*
X136773000Y-79440288D02*
X136773000Y-79959712D01*
%TO.N,/SWDCLK*%
X139600000Y-77000000D02*
X139800000Y-77200000D01*
X136366002Y-83200000D02*
X134925000Y-83200000D01*
X139800000Y-79766002D02*
X136366002Y-83200000D01*
X139800000Y-77200000D02*
X139800000Y-79766002D01*
%TO.N,PHOTO_OUT*%
X155150000Y-93850000D02*
X153650000Y-95350000D01*
X153650000Y-95350000D02*
X151750000Y-95350000D01*
X151750000Y-95350000D02*
X151050000Y-96050000D01*
%TD*%
%TA.AperFunction,Conductor*%
%TO.N,+3.3V*%
G36*
X135942539Y-77320185D02*
G01*
X135988294Y-77372989D01*
X135999500Y-77424500D01*
X135999500Y-77999678D01*
X136014032Y-78072735D01*
X136014033Y-78072739D01*
X136014034Y-78072740D01*
X136069399Y-78155601D01*
X136131595Y-78197158D01*
X136152260Y-78210966D01*
X136152264Y-78210967D01*
X136225321Y-78225499D01*
X136225324Y-78225500D01*
X136225326Y-78225500D01*
X136625500Y-78225500D01*
X136692539Y-78245185D01*
X136738294Y-78297989D01*
X136749500Y-78349500D01*
X136749500Y-78916744D01*
X136729815Y-78983783D01*
X136713181Y-79004425D01*
X136492531Y-79225074D01*
X136492527Y-79225079D01*
X136446387Y-79304997D01*
X136446386Y-79305000D01*
X136422500Y-79394144D01*
X136422500Y-80005856D01*
X136429814Y-80033152D01*
X136431748Y-80040367D01*
X136431749Y-80040373D01*
X136446384Y-80094996D01*
X136446385Y-80094998D01*
X136446386Y-80095000D01*
X136456566Y-80112633D01*
X136475965Y-80146233D01*
X136492438Y-80214134D01*
X136469585Y-80280161D01*
X136414664Y-80323351D01*
X136392769Y-80329850D01*
X136271298Y-80354012D01*
X136271290Y-80354014D01*
X136134839Y-80410534D01*
X136134829Y-80410539D01*
X136012030Y-80492591D01*
X136012026Y-80492594D01*
X135907594Y-80597026D01*
X135907591Y-80597030D01*
X135825539Y-80719829D01*
X135825534Y-80719839D01*
X135769014Y-80856290D01*
X135769012Y-80856298D01*
X135740200Y-81001146D01*
X135740200Y-81148853D01*
X135769012Y-81293701D01*
X135769014Y-81293709D01*
X135825534Y-81430160D01*
X135825539Y-81430170D01*
X135907591Y-81552969D01*
X135907594Y-81552973D01*
X136012026Y-81657405D01*
X136013845Y-81658898D01*
X136014541Y-81659920D01*
X136016337Y-81661716D01*
X136015996Y-81662056D01*
X136053177Y-81716645D01*
X136055046Y-81786490D01*
X136018857Y-81846257D01*
X136010664Y-81853124D01*
X135907381Y-81932376D01*
X135819137Y-82047377D01*
X135763671Y-82181287D01*
X135763670Y-82181291D01*
X135744750Y-82324999D01*
X135744750Y-82325000D01*
X135763670Y-82468708D01*
X135763671Y-82468712D01*
X135819137Y-82602622D01*
X135819138Y-82602624D01*
X135819139Y-82602625D01*
X135855502Y-82650014D01*
X135880696Y-82715182D01*
X135866658Y-82783627D01*
X135817844Y-82833617D01*
X135757126Y-82849500D01*
X135411092Y-82849500D01*
X135344053Y-82829815D01*
X135324587Y-82811913D01*
X135323372Y-82813129D01*
X135317627Y-82807384D01*
X135317621Y-82807379D01*
X135202625Y-82719139D01*
X135202624Y-82719138D01*
X135202622Y-82719137D01*
X135068712Y-82663671D01*
X135068710Y-82663670D01*
X135068709Y-82663670D01*
X134964976Y-82650013D01*
X134925001Y-82644750D01*
X134924999Y-82644750D01*
X134781291Y-82663670D01*
X134781287Y-82663671D01*
X134647377Y-82719137D01*
X134532379Y-82807379D01*
X134444137Y-82922377D01*
X134388671Y-83056287D01*
X134388670Y-83056291D01*
X134369750Y-83199999D01*
X134369750Y-83200000D01*
X134388670Y-83343708D01*
X134388671Y-83343712D01*
X134444137Y-83477622D01*
X134444138Y-83477624D01*
X134444139Y-83477625D01*
X134532379Y-83592621D01*
X134647375Y-83680861D01*
X134781291Y-83736330D01*
X134908280Y-83753048D01*
X134924999Y-83755250D01*
X134925000Y-83755250D01*
X134925001Y-83755250D01*
X134939977Y-83753278D01*
X135068709Y-83736330D01*
X135202625Y-83680861D01*
X135317621Y-83592621D01*
X135317623Y-83592617D01*
X135317627Y-83592615D01*
X135323372Y-83586871D01*
X135325888Y-83589387D01*
X135369183Y-83557797D01*
X135411092Y-83550500D01*
X136412144Y-83550500D01*
X136412146Y-83550500D01*
X136501290Y-83526614D01*
X136516766Y-83517679D01*
X136581214Y-83480470D01*
X136890379Y-83171303D01*
X136951699Y-83137821D01*
X137021390Y-83142805D01*
X137071770Y-83177784D01*
X137118872Y-83232143D01*
X137123522Y-83235131D01*
X137169278Y-83287933D01*
X137179223Y-83357091D01*
X137150201Y-83420648D01*
X137146989Y-83424213D01*
X137016598Y-83563430D01*
X137016596Y-83563433D01*
X136636530Y-84026544D01*
X136287558Y-84513533D01*
X136287552Y-84513543D01*
X135971193Y-85022290D01*
X135971180Y-85022312D01*
X135688779Y-85550650D01*
X135688765Y-85550677D01*
X135441510Y-86096379D01*
X135230477Y-86657082D01*
X135230472Y-86657097D01*
X135056563Y-87230400D01*
X135056560Y-87230408D01*
X134920515Y-87813873D01*
X134822923Y-88404984D01*
X134822923Y-88404990D01*
X134764200Y-89001196D01*
X134744598Y-89600000D01*
X134764200Y-90198803D01*
X134822923Y-90795009D01*
X134822923Y-90795015D01*
X134920515Y-91386126D01*
X135056560Y-91969591D01*
X135056563Y-91969599D01*
X135230472Y-92542902D01*
X135230477Y-92542917D01*
X135441510Y-93103620D01*
X135688765Y-93649322D01*
X135688779Y-93649349D01*
X135971180Y-94177687D01*
X135971193Y-94177709D01*
X136287552Y-94686456D01*
X136287558Y-94686466D01*
X136567994Y-95077813D01*
X136636531Y-95173456D01*
X137016604Y-95636576D01*
X137426153Y-96073847D01*
X137863424Y-96483396D01*
X138249204Y-96799998D01*
X138326544Y-96863469D01*
X138326543Y-96863469D01*
X138813533Y-97212441D01*
X138813543Y-97212447D01*
X139322290Y-97528806D01*
X139322312Y-97528819D01*
X139850650Y-97811220D01*
X139850677Y-97811234D01*
X140307546Y-98018239D01*
X140396379Y-98058489D01*
X140957092Y-98269526D01*
X141472316Y-98425817D01*
X141530755Y-98464115D01*
X141559211Y-98527927D01*
X141548651Y-98596994D01*
X141534697Y-98619964D01*
X141475464Y-98697157D01*
X141414956Y-98843237D01*
X141414955Y-98843239D01*
X141394318Y-98999998D01*
X141394318Y-99000001D01*
X141414955Y-99156760D01*
X141414956Y-99156762D01*
X141459807Y-99265043D01*
X141475464Y-99302841D01*
X141571718Y-99428282D01*
X141697159Y-99524536D01*
X141843238Y-99585044D01*
X141921619Y-99595363D01*
X141999999Y-99605682D01*
X142000000Y-99605682D01*
X142000001Y-99605682D01*
X142052254Y-99598802D01*
X142156762Y-99585044D01*
X142302841Y-99524536D01*
X142428282Y-99428282D01*
X142524536Y-99302841D01*
X142585044Y-99156762D01*
X142605682Y-99000000D01*
X142601317Y-98966847D01*
X142585044Y-98843239D01*
X142585043Y-98843237D01*
X142585043Y-98843236D01*
X142582940Y-98835387D01*
X142585836Y-98834610D01*
X142579882Y-98779396D01*
X142611137Y-98716907D01*
X142671215Y-98681235D01*
X142714069Y-98677971D01*
X143140577Y-98719979D01*
X143301196Y-98735799D01*
X143301198Y-98735799D01*
X143301208Y-98735800D01*
X143900000Y-98755402D01*
X144498792Y-98735800D01*
X144498801Y-98735799D01*
X144498803Y-98735799D01*
X144541426Y-98731600D01*
X145095020Y-98677076D01*
X145686130Y-98579484D01*
X145752162Y-98564087D01*
X145821918Y-98568034D01*
X145878469Y-98609069D01*
X145903003Y-98671975D01*
X145903257Y-98671942D01*
X145903392Y-98672972D01*
X145903857Y-98674163D01*
X145904006Y-98677638D01*
X145924955Y-98836760D01*
X145924956Y-98836762D01*
X145978838Y-98966846D01*
X145985464Y-98982841D01*
X146081718Y-99108282D01*
X146207159Y-99204536D01*
X146353238Y-99265044D01*
X146431619Y-99275363D01*
X146509999Y-99285682D01*
X146510000Y-99285682D01*
X146510001Y-99285682D01*
X146562254Y-99278802D01*
X146666762Y-99265044D01*
X146812841Y-99204536D01*
X146938282Y-99108282D01*
X147034536Y-98982841D01*
X147095044Y-98836762D01*
X147114590Y-98688294D01*
X147115682Y-98680001D01*
X147115682Y-98679998D01*
X147111732Y-98649998D01*
X152644318Y-98649998D01*
X152644318Y-98650001D01*
X152664955Y-98806760D01*
X152664956Y-98806762D01*
X152725464Y-98952841D01*
X152821718Y-99078282D01*
X152947159Y-99174536D01*
X153093238Y-99235044D01*
X153171619Y-99245363D01*
X153249999Y-99255682D01*
X153250000Y-99255682D01*
X153250001Y-99255682D01*
X153302254Y-99248802D01*
X153406762Y-99235044D01*
X153552841Y-99174536D01*
X153678282Y-99078282D01*
X153774536Y-98952841D01*
X153835044Y-98806762D01*
X153848802Y-98702254D01*
X153855682Y-98650001D01*
X153855682Y-98649998D01*
X153838994Y-98523239D01*
X153835044Y-98493238D01*
X153774536Y-98347159D01*
X153678282Y-98221718D01*
X153552841Y-98125464D01*
X153406762Y-98064956D01*
X153406760Y-98064955D01*
X153250001Y-98044318D01*
X153249999Y-98044318D01*
X153093239Y-98064955D01*
X153093237Y-98064956D01*
X152947160Y-98125463D01*
X152821718Y-98221718D01*
X152725463Y-98347160D01*
X152664956Y-98493237D01*
X152664955Y-98493239D01*
X152644318Y-98649998D01*
X147111732Y-98649998D01*
X147095044Y-98523239D01*
X147095044Y-98523238D01*
X147034536Y-98377159D01*
X147034535Y-98377158D01*
X147034535Y-98377157D01*
X147029294Y-98370327D01*
X147004099Y-98305158D01*
X147018137Y-98236713D01*
X147066951Y-98186723D01*
X147083973Y-98178795D01*
X147403621Y-98058489D01*
X147949331Y-97811230D01*
X148250106Y-97650463D01*
X148477687Y-97528819D01*
X148477709Y-97528806D01*
X148986456Y-97212447D01*
X148986466Y-97212441D01*
X149064169Y-97156760D01*
X149473456Y-96863469D01*
X149550796Y-96799998D01*
X152094318Y-96799998D01*
X152094318Y-96800001D01*
X152114955Y-96956760D01*
X152114956Y-96956762D01*
X152156376Y-97056760D01*
X152175464Y-97102841D01*
X152271718Y-97228282D01*
X152397159Y-97324536D01*
X152543238Y-97385044D01*
X152621619Y-97395363D01*
X152699999Y-97405682D01*
X152700000Y-97405682D01*
X152700001Y-97405682D01*
X152752254Y-97398802D01*
X152856762Y-97385044D01*
X153002841Y-97324536D01*
X153128282Y-97228282D01*
X153224536Y-97102841D01*
X153285044Y-96956762D01*
X153305682Y-96800000D01*
X153285044Y-96643238D01*
X153224536Y-96497159D01*
X153128282Y-96371718D01*
X153002841Y-96275464D01*
X152856762Y-96214956D01*
X152856760Y-96214955D01*
X152700001Y-96194318D01*
X152699999Y-96194318D01*
X152543239Y-96214955D01*
X152543237Y-96214956D01*
X152397160Y-96275463D01*
X152271718Y-96371718D01*
X152175463Y-96497160D01*
X152114956Y-96643237D01*
X152114955Y-96643239D01*
X152094318Y-96799998D01*
X149550796Y-96799998D01*
X149936576Y-96483396D01*
X150353496Y-96092907D01*
X150415879Y-96061448D01*
X150485371Y-96068710D01*
X150539904Y-96112389D01*
X150560997Y-96165764D01*
X150564834Y-96192456D01*
X150620779Y-96314956D01*
X150624623Y-96323373D01*
X150718872Y-96432143D01*
X150839947Y-96509953D01*
X150839950Y-96509954D01*
X150839949Y-96509954D01*
X150978036Y-96550499D01*
X150978038Y-96550500D01*
X150978039Y-96550500D01*
X151121962Y-96550500D01*
X151121962Y-96550499D01*
X151229121Y-96519035D01*
X151260050Y-96509954D01*
X151260050Y-96509953D01*
X151260053Y-96509953D01*
X151381128Y-96432143D01*
X151475377Y-96323373D01*
X151535165Y-96192457D01*
X151551447Y-96079208D01*
X151580470Y-96015656D01*
X151586474Y-96009206D01*
X151858864Y-95736816D01*
X151920186Y-95703334D01*
X151946544Y-95700500D01*
X153696142Y-95700500D01*
X153696144Y-95700500D01*
X153785288Y-95676614D01*
X153788007Y-95675044D01*
X153865212Y-95630470D01*
X155108862Y-94386818D01*
X155170185Y-94353334D01*
X155196543Y-94350500D01*
X155221962Y-94350500D01*
X155221962Y-94350499D01*
X155360053Y-94309953D01*
X155481128Y-94232143D01*
X155575377Y-94123373D01*
X155635165Y-93992457D01*
X155655647Y-93850000D01*
X155635165Y-93707543D01*
X155575377Y-93576627D01*
X155481128Y-93467857D01*
X155360053Y-93390047D01*
X155360051Y-93390046D01*
X155360049Y-93390045D01*
X155360050Y-93390045D01*
X155221963Y-93349500D01*
X155221961Y-93349500D01*
X155078039Y-93349500D01*
X155078036Y-93349500D01*
X154939949Y-93390045D01*
X154818873Y-93467856D01*
X154724623Y-93576626D01*
X154724622Y-93576628D01*
X154664834Y-93707543D01*
X154648552Y-93820789D01*
X154619526Y-93884344D01*
X154613495Y-93890822D01*
X153541137Y-94963181D01*
X153479814Y-94996666D01*
X153453456Y-94999500D01*
X151703856Y-94999500D01*
X151614711Y-95023386D01*
X151571485Y-95048343D01*
X151534787Y-95069531D01*
X151534785Y-95069532D01*
X151527749Y-95073595D01*
X151526442Y-95071331D01*
X151473360Y-95091852D01*
X151404915Y-95077813D01*
X151354926Y-95028998D01*
X151339265Y-94960906D01*
X151362252Y-94896055D01*
X151512441Y-94686466D01*
X151512447Y-94686456D01*
X151531584Y-94655682D01*
X151828811Y-94177701D01*
X151876297Y-94088859D01*
X151925257Y-94039017D01*
X151993394Y-94023556D01*
X152059074Y-94047387D01*
X152094595Y-94091062D01*
X152094829Y-94090913D01*
X152096167Y-94092995D01*
X152098445Y-94095796D01*
X152099619Y-94098367D01*
X152099622Y-94098371D01*
X152099623Y-94098373D01*
X152193872Y-94207143D01*
X152314947Y-94284953D01*
X152314950Y-94284954D01*
X152314949Y-94284954D01*
X152453036Y-94325499D01*
X152453038Y-94325500D01*
X152453039Y-94325500D01*
X152596962Y-94325500D01*
X152596962Y-94325499D01*
X152735053Y-94284953D01*
X152856128Y-94207143D01*
X152950377Y-94098373D01*
X153010165Y-93967457D01*
X153030647Y-93825000D01*
X153010165Y-93682543D01*
X152950377Y-93551627D01*
X152856128Y-93442857D01*
X152735053Y-93365047D01*
X152735051Y-93365046D01*
X152735049Y-93365045D01*
X152735050Y-93365045D01*
X152596963Y-93324500D01*
X152596961Y-93324500D01*
X152453039Y-93324500D01*
X152450728Y-93324500D01*
X152383689Y-93304815D01*
X152337934Y-93252011D01*
X152327990Y-93182853D01*
X152337781Y-93149324D01*
X152358489Y-93103621D01*
X152569526Y-92542908D01*
X152743439Y-91969592D01*
X152879484Y-91386130D01*
X152977076Y-90795020D01*
X152988219Y-90681876D01*
X153014380Y-90617091D01*
X153071414Y-90576732D01*
X153141214Y-90573615D01*
X153159066Y-90579468D01*
X153293238Y-90635044D01*
X153371619Y-90645363D01*
X153449999Y-90655682D01*
X153450000Y-90655682D01*
X153450001Y-90655682D01*
X153502254Y-90648802D01*
X153606762Y-90635044D01*
X153752841Y-90574536D01*
X153878282Y-90478282D01*
X153974536Y-90352841D01*
X154035044Y-90206762D01*
X154055682Y-90050000D01*
X154049099Y-90000000D01*
X154035044Y-89893239D01*
X154035044Y-89893238D01*
X153974536Y-89747159D01*
X153878282Y-89621718D01*
X153752841Y-89525464D01*
X153606762Y-89464956D01*
X153606760Y-89464955D01*
X153450001Y-89444318D01*
X153449999Y-89444318D01*
X153293239Y-89464955D01*
X153293234Y-89464957D01*
X153219745Y-89495397D01*
X153150275Y-89502866D01*
X153087796Y-89471590D01*
X153052145Y-89411501D01*
X153048360Y-89384903D01*
X153035800Y-89001208D01*
X152977076Y-88404980D01*
X152879484Y-87813870D01*
X152743439Y-87230408D01*
X152569526Y-86657092D01*
X152358489Y-86096379D01*
X152278573Y-85920001D01*
X152278572Y-85919998D01*
X153214318Y-85919998D01*
X153214318Y-85920001D01*
X153234955Y-86076760D01*
X153234956Y-86076762D01*
X153295464Y-86222841D01*
X153391718Y-86348282D01*
X153517159Y-86444536D01*
X153663238Y-86505044D01*
X153741619Y-86515363D01*
X153819999Y-86525682D01*
X153820000Y-86525682D01*
X153820001Y-86525682D01*
X153872254Y-86518802D01*
X153976762Y-86505044D01*
X154122841Y-86444536D01*
X154248282Y-86348282D01*
X154344536Y-86222841D01*
X154405044Y-86076762D01*
X154425682Y-85920000D01*
X154405044Y-85763238D01*
X154344536Y-85617159D01*
X154248282Y-85491718D01*
X154122841Y-85395464D01*
X153976762Y-85334956D01*
X153976760Y-85334955D01*
X153820001Y-85314318D01*
X153819999Y-85314318D01*
X153663239Y-85334955D01*
X153663237Y-85334956D01*
X153517160Y-85395463D01*
X153391718Y-85491718D01*
X153295463Y-85617160D01*
X153234956Y-85763237D01*
X153234955Y-85763239D01*
X153214318Y-85919998D01*
X152278572Y-85919998D01*
X152111234Y-85550677D01*
X152111220Y-85550650D01*
X151828819Y-85022312D01*
X151828806Y-85022290D01*
X151512447Y-84513543D01*
X151512441Y-84513533D01*
X151163469Y-84026543D01*
X151163467Y-84026541D01*
X151141683Y-83999998D01*
X151120967Y-83974755D01*
X151093654Y-83910447D01*
X151105444Y-83841580D01*
X151152596Y-83790019D01*
X151220138Y-83772135D01*
X151283859Y-83791775D01*
X151349441Y-83833922D01*
X151363939Y-83843239D01*
X151389949Y-83859954D01*
X151528036Y-83900499D01*
X151528038Y-83900500D01*
X151528039Y-83900500D01*
X151671962Y-83900500D01*
X151671962Y-83900499D01*
X151810053Y-83859953D01*
X151931128Y-83782143D01*
X152025377Y-83673373D01*
X152036052Y-83649998D01*
X154894318Y-83649998D01*
X154894318Y-83650001D01*
X154914955Y-83806760D01*
X154914956Y-83806762D01*
X154975464Y-83952841D01*
X155071718Y-84078282D01*
X155197159Y-84174536D01*
X155343238Y-84235044D01*
X155421619Y-84245363D01*
X155499999Y-84255682D01*
X155500000Y-84255682D01*
X155500001Y-84255682D01*
X155552254Y-84248802D01*
X155656762Y-84235044D01*
X155802841Y-84174536D01*
X155928282Y-84078282D01*
X156024536Y-83952841D01*
X156085044Y-83806762D01*
X156105682Y-83650000D01*
X156103519Y-83633573D01*
X156085044Y-83493239D01*
X156085044Y-83493238D01*
X156024536Y-83347159D01*
X155928282Y-83221718D01*
X155802841Y-83125464D01*
X155656762Y-83064956D01*
X155656760Y-83064955D01*
X155500001Y-83044318D01*
X155499999Y-83044318D01*
X155343239Y-83064955D01*
X155343237Y-83064956D01*
X155197160Y-83125463D01*
X155071718Y-83221718D01*
X154975463Y-83347160D01*
X154914956Y-83493237D01*
X154914955Y-83493239D01*
X154894318Y-83649998D01*
X152036052Y-83649998D01*
X152085165Y-83542457D01*
X152105647Y-83400000D01*
X152085165Y-83257543D01*
X152025377Y-83126627D01*
X151931128Y-83017857D01*
X151903339Y-82999998D01*
X152394318Y-82999998D01*
X152394318Y-83000001D01*
X152414955Y-83156760D01*
X152414956Y-83156762D01*
X152475464Y-83302841D01*
X152571718Y-83428282D01*
X152697159Y-83524536D01*
X152843238Y-83585044D01*
X152921619Y-83595363D01*
X152999999Y-83605682D01*
X153000000Y-83605682D01*
X153000001Y-83605682D01*
X153052254Y-83598802D01*
X153156762Y-83585044D01*
X153302841Y-83524536D01*
X153428282Y-83428282D01*
X153524536Y-83302841D01*
X153585044Y-83156762D01*
X153605682Y-83000000D01*
X153585044Y-82843238D01*
X153524536Y-82697159D01*
X153428282Y-82571718D01*
X153302841Y-82475464D01*
X153286540Y-82468712D01*
X153156762Y-82414956D01*
X153156760Y-82414955D01*
X153000001Y-82394318D01*
X152999999Y-82394318D01*
X152843239Y-82414955D01*
X152843237Y-82414956D01*
X152697160Y-82475463D01*
X152571718Y-82571718D01*
X152475463Y-82697160D01*
X152414956Y-82843237D01*
X152414955Y-82843239D01*
X152394318Y-82999998D01*
X151903339Y-82999998D01*
X151810053Y-82940047D01*
X151810051Y-82940046D01*
X151810049Y-82940045D01*
X151810050Y-82940045D01*
X151671963Y-82899500D01*
X151671961Y-82899500D01*
X151528039Y-82899500D01*
X151528036Y-82899500D01*
X151389949Y-82940045D01*
X151268873Y-83017856D01*
X151174623Y-83126626D01*
X151174622Y-83126628D01*
X151114834Y-83257543D01*
X151094353Y-83400000D01*
X151114834Y-83542456D01*
X151156447Y-83633573D01*
X151166391Y-83702731D01*
X151137366Y-83766287D01*
X151078588Y-83804062D01*
X151008719Y-83804062D01*
X150949940Y-83766288D01*
X150947800Y-83763750D01*
X150807357Y-83592621D01*
X150783396Y-83563424D01*
X150373847Y-83126153D01*
X149936576Y-82716604D01*
X149633477Y-82467857D01*
X149473455Y-82336530D01*
X149473456Y-82336530D01*
X148986466Y-81987558D01*
X148986456Y-81987552D01*
X148477709Y-81671193D01*
X148477687Y-81671180D01*
X148017114Y-81425000D01*
X152444353Y-81425000D01*
X152464834Y-81567456D01*
X152524069Y-81697160D01*
X152524623Y-81698373D01*
X152618872Y-81807143D01*
X152739947Y-81884953D01*
X152739950Y-81884954D01*
X152739949Y-81884954D01*
X152878036Y-81925499D01*
X152878038Y-81925500D01*
X152878039Y-81925500D01*
X153021962Y-81925500D01*
X153021962Y-81925499D01*
X153160053Y-81884953D01*
X153281128Y-81807143D01*
X153287319Y-81799998D01*
X154419318Y-81799998D01*
X154419318Y-81800001D01*
X154439955Y-81956760D01*
X154439956Y-81956762D01*
X154464969Y-82017150D01*
X154500464Y-82102841D01*
X154596718Y-82228282D01*
X154722159Y-82324536D01*
X154868238Y-82385044D01*
X154938681Y-82394318D01*
X155024999Y-82405682D01*
X155025000Y-82405682D01*
X155025001Y-82405682D01*
X155077254Y-82398802D01*
X155181762Y-82385044D01*
X155327841Y-82324536D01*
X155453282Y-82228282D01*
X155549536Y-82102841D01*
X155610044Y-81956762D01*
X155630682Y-81800000D01*
X155629190Y-81788670D01*
X155612106Y-81658898D01*
X155610044Y-81643238D01*
X155549536Y-81497159D01*
X155453282Y-81371718D01*
X155327841Y-81275464D01*
X155229785Y-81234848D01*
X155181762Y-81214956D01*
X155181760Y-81214955D01*
X155025001Y-81194318D01*
X155024999Y-81194318D01*
X154868239Y-81214955D01*
X154868237Y-81214956D01*
X154722160Y-81275463D01*
X154596718Y-81371718D01*
X154500463Y-81497160D01*
X154439956Y-81643237D01*
X154439955Y-81643239D01*
X154419318Y-81799998D01*
X153287319Y-81799998D01*
X153375377Y-81698373D01*
X153435165Y-81567457D01*
X153455647Y-81425000D01*
X153435165Y-81282543D01*
X153375377Y-81151627D01*
X153281128Y-81042857D01*
X153160053Y-80965047D01*
X153160051Y-80965046D01*
X153160049Y-80965045D01*
X153160050Y-80965045D01*
X153021963Y-80924500D01*
X153021961Y-80924500D01*
X152878039Y-80924500D01*
X152878036Y-80924500D01*
X152739949Y-80965045D01*
X152618873Y-81042856D01*
X152524623Y-81151626D01*
X152524622Y-81151628D01*
X152464834Y-81282543D01*
X152444353Y-81425000D01*
X148017114Y-81425000D01*
X147949349Y-81388779D01*
X147949322Y-81388765D01*
X147403620Y-81141510D01*
X146842917Y-80930477D01*
X146842903Y-80930472D01*
X146753917Y-80903479D01*
X146695478Y-80865181D01*
X146667022Y-80801369D01*
X146677582Y-80732302D01*
X146684024Y-80725000D01*
X155919353Y-80725000D01*
X155939834Y-80867456D01*
X155977736Y-80950448D01*
X155999623Y-80998373D01*
X156093872Y-81107143D01*
X156214947Y-81184953D01*
X156214950Y-81184954D01*
X156214949Y-81184954D01*
X156353036Y-81225499D01*
X156353038Y-81225500D01*
X156353039Y-81225500D01*
X156496962Y-81225500D01*
X156496962Y-81225499D01*
X156635053Y-81184953D01*
X156756128Y-81107143D01*
X156850377Y-80998373D01*
X156910165Y-80867457D01*
X156930647Y-80725000D01*
X156910165Y-80582543D01*
X156850377Y-80451627D01*
X156756128Y-80342857D01*
X156635053Y-80265047D01*
X156635051Y-80265046D01*
X156635049Y-80265045D01*
X156635050Y-80265045D01*
X156496963Y-80224500D01*
X156496961Y-80224500D01*
X156353039Y-80224500D01*
X156353036Y-80224500D01*
X156214949Y-80265045D01*
X156093873Y-80342856D01*
X156093872Y-80342856D01*
X156093872Y-80342857D01*
X156083783Y-80354500D01*
X155999623Y-80451626D01*
X155999622Y-80451628D01*
X155939834Y-80582543D01*
X155919353Y-80725000D01*
X146684024Y-80725000D01*
X146723806Y-80679909D01*
X146742456Y-80670258D01*
X146852841Y-80624536D01*
X146978282Y-80528282D01*
X147074536Y-80402841D01*
X147135044Y-80256762D01*
X147155682Y-80100000D01*
X147155023Y-80094998D01*
X147145808Y-80024998D01*
X149569318Y-80024998D01*
X149569318Y-80025001D01*
X149589955Y-80181760D01*
X149589956Y-80181762D01*
X149643150Y-80310185D01*
X149650464Y-80327841D01*
X149746718Y-80453282D01*
X149872159Y-80549536D01*
X150018238Y-80610044D01*
X150077584Y-80617857D01*
X150174999Y-80630682D01*
X150175000Y-80630682D01*
X150175001Y-80630682D01*
X150233480Y-80622983D01*
X150331762Y-80610044D01*
X150477841Y-80549536D01*
X150603282Y-80453282D01*
X150699536Y-80327841D01*
X150760044Y-80181762D01*
X150780682Y-80025000D01*
X150777390Y-79999998D01*
X150760044Y-79868239D01*
X150760044Y-79868238D01*
X150699536Y-79722159D01*
X150603282Y-79596718D01*
X150477841Y-79500464D01*
X150463003Y-79494318D01*
X150331762Y-79439956D01*
X150331760Y-79439955D01*
X150175001Y-79419318D01*
X150174999Y-79419318D01*
X150018239Y-79439955D01*
X150018237Y-79439956D01*
X149872160Y-79500463D01*
X149746718Y-79596718D01*
X149650463Y-79722160D01*
X149589956Y-79868237D01*
X149589955Y-79868239D01*
X149569318Y-80024998D01*
X147145808Y-80024998D01*
X147135044Y-79943239D01*
X147135044Y-79943238D01*
X147074536Y-79797159D01*
X146978282Y-79671718D01*
X146852841Y-79575464D01*
X146843797Y-79571718D01*
X146706762Y-79514956D01*
X146706760Y-79514955D01*
X146550001Y-79494318D01*
X146549999Y-79494318D01*
X146393239Y-79514955D01*
X146393237Y-79514956D01*
X146247160Y-79575463D01*
X146121718Y-79671718D01*
X146025463Y-79797160D01*
X145964956Y-79943237D01*
X145964955Y-79943239D01*
X145944318Y-80099998D01*
X145944318Y-80100001D01*
X145964955Y-80256760D01*
X145964956Y-80256762D01*
X146025464Y-80402842D01*
X146091859Y-80489369D01*
X146117053Y-80554538D01*
X146103015Y-80622983D01*
X146054201Y-80672972D01*
X145986109Y-80688636D01*
X145965329Y-80685616D01*
X145703371Y-80624536D01*
X145686126Y-80620515D01*
X145382152Y-80570329D01*
X145095020Y-80522924D01*
X145095015Y-80522923D01*
X145095012Y-80522923D01*
X144498803Y-80464200D01*
X143900000Y-80444598D01*
X143301196Y-80464200D01*
X142704990Y-80522923D01*
X142704984Y-80522923D01*
X142113873Y-80620515D01*
X141530408Y-80756560D01*
X141530400Y-80756563D01*
X140957097Y-80930472D01*
X140957082Y-80930477D01*
X140396379Y-81141510D01*
X139850677Y-81388765D01*
X139850650Y-81388779D01*
X139322312Y-81671180D01*
X139322290Y-81671193D01*
X138813543Y-81987552D01*
X138813533Y-81987558D01*
X138326544Y-82336530D01*
X138034613Y-82576111D01*
X137970303Y-82603424D01*
X137901435Y-82591633D01*
X137862235Y-82561460D01*
X137775320Y-82461154D01*
X137776368Y-82460245D01*
X137743656Y-82409333D01*
X137743662Y-82339463D01*
X137774953Y-82286729D01*
X140080470Y-79981214D01*
X140126614Y-79901290D01*
X140135470Y-79868239D01*
X140139856Y-79851873D01*
X140150499Y-79812149D01*
X140150500Y-79812146D01*
X140150500Y-78349500D01*
X140170185Y-78282461D01*
X140222989Y-78236706D01*
X140274500Y-78225500D01*
X140474676Y-78225500D01*
X140474677Y-78225499D01*
X140547740Y-78210966D01*
X140630601Y-78155601D01*
X140685966Y-78072740D01*
X140700500Y-77999674D01*
X140700500Y-77424500D01*
X140720185Y-77357461D01*
X140772989Y-77311706D01*
X140824500Y-77300500D01*
X140875500Y-77300500D01*
X140942539Y-77320185D01*
X140988294Y-77372989D01*
X140999500Y-77424500D01*
X140999500Y-77999674D01*
X140999565Y-78000000D01*
X141004493Y-78024777D01*
X140998264Y-78094369D01*
X140981252Y-78124452D01*
X140925464Y-78197158D01*
X140864956Y-78343237D01*
X140864955Y-78343239D01*
X140844318Y-78499998D01*
X140844318Y-78500001D01*
X140864955Y-78656760D01*
X140864956Y-78656762D01*
X140900775Y-78743238D01*
X140925464Y-78802841D01*
X141021718Y-78928282D01*
X141147159Y-79024536D01*
X141293238Y-79085044D01*
X141371619Y-79095363D01*
X141449999Y-79105682D01*
X141450000Y-79105682D01*
X141450001Y-79105682D01*
X141502254Y-79098802D01*
X141606762Y-79085044D01*
X141752841Y-79024536D01*
X141878282Y-78928282D01*
X141974536Y-78802841D01*
X142017761Y-78698485D01*
X142061602Y-78644082D01*
X142127896Y-78622017D01*
X142195595Y-78639296D01*
X142243206Y-78690433D01*
X142246881Y-78698482D01*
X142300464Y-78827841D01*
X142396718Y-78953282D01*
X142522159Y-79049536D01*
X142668238Y-79110044D01*
X142746619Y-79120363D01*
X142824999Y-79130682D01*
X142825000Y-79130682D01*
X142825001Y-79130682D01*
X142877254Y-79123802D01*
X142981762Y-79110044D01*
X143127841Y-79049536D01*
X143253282Y-78953282D01*
X143349536Y-78827841D01*
X143410044Y-78681762D01*
X143424100Y-78574998D01*
X143430682Y-78525001D01*
X143430682Y-78524998D01*
X143416626Y-78418237D01*
X143410044Y-78368238D01*
X143349536Y-78222159D01*
X143253282Y-78096718D01*
X143253279Y-78096716D01*
X143253278Y-78096714D01*
X143249010Y-78093439D01*
X143207809Y-78037010D01*
X143200500Y-77995066D01*
X143200500Y-77424500D01*
X143220185Y-77357461D01*
X143272989Y-77311706D01*
X143324500Y-77300500D01*
X144559884Y-77300500D01*
X144626923Y-77320185D01*
X144672678Y-77372989D01*
X144682622Y-77442147D01*
X144653597Y-77505703D01*
X144635374Y-77522873D01*
X144571718Y-77571718D01*
X144475463Y-77697160D01*
X144414956Y-77843237D01*
X144414955Y-77843239D01*
X144394318Y-77999998D01*
X144394318Y-78000001D01*
X144414955Y-78156760D01*
X144414956Y-78156762D01*
X144471933Y-78294318D01*
X144475464Y-78302841D01*
X144571718Y-78428282D01*
X144697159Y-78524536D01*
X144843238Y-78585044D01*
X144921619Y-78595363D01*
X144999999Y-78605682D01*
X145000000Y-78605682D01*
X145000001Y-78605682D01*
X145064739Y-78597159D01*
X145156762Y-78585044D01*
X145181015Y-78574998D01*
X147519318Y-78574998D01*
X147519318Y-78575001D01*
X147539955Y-78731760D01*
X147539956Y-78731762D01*
X147586130Y-78843237D01*
X147600464Y-78877841D01*
X147696718Y-79003282D01*
X147822159Y-79099536D01*
X147968238Y-79160044D01*
X148046619Y-79170363D01*
X148124999Y-79180682D01*
X148125000Y-79180682D01*
X148125001Y-79180682D01*
X148177254Y-79173802D01*
X148281762Y-79160044D01*
X148426726Y-79099998D01*
X152394318Y-79099998D01*
X152394318Y-79100001D01*
X152414955Y-79256760D01*
X152414956Y-79256762D01*
X152474913Y-79401512D01*
X152475464Y-79402841D01*
X152571718Y-79528282D01*
X152697159Y-79624536D01*
X152843238Y-79685044D01*
X152921619Y-79695363D01*
X152999999Y-79705682D01*
X153000000Y-79705682D01*
X153000001Y-79705682D01*
X153064754Y-79697157D01*
X153156762Y-79685044D01*
X153302841Y-79624536D01*
X153428282Y-79528282D01*
X153509024Y-79423055D01*
X153565451Y-79381854D01*
X153635197Y-79377699D01*
X153696117Y-79411911D01*
X153725330Y-79460224D01*
X153740101Y-79505682D01*
X153744736Y-79519947D01*
X153841528Y-79709913D01*
X153966846Y-79882397D01*
X154117603Y-80033154D01*
X154290087Y-80158472D01*
X154480053Y-80255264D01*
X154480055Y-80255265D01*
X154649083Y-80310185D01*
X154682821Y-80321147D01*
X154893399Y-80354500D01*
X154893400Y-80354500D01*
X155106600Y-80354500D01*
X155106601Y-80354500D01*
X155317179Y-80321147D01*
X155317182Y-80321146D01*
X155317183Y-80321146D01*
X155519944Y-80255265D01*
X155519944Y-80255264D01*
X155519947Y-80255264D01*
X155709913Y-80158472D01*
X155882397Y-80033154D01*
X156033154Y-79882397D01*
X156158472Y-79709913D01*
X156255264Y-79519947D01*
X156269339Y-79476628D01*
X156321146Y-79317183D01*
X156321146Y-79317182D01*
X156321147Y-79317179D01*
X156354500Y-79106601D01*
X156354500Y-78893399D01*
X156321147Y-78682821D01*
X156321146Y-78682817D01*
X156321146Y-78682816D01*
X156255265Y-78480055D01*
X156255263Y-78480052D01*
X156251016Y-78471715D01*
X156158472Y-78290087D01*
X156033154Y-78117603D01*
X155882397Y-77966846D01*
X155709913Y-77841528D01*
X155519947Y-77744736D01*
X155519944Y-77744734D01*
X155317181Y-77678853D01*
X155176793Y-77656617D01*
X155106601Y-77645500D01*
X154893399Y-77645500D01*
X154823206Y-77656617D01*
X154682819Y-77678853D01*
X154682816Y-77678853D01*
X154480055Y-77744734D01*
X154480052Y-77744736D01*
X154290086Y-77841528D01*
X154117601Y-77966847D01*
X153966847Y-78117601D01*
X153841528Y-78290086D01*
X153744736Y-78480052D01*
X153744734Y-78480055D01*
X153679678Y-78680279D01*
X153640240Y-78737955D01*
X153575882Y-78765153D01*
X153507035Y-78753238D01*
X153463373Y-78717449D01*
X153428282Y-78671718D01*
X153302841Y-78575464D01*
X153301723Y-78575001D01*
X153156762Y-78514956D01*
X153156760Y-78514955D01*
X153000001Y-78494318D01*
X152999999Y-78494318D01*
X152843239Y-78514955D01*
X152843237Y-78514956D01*
X152697160Y-78575463D01*
X152571718Y-78671718D01*
X152475463Y-78797160D01*
X152414956Y-78943237D01*
X152414955Y-78943239D01*
X152394318Y-79099998D01*
X148426726Y-79099998D01*
X148427841Y-79099536D01*
X148553282Y-79003282D01*
X148649536Y-78877841D01*
X148710044Y-78731762D01*
X148730682Y-78575000D01*
X148724099Y-78525000D01*
X148710044Y-78418239D01*
X148710044Y-78418238D01*
X148649536Y-78272159D01*
X148553282Y-78146718D01*
X148427841Y-78050464D01*
X148423652Y-78048729D01*
X148281762Y-77989956D01*
X148281760Y-77989955D01*
X148125001Y-77969318D01*
X148124999Y-77969318D01*
X147968239Y-77989955D01*
X147968237Y-77989956D01*
X147822160Y-78050463D01*
X147696718Y-78146718D01*
X147600463Y-78272160D01*
X147539956Y-78418237D01*
X147539955Y-78418239D01*
X147519318Y-78574998D01*
X145181015Y-78574998D01*
X145302841Y-78524536D01*
X145428282Y-78428282D01*
X145524536Y-78302841D01*
X145585044Y-78156762D01*
X145605682Y-78000000D01*
X145605639Y-77999676D01*
X145585044Y-77843239D01*
X145585044Y-77843238D01*
X145524536Y-77697159D01*
X145428282Y-77571718D01*
X145364628Y-77522874D01*
X145323427Y-77466448D01*
X145319272Y-77396702D01*
X145353485Y-77335781D01*
X145415202Y-77303029D01*
X145440116Y-77300500D01*
X150559884Y-77300500D01*
X150626923Y-77320185D01*
X150672678Y-77372989D01*
X150682622Y-77442147D01*
X150653597Y-77505703D01*
X150635374Y-77522873D01*
X150571718Y-77571718D01*
X150475463Y-77697160D01*
X150414956Y-77843237D01*
X150414955Y-77843239D01*
X150394318Y-77999998D01*
X150394318Y-78000001D01*
X150414955Y-78156760D01*
X150414956Y-78156762D01*
X150471933Y-78294318D01*
X150475464Y-78302841D01*
X150571718Y-78428282D01*
X150697159Y-78524536D01*
X150843238Y-78585044D01*
X150921619Y-78595363D01*
X150999999Y-78605682D01*
X151000000Y-78605682D01*
X151000001Y-78605682D01*
X151064739Y-78597159D01*
X151156762Y-78585044D01*
X151302841Y-78524536D01*
X151428282Y-78428282D01*
X151524536Y-78302841D01*
X151585044Y-78156762D01*
X151605682Y-78000000D01*
X151605639Y-77999676D01*
X151585044Y-77843239D01*
X151585044Y-77843238D01*
X151524536Y-77697159D01*
X151428282Y-77571718D01*
X151364628Y-77522874D01*
X151323427Y-77466448D01*
X151319272Y-77396702D01*
X151353485Y-77335781D01*
X151415202Y-77303029D01*
X151440116Y-77300500D01*
X156559884Y-77300500D01*
X156626923Y-77320185D01*
X156672678Y-77372989D01*
X156682622Y-77442147D01*
X156653597Y-77505703D01*
X156635374Y-77522873D01*
X156571718Y-77571718D01*
X156475463Y-77697160D01*
X156414956Y-77843237D01*
X156414955Y-77843239D01*
X156394318Y-77999998D01*
X156394318Y-78000001D01*
X156414955Y-78156760D01*
X156414956Y-78156762D01*
X156471933Y-78294318D01*
X156475464Y-78302841D01*
X156571718Y-78428282D01*
X156697159Y-78524536D01*
X156843238Y-78585044D01*
X156921619Y-78595363D01*
X156999999Y-78605682D01*
X157000000Y-78605682D01*
X157000001Y-78605682D01*
X157064739Y-78597159D01*
X157156762Y-78585044D01*
X157302841Y-78524536D01*
X157302845Y-78524532D01*
X157309881Y-78520472D01*
X157311476Y-78523235D01*
X157362625Y-78503434D01*
X157431077Y-78517440D01*
X157481089Y-78566231D01*
X157496784Y-78634315D01*
X157477228Y-78688791D01*
X157479528Y-78690119D01*
X157475465Y-78697156D01*
X157414956Y-78843237D01*
X157414955Y-78843239D01*
X157394318Y-78999998D01*
X157394318Y-79000001D01*
X157414955Y-79156760D01*
X157414956Y-79156762D01*
X157475464Y-79302842D01*
X157568826Y-79424514D01*
X157594020Y-79489683D01*
X157579981Y-79558128D01*
X157568826Y-79575486D01*
X157475464Y-79697157D01*
X157414956Y-79843237D01*
X157414955Y-79843239D01*
X157394318Y-79999998D01*
X157394318Y-80000001D01*
X157414955Y-80156760D01*
X157414956Y-80156762D01*
X157475464Y-80302842D01*
X157568826Y-80424514D01*
X157594020Y-80489683D01*
X157579981Y-80558128D01*
X157568826Y-80575486D01*
X157475464Y-80697157D01*
X157414956Y-80843237D01*
X157414955Y-80843239D01*
X157394318Y-80999998D01*
X157394318Y-81000001D01*
X157414955Y-81156760D01*
X157414956Y-81156762D01*
X157475464Y-81302842D01*
X157568826Y-81424514D01*
X157594020Y-81489683D01*
X157579981Y-81558128D01*
X157568826Y-81575486D01*
X157475464Y-81697157D01*
X157414956Y-81843237D01*
X157414955Y-81843239D01*
X157394318Y-81999998D01*
X157394318Y-82000001D01*
X157414955Y-82156760D01*
X157414956Y-82156762D01*
X157475464Y-82302842D01*
X157568826Y-82424514D01*
X157594020Y-82489683D01*
X157579981Y-82558128D01*
X157568826Y-82575486D01*
X157475464Y-82697157D01*
X157414956Y-82843237D01*
X157414955Y-82843239D01*
X157394318Y-82999998D01*
X157394318Y-83000001D01*
X157414955Y-83156760D01*
X157414956Y-83156762D01*
X157475464Y-83302842D01*
X157568826Y-83424514D01*
X157594020Y-83489683D01*
X157579981Y-83558128D01*
X157568826Y-83575486D01*
X157475464Y-83697157D01*
X157414956Y-83843237D01*
X157414955Y-83843239D01*
X157394318Y-83999998D01*
X157394318Y-84000001D01*
X157414955Y-84156760D01*
X157414956Y-84156762D01*
X157447381Y-84235044D01*
X157475464Y-84302841D01*
X157571718Y-84428282D01*
X157697159Y-84524536D01*
X157843238Y-84585044D01*
X157921619Y-84595363D01*
X157999999Y-84605682D01*
X158000000Y-84605682D01*
X158000001Y-84605682D01*
X158052254Y-84598802D01*
X158156762Y-84585044D01*
X158302841Y-84524536D01*
X158428282Y-84428282D01*
X158524536Y-84302841D01*
X158585044Y-84156762D01*
X158605682Y-84000000D01*
X158602390Y-83974998D01*
X158587245Y-83859954D01*
X158585044Y-83843238D01*
X158524536Y-83697159D01*
X158524534Y-83697156D01*
X158520472Y-83690119D01*
X158522448Y-83688977D01*
X158501511Y-83634807D01*
X158515555Y-83566363D01*
X158564373Y-83516377D01*
X158625082Y-83500500D01*
X158946000Y-83500500D01*
X159013039Y-83520185D01*
X159058794Y-83572989D01*
X159070000Y-83624500D01*
X159070000Y-85741371D01*
X159050315Y-85808410D01*
X158997511Y-85854165D01*
X158928353Y-85864109D01*
X158864797Y-85835084D01*
X158831439Y-85788825D01*
X158824536Y-85772159D01*
X158728282Y-85646718D01*
X158602841Y-85550464D01*
X158542483Y-85525463D01*
X158456762Y-85489956D01*
X158456760Y-85489955D01*
X158300001Y-85469318D01*
X158299999Y-85469318D01*
X158143239Y-85489955D01*
X158143237Y-85489956D01*
X157997160Y-85550463D01*
X157871718Y-85646718D01*
X157775463Y-85772160D01*
X157714956Y-85918237D01*
X157714955Y-85918239D01*
X157694318Y-86074998D01*
X157694318Y-86075001D01*
X157714955Y-86231760D01*
X157714957Y-86231765D01*
X157751369Y-86319672D01*
X157758838Y-86389141D01*
X157727563Y-86451620D01*
X157698817Y-86474506D01*
X157697161Y-86475461D01*
X157571719Y-86571716D01*
X157475463Y-86697160D01*
X157414956Y-86843237D01*
X157414955Y-86843239D01*
X157394318Y-86999998D01*
X157394318Y-87000001D01*
X157414955Y-87156760D01*
X157414956Y-87156762D01*
X157475464Y-87302842D01*
X157568826Y-87424514D01*
X157594020Y-87489683D01*
X157579981Y-87558128D01*
X157568826Y-87575486D01*
X157475464Y-87697157D01*
X157414956Y-87843237D01*
X157414955Y-87843239D01*
X157394318Y-87999998D01*
X157394318Y-88000001D01*
X157414955Y-88156760D01*
X157414956Y-88156762D01*
X157475464Y-88302842D01*
X157568826Y-88424514D01*
X157594020Y-88489683D01*
X157579981Y-88558128D01*
X157568826Y-88575486D01*
X157475464Y-88697157D01*
X157414956Y-88843237D01*
X157414955Y-88843239D01*
X157394318Y-88999998D01*
X157394318Y-89000001D01*
X157414955Y-89156760D01*
X157414956Y-89156762D01*
X157475464Y-89302842D01*
X157568826Y-89424514D01*
X157594020Y-89489683D01*
X157579981Y-89558128D01*
X157568826Y-89575486D01*
X157475464Y-89697157D01*
X157414956Y-89843237D01*
X157414955Y-89843239D01*
X157394318Y-89999998D01*
X157394318Y-90000001D01*
X157414955Y-90156760D01*
X157414956Y-90156762D01*
X157475464Y-90302842D01*
X157568826Y-90424514D01*
X157594020Y-90489683D01*
X157579981Y-90558128D01*
X157568826Y-90575486D01*
X157475464Y-90697157D01*
X157414956Y-90843237D01*
X157414955Y-90843239D01*
X157394318Y-90999998D01*
X157394318Y-91000001D01*
X157414955Y-91156760D01*
X157414956Y-91156762D01*
X157475464Y-91302842D01*
X157568826Y-91424514D01*
X157594020Y-91489683D01*
X157579981Y-91558128D01*
X157568826Y-91575486D01*
X157475464Y-91697157D01*
X157414956Y-91843237D01*
X157414955Y-91843239D01*
X157394318Y-91999998D01*
X157394318Y-92000001D01*
X157414955Y-92156760D01*
X157414956Y-92156762D01*
X157475464Y-92302842D01*
X157568826Y-92424514D01*
X157594020Y-92489683D01*
X157579981Y-92558128D01*
X157568826Y-92575486D01*
X157475464Y-92697157D01*
X157414956Y-92843237D01*
X157414955Y-92843239D01*
X157394318Y-92999998D01*
X157394318Y-93000001D01*
X157414955Y-93156760D01*
X157414956Y-93156762D01*
X157475464Y-93302842D01*
X157568826Y-93424514D01*
X157594020Y-93489683D01*
X157579981Y-93558128D01*
X157568826Y-93575486D01*
X157475464Y-93697157D01*
X157414956Y-93843237D01*
X157414955Y-93843239D01*
X157394318Y-93999998D01*
X157394318Y-94000001D01*
X157414955Y-94156760D01*
X157414956Y-94156762D01*
X157475464Y-94302842D01*
X157568826Y-94424514D01*
X157594020Y-94489683D01*
X157579981Y-94558128D01*
X157568826Y-94575486D01*
X157475464Y-94697157D01*
X157414956Y-94843237D01*
X157414955Y-94843239D01*
X157394318Y-94999998D01*
X157394318Y-95000001D01*
X157414955Y-95156760D01*
X157414956Y-95156762D01*
X157475464Y-95302842D01*
X157568826Y-95424514D01*
X157594020Y-95489683D01*
X157579981Y-95558128D01*
X157568826Y-95575486D01*
X157475464Y-95697157D01*
X157414956Y-95843237D01*
X157414955Y-95843239D01*
X157394318Y-95999998D01*
X157394318Y-96000001D01*
X157414955Y-96156760D01*
X157414956Y-96156762D01*
X157475464Y-96302842D01*
X157568826Y-96424514D01*
X157594020Y-96489683D01*
X157579981Y-96558128D01*
X157568826Y-96575486D01*
X157475464Y-96697157D01*
X157414956Y-96843237D01*
X157414955Y-96843239D01*
X157394318Y-96999998D01*
X157394318Y-97000001D01*
X157414955Y-97156760D01*
X157414956Y-97156762D01*
X157475464Y-97302842D01*
X157568826Y-97424514D01*
X157594020Y-97489683D01*
X157579981Y-97558128D01*
X157568826Y-97575486D01*
X157475464Y-97697157D01*
X157414956Y-97843237D01*
X157414955Y-97843239D01*
X157394318Y-97999998D01*
X157394318Y-98000001D01*
X157414955Y-98156760D01*
X157414956Y-98156762D01*
X157475464Y-98302842D01*
X157568826Y-98424514D01*
X157594020Y-98489683D01*
X157579981Y-98558128D01*
X157568826Y-98575486D01*
X157475464Y-98697157D01*
X157414956Y-98843237D01*
X157414955Y-98843239D01*
X157394318Y-98999998D01*
X157394318Y-99000001D01*
X157414955Y-99156760D01*
X157414956Y-99156762D01*
X157475464Y-99302842D01*
X157568826Y-99424514D01*
X157594020Y-99489683D01*
X157579981Y-99558128D01*
X157568826Y-99575486D01*
X157475464Y-99697157D01*
X157414956Y-99843237D01*
X157414955Y-99843239D01*
X157394318Y-99999998D01*
X157394318Y-100000001D01*
X157414955Y-100156760D01*
X157414956Y-100156762D01*
X157475465Y-100302843D01*
X157479528Y-100309881D01*
X157476773Y-100311471D01*
X157496571Y-100362695D01*
X157482526Y-100431138D01*
X157433707Y-100481123D01*
X157365614Y-100496780D01*
X157311214Y-100477217D01*
X157309881Y-100479528D01*
X157302843Y-100475465D01*
X157302838Y-100475463D01*
X157156762Y-100414956D01*
X157156760Y-100414955D01*
X157000001Y-100394318D01*
X156999999Y-100394318D01*
X156843239Y-100414955D01*
X156843237Y-100414956D01*
X156697160Y-100475463D01*
X156571718Y-100571718D01*
X156475463Y-100697160D01*
X156414956Y-100843237D01*
X156414955Y-100843239D01*
X156394318Y-100999998D01*
X156394318Y-101000001D01*
X156414955Y-101156760D01*
X156414956Y-101156762D01*
X156455756Y-101255263D01*
X156475464Y-101302841D01*
X156571718Y-101428282D01*
X156635371Y-101477125D01*
X156676573Y-101533552D01*
X156680728Y-101603298D01*
X156646515Y-101664219D01*
X156584798Y-101696971D01*
X156559884Y-101699500D01*
X152440116Y-101699500D01*
X152373077Y-101679815D01*
X152327322Y-101627011D01*
X152317378Y-101557853D01*
X152346403Y-101494297D01*
X152364625Y-101477126D01*
X152428282Y-101428282D01*
X152524536Y-101302841D01*
X152585044Y-101156762D01*
X152601317Y-101033154D01*
X152605682Y-101000001D01*
X152605682Y-100999998D01*
X152585044Y-100843239D01*
X152585044Y-100843238D01*
X152524536Y-100697159D01*
X152428282Y-100571718D01*
X152302841Y-100475464D01*
X152301723Y-100475001D01*
X152156762Y-100414956D01*
X152156760Y-100414955D01*
X152000001Y-100394318D01*
X151999999Y-100394318D01*
X151843239Y-100414955D01*
X151843237Y-100414956D01*
X151697160Y-100475463D01*
X151571718Y-100571718D01*
X151475463Y-100697160D01*
X151414956Y-100843237D01*
X151414955Y-100843239D01*
X151394318Y-100999998D01*
X151394318Y-101000001D01*
X151414955Y-101156760D01*
X151414956Y-101156762D01*
X151455756Y-101255263D01*
X151475464Y-101302841D01*
X151571718Y-101428282D01*
X151635371Y-101477125D01*
X151676573Y-101533552D01*
X151680728Y-101603298D01*
X151646515Y-101664219D01*
X151584798Y-101696971D01*
X151559884Y-101699500D01*
X149399500Y-101699500D01*
X149332461Y-101679815D01*
X149286706Y-101627011D01*
X149275500Y-101575500D01*
X149275500Y-101227526D01*
X149295185Y-101160487D01*
X149347989Y-101114732D01*
X149383312Y-101104587D01*
X149531762Y-101085044D01*
X149677841Y-101024536D01*
X149803282Y-100928282D01*
X149899536Y-100802841D01*
X149960044Y-100656762D01*
X149980682Y-100500000D01*
X149977390Y-100474998D01*
X149966769Y-100394318D01*
X149960044Y-100343238D01*
X149899536Y-100197159D01*
X149803282Y-100071718D01*
X149677841Y-99975464D01*
X149617483Y-99950463D01*
X149531762Y-99914956D01*
X149531760Y-99914955D01*
X149375001Y-99894318D01*
X149374999Y-99894318D01*
X149218239Y-99914955D01*
X149218237Y-99914956D01*
X149072160Y-99975463D01*
X148946718Y-100071718D01*
X148850463Y-100197160D01*
X148789956Y-100343237D01*
X148789955Y-100343239D01*
X148772609Y-100475000D01*
X148769318Y-100500000D01*
X148786664Y-100631760D01*
X148787001Y-100634315D01*
X148776235Y-100703350D01*
X148729856Y-100755606D01*
X148664062Y-100774500D01*
X147300323Y-100774500D01*
X147227264Y-100789032D01*
X147227260Y-100789033D01*
X147144399Y-100844399D01*
X147089033Y-100927260D01*
X147089032Y-100927264D01*
X147074500Y-101000321D01*
X147074500Y-101575500D01*
X147054815Y-101642539D01*
X147002011Y-101688294D01*
X146950500Y-101699500D01*
X146899500Y-101699500D01*
X146832461Y-101679815D01*
X146786706Y-101627011D01*
X146775500Y-101575500D01*
X146775500Y-101000323D01*
X146775499Y-101000321D01*
X146760967Y-100927264D01*
X146760966Y-100927260D01*
X146705601Y-100844399D01*
X146622740Y-100789034D01*
X146622739Y-100789033D01*
X146622735Y-100789032D01*
X146549677Y-100774500D01*
X146549674Y-100774500D01*
X145282647Y-100774500D01*
X145215608Y-100754815D01*
X145169853Y-100702011D01*
X145159708Y-100634315D01*
X145180682Y-100475001D01*
X145180682Y-100474998D01*
X145160044Y-100318239D01*
X145160044Y-100318238D01*
X145099536Y-100172159D01*
X145003282Y-100046718D01*
X144877841Y-99950464D01*
X144820228Y-99926600D01*
X144740074Y-99893399D01*
X153645500Y-99893399D01*
X153645500Y-100106600D01*
X153678853Y-100317180D01*
X153678853Y-100317183D01*
X153744734Y-100519944D01*
X153744736Y-100519947D01*
X153841528Y-100709913D01*
X153966846Y-100882397D01*
X154117603Y-101033154D01*
X154290087Y-101158472D01*
X154480053Y-101255264D01*
X154480055Y-101255265D01*
X154669182Y-101316715D01*
X154682821Y-101321147D01*
X154893399Y-101354500D01*
X154893400Y-101354500D01*
X155106600Y-101354500D01*
X155106601Y-101354500D01*
X155317179Y-101321147D01*
X155317182Y-101321146D01*
X155317183Y-101321146D01*
X155519944Y-101255265D01*
X155519944Y-101255264D01*
X155519947Y-101255264D01*
X155709913Y-101158472D01*
X155882397Y-101033154D01*
X156033154Y-100882397D01*
X156158472Y-100709913D01*
X156255264Y-100519947D01*
X156285048Y-100428282D01*
X156321146Y-100317183D01*
X156321146Y-100317182D01*
X156321147Y-100317179D01*
X156354500Y-100106601D01*
X156354500Y-99893399D01*
X156321147Y-99682821D01*
X156321146Y-99682817D01*
X156321146Y-99682816D01*
X156255265Y-99480055D01*
X156255263Y-99480052D01*
X156228885Y-99428281D01*
X156158472Y-99290087D01*
X156033154Y-99117603D01*
X155882397Y-98966846D01*
X155709913Y-98841528D01*
X155519947Y-98744736D01*
X155519944Y-98744734D01*
X155426508Y-98714376D01*
X155368833Y-98674939D01*
X155341634Y-98610581D01*
X155353548Y-98541734D01*
X155366451Y-98520958D01*
X155387721Y-98493239D01*
X155399536Y-98477841D01*
X155460044Y-98331762D01*
X155473802Y-98227254D01*
X155480682Y-98175001D01*
X155480682Y-98174998D01*
X155466923Y-98070492D01*
X155460044Y-98018238D01*
X155399536Y-97872159D01*
X155303282Y-97746718D01*
X155177841Y-97650464D01*
X155031762Y-97589956D01*
X155031760Y-97589955D01*
X154875001Y-97569318D01*
X154874999Y-97569318D01*
X154718239Y-97589955D01*
X154718237Y-97589956D01*
X154572160Y-97650463D01*
X154446718Y-97746718D01*
X154350463Y-97872160D01*
X154289956Y-98018237D01*
X154289955Y-98018239D01*
X154269318Y-98174998D01*
X154269318Y-98175001D01*
X154289955Y-98331760D01*
X154289956Y-98331762D01*
X154350464Y-98477842D01*
X154443358Y-98598903D01*
X154468552Y-98664072D01*
X154454514Y-98732517D01*
X154405700Y-98782506D01*
X154401277Y-98784874D01*
X154290086Y-98841528D01*
X154117601Y-98966847D01*
X153966847Y-99117601D01*
X153841528Y-99290086D01*
X153744736Y-99480052D01*
X153744734Y-99480055D01*
X153678853Y-99682816D01*
X153678853Y-99682819D01*
X153645500Y-99893399D01*
X144740074Y-99893399D01*
X144731762Y-99889956D01*
X144731760Y-99889955D01*
X144575001Y-99869318D01*
X144574999Y-99869318D01*
X144418239Y-99889955D01*
X144418237Y-99889956D01*
X144272160Y-99950463D01*
X144146718Y-100046718D01*
X144050463Y-100172160D01*
X143989956Y-100318237D01*
X143989955Y-100318239D01*
X143969318Y-100474998D01*
X143969318Y-100475001D01*
X143989955Y-100631760D01*
X143989956Y-100631762D01*
X144000310Y-100656760D01*
X144050464Y-100777841D01*
X144146718Y-100903282D01*
X144272159Y-100999536D01*
X144418238Y-101060044D01*
X144466685Y-101066422D01*
X144530580Y-101094686D01*
X144569052Y-101153010D01*
X144574500Y-101189360D01*
X144574500Y-101575500D01*
X144554815Y-101642539D01*
X144502011Y-101688294D01*
X144450500Y-101699500D01*
X141899500Y-101699500D01*
X141832461Y-101679815D01*
X141786706Y-101627011D01*
X141775500Y-101575500D01*
X141775500Y-101000323D01*
X141775499Y-101000321D01*
X141760967Y-100927264D01*
X141760966Y-100927260D01*
X141705601Y-100844399D01*
X141622740Y-100789034D01*
X141622739Y-100789033D01*
X141622735Y-100789032D01*
X141549677Y-100774500D01*
X141549674Y-100774500D01*
X140639426Y-100774500D01*
X140572387Y-100754815D01*
X140526632Y-100702011D01*
X140524864Y-100697950D01*
X140524537Y-100697161D01*
X140524535Y-100697158D01*
X140428283Y-100571719D01*
X140428282Y-100571718D01*
X140302841Y-100475464D01*
X140301723Y-100475001D01*
X140156762Y-100414956D01*
X140156760Y-100414955D01*
X140000001Y-100394318D01*
X139999999Y-100394318D01*
X139843239Y-100414955D01*
X139843237Y-100414956D01*
X139697160Y-100475463D01*
X139571718Y-100571718D01*
X139475463Y-100697160D01*
X139414956Y-100843237D01*
X139414955Y-100843239D01*
X139394318Y-100999998D01*
X139394318Y-101000001D01*
X139414955Y-101156760D01*
X139414956Y-101156762D01*
X139455756Y-101255263D01*
X139475464Y-101302841D01*
X139548877Y-101398515D01*
X139574070Y-101463681D01*
X139574500Y-101473999D01*
X139574500Y-101575500D01*
X139554815Y-101642539D01*
X139502011Y-101688294D01*
X139450500Y-101699500D01*
X135440116Y-101699500D01*
X135373077Y-101679815D01*
X135327322Y-101627011D01*
X135317378Y-101557853D01*
X135346403Y-101494297D01*
X135364625Y-101477126D01*
X135428282Y-101428282D01*
X135524536Y-101302841D01*
X135585044Y-101156762D01*
X135601317Y-101033154D01*
X135605682Y-101000001D01*
X135605682Y-100999998D01*
X135585044Y-100843239D01*
X135585044Y-100843238D01*
X135524536Y-100697159D01*
X135428282Y-100571718D01*
X135302841Y-100475464D01*
X135301723Y-100475001D01*
X135156762Y-100414956D01*
X135156760Y-100414955D01*
X135000001Y-100394318D01*
X134999999Y-100394318D01*
X134843239Y-100414955D01*
X134843237Y-100414956D01*
X134697160Y-100475463D01*
X134571718Y-100571718D01*
X134475463Y-100697160D01*
X134414956Y-100843237D01*
X134414955Y-100843239D01*
X134394318Y-100999998D01*
X134394318Y-101000001D01*
X134414955Y-101156760D01*
X134414956Y-101156762D01*
X134455756Y-101255263D01*
X134475464Y-101302841D01*
X134571718Y-101428282D01*
X134635371Y-101477125D01*
X134676573Y-101533552D01*
X134680728Y-101603298D01*
X134646515Y-101664219D01*
X134584798Y-101696971D01*
X134559884Y-101699500D01*
X131440116Y-101699500D01*
X131373077Y-101679815D01*
X131327322Y-101627011D01*
X131317378Y-101557853D01*
X131346403Y-101494297D01*
X131364625Y-101477126D01*
X131428282Y-101428282D01*
X131524536Y-101302841D01*
X131585044Y-101156762D01*
X131601317Y-101033154D01*
X131605682Y-101000001D01*
X131605682Y-100999998D01*
X131585044Y-100843239D01*
X131585044Y-100843238D01*
X131524536Y-100697159D01*
X131428282Y-100571718D01*
X131302841Y-100475464D01*
X131301723Y-100475001D01*
X131156762Y-100414956D01*
X131156760Y-100414955D01*
X131000001Y-100394318D01*
X130999999Y-100394318D01*
X130843239Y-100414955D01*
X130843237Y-100414956D01*
X130697160Y-100475463D01*
X130639191Y-100519944D01*
X130571718Y-100571718D01*
X130522874Y-100635371D01*
X130466448Y-100676573D01*
X130396702Y-100680728D01*
X130335781Y-100646515D01*
X130303029Y-100584798D01*
X130300500Y-100559884D01*
X130300500Y-99713399D01*
X136445500Y-99713399D01*
X136445500Y-99926601D01*
X136449280Y-99950464D01*
X136478853Y-100137180D01*
X136478853Y-100137183D01*
X136544734Y-100339944D01*
X136544736Y-100339947D01*
X136641528Y-100529913D01*
X136766846Y-100702397D01*
X136917603Y-100853154D01*
X137090087Y-100978472D01*
X137280053Y-101075264D01*
X137280055Y-101075265D01*
X137469182Y-101136715D01*
X137482821Y-101141147D01*
X137693399Y-101174500D01*
X137693400Y-101174500D01*
X137906600Y-101174500D01*
X137906601Y-101174500D01*
X138117179Y-101141147D01*
X138117182Y-101141146D01*
X138117183Y-101141146D01*
X138319944Y-101075265D01*
X138319944Y-101075264D01*
X138319947Y-101075264D01*
X138509913Y-100978472D01*
X138682397Y-100853154D01*
X138833154Y-100702397D01*
X138958472Y-100529913D01*
X139055264Y-100339947D01*
X139101658Y-100197160D01*
X139121146Y-100137183D01*
X139121146Y-100137182D01*
X139121147Y-100137179D01*
X139154500Y-99926601D01*
X139154500Y-99713399D01*
X139121147Y-99502821D01*
X139121146Y-99502817D01*
X139121146Y-99502816D01*
X139055265Y-99300055D01*
X139055263Y-99300052D01*
X139050186Y-99290086D01*
X138958472Y-99110087D01*
X138833154Y-98937603D01*
X138682397Y-98786846D01*
X138509913Y-98661528D01*
X138319947Y-98564736D01*
X138319944Y-98564734D01*
X138117181Y-98498853D01*
X137976793Y-98476617D01*
X137906601Y-98465500D01*
X137693399Y-98465500D01*
X137623206Y-98476617D01*
X137482819Y-98498853D01*
X137482816Y-98498853D01*
X137280055Y-98564734D01*
X137280052Y-98564736D01*
X137090086Y-98661528D01*
X136917601Y-98786847D01*
X136766847Y-98937601D01*
X136641528Y-99110086D01*
X136544736Y-99300052D01*
X136544734Y-99300055D01*
X136478853Y-99502816D01*
X136478853Y-99502819D01*
X136450343Y-99682821D01*
X136445500Y-99713399D01*
X130300500Y-99713399D01*
X130300500Y-96899998D01*
X132169318Y-96899998D01*
X132169318Y-96900001D01*
X132189955Y-97056760D01*
X132189956Y-97056762D01*
X132231376Y-97156760D01*
X132250464Y-97202841D01*
X132346718Y-97328282D01*
X132472159Y-97424536D01*
X132618238Y-97485044D01*
X132653475Y-97489683D01*
X132774999Y-97505682D01*
X132775000Y-97505682D01*
X132775001Y-97505682D01*
X132827254Y-97498802D01*
X132931762Y-97485044D01*
X133077841Y-97424536D01*
X133203282Y-97328282D01*
X133299536Y-97202841D01*
X133360044Y-97056762D01*
X133380682Y-96900000D01*
X133360044Y-96743238D01*
X133299536Y-96597159D01*
X133203282Y-96471718D01*
X133077841Y-96375464D01*
X133068797Y-96371718D01*
X132931762Y-96314956D01*
X132931760Y-96314955D01*
X132775001Y-96294318D01*
X132774999Y-96294318D01*
X132618239Y-96314955D01*
X132618237Y-96314956D01*
X132472160Y-96375463D01*
X132346718Y-96471718D01*
X132250463Y-96597160D01*
X132189956Y-96743237D01*
X132189955Y-96743239D01*
X132169318Y-96899998D01*
X130300500Y-96899998D01*
X130300500Y-94049998D01*
X131769318Y-94049998D01*
X131769318Y-94050001D01*
X131789955Y-94206760D01*
X131789956Y-94206762D01*
X131839138Y-94325499D01*
X131850464Y-94352841D01*
X131946718Y-94478282D01*
X132072159Y-94574536D01*
X132218238Y-94635044D01*
X132296619Y-94645363D01*
X132374999Y-94655682D01*
X132375000Y-94655682D01*
X132375001Y-94655682D01*
X132427254Y-94648802D01*
X132531762Y-94635044D01*
X132677841Y-94574536D01*
X132803282Y-94478282D01*
X132899536Y-94352841D01*
X132960044Y-94206762D01*
X132980682Y-94050000D01*
X132974099Y-94000000D01*
X132960044Y-93893239D01*
X132960044Y-93893238D01*
X132899536Y-93747159D01*
X132803282Y-93621718D01*
X132677841Y-93525464D01*
X132531762Y-93464956D01*
X132531760Y-93464955D01*
X132375001Y-93444318D01*
X132374999Y-93444318D01*
X132218239Y-93464955D01*
X132218237Y-93464956D01*
X132072160Y-93525463D01*
X131946718Y-93621718D01*
X131850463Y-93747160D01*
X131789956Y-93893237D01*
X131789955Y-93893239D01*
X131769318Y-94049998D01*
X130300500Y-94049998D01*
X130300500Y-86049998D01*
X132864318Y-86049998D01*
X132864318Y-86050001D01*
X132884955Y-86206760D01*
X132884956Y-86206762D01*
X132943575Y-86348282D01*
X132945464Y-86352841D01*
X133041718Y-86478282D01*
X133167159Y-86574536D01*
X133313238Y-86635044D01*
X133391619Y-86645363D01*
X133469999Y-86655682D01*
X133470000Y-86655682D01*
X133470001Y-86655682D01*
X133530683Y-86647693D01*
X133626762Y-86635044D01*
X133772841Y-86574536D01*
X133898282Y-86478282D01*
X133994536Y-86352841D01*
X134055044Y-86206762D01*
X134075682Y-86050000D01*
X134055044Y-85893238D01*
X133994536Y-85747159D01*
X133898282Y-85621718D01*
X133772841Y-85525464D01*
X133626762Y-85464956D01*
X133626760Y-85464955D01*
X133470001Y-85444318D01*
X133469999Y-85444318D01*
X133313239Y-85464955D01*
X133313237Y-85464956D01*
X133167160Y-85525463D01*
X133041718Y-85621718D01*
X132945463Y-85747160D01*
X132884956Y-85893237D01*
X132884955Y-85893239D01*
X132864318Y-86049998D01*
X130300500Y-86049998D01*
X130300500Y-83974998D01*
X131294318Y-83974998D01*
X131294318Y-83975001D01*
X131314955Y-84131760D01*
X131314956Y-84131762D01*
X131325310Y-84156760D01*
X131375464Y-84277841D01*
X131471718Y-84403282D01*
X131597159Y-84499536D01*
X131743238Y-84560044D01*
X131821619Y-84570363D01*
X131899999Y-84580682D01*
X131900000Y-84580682D01*
X131900001Y-84580682D01*
X131952254Y-84573802D01*
X132056762Y-84560044D01*
X132202841Y-84499536D01*
X132328282Y-84403282D01*
X132424536Y-84277841D01*
X132485044Y-84131762D01*
X132505682Y-83975000D01*
X132502764Y-83952839D01*
X132485044Y-83818239D01*
X132485044Y-83818238D01*
X132424536Y-83672159D01*
X132328282Y-83546718D01*
X132202841Y-83450464D01*
X132056762Y-83389956D01*
X132056760Y-83389955D01*
X131900001Y-83369318D01*
X131899999Y-83369318D01*
X131743239Y-83389955D01*
X131743237Y-83389956D01*
X131597160Y-83450463D01*
X131471718Y-83546718D01*
X131375463Y-83672160D01*
X131314956Y-83818237D01*
X131314955Y-83818239D01*
X131294318Y-83974998D01*
X130300500Y-83974998D01*
X130300500Y-79985146D01*
X130660200Y-79985146D01*
X130660200Y-80132853D01*
X130689012Y-80277701D01*
X130689014Y-80277709D01*
X130745534Y-80414160D01*
X130745539Y-80414170D01*
X130827591Y-80536969D01*
X130827594Y-80536973D01*
X130932026Y-80641405D01*
X130932030Y-80641408D01*
X131054829Y-80723460D01*
X131054833Y-80723462D01*
X131054836Y-80723464D01*
X131191291Y-80779986D01*
X131336146Y-80808799D01*
X131336150Y-80808800D01*
X131378740Y-80808800D01*
X131445779Y-80828485D01*
X131491534Y-80881289D01*
X131501477Y-80950445D01*
X131494587Y-80998371D01*
X131494353Y-81000000D01*
X131514834Y-81142455D01*
X131525445Y-81165689D01*
X131535388Y-81234848D01*
X131506362Y-81298404D01*
X131447584Y-81336177D01*
X131412650Y-81341200D01*
X131336146Y-81341200D01*
X131191298Y-81370012D01*
X131191290Y-81370014D01*
X131054839Y-81426534D01*
X131054829Y-81426539D01*
X130932030Y-81508591D01*
X130932026Y-81508594D01*
X130827594Y-81613026D01*
X130827591Y-81613030D01*
X130745539Y-81735829D01*
X130745534Y-81735839D01*
X130689014Y-81872290D01*
X130689012Y-81872298D01*
X130660200Y-82017146D01*
X130660200Y-82164853D01*
X130689012Y-82309701D01*
X130689014Y-82309709D01*
X130745534Y-82446160D01*
X130745539Y-82446170D01*
X130827591Y-82568969D01*
X130827594Y-82568973D01*
X130932026Y-82673405D01*
X130932030Y-82673408D01*
X131054829Y-82755460D01*
X131054833Y-82755462D01*
X131054836Y-82755464D01*
X131191291Y-82811986D01*
X131336146Y-82840799D01*
X131336150Y-82840800D01*
X131336151Y-82840800D01*
X131483850Y-82840800D01*
X131483851Y-82840799D01*
X131628709Y-82811986D01*
X131765164Y-82755464D01*
X131887970Y-82673408D01*
X131992408Y-82568970D01*
X132074464Y-82446164D01*
X132130986Y-82309709D01*
X132159800Y-82164849D01*
X132159800Y-82017151D01*
X132130986Y-81872291D01*
X132074464Y-81735836D01*
X132074462Y-81735833D01*
X132074460Y-81735829D01*
X132036358Y-81678806D01*
X132015480Y-81612129D01*
X132033964Y-81544749D01*
X132085943Y-81498058D01*
X132104524Y-81490938D01*
X132210053Y-81459953D01*
X132331128Y-81382143D01*
X132425377Y-81273373D01*
X132485165Y-81142457D01*
X132505647Y-81000000D01*
X132485165Y-80857543D01*
X132425377Y-80726627D01*
X132331128Y-80617857D01*
X132210053Y-80540047D01*
X132210051Y-80540046D01*
X132210049Y-80540045D01*
X132210050Y-80540045D01*
X132175133Y-80529793D01*
X132116354Y-80492019D01*
X132087329Y-80428464D01*
X132095505Y-80363365D01*
X132130986Y-80277709D01*
X132159800Y-80132849D01*
X132159800Y-79985151D01*
X132130986Y-79840291D01*
X132093586Y-79750000D01*
X132744353Y-79750000D01*
X132764834Y-79892456D01*
X132805369Y-79981214D01*
X132824623Y-80023373D01*
X132918872Y-80132143D01*
X133039947Y-80209953D01*
X133039950Y-80209954D01*
X133039949Y-80209954D01*
X133178036Y-80250499D01*
X133178038Y-80250500D01*
X133178039Y-80250500D01*
X133321962Y-80250500D01*
X133321962Y-80250499D01*
X133429121Y-80219035D01*
X133460050Y-80209954D01*
X133460050Y-80209953D01*
X133460053Y-80209953D01*
X133581128Y-80132143D01*
X133675377Y-80023373D01*
X133735165Y-79892457D01*
X133755647Y-79750000D01*
X133735165Y-79607543D01*
X133675377Y-79476627D01*
X133581128Y-79367857D01*
X133460053Y-79290047D01*
X133460051Y-79290046D01*
X133460049Y-79290045D01*
X133460050Y-79290045D01*
X133321963Y-79249500D01*
X133321961Y-79249500D01*
X133178039Y-79249500D01*
X133178036Y-79249500D01*
X133039949Y-79290045D01*
X132918873Y-79367856D01*
X132824623Y-79476626D01*
X132824622Y-79476628D01*
X132764834Y-79607543D01*
X132744353Y-79750000D01*
X132093586Y-79750000D01*
X132074464Y-79703836D01*
X132074462Y-79703833D01*
X132074460Y-79703829D01*
X131992408Y-79581030D01*
X131992405Y-79581026D01*
X131887973Y-79476594D01*
X131887969Y-79476591D01*
X131765170Y-79394539D01*
X131765160Y-79394534D01*
X131628709Y-79338014D01*
X131628701Y-79338012D01*
X131483853Y-79309200D01*
X131483849Y-79309200D01*
X131336151Y-79309200D01*
X131336146Y-79309200D01*
X131191298Y-79338012D01*
X131191290Y-79338014D01*
X131054839Y-79394534D01*
X131054829Y-79394539D01*
X130932030Y-79476591D01*
X130932026Y-79476594D01*
X130827594Y-79581026D01*
X130827591Y-79581030D01*
X130745539Y-79703829D01*
X130745534Y-79703839D01*
X130689014Y-79840290D01*
X130689012Y-79840298D01*
X130660200Y-79985146D01*
X130300500Y-79985146D01*
X130300500Y-77424500D01*
X130320185Y-77357461D01*
X130372989Y-77311706D01*
X130424500Y-77300500D01*
X135875500Y-77300500D01*
X135942539Y-77320185D01*
G37*
%TD.AperFunction*%
%TA.AperFunction,Conductor*%
G36*
X138442539Y-77320185D02*
G01*
X138488294Y-77372989D01*
X138499500Y-77424500D01*
X138499500Y-77999678D01*
X138514032Y-78072735D01*
X138514033Y-78072739D01*
X138514034Y-78072740D01*
X138569399Y-78155601D01*
X138620246Y-78189575D01*
X138665051Y-78243186D01*
X138673758Y-78312511D01*
X138643604Y-78375539D01*
X138626842Y-78391052D01*
X138521720Y-78471715D01*
X138425463Y-78597160D01*
X138364956Y-78743237D01*
X138364955Y-78743239D01*
X138344318Y-78899998D01*
X138344318Y-78900001D01*
X138364955Y-79056760D01*
X138364956Y-79056762D01*
X138407482Y-79159430D01*
X138425464Y-79202841D01*
X138521718Y-79328282D01*
X138647159Y-79424536D01*
X138793238Y-79485044D01*
X138828475Y-79489683D01*
X138949999Y-79505682D01*
X138950000Y-79505682D01*
X138950001Y-79505682D01*
X139002254Y-79498802D01*
X139106762Y-79485044D01*
X139252841Y-79424536D01*
X139252845Y-79424532D01*
X139259881Y-79420472D01*
X139261023Y-79422451D01*
X139315172Y-79401512D01*
X139383618Y-79415544D01*
X139433612Y-79464354D01*
X139449500Y-79525081D01*
X139449500Y-79569458D01*
X139429815Y-79636497D01*
X139413181Y-79657139D01*
X138237181Y-80833139D01*
X138175858Y-80866624D01*
X138106166Y-80861640D01*
X138050233Y-80819768D01*
X138025816Y-80754304D01*
X138025500Y-80745458D01*
X138025500Y-80503858D01*
X138025500Y-80503856D01*
X138001614Y-80414712D01*
X137994761Y-80402842D01*
X137994760Y-80402840D01*
X137994758Y-80402838D01*
X137971967Y-80363362D01*
X137955470Y-80334788D01*
X137667212Y-80046530D01*
X137667211Y-80046529D01*
X137667208Y-80046527D01*
X137587288Y-80000386D01*
X137585840Y-79999998D01*
X137579079Y-79998186D01*
X137579078Y-79998186D01*
X137530411Y-79985146D01*
X137498144Y-79976500D01*
X137498143Y-79976500D01*
X137336832Y-79976500D01*
X137269793Y-79956815D01*
X137249151Y-79940181D01*
X137159819Y-79850849D01*
X137126334Y-79789526D01*
X137123500Y-79763168D01*
X137123500Y-79636832D01*
X137143185Y-79569793D01*
X137159819Y-79549151D01*
X137269015Y-79439955D01*
X137380470Y-79328500D01*
X137426614Y-79248576D01*
X137450500Y-79159432D01*
X137450500Y-79067144D01*
X137450500Y-78349500D01*
X137470185Y-78282461D01*
X137522989Y-78236706D01*
X137574500Y-78225500D01*
X137974676Y-78225500D01*
X137974677Y-78225499D01*
X138047740Y-78210966D01*
X138130601Y-78155601D01*
X138185966Y-78072740D01*
X138200500Y-77999674D01*
X138200500Y-77424500D01*
X138220185Y-77357461D01*
X138272989Y-77311706D01*
X138324500Y-77300500D01*
X138375500Y-77300500D01*
X138442539Y-77320185D01*
G37*
%TD.AperFunction*%
%TD*%
M02*
